%TF.GenerationSoftware,KiCad,Pcbnew,(5.1.9)-1*%
%TF.CreationDate,2021-06-29T00:03:31+02:00*%
%TF.ProjectId,mPCIE_to_CAN,6d504349-455f-4746-9f5f-43414e2e6b69,rev?*%
%TF.SameCoordinates,Original*%
%TF.FileFunction,Copper,L1,Top*%
%TF.FilePolarity,Positive*%
%FSLAX46Y46*%
G04 Gerber Fmt 4.6, Leading zero omitted, Abs format (unit mm)*
G04 Created by KiCad (PCBNEW (5.1.9)-1) date 2021-06-29 00:03:31*
%MOMM*%
%LPD*%
G01*
G04 APERTURE LIST*
%TA.AperFunction,ComponentPad*%
%ADD10C,1.700000*%
%TD*%
%TA.AperFunction,ComponentPad*%
%ADD11R,5.800000X5.800000*%
%TD*%
%TA.AperFunction,ComponentPad*%
%ADD12C,1.750000*%
%TD*%
%TA.AperFunction,ComponentPad*%
%ADD13O,3.962400X1.981200*%
%TD*%
%TA.AperFunction,ComponentPad*%
%ADD14O,1.727200X1.700000*%
%TD*%
%TA.AperFunction,ComponentPad*%
%ADD15R,1.727200X1.700000*%
%TD*%
%TA.AperFunction,ComponentPad*%
%ADD16C,1.501140*%
%TD*%
%TA.AperFunction,SMDPad,CuDef*%
%ADD17R,0.600000X2.300000*%
%TD*%
%TA.AperFunction,ViaPad*%
%ADD18C,0.800000*%
%TD*%
%TA.AperFunction,Conductor*%
%ADD19C,0.250000*%
%TD*%
%TA.AperFunction,Conductor*%
%ADD20C,0.500000*%
%TD*%
%TA.AperFunction,Conductor*%
%ADD21C,0.400000*%
%TD*%
%TA.AperFunction,Conductor*%
%ADD22C,0.254000*%
%TD*%
%TA.AperFunction,Conductor*%
%ADD23C,0.100000*%
%TD*%
G04 APERTURE END LIST*
D10*
%TO.P,J3,1*%
%TO.N,N/C*%
X214626200Y-59484400D03*
%TO.P,J3,3*%
%TO.N,Net-(J3-Pad3)*%
X217166200Y-59484400D03*
%TO.P,J3,5*%
%TO.N,GND*%
X219706200Y-59484400D03*
%TO.P,J3,7*%
%TO.N,N/C*%
X222246200Y-59484400D03*
%TO.P,J3,9*%
X224786200Y-59484400D03*
%TO.P,J3,4*%
%TO.N,Net-(J3-Pad4)*%
X217166200Y-56944400D03*
%TO.P,J3,10*%
%TO.N,N/C*%
X224786200Y-56944400D03*
%TO.P,J3,6*%
X219706200Y-56944400D03*
%TO.P,J3,8*%
X222246200Y-56944400D03*
%TO.P,J3,2*%
X214626200Y-56944400D03*
%TD*%
D11*
%TO.P,REF\u002A\u002A,*%
%TO.N,GND*%
X209206240Y-35843600D03*
%TD*%
D12*
%TO.P,U1,5*%
%TO.N,GND*%
X210888360Y-77040880D03*
D13*
%TO.P,U1,1*%
%TO.N,Net-(J3-Pad3)*%
X210761360Y-68738880D03*
%TO.P,U1,2*%
%TO.N,Net-(J3-Pad4)*%
X210761360Y-73738880D03*
D14*
%TO.P,U1,4*%
%TO.N,N/C*%
X216349360Y-65102880D03*
%TO.P,U1,3*%
X218889360Y-65102880D03*
%TO.P,U1,5*%
%TO.N,GND*%
X221429360Y-65102880D03*
D15*
%TO.P,U1,8*%
%TO.N,Net-(R3-Pad1)*%
X223969360Y-65102880D03*
D16*
%TO.P,U1,6*%
%TO.N,Net-(R2-Pad1)*%
X230063240Y-72087020D03*
%TO.P,U1,5*%
%TO.N,GND*%
X230063240Y-74627020D03*
%TO.P,U1,7*%
%TO.N,Net-(R1-Pad1)*%
X230063240Y-70055020D03*
%TO.P,U1,8*%
%TO.N,Net-(R3-Pad1)*%
X230063240Y-67515020D03*
%TD*%
D11*
%TO.P,REF\u002A\u002A,*%
%TO.N,GND*%
X233371400Y-35843600D03*
%TD*%
D17*
%TO.P,J1,13*%
%TO.N,N/C*%
X214309000Y-82493800D03*
%TO.P,J1,15*%
%TO.N,GND*%
X215109000Y-82493800D03*
%TO.P,J1,11*%
%TO.N,N/C*%
X213509000Y-82493800D03*
%TO.P,J1,9*%
%TO.N,GND*%
X212709000Y-82493800D03*
%TO.P,J1,7*%
%TO.N,N/C*%
X211909000Y-82496800D03*
%TO.P,J1,5*%
X211109000Y-82493800D03*
%TO.P,J1,3*%
X210309000Y-82493800D03*
%TO.P,J1,1*%
X209509000Y-82493800D03*
%TO.P,J1,17*%
X219109000Y-82493800D03*
%TO.P,J1,19*%
X219909000Y-82493800D03*
%TO.P,J1,21*%
%TO.N,GND*%
X220709000Y-82493800D03*
%TO.P,J1,23*%
%TO.N,N/C*%
X221509000Y-82493800D03*
%TO.P,J1,25*%
X222309000Y-82493800D03*
%TO.P,J1,27*%
%TO.N,GND*%
X223109000Y-82493800D03*
%TO.P,J1,29*%
X223909000Y-82493800D03*
%TO.P,J1,31*%
%TO.N,N/C*%
X224709000Y-82493800D03*
%TO.P,J1,33*%
X225509000Y-82493800D03*
%TO.P,J1,35*%
%TO.N,GND*%
X226309000Y-82493800D03*
%TO.P,J1,37*%
X227109000Y-82493800D03*
%TO.P,J1,39*%
%TO.N,+3V3*%
X227909000Y-82493800D03*
%TO.P,J1,41*%
X228709000Y-82493800D03*
%TO.P,J1,43*%
%TO.N,GND*%
X229509000Y-82493800D03*
%TO.P,J1,45*%
%TO.N,N/C*%
X230309000Y-82493800D03*
%TO.P,J1,47*%
X231109000Y-82493800D03*
%TO.P,J1,49*%
X231909000Y-82493800D03*
%TO.P,J1,51*%
X232711000Y-82493800D03*
D11*
%TO.P,J1,53*%
%TO.N,GND*%
X233371400Y-60043200D03*
%TD*%
%TO.P,REF\u002A\u002A,*%
%TO.N,GND*%
X174107240Y-35846000D03*
%TD*%
%TO.P,REF\u002A\u002A,*%
%TO.N,GND*%
X198272400Y-35846000D03*
%TD*%
D10*
%TO.P,J3,2*%
%TO.N,N/C*%
X179527200Y-56946800D03*
%TO.P,J3,8*%
X187147200Y-56946800D03*
%TO.P,J3,6*%
X184607200Y-56946800D03*
%TO.P,J3,10*%
X189687200Y-56946800D03*
%TO.P,J3,4*%
%TO.N,Net-(J3-Pad4)*%
X182067200Y-56946800D03*
%TO.P,J3,9*%
%TO.N,N/C*%
X189687200Y-59486800D03*
%TO.P,J3,7*%
X187147200Y-59486800D03*
%TO.P,J3,5*%
%TO.N,GND*%
X184607200Y-59486800D03*
%TO.P,J3,3*%
%TO.N,Net-(J3-Pad3)*%
X182067200Y-59486800D03*
%TO.P,J3,1*%
%TO.N,N/C*%
X179527200Y-59486800D03*
%TD*%
D16*
%TO.P,U1,8*%
%TO.N,Net-(R3-Pad1)*%
X194964240Y-67517420D03*
%TO.P,U1,7*%
%TO.N,Net-(R1-Pad1)*%
X194964240Y-70057420D03*
%TO.P,U1,5*%
%TO.N,GND*%
X194964240Y-74629420D03*
%TO.P,U1,6*%
%TO.N,Net-(R2-Pad1)*%
X194964240Y-72089420D03*
D15*
%TO.P,U1,8*%
%TO.N,Net-(R3-Pad1)*%
X188870360Y-65105280D03*
D14*
%TO.P,U1,5*%
%TO.N,GND*%
X186330360Y-65105280D03*
%TO.P,U1,3*%
%TO.N,N/C*%
X183790360Y-65105280D03*
%TO.P,U1,4*%
X181250360Y-65105280D03*
D13*
%TO.P,U1,2*%
%TO.N,Net-(J3-Pad4)*%
X175662360Y-73741280D03*
%TO.P,U1,1*%
%TO.N,Net-(J3-Pad3)*%
X175662360Y-68741280D03*
D12*
%TO.P,U1,5*%
%TO.N,GND*%
X175789360Y-77043280D03*
%TD*%
D11*
%TO.P,J1,53*%
%TO.N,GND*%
X198272400Y-60045600D03*
D17*
%TO.P,J1,51*%
%TO.N,N/C*%
X197612000Y-82496200D03*
%TO.P,J1,49*%
X196810000Y-82496200D03*
%TO.P,J1,47*%
X196010000Y-82496200D03*
%TO.P,J1,45*%
X195210000Y-82496200D03*
%TO.P,J1,43*%
%TO.N,GND*%
X194410000Y-82496200D03*
%TO.P,J1,41*%
%TO.N,+3V3*%
X193610000Y-82496200D03*
%TO.P,J1,39*%
X192810000Y-82496200D03*
%TO.P,J1,37*%
%TO.N,GND*%
X192010000Y-82496200D03*
%TO.P,J1,35*%
X191210000Y-82496200D03*
%TO.P,J1,33*%
%TO.N,N/C*%
X190410000Y-82496200D03*
%TO.P,J1,31*%
X189610000Y-82496200D03*
%TO.P,J1,29*%
%TO.N,GND*%
X188810000Y-82496200D03*
%TO.P,J1,27*%
X188010000Y-82496200D03*
%TO.P,J1,25*%
%TO.N,N/C*%
X187210000Y-82496200D03*
%TO.P,J1,23*%
X186410000Y-82496200D03*
%TO.P,J1,21*%
%TO.N,GND*%
X185610000Y-82496200D03*
%TO.P,J1,19*%
%TO.N,N/C*%
X184810000Y-82496200D03*
%TO.P,J1,17*%
X184010000Y-82496200D03*
%TO.P,J1,1*%
X174410000Y-82496200D03*
%TO.P,J1,3*%
X175210000Y-82496200D03*
%TO.P,J1,5*%
X176010000Y-82496200D03*
%TO.P,J1,7*%
X176810000Y-82499200D03*
%TO.P,J1,9*%
%TO.N,GND*%
X177610000Y-82496200D03*
%TO.P,J1,11*%
%TO.N,N/C*%
X178410000Y-82496200D03*
%TO.P,J1,15*%
%TO.N,GND*%
X180010000Y-82496200D03*
%TO.P,J1,13*%
%TO.N,N/C*%
X179210000Y-82496200D03*
%TD*%
D18*
%TO.N,GND*%
X180047700Y-77711500D03*
X184352700Y-77318100D03*
X188189100Y-78180700D03*
X189865500Y-78180700D03*
X194911518Y-78519482D03*
X172491400Y-55194200D03*
X172542200Y-57505600D03*
X172516800Y-59613800D03*
X175107600Y-59791600D03*
X175133000Y-57404000D03*
X175031400Y-55143400D03*
X177723800Y-55092600D03*
X180390800Y-55067200D03*
X183769000Y-55168800D03*
X186410600Y-55016400D03*
X189382400Y-55067200D03*
X191820800Y-55092600D03*
X191897000Y-59791600D03*
X191719200Y-61239400D03*
X188468000Y-61087000D03*
X193776600Y-55092600D03*
X197840600Y-55016400D03*
X200152000Y-55041800D03*
X194513200Y-65252600D03*
X196799200Y-65252600D03*
X199110600Y-65252600D03*
X196773800Y-67487800D03*
X199136000Y-67462400D03*
X196773800Y-70053200D03*
X199136000Y-70053200D03*
X196773800Y-72034400D03*
X199136000Y-72059800D03*
X196799200Y-74574400D03*
X199110600Y-74574400D03*
X197967600Y-76606400D03*
X191439800Y-66395600D03*
X193116200Y-68783200D03*
X192633600Y-71069200D03*
X192532000Y-74193400D03*
X190500000Y-73990200D03*
X188442600Y-67564000D03*
X185343800Y-68656200D03*
X185369200Y-71856600D03*
X186055000Y-74041000D03*
X187045600Y-75082400D03*
X183007000Y-75844400D03*
X180187600Y-73685400D03*
X182422800Y-67132200D03*
X181076600Y-68605400D03*
X178181000Y-71018400D03*
X175514000Y-70967600D03*
X178003200Y-66141600D03*
X174929800Y-66421000D03*
X175539400Y-61874400D03*
X175387000Y-64516000D03*
X173101000Y-63017400D03*
X172593000Y-67564000D03*
X172567600Y-70281800D03*
X172491400Y-73609200D03*
X172440600Y-77571600D03*
X193725800Y-57404000D03*
X193827400Y-59817000D03*
X193802000Y-61899800D03*
X191795400Y-57404000D03*
X179070000Y-35560000D03*
X181610000Y-35560000D03*
X184150000Y-35560000D03*
X186690000Y-35560000D03*
X189230000Y-35560000D03*
X191770000Y-35560000D03*
X191770000Y-38100000D03*
X191770000Y-40640000D03*
X191770000Y-43180000D03*
X191770000Y-45720000D03*
X191770000Y-48260000D03*
X189230000Y-48260000D03*
X189230000Y-45720000D03*
X189230000Y-43180000D03*
X189230000Y-40640000D03*
X189230000Y-38100000D03*
X186690000Y-38100000D03*
X186690000Y-40640000D03*
X186690000Y-43180000D03*
X186690000Y-45720000D03*
X186690000Y-48260000D03*
X184150000Y-48260000D03*
X184150000Y-45720000D03*
X184150000Y-43180000D03*
X184150000Y-40640000D03*
X184150000Y-38100000D03*
X181610000Y-38100000D03*
X181610000Y-40640000D03*
X181610000Y-43180000D03*
X181610000Y-45720000D03*
X181610000Y-48260000D03*
X179070000Y-50800000D03*
X179070000Y-48260000D03*
X179070000Y-45720000D03*
X179070000Y-43180000D03*
X179070000Y-40640000D03*
X179070000Y-38100000D03*
X194310000Y-38100000D03*
X194310000Y-35560000D03*
X194310000Y-40640000D03*
X194310000Y-43180000D03*
X194310000Y-45720000D03*
X194310000Y-48260000D03*
X194310000Y-50800000D03*
X196850000Y-50800000D03*
X196850000Y-48260000D03*
X196850000Y-45720000D03*
X196850000Y-43180000D03*
X196850000Y-40640000D03*
X199390000Y-40640000D03*
X199390000Y-43180000D03*
X199390000Y-45720000D03*
X199390000Y-48260000D03*
X176530000Y-50800000D03*
X176530000Y-48260000D03*
X176530000Y-45720000D03*
X176530000Y-43180000D03*
X176530000Y-40640000D03*
X173990000Y-40640000D03*
X173990000Y-43180000D03*
X173990000Y-45720000D03*
X173990000Y-48260000D03*
X210232000Y-57401600D03*
X233066600Y-76604000D03*
X227732600Y-71066800D03*
X226996000Y-59789200D03*
X230010518Y-78517082D03*
X221509600Y-55014000D03*
X235251000Y-55039400D03*
X231872800Y-70050800D03*
X234235000Y-70050800D03*
X231898200Y-74572000D03*
X207641200Y-57503200D03*
X227631000Y-74191000D03*
X217521800Y-67129800D03*
X207615800Y-59611400D03*
X212822800Y-55090200D03*
X232939600Y-55014000D03*
X234235000Y-72057400D03*
X228215200Y-68780800D03*
X215489800Y-55064800D03*
X234235000Y-67460000D03*
X223567000Y-61084600D03*
X225599000Y-73987800D03*
X223541600Y-67561600D03*
X220468200Y-71854200D03*
X222144600Y-75080000D03*
X210206600Y-59789200D03*
X234209600Y-74572000D03*
X215286600Y-73683000D03*
X210613000Y-70965200D03*
X224481400Y-55064800D03*
X224964500Y-78178300D03*
X226818200Y-61237000D03*
X207590400Y-55191800D03*
X231898200Y-65250200D03*
X213102200Y-66139200D03*
X229612200Y-65250200D03*
X216175600Y-68603000D03*
X219451700Y-77315700D03*
X228875600Y-55090200D03*
X223288100Y-78178300D03*
X234209600Y-65250200D03*
X218868000Y-55166400D03*
X231872800Y-67485400D03*
X218106000Y-75842000D03*
X215146700Y-77709100D03*
X226919800Y-55090200D03*
X213280000Y-71016000D03*
X221154000Y-74038600D03*
X210028800Y-66418600D03*
X231872800Y-72032000D03*
X220442800Y-68653800D03*
X210130400Y-55141000D03*
X226538800Y-66393200D03*
X210638400Y-61872000D03*
X228824800Y-57401600D03*
X228926400Y-59814600D03*
X228901000Y-61897400D03*
X207666600Y-70279400D03*
X207692000Y-67561600D03*
X207590400Y-73606800D03*
X207539600Y-77569200D03*
X226894400Y-57401600D03*
X208200000Y-63015000D03*
X210486000Y-64513600D03*
X224329000Y-45717600D03*
X226869000Y-43177600D03*
X219249000Y-35557600D03*
X221789000Y-38097600D03*
X224329000Y-35557600D03*
X226869000Y-38097600D03*
X226869000Y-48257600D03*
X224329000Y-40637600D03*
X224329000Y-43177600D03*
X221789000Y-35557600D03*
X224329000Y-48257600D03*
X224329000Y-38097600D03*
X216709000Y-35557600D03*
X214169000Y-35557600D03*
X226869000Y-35557600D03*
X226869000Y-45717600D03*
X226869000Y-40637600D03*
X221789000Y-40637600D03*
X214169000Y-38097600D03*
X229409000Y-38097600D03*
X231949000Y-48257600D03*
X216709000Y-45717600D03*
X231949000Y-40637600D03*
X229409000Y-40637600D03*
X219249000Y-40637600D03*
X214169000Y-50797600D03*
X214169000Y-45717600D03*
X221789000Y-48257600D03*
X216709000Y-40637600D03*
X214169000Y-40637600D03*
X229409000Y-35557600D03*
X219249000Y-48257600D03*
X219249000Y-43177600D03*
X219249000Y-38097600D03*
X216709000Y-38097600D03*
X216709000Y-48257600D03*
X221789000Y-43177600D03*
X216709000Y-43177600D03*
X214169000Y-48257600D03*
X221789000Y-45717600D03*
X229409000Y-45717600D03*
X229409000Y-48257600D03*
X219249000Y-45717600D03*
X214169000Y-43177600D03*
X231949000Y-50797600D03*
X231949000Y-43177600D03*
X231949000Y-45717600D03*
X234489000Y-40637600D03*
X234489000Y-43177600D03*
X229409000Y-50797600D03*
X229409000Y-43177600D03*
X234489000Y-45717600D03*
X234489000Y-48257600D03*
X211629000Y-43177600D03*
X209089000Y-43177600D03*
X211629000Y-45717600D03*
X211629000Y-50797600D03*
X211629000Y-40637600D03*
X211629000Y-48257600D03*
X209089000Y-45717600D03*
X209089000Y-40637600D03*
X209089000Y-48257600D03*
%TO.N,+3V3*%
X183769000Y-73787000D03*
X184505600Y-74523600D03*
X195605400Y-76631800D03*
X230704400Y-76629400D03*
X218868000Y-73784600D03*
X219604600Y-74521200D03*
%TD*%
D19*
%TO.N,GND*%
X192709800Y-50723800D02*
X192709800Y-53390800D01*
D20*
X185610000Y-82496200D02*
X185610000Y-78180700D01*
X185610000Y-78180700D02*
X184747400Y-77318100D01*
X187590600Y-78180700D02*
X185610000Y-78180700D01*
X188340500Y-78180700D02*
X188189100Y-78180700D01*
X191210000Y-82496200D02*
X191210000Y-78713400D01*
X191210000Y-78713400D02*
X190677300Y-78180700D01*
X192010000Y-82496200D02*
X192010000Y-78713300D01*
X192010000Y-78713300D02*
X192009900Y-78713400D01*
X194410000Y-79983000D02*
X194410000Y-82496200D01*
X177686500Y-77711500D02*
X177610000Y-77788000D01*
X177610000Y-77788000D02*
X177610000Y-82496200D01*
X182777900Y-77318100D02*
X184352700Y-77318100D01*
X182384500Y-77711500D02*
X182777900Y-77318100D01*
X188810000Y-78295400D02*
X188924700Y-78180700D01*
X188810000Y-82496200D02*
X188810000Y-78295400D01*
X188924700Y-78180700D02*
X187590600Y-78180700D01*
X190677300Y-78180700D02*
X189865500Y-78180700D01*
X192009900Y-78713400D02*
X191210000Y-78713400D01*
X180010000Y-82496200D02*
X180010000Y-77711500D01*
X180010000Y-77711500D02*
X180047700Y-77711500D01*
X180010000Y-77711500D02*
X177686500Y-77711500D01*
X180047700Y-77711500D02*
X182384500Y-77711500D01*
X177610000Y-77457800D02*
X177610000Y-77788000D01*
X177195480Y-77043280D02*
X177610000Y-77457800D01*
X175789360Y-77043280D02*
X177195480Y-77043280D01*
X184352700Y-77318100D02*
X184747400Y-77318100D01*
X188189100Y-78180700D02*
X187590600Y-78180700D01*
X189865500Y-78180700D02*
X188924700Y-78180700D01*
X194410000Y-79021000D02*
X194911518Y-78519482D01*
X194410000Y-79983000D02*
X194410000Y-79021000D01*
D21*
X188010000Y-78359800D02*
X188189100Y-78180700D01*
X188010000Y-82496200D02*
X188010000Y-78359800D01*
D19*
X195239801Y-53629399D02*
X193776600Y-55092600D01*
X194310000Y-50800000D02*
X195199000Y-50800000D01*
X195259799Y-53609401D02*
X193776600Y-55092600D01*
X195259799Y-50860799D02*
X195259799Y-53609401D01*
X195199000Y-50800000D02*
X195259799Y-50860799D01*
X196850000Y-50800000D02*
X196850000Y-50927000D01*
X196509801Y-51267199D02*
X196509801Y-53355401D01*
X196850000Y-50927000D02*
X196509801Y-51267199D01*
X194310000Y-50800000D02*
X194310000Y-51079400D01*
X193989799Y-51399601D02*
X193989799Y-53203001D01*
X194310000Y-51079400D02*
X193989799Y-51399601D01*
X179070000Y-50800000D02*
X179552600Y-50800000D01*
X179720401Y-50967801D02*
X179720401Y-53685601D01*
X179552600Y-50800000D02*
X179720401Y-50967801D01*
X179070000Y-50800000D02*
X178866800Y-50800000D01*
X178450401Y-51216399D02*
X178450401Y-53431601D01*
X178866800Y-50800000D02*
X178450401Y-51216399D01*
X177180401Y-51450401D02*
X177180401Y-53299199D01*
X176530000Y-50800000D02*
X177180401Y-51450401D01*
X176530000Y-50800000D02*
X176123600Y-50800000D01*
X175910401Y-51013199D02*
X175910401Y-53502399D01*
X176123600Y-50800000D02*
X175910401Y-51013199D01*
X229409000Y-50797600D02*
X230298000Y-50797600D01*
X230358799Y-53607001D02*
X228875600Y-55090200D01*
X230298000Y-50797600D02*
X230358799Y-50858399D01*
X230358799Y-50858399D02*
X230358799Y-53607001D01*
X231608801Y-51264799D02*
X231608801Y-53353001D01*
X231949000Y-50924600D02*
X231608801Y-51264799D01*
X227808800Y-50721400D02*
X227808800Y-53388400D01*
X229409000Y-50797600D02*
X229409000Y-51077000D01*
X229409000Y-51077000D02*
X229088799Y-51397201D01*
X229088799Y-51397201D02*
X229088799Y-53200601D01*
X231949000Y-50797600D02*
X231949000Y-50924600D01*
D20*
X219451700Y-77315700D02*
X219846400Y-77315700D01*
X224964500Y-78178300D02*
X224023700Y-78178300D01*
X210888360Y-77040880D02*
X212294480Y-77040880D01*
X215109000Y-82493800D02*
X215109000Y-77709100D01*
X226309000Y-78711000D02*
X225776300Y-78178300D01*
X227109000Y-82493800D02*
X227109000Y-78710900D01*
X227109000Y-78710900D02*
X227108900Y-78711000D01*
X224023700Y-78178300D02*
X222689600Y-78178300D01*
X215146700Y-77709100D02*
X217483500Y-77709100D01*
X212709000Y-77455400D02*
X212709000Y-77785600D01*
X212294480Y-77040880D02*
X212709000Y-77455400D01*
X223288100Y-78178300D02*
X222689600Y-78178300D01*
X229509000Y-79980600D02*
X229509000Y-79018600D01*
X229509000Y-79018600D02*
X230010518Y-78517082D01*
X212785500Y-77709100D02*
X212709000Y-77785600D01*
D21*
X223109000Y-78357400D02*
X223288100Y-78178300D01*
D20*
X225776300Y-78178300D02*
X224964500Y-78178300D01*
X220709000Y-82493800D02*
X220709000Y-78178300D01*
X227108900Y-78711000D02*
X226309000Y-78711000D01*
X217483500Y-77709100D02*
X217876900Y-77315700D01*
X215109000Y-77709100D02*
X212785500Y-77709100D01*
X226309000Y-82493800D02*
X226309000Y-78711000D01*
X229509000Y-79980600D02*
X229509000Y-82493800D01*
X217876900Y-77315700D02*
X219451700Y-77315700D01*
X223909000Y-82493800D02*
X223909000Y-78293000D01*
X212709000Y-77785600D02*
X212709000Y-82493800D01*
X220709000Y-78178300D02*
X219846400Y-77315700D01*
X223909000Y-78293000D02*
X224023700Y-78178300D01*
X222689600Y-78178300D02*
X220709000Y-78178300D01*
D21*
X223109000Y-82493800D02*
X223109000Y-78357400D01*
D20*
X223439500Y-78178300D02*
X223288100Y-78178300D01*
X215109000Y-77709100D02*
X215146700Y-77709100D01*
D19*
X214651600Y-50797600D02*
X214819401Y-50965401D01*
X211629000Y-50797600D02*
X212279401Y-51448001D01*
X213549401Y-51213999D02*
X213549401Y-53429201D01*
X214169000Y-50797600D02*
X214651600Y-50797600D01*
X214819401Y-50965401D02*
X214819401Y-53683201D01*
X211009401Y-51010799D02*
X211009401Y-53499999D01*
X214169000Y-50797600D02*
X213965800Y-50797600D01*
X211629000Y-50797600D02*
X211222600Y-50797600D01*
X211222600Y-50797600D02*
X211009401Y-51010799D01*
X212279401Y-51448001D02*
X212279401Y-53296799D01*
X213965800Y-50797600D02*
X213549401Y-51213999D01*
X230338801Y-53626999D02*
X228875600Y-55090200D01*
D20*
%TO.N,+3V3*%
X192810000Y-80875000D02*
X192810000Y-82496200D01*
X193167000Y-80518000D02*
X192810000Y-80875000D01*
X193610000Y-80961000D02*
X193167000Y-80518000D01*
X193610000Y-82496200D02*
X193610000Y-80961000D01*
X183769000Y-73787000D02*
X184505600Y-74523600D01*
X193167000Y-77774800D02*
X193167000Y-80518000D01*
X186512200Y-76530200D02*
X191922400Y-76530200D01*
X184505600Y-74523600D02*
X186512200Y-76530200D01*
X191922400Y-76530200D02*
X192532000Y-77139800D01*
X192532000Y-77139800D02*
X193167000Y-77774800D01*
X192532000Y-77063600D02*
X192532000Y-77139800D01*
X192963800Y-76631800D02*
X192532000Y-77063600D01*
X195605400Y-76631800D02*
X192963800Y-76631800D01*
X227909000Y-80872600D02*
X227909000Y-82493800D01*
X228709000Y-80958600D02*
X228266000Y-80515600D01*
X228266000Y-80515600D02*
X227909000Y-80872600D01*
X228709000Y-82493800D02*
X228709000Y-80958600D01*
X218868000Y-73784600D02*
X219604600Y-74521200D01*
X230704400Y-76629400D02*
X228062800Y-76629400D01*
X227631000Y-77061200D02*
X227631000Y-77137400D01*
X227631000Y-77137400D02*
X228266000Y-77772400D01*
X228266000Y-77772400D02*
X228266000Y-80515600D01*
X221611200Y-76527800D02*
X227021400Y-76527800D01*
X227021400Y-76527800D02*
X227631000Y-77137400D01*
X228062800Y-76629400D02*
X227631000Y-77061200D01*
X219604600Y-74521200D02*
X221611200Y-76527800D01*
D21*
%TO.N,Net-(J3-Pad4)*%
X178150520Y-73741280D02*
X175662360Y-73741280D01*
X179806600Y-72085200D02*
X178150520Y-73741280D01*
X179806600Y-62865000D02*
X179806600Y-72085200D01*
X180035200Y-62636400D02*
X179806600Y-62865000D01*
X182473600Y-62636400D02*
X180035200Y-62636400D01*
X183337200Y-61772800D02*
X182473600Y-62636400D01*
X183337200Y-58216800D02*
X183337200Y-61772800D01*
X182067200Y-56946800D02*
X183337200Y-58216800D01*
X214905600Y-72082800D02*
X213249520Y-73738880D01*
X217572600Y-62634000D02*
X215134200Y-62634000D01*
X218436200Y-58214400D02*
X218436200Y-61770400D01*
X217166200Y-56944400D02*
X218436200Y-58214400D01*
X214905600Y-62862600D02*
X214905600Y-72082800D01*
X213249520Y-73738880D02*
X210761360Y-73738880D01*
X215134200Y-62634000D02*
X214905600Y-62862600D01*
X218436200Y-61770400D02*
X217572600Y-62634000D01*
%TO.N,Net-(J3-Pad3)*%
X178680120Y-68741280D02*
X175662360Y-68741280D01*
X179171600Y-68249800D02*
X178680120Y-68741280D01*
X179171600Y-62651458D02*
X179171600Y-68249800D01*
X179786667Y-62036391D02*
X179171600Y-62651458D01*
X182067200Y-59486800D02*
X182067200Y-61468000D01*
X181498809Y-62036391D02*
X179786667Y-62036391D01*
X182067200Y-61468000D02*
X181498809Y-62036391D01*
X214270600Y-68247400D02*
X213779120Y-68738880D01*
X214885667Y-62033991D02*
X214270600Y-62649058D01*
X217166200Y-59484400D02*
X217166200Y-61465600D01*
X217166200Y-61465600D02*
X216597809Y-62033991D01*
X214270600Y-62649058D02*
X214270600Y-68247400D01*
X216597809Y-62033991D02*
X214885667Y-62033991D01*
X213779120Y-68738880D02*
X210761360Y-68738880D01*
%TD*%
D22*
%TO.N,GND*%
X196558772Y-52897862D02*
X196711911Y-53000186D01*
X196882071Y-53070668D01*
X197062711Y-53106600D01*
X197204836Y-53106600D01*
X197215550Y-53215383D01*
X197253290Y-53339793D01*
X197314575Y-53454450D01*
X197397052Y-53554948D01*
X197497550Y-53637425D01*
X197612207Y-53698710D01*
X197736617Y-53736450D01*
X197833581Y-53746000D01*
X197866000Y-53749193D01*
X197898419Y-53746000D01*
X200551514Y-53746000D01*
X200552909Y-56508256D01*
X198558150Y-56510600D01*
X198399400Y-56669350D01*
X198399400Y-59918600D01*
X198419400Y-59918600D01*
X198419400Y-60172600D01*
X198399400Y-60172600D01*
X198399400Y-63421850D01*
X198558150Y-63580600D01*
X200552288Y-63582943D01*
X200539454Y-79209625D01*
X194052000Y-79195616D01*
X194052000Y-77818269D01*
X194056281Y-77774800D01*
X194052000Y-77731331D01*
X194052000Y-77731323D01*
X194039195Y-77601310D01*
X194013559Y-77516800D01*
X195066946Y-77516800D01*
X195115144Y-77549005D01*
X195303502Y-77627026D01*
X195503461Y-77666800D01*
X195707339Y-77666800D01*
X195907298Y-77627026D01*
X196095656Y-77549005D01*
X196265174Y-77435737D01*
X196409337Y-77291574D01*
X196522605Y-77122056D01*
X196600626Y-76933698D01*
X196640400Y-76733739D01*
X196640400Y-76529861D01*
X196600626Y-76329902D01*
X196522605Y-76141544D01*
X196409337Y-75972026D01*
X196265174Y-75827863D01*
X196095656Y-75714595D01*
X195907298Y-75636574D01*
X195737642Y-75602828D01*
X195742036Y-75586821D01*
X194964240Y-74809025D01*
X194186444Y-75586821D01*
X194230365Y-75746800D01*
X193007265Y-75746800D01*
X192963799Y-75742519D01*
X192920333Y-75746800D01*
X192920323Y-75746800D01*
X192790310Y-75759605D01*
X192623487Y-75810211D01*
X192512445Y-75869563D01*
X192416459Y-75790789D01*
X192262713Y-75708611D01*
X192095890Y-75658005D01*
X191965877Y-75645200D01*
X191965869Y-75645200D01*
X191922400Y-75640919D01*
X191878931Y-75645200D01*
X186878779Y-75645200D01*
X185935469Y-74701890D01*
X193573853Y-74701890D01*
X193614707Y-74971749D01*
X193707423Y-75228452D01*
X193767914Y-75341621D01*
X194006839Y-75407216D01*
X194784635Y-74629420D01*
X195143845Y-74629420D01*
X195921641Y-75407216D01*
X196160566Y-75341621D01*
X196276523Y-75094545D01*
X196342049Y-74829593D01*
X196354627Y-74556950D01*
X196313773Y-74287091D01*
X196221057Y-74030388D01*
X196160566Y-73917219D01*
X195921641Y-73851624D01*
X195143845Y-74629420D01*
X194784635Y-74629420D01*
X194006839Y-73851624D01*
X193767914Y-73917219D01*
X193651957Y-74164295D01*
X193586431Y-74429247D01*
X193573853Y-74701890D01*
X185935469Y-74701890D01*
X185512135Y-74278557D01*
X185500826Y-74221702D01*
X185422805Y-74033344D01*
X185309537Y-73863826D01*
X185165374Y-73719663D01*
X184995856Y-73606395D01*
X184807498Y-73528374D01*
X184771405Y-73521195D01*
X184764226Y-73485102D01*
X184686205Y-73296744D01*
X184572937Y-73127226D01*
X184428774Y-72983063D01*
X184259256Y-72869795D01*
X184070898Y-72791774D01*
X183870939Y-72752000D01*
X183667061Y-72752000D01*
X183467102Y-72791774D01*
X183278744Y-72869795D01*
X183109226Y-72983063D01*
X182965063Y-73127226D01*
X182851795Y-73296744D01*
X182773774Y-73485102D01*
X182734000Y-73685061D01*
X182734000Y-73888939D01*
X182773774Y-74088898D01*
X182851795Y-74277256D01*
X182965063Y-74446774D01*
X183109226Y-74590937D01*
X183278744Y-74704205D01*
X183467102Y-74782226D01*
X183503195Y-74789405D01*
X183510374Y-74825498D01*
X183588395Y-75013856D01*
X183701663Y-75183374D01*
X183845826Y-75327537D01*
X184015344Y-75440805D01*
X184203702Y-75518826D01*
X184260557Y-75530135D01*
X185855670Y-77125249D01*
X185883383Y-77159017D01*
X185917151Y-77186730D01*
X185917153Y-77186732D01*
X185966032Y-77226846D01*
X186018141Y-77269611D01*
X186171887Y-77351789D01*
X186288103Y-77387043D01*
X186338709Y-77402395D01*
X186353506Y-77403852D01*
X186468723Y-77415200D01*
X186468731Y-77415200D01*
X186512200Y-77419481D01*
X186555669Y-77415200D01*
X191555822Y-77415200D01*
X191875470Y-77734849D01*
X191903183Y-77768617D01*
X191936949Y-77796328D01*
X191936953Y-77796332D01*
X191936958Y-77796336D01*
X192282000Y-78141379D01*
X192282000Y-79191794D01*
X171871240Y-79147720D01*
X171871240Y-78089520D01*
X174922725Y-78089520D01*
X175003385Y-78341148D01*
X175271689Y-78469547D01*
X175559886Y-78543135D01*
X175856903Y-78559084D01*
X176151323Y-78516781D01*
X176431834Y-78417852D01*
X176575335Y-78341148D01*
X176655995Y-78089520D01*
X175789360Y-77222885D01*
X174922725Y-78089520D01*
X171871240Y-78089520D01*
X171871240Y-77110823D01*
X174273556Y-77110823D01*
X174315859Y-77405243D01*
X174414788Y-77685754D01*
X174491492Y-77829255D01*
X174743120Y-77909915D01*
X175609755Y-77043280D01*
X175968965Y-77043280D01*
X176835600Y-77909915D01*
X177087228Y-77829255D01*
X177215627Y-77560951D01*
X177289215Y-77272754D01*
X177305164Y-76975737D01*
X177262861Y-76681317D01*
X177163932Y-76400806D01*
X177087228Y-76257305D01*
X176835600Y-76176645D01*
X175968965Y-77043280D01*
X175609755Y-77043280D01*
X174743120Y-76176645D01*
X174491492Y-76257305D01*
X174363093Y-76525609D01*
X174289505Y-76813806D01*
X174273556Y-77110823D01*
X171871240Y-77110823D01*
X171871240Y-75997040D01*
X174922725Y-75997040D01*
X175789360Y-76863675D01*
X176655995Y-75997040D01*
X176575335Y-75745412D01*
X176307031Y-75617013D01*
X176018834Y-75543425D01*
X175721817Y-75527476D01*
X175427397Y-75569779D01*
X175146886Y-75668708D01*
X175003385Y-75745412D01*
X174922725Y-75997040D01*
X171871240Y-75997040D01*
X171871240Y-68741280D01*
X173038295Y-68741280D01*
X173069682Y-69059953D01*
X173162635Y-69366380D01*
X173313583Y-69648785D01*
X173516726Y-69896314D01*
X173764255Y-70099457D01*
X174046660Y-70250405D01*
X174353087Y-70343358D01*
X174591906Y-70366880D01*
X176732814Y-70366880D01*
X176971633Y-70343358D01*
X177278060Y-70250405D01*
X177560465Y-70099457D01*
X177807994Y-69896314D01*
X178011137Y-69648785D01*
X178049892Y-69576280D01*
X178639102Y-69576280D01*
X178680120Y-69580320D01*
X178721138Y-69576280D01*
X178721139Y-69576280D01*
X178843809Y-69564198D01*
X178971601Y-69525433D01*
X178971601Y-71739330D01*
X177950745Y-72760188D01*
X177807994Y-72586246D01*
X177560465Y-72383103D01*
X177278060Y-72232155D01*
X176971633Y-72139202D01*
X176732814Y-72115680D01*
X174591906Y-72115680D01*
X174353087Y-72139202D01*
X174046660Y-72232155D01*
X173764255Y-72383103D01*
X173516726Y-72586246D01*
X173313583Y-72833775D01*
X173162635Y-73116180D01*
X173069682Y-73422607D01*
X173038295Y-73741280D01*
X173069682Y-74059953D01*
X173162635Y-74366380D01*
X173313583Y-74648785D01*
X173516726Y-74896314D01*
X173764255Y-75099457D01*
X174046660Y-75250405D01*
X174353087Y-75343358D01*
X174591906Y-75366880D01*
X176732814Y-75366880D01*
X176971633Y-75343358D01*
X177278060Y-75250405D01*
X177560465Y-75099457D01*
X177807994Y-74896314D01*
X178011137Y-74648785D01*
X178049892Y-74576280D01*
X178109502Y-74576280D01*
X178150520Y-74580320D01*
X178191538Y-74576280D01*
X178191539Y-74576280D01*
X178314209Y-74564198D01*
X178471607Y-74516452D01*
X178616666Y-74438916D01*
X178743811Y-74334571D01*
X178769966Y-74302701D01*
X180368032Y-72704637D01*
X180399891Y-72678491D01*
X180475595Y-72586246D01*
X180504236Y-72551346D01*
X180581772Y-72406287D01*
X180629518Y-72248889D01*
X180645640Y-72085200D01*
X180641600Y-72044182D01*
X180641600Y-67380953D01*
X193578670Y-67380953D01*
X193578670Y-67653887D01*
X193631917Y-67921576D01*
X193736364Y-68173733D01*
X193887998Y-68400669D01*
X194080991Y-68593662D01*
X194307927Y-68745296D01*
X194409623Y-68787420D01*
X194307927Y-68829544D01*
X194080991Y-68981178D01*
X193887998Y-69174171D01*
X193736364Y-69401107D01*
X193631917Y-69653264D01*
X193578670Y-69920953D01*
X193578670Y-70193887D01*
X193631917Y-70461576D01*
X193736364Y-70713733D01*
X193887998Y-70940669D01*
X194020749Y-71073420D01*
X193887998Y-71206171D01*
X193736364Y-71433107D01*
X193631917Y-71685264D01*
X193578670Y-71952953D01*
X193578670Y-72225887D01*
X193631917Y-72493576D01*
X193736364Y-72745733D01*
X193887998Y-72972669D01*
X194080991Y-73165662D01*
X194307927Y-73317296D01*
X194405936Y-73357893D01*
X194365208Y-73372603D01*
X194252039Y-73433094D01*
X194186444Y-73672019D01*
X194964240Y-74449815D01*
X195742036Y-73672019D01*
X195676441Y-73433094D01*
X195519177Y-73359287D01*
X195620553Y-73317296D01*
X195847489Y-73165662D01*
X196040482Y-72972669D01*
X196192116Y-72745733D01*
X196296563Y-72493576D01*
X196349810Y-72225887D01*
X196349810Y-71952953D01*
X196296563Y-71685264D01*
X196192116Y-71433107D01*
X196040482Y-71206171D01*
X195907731Y-71073420D01*
X196040482Y-70940669D01*
X196192116Y-70713733D01*
X196296563Y-70461576D01*
X196349810Y-70193887D01*
X196349810Y-69920953D01*
X196296563Y-69653264D01*
X196192116Y-69401107D01*
X196040482Y-69174171D01*
X195847489Y-68981178D01*
X195620553Y-68829544D01*
X195518857Y-68787420D01*
X195620553Y-68745296D01*
X195847489Y-68593662D01*
X196040482Y-68400669D01*
X196192116Y-68173733D01*
X196296563Y-67921576D01*
X196349810Y-67653887D01*
X196349810Y-67380953D01*
X196296563Y-67113264D01*
X196192116Y-66861107D01*
X196040482Y-66634171D01*
X195847489Y-66441178D01*
X195620553Y-66289544D01*
X195368396Y-66185097D01*
X195100707Y-66131850D01*
X194827773Y-66131850D01*
X194560084Y-66185097D01*
X194307927Y-66289544D01*
X194080991Y-66441178D01*
X193887998Y-66634171D01*
X193736364Y-66861107D01*
X193631917Y-67113264D01*
X193578670Y-67380953D01*
X180641600Y-67380953D01*
X180641600Y-66470983D01*
X180665726Y-66483879D01*
X180945649Y-66568793D01*
X181163810Y-66590280D01*
X181336910Y-66590280D01*
X181555071Y-66568793D01*
X181834994Y-66483879D01*
X182092974Y-66345986D01*
X182319094Y-66160414D01*
X182504666Y-65934294D01*
X182520360Y-65904933D01*
X182536054Y-65934294D01*
X182721626Y-66160414D01*
X182947746Y-66345986D01*
X183205726Y-66483879D01*
X183485649Y-66568793D01*
X183703810Y-66590280D01*
X183876910Y-66590280D01*
X184095071Y-66568793D01*
X184374994Y-66483879D01*
X184632974Y-66345986D01*
X184859094Y-66160414D01*
X185044666Y-65934294D01*
X185063886Y-65898337D01*
X185228763Y-66115209D01*
X185446696Y-66308061D01*
X185698065Y-66454691D01*
X185973210Y-66549464D01*
X186203360Y-66426677D01*
X186203360Y-65232280D01*
X186183360Y-65232280D01*
X186183360Y-64978280D01*
X186203360Y-64978280D01*
X186203360Y-63783883D01*
X186457360Y-63783883D01*
X186457360Y-64978280D01*
X186477360Y-64978280D01*
X186477360Y-65232280D01*
X186457360Y-65232280D01*
X186457360Y-66426677D01*
X186687510Y-66549464D01*
X186962655Y-66454691D01*
X187214024Y-66308061D01*
X187400220Y-66143293D01*
X187417258Y-66199460D01*
X187476223Y-66309774D01*
X187555575Y-66406465D01*
X187652266Y-66485817D01*
X187762580Y-66544782D01*
X187882278Y-66581092D01*
X188006760Y-66593352D01*
X189733960Y-66593352D01*
X189858442Y-66581092D01*
X189978140Y-66544782D01*
X190088454Y-66485817D01*
X190185145Y-66406465D01*
X190264497Y-66309774D01*
X190323462Y-66199460D01*
X190359772Y-66079762D01*
X190372032Y-65955280D01*
X190372032Y-64255280D01*
X190359772Y-64130798D01*
X190323462Y-64011100D01*
X190264497Y-63900786D01*
X190185145Y-63804095D01*
X190088454Y-63724743D01*
X189978140Y-63665778D01*
X189858442Y-63629468D01*
X189733960Y-63617208D01*
X188006760Y-63617208D01*
X187882278Y-63629468D01*
X187762580Y-63665778D01*
X187652266Y-63724743D01*
X187555575Y-63804095D01*
X187476223Y-63900786D01*
X187417258Y-64011100D01*
X187400220Y-64067267D01*
X187214024Y-63902499D01*
X186962655Y-63755869D01*
X186687510Y-63661096D01*
X186457360Y-63783883D01*
X186203360Y-63783883D01*
X185973210Y-63661096D01*
X185698065Y-63755869D01*
X185446696Y-63902499D01*
X185228763Y-64095351D01*
X185063886Y-64312223D01*
X185044666Y-64276266D01*
X184859094Y-64050146D01*
X184632974Y-63864574D01*
X184374994Y-63726681D01*
X184095071Y-63641767D01*
X183876910Y-63620280D01*
X183703810Y-63620280D01*
X183485649Y-63641767D01*
X183205726Y-63726681D01*
X182947746Y-63864574D01*
X182721626Y-64050146D01*
X182536054Y-64276266D01*
X182520360Y-64305627D01*
X182504666Y-64276266D01*
X182319094Y-64050146D01*
X182092974Y-63864574D01*
X181834994Y-63726681D01*
X181555071Y-63641767D01*
X181336910Y-63620280D01*
X181163810Y-63620280D01*
X180945649Y-63641767D01*
X180665726Y-63726681D01*
X180641600Y-63739577D01*
X180641600Y-63471400D01*
X182432582Y-63471400D01*
X182473600Y-63475440D01*
X182514618Y-63471400D01*
X182514619Y-63471400D01*
X182637289Y-63459318D01*
X182794687Y-63411572D01*
X182939746Y-63334036D01*
X183066891Y-63229691D01*
X183093045Y-63197822D01*
X183345267Y-62945600D01*
X194734328Y-62945600D01*
X194746588Y-63070082D01*
X194782898Y-63189780D01*
X194841863Y-63300094D01*
X194921215Y-63396785D01*
X195017906Y-63476137D01*
X195128220Y-63535102D01*
X195247918Y-63571412D01*
X195372400Y-63583672D01*
X197986650Y-63580600D01*
X198145400Y-63421850D01*
X198145400Y-60172600D01*
X194896150Y-60172600D01*
X194737400Y-60331350D01*
X194734328Y-62945600D01*
X183345267Y-62945600D01*
X183898632Y-62392237D01*
X183930491Y-62366091D01*
X183972164Y-62315313D01*
X184034836Y-62238946D01*
X184112372Y-62093887D01*
X184160118Y-61936489D01*
X184160349Y-61934146D01*
X184172200Y-61813819D01*
X184176240Y-61772800D01*
X184172200Y-61731782D01*
X184172200Y-60908476D01*
X184383611Y-60962139D01*
X184675731Y-60977411D01*
X184965219Y-60935399D01*
X185240947Y-60837719D01*
X185378357Y-60764272D01*
X185455992Y-60515197D01*
X184607200Y-59666405D01*
X184593058Y-59680548D01*
X184413453Y-59500943D01*
X184427595Y-59486800D01*
X184413453Y-59472658D01*
X184593058Y-59293053D01*
X184607200Y-59307195D01*
X185455992Y-58458403D01*
X185380471Y-58216111D01*
X185553832Y-58100275D01*
X185760675Y-57893432D01*
X185877200Y-57719040D01*
X185993725Y-57893432D01*
X186200568Y-58100275D01*
X186374960Y-58216800D01*
X186200568Y-58333325D01*
X185993725Y-58540168D01*
X185877889Y-58713529D01*
X185635597Y-58638008D01*
X184786805Y-59486800D01*
X185635597Y-60335592D01*
X185877889Y-60260071D01*
X185993725Y-60433432D01*
X186200568Y-60640275D01*
X186443789Y-60802790D01*
X186714042Y-60914732D01*
X187000940Y-60971800D01*
X187293460Y-60971800D01*
X187580358Y-60914732D01*
X187850611Y-60802790D01*
X188093832Y-60640275D01*
X188300675Y-60433432D01*
X188417200Y-60259040D01*
X188533725Y-60433432D01*
X188740568Y-60640275D01*
X188983789Y-60802790D01*
X189254042Y-60914732D01*
X189540940Y-60971800D01*
X189833460Y-60971800D01*
X190120358Y-60914732D01*
X190390611Y-60802790D01*
X190633832Y-60640275D01*
X190840675Y-60433432D01*
X191003190Y-60190211D01*
X191115132Y-59919958D01*
X191172200Y-59633060D01*
X191172200Y-59340540D01*
X191115132Y-59053642D01*
X191003190Y-58783389D01*
X190840675Y-58540168D01*
X190633832Y-58333325D01*
X190459440Y-58216800D01*
X190633832Y-58100275D01*
X190840675Y-57893432D01*
X191003190Y-57650211D01*
X191115132Y-57379958D01*
X191161749Y-57145600D01*
X194734328Y-57145600D01*
X194737400Y-59759850D01*
X194896150Y-59918600D01*
X198145400Y-59918600D01*
X198145400Y-56669350D01*
X197986650Y-56510600D01*
X195372400Y-56507528D01*
X195247918Y-56519788D01*
X195128220Y-56556098D01*
X195017906Y-56615063D01*
X194921215Y-56694415D01*
X194841863Y-56791106D01*
X194782898Y-56901420D01*
X194746588Y-57021118D01*
X194734328Y-57145600D01*
X191161749Y-57145600D01*
X191172200Y-57093060D01*
X191172200Y-56800540D01*
X191115132Y-56513642D01*
X191003190Y-56243389D01*
X190840675Y-56000168D01*
X190633832Y-55793325D01*
X190390611Y-55630810D01*
X190120358Y-55518868D01*
X189833460Y-55461800D01*
X189540940Y-55461800D01*
X189254042Y-55518868D01*
X188983789Y-55630810D01*
X188740568Y-55793325D01*
X188533725Y-56000168D01*
X188417200Y-56174560D01*
X188300675Y-56000168D01*
X188093832Y-55793325D01*
X187850611Y-55630810D01*
X187580358Y-55518868D01*
X187293460Y-55461800D01*
X187000940Y-55461800D01*
X186714042Y-55518868D01*
X186443789Y-55630810D01*
X186200568Y-55793325D01*
X185993725Y-56000168D01*
X185877200Y-56174560D01*
X185760675Y-56000168D01*
X185553832Y-55793325D01*
X185310611Y-55630810D01*
X185040358Y-55518868D01*
X184753460Y-55461800D01*
X184460940Y-55461800D01*
X184174042Y-55518868D01*
X183903789Y-55630810D01*
X183660568Y-55793325D01*
X183453725Y-56000168D01*
X183337200Y-56174560D01*
X183220675Y-56000168D01*
X183013832Y-55793325D01*
X182770611Y-55630810D01*
X182500358Y-55518868D01*
X182213460Y-55461800D01*
X181920940Y-55461800D01*
X181634042Y-55518868D01*
X181363789Y-55630810D01*
X181120568Y-55793325D01*
X180913725Y-56000168D01*
X180797200Y-56174560D01*
X180680675Y-56000168D01*
X180473832Y-55793325D01*
X180230611Y-55630810D01*
X179960358Y-55518868D01*
X179673460Y-55461800D01*
X179380940Y-55461800D01*
X179094042Y-55518868D01*
X178823789Y-55630810D01*
X178580568Y-55793325D01*
X178373725Y-56000168D01*
X178211210Y-56243389D01*
X178099268Y-56513642D01*
X178042200Y-56800540D01*
X178042200Y-57093060D01*
X178099268Y-57379958D01*
X178211210Y-57650211D01*
X178373725Y-57893432D01*
X178580568Y-58100275D01*
X178754960Y-58216800D01*
X178580568Y-58333325D01*
X178373725Y-58540168D01*
X178211210Y-58783389D01*
X178099268Y-59053642D01*
X178042200Y-59340540D01*
X178042200Y-59633060D01*
X178099268Y-59919958D01*
X178211210Y-60190211D01*
X178373725Y-60433432D01*
X178580568Y-60640275D01*
X178823789Y-60802790D01*
X179094042Y-60914732D01*
X179380940Y-60971800D01*
X179673460Y-60971800D01*
X179960358Y-60914732D01*
X180230611Y-60802790D01*
X180473832Y-60640275D01*
X180680675Y-60433432D01*
X180797200Y-60259040D01*
X180913725Y-60433432D01*
X181120568Y-60640275D01*
X181232201Y-60714865D01*
X181232201Y-61122132D01*
X181152942Y-61201391D01*
X179827685Y-61201391D01*
X179786666Y-61197351D01*
X179745648Y-61201391D01*
X179622978Y-61213473D01*
X179465580Y-61261219D01*
X179320521Y-61338755D01*
X179193376Y-61443100D01*
X179167228Y-61474962D01*
X178610178Y-62032012D01*
X178578309Y-62058167D01*
X178486322Y-62170255D01*
X178473964Y-62185313D01*
X178396428Y-62330372D01*
X178348682Y-62487770D01*
X178332560Y-62651458D01*
X178336600Y-62692477D01*
X178336601Y-67903932D01*
X178334253Y-67906280D01*
X178049892Y-67906280D01*
X178011137Y-67833775D01*
X177807994Y-67586246D01*
X177560465Y-67383103D01*
X177278060Y-67232155D01*
X176971633Y-67139202D01*
X176732814Y-67115680D01*
X174591906Y-67115680D01*
X174353087Y-67139202D01*
X174046660Y-67232155D01*
X173764255Y-67383103D01*
X173516726Y-67586246D01*
X173313583Y-67833775D01*
X173162635Y-68116180D01*
X173069682Y-68422607D01*
X173038295Y-68741280D01*
X171871240Y-68741280D01*
X171871240Y-53756660D01*
X174516381Y-53756660D01*
X174548800Y-53759853D01*
X174581219Y-53756660D01*
X174678183Y-53747110D01*
X174802593Y-53709370D01*
X174917250Y-53648085D01*
X175017748Y-53565608D01*
X175100225Y-53465110D01*
X175161510Y-53350453D01*
X175199250Y-53226043D01*
X175211014Y-53106600D01*
X175377489Y-53106600D01*
X175558129Y-53070668D01*
X175728289Y-53000186D01*
X175881428Y-52897862D01*
X175920400Y-52858890D01*
X175959372Y-52897862D01*
X176112511Y-53000186D01*
X176282671Y-53070668D01*
X176463311Y-53106600D01*
X176647489Y-53106600D01*
X176828129Y-53070668D01*
X176998289Y-53000186D01*
X177151428Y-52897862D01*
X177190400Y-52858890D01*
X177229372Y-52897862D01*
X177382511Y-53000186D01*
X177552671Y-53070668D01*
X177733311Y-53106600D01*
X177917489Y-53106600D01*
X178098129Y-53070668D01*
X178268289Y-53000186D01*
X178421428Y-52897862D01*
X178460400Y-52858890D01*
X178499372Y-52897862D01*
X178652511Y-53000186D01*
X178822671Y-53070668D01*
X179003311Y-53106600D01*
X179187489Y-53106600D01*
X179368129Y-53070668D01*
X179538289Y-53000186D01*
X179691428Y-52897862D01*
X179730400Y-52858890D01*
X179769372Y-52897862D01*
X179922511Y-53000186D01*
X180092671Y-53070668D01*
X180273311Y-53106600D01*
X180415436Y-53106600D01*
X180426150Y-53215383D01*
X180463890Y-53339793D01*
X180525175Y-53454450D01*
X180607652Y-53554948D01*
X180708150Y-53637425D01*
X180822807Y-53698710D01*
X180947217Y-53736450D01*
X181044181Y-53746000D01*
X181076600Y-53749193D01*
X181109019Y-53746000D01*
X191305781Y-53746000D01*
X191338200Y-53749193D01*
X191370619Y-53746000D01*
X191467583Y-53736450D01*
X191591993Y-53698710D01*
X191706650Y-53637425D01*
X191807148Y-53554948D01*
X191889625Y-53454450D01*
X191950910Y-53339793D01*
X191988650Y-53215383D01*
X191999364Y-53106600D01*
X192166889Y-53106600D01*
X192347529Y-53070668D01*
X192517689Y-53000186D01*
X192670828Y-52897862D01*
X192709800Y-52858890D01*
X192748772Y-52897862D01*
X192901911Y-53000186D01*
X193072071Y-53070668D01*
X193252711Y-53106600D01*
X193436889Y-53106600D01*
X193617529Y-53070668D01*
X193787689Y-53000186D01*
X193940828Y-52897862D01*
X193979800Y-52858890D01*
X194018772Y-52897862D01*
X194171911Y-53000186D01*
X194342071Y-53070668D01*
X194522711Y-53106600D01*
X194706889Y-53106600D01*
X194887529Y-53070668D01*
X195057689Y-53000186D01*
X195210828Y-52897862D01*
X195249800Y-52858890D01*
X195288772Y-52897862D01*
X195441911Y-53000186D01*
X195612071Y-53070668D01*
X195792711Y-53106600D01*
X195976889Y-53106600D01*
X196157529Y-53070668D01*
X196327689Y-53000186D01*
X196480828Y-52897862D01*
X196519800Y-52858890D01*
X196558772Y-52897862D01*
%TA.AperFunction,Conductor*%
D23*
G36*
X196558772Y-52897862D02*
G01*
X196711911Y-53000186D01*
X196882071Y-53070668D01*
X197062711Y-53106600D01*
X197204836Y-53106600D01*
X197215550Y-53215383D01*
X197253290Y-53339793D01*
X197314575Y-53454450D01*
X197397052Y-53554948D01*
X197497550Y-53637425D01*
X197612207Y-53698710D01*
X197736617Y-53736450D01*
X197833581Y-53746000D01*
X197866000Y-53749193D01*
X197898419Y-53746000D01*
X200551514Y-53746000D01*
X200552909Y-56508256D01*
X198558150Y-56510600D01*
X198399400Y-56669350D01*
X198399400Y-59918600D01*
X198419400Y-59918600D01*
X198419400Y-60172600D01*
X198399400Y-60172600D01*
X198399400Y-63421850D01*
X198558150Y-63580600D01*
X200552288Y-63582943D01*
X200539454Y-79209625D01*
X194052000Y-79195616D01*
X194052000Y-77818269D01*
X194056281Y-77774800D01*
X194052000Y-77731331D01*
X194052000Y-77731323D01*
X194039195Y-77601310D01*
X194013559Y-77516800D01*
X195066946Y-77516800D01*
X195115144Y-77549005D01*
X195303502Y-77627026D01*
X195503461Y-77666800D01*
X195707339Y-77666800D01*
X195907298Y-77627026D01*
X196095656Y-77549005D01*
X196265174Y-77435737D01*
X196409337Y-77291574D01*
X196522605Y-77122056D01*
X196600626Y-76933698D01*
X196640400Y-76733739D01*
X196640400Y-76529861D01*
X196600626Y-76329902D01*
X196522605Y-76141544D01*
X196409337Y-75972026D01*
X196265174Y-75827863D01*
X196095656Y-75714595D01*
X195907298Y-75636574D01*
X195737642Y-75602828D01*
X195742036Y-75586821D01*
X194964240Y-74809025D01*
X194186444Y-75586821D01*
X194230365Y-75746800D01*
X193007265Y-75746800D01*
X192963799Y-75742519D01*
X192920333Y-75746800D01*
X192920323Y-75746800D01*
X192790310Y-75759605D01*
X192623487Y-75810211D01*
X192512445Y-75869563D01*
X192416459Y-75790789D01*
X192262713Y-75708611D01*
X192095890Y-75658005D01*
X191965877Y-75645200D01*
X191965869Y-75645200D01*
X191922400Y-75640919D01*
X191878931Y-75645200D01*
X186878779Y-75645200D01*
X185935469Y-74701890D01*
X193573853Y-74701890D01*
X193614707Y-74971749D01*
X193707423Y-75228452D01*
X193767914Y-75341621D01*
X194006839Y-75407216D01*
X194784635Y-74629420D01*
X195143845Y-74629420D01*
X195921641Y-75407216D01*
X196160566Y-75341621D01*
X196276523Y-75094545D01*
X196342049Y-74829593D01*
X196354627Y-74556950D01*
X196313773Y-74287091D01*
X196221057Y-74030388D01*
X196160566Y-73917219D01*
X195921641Y-73851624D01*
X195143845Y-74629420D01*
X194784635Y-74629420D01*
X194006839Y-73851624D01*
X193767914Y-73917219D01*
X193651957Y-74164295D01*
X193586431Y-74429247D01*
X193573853Y-74701890D01*
X185935469Y-74701890D01*
X185512135Y-74278557D01*
X185500826Y-74221702D01*
X185422805Y-74033344D01*
X185309537Y-73863826D01*
X185165374Y-73719663D01*
X184995856Y-73606395D01*
X184807498Y-73528374D01*
X184771405Y-73521195D01*
X184764226Y-73485102D01*
X184686205Y-73296744D01*
X184572937Y-73127226D01*
X184428774Y-72983063D01*
X184259256Y-72869795D01*
X184070898Y-72791774D01*
X183870939Y-72752000D01*
X183667061Y-72752000D01*
X183467102Y-72791774D01*
X183278744Y-72869795D01*
X183109226Y-72983063D01*
X182965063Y-73127226D01*
X182851795Y-73296744D01*
X182773774Y-73485102D01*
X182734000Y-73685061D01*
X182734000Y-73888939D01*
X182773774Y-74088898D01*
X182851795Y-74277256D01*
X182965063Y-74446774D01*
X183109226Y-74590937D01*
X183278744Y-74704205D01*
X183467102Y-74782226D01*
X183503195Y-74789405D01*
X183510374Y-74825498D01*
X183588395Y-75013856D01*
X183701663Y-75183374D01*
X183845826Y-75327537D01*
X184015344Y-75440805D01*
X184203702Y-75518826D01*
X184260557Y-75530135D01*
X185855670Y-77125249D01*
X185883383Y-77159017D01*
X185917151Y-77186730D01*
X185917153Y-77186732D01*
X185966032Y-77226846D01*
X186018141Y-77269611D01*
X186171887Y-77351789D01*
X186288103Y-77387043D01*
X186338709Y-77402395D01*
X186353506Y-77403852D01*
X186468723Y-77415200D01*
X186468731Y-77415200D01*
X186512200Y-77419481D01*
X186555669Y-77415200D01*
X191555822Y-77415200D01*
X191875470Y-77734849D01*
X191903183Y-77768617D01*
X191936949Y-77796328D01*
X191936953Y-77796332D01*
X191936958Y-77796336D01*
X192282000Y-78141379D01*
X192282000Y-79191794D01*
X171871240Y-79147720D01*
X171871240Y-78089520D01*
X174922725Y-78089520D01*
X175003385Y-78341148D01*
X175271689Y-78469547D01*
X175559886Y-78543135D01*
X175856903Y-78559084D01*
X176151323Y-78516781D01*
X176431834Y-78417852D01*
X176575335Y-78341148D01*
X176655995Y-78089520D01*
X175789360Y-77222885D01*
X174922725Y-78089520D01*
X171871240Y-78089520D01*
X171871240Y-77110823D01*
X174273556Y-77110823D01*
X174315859Y-77405243D01*
X174414788Y-77685754D01*
X174491492Y-77829255D01*
X174743120Y-77909915D01*
X175609755Y-77043280D01*
X175968965Y-77043280D01*
X176835600Y-77909915D01*
X177087228Y-77829255D01*
X177215627Y-77560951D01*
X177289215Y-77272754D01*
X177305164Y-76975737D01*
X177262861Y-76681317D01*
X177163932Y-76400806D01*
X177087228Y-76257305D01*
X176835600Y-76176645D01*
X175968965Y-77043280D01*
X175609755Y-77043280D01*
X174743120Y-76176645D01*
X174491492Y-76257305D01*
X174363093Y-76525609D01*
X174289505Y-76813806D01*
X174273556Y-77110823D01*
X171871240Y-77110823D01*
X171871240Y-75997040D01*
X174922725Y-75997040D01*
X175789360Y-76863675D01*
X176655995Y-75997040D01*
X176575335Y-75745412D01*
X176307031Y-75617013D01*
X176018834Y-75543425D01*
X175721817Y-75527476D01*
X175427397Y-75569779D01*
X175146886Y-75668708D01*
X175003385Y-75745412D01*
X174922725Y-75997040D01*
X171871240Y-75997040D01*
X171871240Y-68741280D01*
X173038295Y-68741280D01*
X173069682Y-69059953D01*
X173162635Y-69366380D01*
X173313583Y-69648785D01*
X173516726Y-69896314D01*
X173764255Y-70099457D01*
X174046660Y-70250405D01*
X174353087Y-70343358D01*
X174591906Y-70366880D01*
X176732814Y-70366880D01*
X176971633Y-70343358D01*
X177278060Y-70250405D01*
X177560465Y-70099457D01*
X177807994Y-69896314D01*
X178011137Y-69648785D01*
X178049892Y-69576280D01*
X178639102Y-69576280D01*
X178680120Y-69580320D01*
X178721138Y-69576280D01*
X178721139Y-69576280D01*
X178843809Y-69564198D01*
X178971601Y-69525433D01*
X178971601Y-71739330D01*
X177950745Y-72760188D01*
X177807994Y-72586246D01*
X177560465Y-72383103D01*
X177278060Y-72232155D01*
X176971633Y-72139202D01*
X176732814Y-72115680D01*
X174591906Y-72115680D01*
X174353087Y-72139202D01*
X174046660Y-72232155D01*
X173764255Y-72383103D01*
X173516726Y-72586246D01*
X173313583Y-72833775D01*
X173162635Y-73116180D01*
X173069682Y-73422607D01*
X173038295Y-73741280D01*
X173069682Y-74059953D01*
X173162635Y-74366380D01*
X173313583Y-74648785D01*
X173516726Y-74896314D01*
X173764255Y-75099457D01*
X174046660Y-75250405D01*
X174353087Y-75343358D01*
X174591906Y-75366880D01*
X176732814Y-75366880D01*
X176971633Y-75343358D01*
X177278060Y-75250405D01*
X177560465Y-75099457D01*
X177807994Y-74896314D01*
X178011137Y-74648785D01*
X178049892Y-74576280D01*
X178109502Y-74576280D01*
X178150520Y-74580320D01*
X178191538Y-74576280D01*
X178191539Y-74576280D01*
X178314209Y-74564198D01*
X178471607Y-74516452D01*
X178616666Y-74438916D01*
X178743811Y-74334571D01*
X178769966Y-74302701D01*
X180368032Y-72704637D01*
X180399891Y-72678491D01*
X180475595Y-72586246D01*
X180504236Y-72551346D01*
X180581772Y-72406287D01*
X180629518Y-72248889D01*
X180645640Y-72085200D01*
X180641600Y-72044182D01*
X180641600Y-67380953D01*
X193578670Y-67380953D01*
X193578670Y-67653887D01*
X193631917Y-67921576D01*
X193736364Y-68173733D01*
X193887998Y-68400669D01*
X194080991Y-68593662D01*
X194307927Y-68745296D01*
X194409623Y-68787420D01*
X194307927Y-68829544D01*
X194080991Y-68981178D01*
X193887998Y-69174171D01*
X193736364Y-69401107D01*
X193631917Y-69653264D01*
X193578670Y-69920953D01*
X193578670Y-70193887D01*
X193631917Y-70461576D01*
X193736364Y-70713733D01*
X193887998Y-70940669D01*
X194020749Y-71073420D01*
X193887998Y-71206171D01*
X193736364Y-71433107D01*
X193631917Y-71685264D01*
X193578670Y-71952953D01*
X193578670Y-72225887D01*
X193631917Y-72493576D01*
X193736364Y-72745733D01*
X193887998Y-72972669D01*
X194080991Y-73165662D01*
X194307927Y-73317296D01*
X194405936Y-73357893D01*
X194365208Y-73372603D01*
X194252039Y-73433094D01*
X194186444Y-73672019D01*
X194964240Y-74449815D01*
X195742036Y-73672019D01*
X195676441Y-73433094D01*
X195519177Y-73359287D01*
X195620553Y-73317296D01*
X195847489Y-73165662D01*
X196040482Y-72972669D01*
X196192116Y-72745733D01*
X196296563Y-72493576D01*
X196349810Y-72225887D01*
X196349810Y-71952953D01*
X196296563Y-71685264D01*
X196192116Y-71433107D01*
X196040482Y-71206171D01*
X195907731Y-71073420D01*
X196040482Y-70940669D01*
X196192116Y-70713733D01*
X196296563Y-70461576D01*
X196349810Y-70193887D01*
X196349810Y-69920953D01*
X196296563Y-69653264D01*
X196192116Y-69401107D01*
X196040482Y-69174171D01*
X195847489Y-68981178D01*
X195620553Y-68829544D01*
X195518857Y-68787420D01*
X195620553Y-68745296D01*
X195847489Y-68593662D01*
X196040482Y-68400669D01*
X196192116Y-68173733D01*
X196296563Y-67921576D01*
X196349810Y-67653887D01*
X196349810Y-67380953D01*
X196296563Y-67113264D01*
X196192116Y-66861107D01*
X196040482Y-66634171D01*
X195847489Y-66441178D01*
X195620553Y-66289544D01*
X195368396Y-66185097D01*
X195100707Y-66131850D01*
X194827773Y-66131850D01*
X194560084Y-66185097D01*
X194307927Y-66289544D01*
X194080991Y-66441178D01*
X193887998Y-66634171D01*
X193736364Y-66861107D01*
X193631917Y-67113264D01*
X193578670Y-67380953D01*
X180641600Y-67380953D01*
X180641600Y-66470983D01*
X180665726Y-66483879D01*
X180945649Y-66568793D01*
X181163810Y-66590280D01*
X181336910Y-66590280D01*
X181555071Y-66568793D01*
X181834994Y-66483879D01*
X182092974Y-66345986D01*
X182319094Y-66160414D01*
X182504666Y-65934294D01*
X182520360Y-65904933D01*
X182536054Y-65934294D01*
X182721626Y-66160414D01*
X182947746Y-66345986D01*
X183205726Y-66483879D01*
X183485649Y-66568793D01*
X183703810Y-66590280D01*
X183876910Y-66590280D01*
X184095071Y-66568793D01*
X184374994Y-66483879D01*
X184632974Y-66345986D01*
X184859094Y-66160414D01*
X185044666Y-65934294D01*
X185063886Y-65898337D01*
X185228763Y-66115209D01*
X185446696Y-66308061D01*
X185698065Y-66454691D01*
X185973210Y-66549464D01*
X186203360Y-66426677D01*
X186203360Y-65232280D01*
X186183360Y-65232280D01*
X186183360Y-64978280D01*
X186203360Y-64978280D01*
X186203360Y-63783883D01*
X186457360Y-63783883D01*
X186457360Y-64978280D01*
X186477360Y-64978280D01*
X186477360Y-65232280D01*
X186457360Y-65232280D01*
X186457360Y-66426677D01*
X186687510Y-66549464D01*
X186962655Y-66454691D01*
X187214024Y-66308061D01*
X187400220Y-66143293D01*
X187417258Y-66199460D01*
X187476223Y-66309774D01*
X187555575Y-66406465D01*
X187652266Y-66485817D01*
X187762580Y-66544782D01*
X187882278Y-66581092D01*
X188006760Y-66593352D01*
X189733960Y-66593352D01*
X189858442Y-66581092D01*
X189978140Y-66544782D01*
X190088454Y-66485817D01*
X190185145Y-66406465D01*
X190264497Y-66309774D01*
X190323462Y-66199460D01*
X190359772Y-66079762D01*
X190372032Y-65955280D01*
X190372032Y-64255280D01*
X190359772Y-64130798D01*
X190323462Y-64011100D01*
X190264497Y-63900786D01*
X190185145Y-63804095D01*
X190088454Y-63724743D01*
X189978140Y-63665778D01*
X189858442Y-63629468D01*
X189733960Y-63617208D01*
X188006760Y-63617208D01*
X187882278Y-63629468D01*
X187762580Y-63665778D01*
X187652266Y-63724743D01*
X187555575Y-63804095D01*
X187476223Y-63900786D01*
X187417258Y-64011100D01*
X187400220Y-64067267D01*
X187214024Y-63902499D01*
X186962655Y-63755869D01*
X186687510Y-63661096D01*
X186457360Y-63783883D01*
X186203360Y-63783883D01*
X185973210Y-63661096D01*
X185698065Y-63755869D01*
X185446696Y-63902499D01*
X185228763Y-64095351D01*
X185063886Y-64312223D01*
X185044666Y-64276266D01*
X184859094Y-64050146D01*
X184632974Y-63864574D01*
X184374994Y-63726681D01*
X184095071Y-63641767D01*
X183876910Y-63620280D01*
X183703810Y-63620280D01*
X183485649Y-63641767D01*
X183205726Y-63726681D01*
X182947746Y-63864574D01*
X182721626Y-64050146D01*
X182536054Y-64276266D01*
X182520360Y-64305627D01*
X182504666Y-64276266D01*
X182319094Y-64050146D01*
X182092974Y-63864574D01*
X181834994Y-63726681D01*
X181555071Y-63641767D01*
X181336910Y-63620280D01*
X181163810Y-63620280D01*
X180945649Y-63641767D01*
X180665726Y-63726681D01*
X180641600Y-63739577D01*
X180641600Y-63471400D01*
X182432582Y-63471400D01*
X182473600Y-63475440D01*
X182514618Y-63471400D01*
X182514619Y-63471400D01*
X182637289Y-63459318D01*
X182794687Y-63411572D01*
X182939746Y-63334036D01*
X183066891Y-63229691D01*
X183093045Y-63197822D01*
X183345267Y-62945600D01*
X194734328Y-62945600D01*
X194746588Y-63070082D01*
X194782898Y-63189780D01*
X194841863Y-63300094D01*
X194921215Y-63396785D01*
X195017906Y-63476137D01*
X195128220Y-63535102D01*
X195247918Y-63571412D01*
X195372400Y-63583672D01*
X197986650Y-63580600D01*
X198145400Y-63421850D01*
X198145400Y-60172600D01*
X194896150Y-60172600D01*
X194737400Y-60331350D01*
X194734328Y-62945600D01*
X183345267Y-62945600D01*
X183898632Y-62392237D01*
X183930491Y-62366091D01*
X183972164Y-62315313D01*
X184034836Y-62238946D01*
X184112372Y-62093887D01*
X184160118Y-61936489D01*
X184160349Y-61934146D01*
X184172200Y-61813819D01*
X184176240Y-61772800D01*
X184172200Y-61731782D01*
X184172200Y-60908476D01*
X184383611Y-60962139D01*
X184675731Y-60977411D01*
X184965219Y-60935399D01*
X185240947Y-60837719D01*
X185378357Y-60764272D01*
X185455992Y-60515197D01*
X184607200Y-59666405D01*
X184593058Y-59680548D01*
X184413453Y-59500943D01*
X184427595Y-59486800D01*
X184413453Y-59472658D01*
X184593058Y-59293053D01*
X184607200Y-59307195D01*
X185455992Y-58458403D01*
X185380471Y-58216111D01*
X185553832Y-58100275D01*
X185760675Y-57893432D01*
X185877200Y-57719040D01*
X185993725Y-57893432D01*
X186200568Y-58100275D01*
X186374960Y-58216800D01*
X186200568Y-58333325D01*
X185993725Y-58540168D01*
X185877889Y-58713529D01*
X185635597Y-58638008D01*
X184786805Y-59486800D01*
X185635597Y-60335592D01*
X185877889Y-60260071D01*
X185993725Y-60433432D01*
X186200568Y-60640275D01*
X186443789Y-60802790D01*
X186714042Y-60914732D01*
X187000940Y-60971800D01*
X187293460Y-60971800D01*
X187580358Y-60914732D01*
X187850611Y-60802790D01*
X188093832Y-60640275D01*
X188300675Y-60433432D01*
X188417200Y-60259040D01*
X188533725Y-60433432D01*
X188740568Y-60640275D01*
X188983789Y-60802790D01*
X189254042Y-60914732D01*
X189540940Y-60971800D01*
X189833460Y-60971800D01*
X190120358Y-60914732D01*
X190390611Y-60802790D01*
X190633832Y-60640275D01*
X190840675Y-60433432D01*
X191003190Y-60190211D01*
X191115132Y-59919958D01*
X191172200Y-59633060D01*
X191172200Y-59340540D01*
X191115132Y-59053642D01*
X191003190Y-58783389D01*
X190840675Y-58540168D01*
X190633832Y-58333325D01*
X190459440Y-58216800D01*
X190633832Y-58100275D01*
X190840675Y-57893432D01*
X191003190Y-57650211D01*
X191115132Y-57379958D01*
X191161749Y-57145600D01*
X194734328Y-57145600D01*
X194737400Y-59759850D01*
X194896150Y-59918600D01*
X198145400Y-59918600D01*
X198145400Y-56669350D01*
X197986650Y-56510600D01*
X195372400Y-56507528D01*
X195247918Y-56519788D01*
X195128220Y-56556098D01*
X195017906Y-56615063D01*
X194921215Y-56694415D01*
X194841863Y-56791106D01*
X194782898Y-56901420D01*
X194746588Y-57021118D01*
X194734328Y-57145600D01*
X191161749Y-57145600D01*
X191172200Y-57093060D01*
X191172200Y-56800540D01*
X191115132Y-56513642D01*
X191003190Y-56243389D01*
X190840675Y-56000168D01*
X190633832Y-55793325D01*
X190390611Y-55630810D01*
X190120358Y-55518868D01*
X189833460Y-55461800D01*
X189540940Y-55461800D01*
X189254042Y-55518868D01*
X188983789Y-55630810D01*
X188740568Y-55793325D01*
X188533725Y-56000168D01*
X188417200Y-56174560D01*
X188300675Y-56000168D01*
X188093832Y-55793325D01*
X187850611Y-55630810D01*
X187580358Y-55518868D01*
X187293460Y-55461800D01*
X187000940Y-55461800D01*
X186714042Y-55518868D01*
X186443789Y-55630810D01*
X186200568Y-55793325D01*
X185993725Y-56000168D01*
X185877200Y-56174560D01*
X185760675Y-56000168D01*
X185553832Y-55793325D01*
X185310611Y-55630810D01*
X185040358Y-55518868D01*
X184753460Y-55461800D01*
X184460940Y-55461800D01*
X184174042Y-55518868D01*
X183903789Y-55630810D01*
X183660568Y-55793325D01*
X183453725Y-56000168D01*
X183337200Y-56174560D01*
X183220675Y-56000168D01*
X183013832Y-55793325D01*
X182770611Y-55630810D01*
X182500358Y-55518868D01*
X182213460Y-55461800D01*
X181920940Y-55461800D01*
X181634042Y-55518868D01*
X181363789Y-55630810D01*
X181120568Y-55793325D01*
X180913725Y-56000168D01*
X180797200Y-56174560D01*
X180680675Y-56000168D01*
X180473832Y-55793325D01*
X180230611Y-55630810D01*
X179960358Y-55518868D01*
X179673460Y-55461800D01*
X179380940Y-55461800D01*
X179094042Y-55518868D01*
X178823789Y-55630810D01*
X178580568Y-55793325D01*
X178373725Y-56000168D01*
X178211210Y-56243389D01*
X178099268Y-56513642D01*
X178042200Y-56800540D01*
X178042200Y-57093060D01*
X178099268Y-57379958D01*
X178211210Y-57650211D01*
X178373725Y-57893432D01*
X178580568Y-58100275D01*
X178754960Y-58216800D01*
X178580568Y-58333325D01*
X178373725Y-58540168D01*
X178211210Y-58783389D01*
X178099268Y-59053642D01*
X178042200Y-59340540D01*
X178042200Y-59633060D01*
X178099268Y-59919958D01*
X178211210Y-60190211D01*
X178373725Y-60433432D01*
X178580568Y-60640275D01*
X178823789Y-60802790D01*
X179094042Y-60914732D01*
X179380940Y-60971800D01*
X179673460Y-60971800D01*
X179960358Y-60914732D01*
X180230611Y-60802790D01*
X180473832Y-60640275D01*
X180680675Y-60433432D01*
X180797200Y-60259040D01*
X180913725Y-60433432D01*
X181120568Y-60640275D01*
X181232201Y-60714865D01*
X181232201Y-61122132D01*
X181152942Y-61201391D01*
X179827685Y-61201391D01*
X179786666Y-61197351D01*
X179745648Y-61201391D01*
X179622978Y-61213473D01*
X179465580Y-61261219D01*
X179320521Y-61338755D01*
X179193376Y-61443100D01*
X179167228Y-61474962D01*
X178610178Y-62032012D01*
X178578309Y-62058167D01*
X178486322Y-62170255D01*
X178473964Y-62185313D01*
X178396428Y-62330372D01*
X178348682Y-62487770D01*
X178332560Y-62651458D01*
X178336600Y-62692477D01*
X178336601Y-67903932D01*
X178334253Y-67906280D01*
X178049892Y-67906280D01*
X178011137Y-67833775D01*
X177807994Y-67586246D01*
X177560465Y-67383103D01*
X177278060Y-67232155D01*
X176971633Y-67139202D01*
X176732814Y-67115680D01*
X174591906Y-67115680D01*
X174353087Y-67139202D01*
X174046660Y-67232155D01*
X173764255Y-67383103D01*
X173516726Y-67586246D01*
X173313583Y-67833775D01*
X173162635Y-68116180D01*
X173069682Y-68422607D01*
X173038295Y-68741280D01*
X171871240Y-68741280D01*
X171871240Y-53756660D01*
X174516381Y-53756660D01*
X174548800Y-53759853D01*
X174581219Y-53756660D01*
X174678183Y-53747110D01*
X174802593Y-53709370D01*
X174917250Y-53648085D01*
X175017748Y-53565608D01*
X175100225Y-53465110D01*
X175161510Y-53350453D01*
X175199250Y-53226043D01*
X175211014Y-53106600D01*
X175377489Y-53106600D01*
X175558129Y-53070668D01*
X175728289Y-53000186D01*
X175881428Y-52897862D01*
X175920400Y-52858890D01*
X175959372Y-52897862D01*
X176112511Y-53000186D01*
X176282671Y-53070668D01*
X176463311Y-53106600D01*
X176647489Y-53106600D01*
X176828129Y-53070668D01*
X176998289Y-53000186D01*
X177151428Y-52897862D01*
X177190400Y-52858890D01*
X177229372Y-52897862D01*
X177382511Y-53000186D01*
X177552671Y-53070668D01*
X177733311Y-53106600D01*
X177917489Y-53106600D01*
X178098129Y-53070668D01*
X178268289Y-53000186D01*
X178421428Y-52897862D01*
X178460400Y-52858890D01*
X178499372Y-52897862D01*
X178652511Y-53000186D01*
X178822671Y-53070668D01*
X179003311Y-53106600D01*
X179187489Y-53106600D01*
X179368129Y-53070668D01*
X179538289Y-53000186D01*
X179691428Y-52897862D01*
X179730400Y-52858890D01*
X179769372Y-52897862D01*
X179922511Y-53000186D01*
X180092671Y-53070668D01*
X180273311Y-53106600D01*
X180415436Y-53106600D01*
X180426150Y-53215383D01*
X180463890Y-53339793D01*
X180525175Y-53454450D01*
X180607652Y-53554948D01*
X180708150Y-53637425D01*
X180822807Y-53698710D01*
X180947217Y-53736450D01*
X181044181Y-53746000D01*
X181076600Y-53749193D01*
X181109019Y-53746000D01*
X191305781Y-53746000D01*
X191338200Y-53749193D01*
X191370619Y-53746000D01*
X191467583Y-53736450D01*
X191591993Y-53698710D01*
X191706650Y-53637425D01*
X191807148Y-53554948D01*
X191889625Y-53454450D01*
X191950910Y-53339793D01*
X191988650Y-53215383D01*
X191999364Y-53106600D01*
X192166889Y-53106600D01*
X192347529Y-53070668D01*
X192517689Y-53000186D01*
X192670828Y-52897862D01*
X192709800Y-52858890D01*
X192748772Y-52897862D01*
X192901911Y-53000186D01*
X193072071Y-53070668D01*
X193252711Y-53106600D01*
X193436889Y-53106600D01*
X193617529Y-53070668D01*
X193787689Y-53000186D01*
X193940828Y-52897862D01*
X193979800Y-52858890D01*
X194018772Y-52897862D01*
X194171911Y-53000186D01*
X194342071Y-53070668D01*
X194522711Y-53106600D01*
X194706889Y-53106600D01*
X194887529Y-53070668D01*
X195057689Y-53000186D01*
X195210828Y-52897862D01*
X195249800Y-52858890D01*
X195288772Y-52897862D01*
X195441911Y-53000186D01*
X195612071Y-53070668D01*
X195792711Y-53106600D01*
X195976889Y-53106600D01*
X196157529Y-53070668D01*
X196327689Y-53000186D01*
X196480828Y-52897862D01*
X196519800Y-52858890D01*
X196558772Y-52897862D01*
G37*
%TD.AperFunction*%
D22*
X194737400Y-35560250D02*
X194896150Y-35719000D01*
X198145400Y-35719000D01*
X198145400Y-35699000D01*
X198399400Y-35699000D01*
X198399400Y-35719000D01*
X198419400Y-35719000D01*
X198419400Y-35973000D01*
X198399400Y-35973000D01*
X198399400Y-39222250D01*
X198558150Y-39381000D01*
X200556345Y-39383348D01*
X200558775Y-42411237D01*
X200555607Y-42443400D01*
X200558827Y-42476091D01*
X200558827Y-42476348D01*
X200561891Y-42507208D01*
X200568350Y-42572783D01*
X200568429Y-42573044D01*
X200568455Y-42573304D01*
X200569539Y-42576868D01*
X200567282Y-45324857D01*
X200561981Y-45378679D01*
X200558843Y-45410125D01*
X200558842Y-45410550D01*
X200555607Y-45443400D01*
X200558758Y-45475396D01*
X200552036Y-50656000D01*
X197898419Y-50656000D01*
X197866000Y-50652807D01*
X197833581Y-50656000D01*
X197736617Y-50665550D01*
X197612207Y-50703290D01*
X197497550Y-50764575D01*
X197397052Y-50847052D01*
X197314575Y-50947550D01*
X197253290Y-51062207D01*
X197215550Y-51186617D01*
X197210627Y-51236600D01*
X197062711Y-51236600D01*
X196882071Y-51272532D01*
X196711911Y-51343014D01*
X196558772Y-51445338D01*
X196519800Y-51484310D01*
X196480828Y-51445338D01*
X196327689Y-51343014D01*
X196157529Y-51272532D01*
X195976889Y-51236600D01*
X195792711Y-51236600D01*
X195612071Y-51272532D01*
X195441911Y-51343014D01*
X195288772Y-51445338D01*
X195249800Y-51484310D01*
X195210828Y-51445338D01*
X195057689Y-51343014D01*
X194887529Y-51272532D01*
X194706889Y-51236600D01*
X194522711Y-51236600D01*
X194342071Y-51272532D01*
X194171911Y-51343014D01*
X194018772Y-51445338D01*
X193979800Y-51484310D01*
X193940828Y-51445338D01*
X193787689Y-51343014D01*
X193617529Y-51272532D01*
X193436889Y-51236600D01*
X193252711Y-51236600D01*
X193072071Y-51272532D01*
X192901911Y-51343014D01*
X192748772Y-51445338D01*
X192709800Y-51484310D01*
X192670828Y-51445338D01*
X192517689Y-51343014D01*
X192347529Y-51272532D01*
X192166889Y-51236600D01*
X191993573Y-51236600D01*
X191988650Y-51186617D01*
X191950910Y-51062207D01*
X191889625Y-50947550D01*
X191807148Y-50847052D01*
X191706650Y-50764575D01*
X191591993Y-50703290D01*
X191467583Y-50665550D01*
X191370619Y-50656000D01*
X191338200Y-50652807D01*
X191305781Y-50656000D01*
X181109019Y-50656000D01*
X181076600Y-50652807D01*
X181044181Y-50656000D01*
X180947217Y-50665550D01*
X180822807Y-50703290D01*
X180708150Y-50764575D01*
X180607652Y-50847052D01*
X180525175Y-50947550D01*
X180463890Y-51062207D01*
X180426150Y-51186617D01*
X180421227Y-51236600D01*
X180273311Y-51236600D01*
X180092671Y-51272532D01*
X179922511Y-51343014D01*
X179769372Y-51445338D01*
X179730400Y-51484310D01*
X179691428Y-51445338D01*
X179538289Y-51343014D01*
X179368129Y-51272532D01*
X179187489Y-51236600D01*
X179003311Y-51236600D01*
X178822671Y-51272532D01*
X178652511Y-51343014D01*
X178499372Y-51445338D01*
X178460400Y-51484310D01*
X178421428Y-51445338D01*
X178268289Y-51343014D01*
X178098129Y-51272532D01*
X177917489Y-51236600D01*
X177733311Y-51236600D01*
X177552671Y-51272532D01*
X177382511Y-51343014D01*
X177229372Y-51445338D01*
X177190400Y-51484310D01*
X177151428Y-51445338D01*
X176998289Y-51343014D01*
X176828129Y-51272532D01*
X176647489Y-51236600D01*
X176463311Y-51236600D01*
X176282671Y-51272532D01*
X176112511Y-51343014D01*
X175959372Y-51445338D01*
X175920400Y-51484310D01*
X175881428Y-51445338D01*
X175728289Y-51343014D01*
X175558129Y-51272532D01*
X175377489Y-51236600D01*
X175204173Y-51236600D01*
X175199250Y-51186617D01*
X175161510Y-51062207D01*
X175100225Y-50947550D01*
X175017748Y-50847052D01*
X174917250Y-50764575D01*
X174802593Y-50703290D01*
X174678183Y-50665550D01*
X174581219Y-50656000D01*
X174548800Y-50652807D01*
X174516381Y-50656000D01*
X171881034Y-50656000D01*
X171874799Y-39383288D01*
X173821490Y-39381000D01*
X173980240Y-39222250D01*
X173980240Y-35973000D01*
X174234240Y-35973000D01*
X174234240Y-39222250D01*
X174392990Y-39381000D01*
X177007240Y-39384072D01*
X177131722Y-39371812D01*
X177251420Y-39335502D01*
X177361734Y-39276537D01*
X177458425Y-39197185D01*
X177537777Y-39100494D01*
X177596742Y-38990180D01*
X177633052Y-38870482D01*
X177645312Y-38746000D01*
X194734328Y-38746000D01*
X194746588Y-38870482D01*
X194782898Y-38990180D01*
X194841863Y-39100494D01*
X194921215Y-39197185D01*
X195017906Y-39276537D01*
X195128220Y-39335502D01*
X195247918Y-39371812D01*
X195372400Y-39384072D01*
X197986650Y-39381000D01*
X198145400Y-39222250D01*
X198145400Y-35973000D01*
X194896150Y-35973000D01*
X194737400Y-36131750D01*
X194734328Y-38746000D01*
X177645312Y-38746000D01*
X177642240Y-36131750D01*
X177483490Y-35973000D01*
X174234240Y-35973000D01*
X173980240Y-35973000D01*
X173960240Y-35973000D01*
X173960240Y-35719000D01*
X173980240Y-35719000D01*
X173980240Y-35699000D01*
X174234240Y-35699000D01*
X174234240Y-35719000D01*
X177483490Y-35719000D01*
X177642240Y-35560250D01*
X177644536Y-33606000D01*
X194735104Y-33606000D01*
X194737400Y-35560250D01*
%TA.AperFunction,Conductor*%
D23*
G36*
X194737400Y-35560250D02*
G01*
X194896150Y-35719000D01*
X198145400Y-35719000D01*
X198145400Y-35699000D01*
X198399400Y-35699000D01*
X198399400Y-35719000D01*
X198419400Y-35719000D01*
X198419400Y-35973000D01*
X198399400Y-35973000D01*
X198399400Y-39222250D01*
X198558150Y-39381000D01*
X200556345Y-39383348D01*
X200558775Y-42411237D01*
X200555607Y-42443400D01*
X200558827Y-42476091D01*
X200558827Y-42476348D01*
X200561891Y-42507208D01*
X200568350Y-42572783D01*
X200568429Y-42573044D01*
X200568455Y-42573304D01*
X200569539Y-42576868D01*
X200567282Y-45324857D01*
X200561981Y-45378679D01*
X200558843Y-45410125D01*
X200558842Y-45410550D01*
X200555607Y-45443400D01*
X200558758Y-45475396D01*
X200552036Y-50656000D01*
X197898419Y-50656000D01*
X197866000Y-50652807D01*
X197833581Y-50656000D01*
X197736617Y-50665550D01*
X197612207Y-50703290D01*
X197497550Y-50764575D01*
X197397052Y-50847052D01*
X197314575Y-50947550D01*
X197253290Y-51062207D01*
X197215550Y-51186617D01*
X197210627Y-51236600D01*
X197062711Y-51236600D01*
X196882071Y-51272532D01*
X196711911Y-51343014D01*
X196558772Y-51445338D01*
X196519800Y-51484310D01*
X196480828Y-51445338D01*
X196327689Y-51343014D01*
X196157529Y-51272532D01*
X195976889Y-51236600D01*
X195792711Y-51236600D01*
X195612071Y-51272532D01*
X195441911Y-51343014D01*
X195288772Y-51445338D01*
X195249800Y-51484310D01*
X195210828Y-51445338D01*
X195057689Y-51343014D01*
X194887529Y-51272532D01*
X194706889Y-51236600D01*
X194522711Y-51236600D01*
X194342071Y-51272532D01*
X194171911Y-51343014D01*
X194018772Y-51445338D01*
X193979800Y-51484310D01*
X193940828Y-51445338D01*
X193787689Y-51343014D01*
X193617529Y-51272532D01*
X193436889Y-51236600D01*
X193252711Y-51236600D01*
X193072071Y-51272532D01*
X192901911Y-51343014D01*
X192748772Y-51445338D01*
X192709800Y-51484310D01*
X192670828Y-51445338D01*
X192517689Y-51343014D01*
X192347529Y-51272532D01*
X192166889Y-51236600D01*
X191993573Y-51236600D01*
X191988650Y-51186617D01*
X191950910Y-51062207D01*
X191889625Y-50947550D01*
X191807148Y-50847052D01*
X191706650Y-50764575D01*
X191591993Y-50703290D01*
X191467583Y-50665550D01*
X191370619Y-50656000D01*
X191338200Y-50652807D01*
X191305781Y-50656000D01*
X181109019Y-50656000D01*
X181076600Y-50652807D01*
X181044181Y-50656000D01*
X180947217Y-50665550D01*
X180822807Y-50703290D01*
X180708150Y-50764575D01*
X180607652Y-50847052D01*
X180525175Y-50947550D01*
X180463890Y-51062207D01*
X180426150Y-51186617D01*
X180421227Y-51236600D01*
X180273311Y-51236600D01*
X180092671Y-51272532D01*
X179922511Y-51343014D01*
X179769372Y-51445338D01*
X179730400Y-51484310D01*
X179691428Y-51445338D01*
X179538289Y-51343014D01*
X179368129Y-51272532D01*
X179187489Y-51236600D01*
X179003311Y-51236600D01*
X178822671Y-51272532D01*
X178652511Y-51343014D01*
X178499372Y-51445338D01*
X178460400Y-51484310D01*
X178421428Y-51445338D01*
X178268289Y-51343014D01*
X178098129Y-51272532D01*
X177917489Y-51236600D01*
X177733311Y-51236600D01*
X177552671Y-51272532D01*
X177382511Y-51343014D01*
X177229372Y-51445338D01*
X177190400Y-51484310D01*
X177151428Y-51445338D01*
X176998289Y-51343014D01*
X176828129Y-51272532D01*
X176647489Y-51236600D01*
X176463311Y-51236600D01*
X176282671Y-51272532D01*
X176112511Y-51343014D01*
X175959372Y-51445338D01*
X175920400Y-51484310D01*
X175881428Y-51445338D01*
X175728289Y-51343014D01*
X175558129Y-51272532D01*
X175377489Y-51236600D01*
X175204173Y-51236600D01*
X175199250Y-51186617D01*
X175161510Y-51062207D01*
X175100225Y-50947550D01*
X175017748Y-50847052D01*
X174917250Y-50764575D01*
X174802593Y-50703290D01*
X174678183Y-50665550D01*
X174581219Y-50656000D01*
X174548800Y-50652807D01*
X174516381Y-50656000D01*
X171881034Y-50656000D01*
X171874799Y-39383288D01*
X173821490Y-39381000D01*
X173980240Y-39222250D01*
X173980240Y-35973000D01*
X174234240Y-35973000D01*
X174234240Y-39222250D01*
X174392990Y-39381000D01*
X177007240Y-39384072D01*
X177131722Y-39371812D01*
X177251420Y-39335502D01*
X177361734Y-39276537D01*
X177458425Y-39197185D01*
X177537777Y-39100494D01*
X177596742Y-38990180D01*
X177633052Y-38870482D01*
X177645312Y-38746000D01*
X194734328Y-38746000D01*
X194746588Y-38870482D01*
X194782898Y-38990180D01*
X194841863Y-39100494D01*
X194921215Y-39197185D01*
X195017906Y-39276537D01*
X195128220Y-39335502D01*
X195247918Y-39371812D01*
X195372400Y-39384072D01*
X197986650Y-39381000D01*
X198145400Y-39222250D01*
X198145400Y-35973000D01*
X194896150Y-35973000D01*
X194737400Y-36131750D01*
X194734328Y-38746000D01*
X177645312Y-38746000D01*
X177642240Y-36131750D01*
X177483490Y-35973000D01*
X174234240Y-35973000D01*
X173980240Y-35973000D01*
X173960240Y-35973000D01*
X173960240Y-35719000D01*
X173980240Y-35719000D01*
X173980240Y-35699000D01*
X174234240Y-35699000D01*
X174234240Y-35719000D01*
X177483490Y-35719000D01*
X177642240Y-35560250D01*
X177644536Y-33606000D01*
X194735104Y-33606000D01*
X194737400Y-35560250D01*
G37*
%TD.AperFunction*%
%TD*%
D22*
%TO.N,GND*%
X231657772Y-52895462D02*
X231810911Y-52997786D01*
X231981071Y-53068268D01*
X232161711Y-53104200D01*
X232303836Y-53104200D01*
X232314550Y-53212983D01*
X232352290Y-53337393D01*
X232413575Y-53452050D01*
X232496052Y-53552548D01*
X232596550Y-53635025D01*
X232711207Y-53696310D01*
X232835617Y-53734050D01*
X232932581Y-53743600D01*
X232965000Y-53746793D01*
X232997419Y-53743600D01*
X235650181Y-53743600D01*
X235650181Y-56505858D01*
X233657150Y-56508200D01*
X233498400Y-56666950D01*
X233498400Y-59916200D01*
X233518400Y-59916200D01*
X233518400Y-60170200D01*
X233498400Y-60170200D01*
X233498400Y-63419450D01*
X233657150Y-63578200D01*
X235650181Y-63580542D01*
X235650180Y-79206194D01*
X229151000Y-79192158D01*
X229151000Y-77815869D01*
X229155281Y-77772400D01*
X229151000Y-77728931D01*
X229151000Y-77728923D01*
X229138195Y-77598910D01*
X229112559Y-77514400D01*
X230165946Y-77514400D01*
X230214144Y-77546605D01*
X230402502Y-77624626D01*
X230602461Y-77664400D01*
X230806339Y-77664400D01*
X231006298Y-77624626D01*
X231194656Y-77546605D01*
X231364174Y-77433337D01*
X231508337Y-77289174D01*
X231621605Y-77119656D01*
X231699626Y-76931298D01*
X231739400Y-76731339D01*
X231739400Y-76527461D01*
X231699626Y-76327502D01*
X231621605Y-76139144D01*
X231508337Y-75969626D01*
X231364174Y-75825463D01*
X231194656Y-75712195D01*
X231006298Y-75634174D01*
X230836642Y-75600428D01*
X230841036Y-75584421D01*
X230063240Y-74806625D01*
X229285444Y-75584421D01*
X229329365Y-75744400D01*
X228106265Y-75744400D01*
X228062799Y-75740119D01*
X228019333Y-75744400D01*
X228019323Y-75744400D01*
X227889310Y-75757205D01*
X227722487Y-75807811D01*
X227611445Y-75867163D01*
X227515459Y-75788389D01*
X227361713Y-75706211D01*
X227194890Y-75655605D01*
X227064877Y-75642800D01*
X227064869Y-75642800D01*
X227021400Y-75638519D01*
X226977931Y-75642800D01*
X221977779Y-75642800D01*
X221034469Y-74699490D01*
X228672853Y-74699490D01*
X228713707Y-74969349D01*
X228806423Y-75226052D01*
X228866914Y-75339221D01*
X229105839Y-75404816D01*
X229883635Y-74627020D01*
X230242845Y-74627020D01*
X231020641Y-75404816D01*
X231259566Y-75339221D01*
X231375523Y-75092145D01*
X231441049Y-74827193D01*
X231453627Y-74554550D01*
X231412773Y-74284691D01*
X231320057Y-74027988D01*
X231259566Y-73914819D01*
X231020641Y-73849224D01*
X230242845Y-74627020D01*
X229883635Y-74627020D01*
X229105839Y-73849224D01*
X228866914Y-73914819D01*
X228750957Y-74161895D01*
X228685431Y-74426847D01*
X228672853Y-74699490D01*
X221034469Y-74699490D01*
X220611135Y-74276157D01*
X220599826Y-74219302D01*
X220521805Y-74030944D01*
X220408537Y-73861426D01*
X220264374Y-73717263D01*
X220094856Y-73603995D01*
X219906498Y-73525974D01*
X219870405Y-73518795D01*
X219863226Y-73482702D01*
X219785205Y-73294344D01*
X219671937Y-73124826D01*
X219527774Y-72980663D01*
X219358256Y-72867395D01*
X219169898Y-72789374D01*
X218969939Y-72749600D01*
X218766061Y-72749600D01*
X218566102Y-72789374D01*
X218377744Y-72867395D01*
X218208226Y-72980663D01*
X218064063Y-73124826D01*
X217950795Y-73294344D01*
X217872774Y-73482702D01*
X217833000Y-73682661D01*
X217833000Y-73886539D01*
X217872774Y-74086498D01*
X217950795Y-74274856D01*
X218064063Y-74444374D01*
X218208226Y-74588537D01*
X218377744Y-74701805D01*
X218566102Y-74779826D01*
X218602195Y-74787005D01*
X218609374Y-74823098D01*
X218687395Y-75011456D01*
X218800663Y-75180974D01*
X218944826Y-75325137D01*
X219114344Y-75438405D01*
X219302702Y-75516426D01*
X219359557Y-75527735D01*
X220954670Y-77122849D01*
X220982383Y-77156617D01*
X221016151Y-77184330D01*
X221016153Y-77184332D01*
X221065032Y-77224446D01*
X221117141Y-77267211D01*
X221270887Y-77349389D01*
X221387103Y-77384643D01*
X221437709Y-77399995D01*
X221452506Y-77401452D01*
X221567723Y-77412800D01*
X221567731Y-77412800D01*
X221611200Y-77417081D01*
X221654669Y-77412800D01*
X226654822Y-77412800D01*
X226974470Y-77732449D01*
X227002183Y-77766217D01*
X227035949Y-77793928D01*
X227035953Y-77793932D01*
X227035958Y-77793936D01*
X227381000Y-78138979D01*
X227381000Y-79188336D01*
X206978146Y-79144273D01*
X206977277Y-78087120D01*
X210021725Y-78087120D01*
X210102385Y-78338748D01*
X210370689Y-78467147D01*
X210658886Y-78540735D01*
X210955903Y-78556684D01*
X211250323Y-78514381D01*
X211530834Y-78415452D01*
X211674335Y-78338748D01*
X211754995Y-78087120D01*
X210888360Y-77220485D01*
X210021725Y-78087120D01*
X206977277Y-78087120D01*
X206976471Y-77108423D01*
X209372556Y-77108423D01*
X209414859Y-77402843D01*
X209513788Y-77683354D01*
X209590492Y-77826855D01*
X209842120Y-77907515D01*
X210708755Y-77040880D01*
X211067965Y-77040880D01*
X211934600Y-77907515D01*
X212186228Y-77826855D01*
X212314627Y-77558551D01*
X212388215Y-77270354D01*
X212404164Y-76973337D01*
X212361861Y-76678917D01*
X212262932Y-76398406D01*
X212186228Y-76254905D01*
X211934600Y-76174245D01*
X211067965Y-77040880D01*
X210708755Y-77040880D01*
X209842120Y-76174245D01*
X209590492Y-76254905D01*
X209462093Y-76523209D01*
X209388505Y-76811406D01*
X209372556Y-77108423D01*
X206976471Y-77108423D01*
X206975555Y-75994640D01*
X210021725Y-75994640D01*
X210888360Y-76861275D01*
X211754995Y-75994640D01*
X211674335Y-75743012D01*
X211406031Y-75614613D01*
X211117834Y-75541025D01*
X210820817Y-75525076D01*
X210526397Y-75567379D01*
X210245886Y-75666308D01*
X210102385Y-75743012D01*
X210021725Y-75994640D01*
X206975555Y-75994640D01*
X206969584Y-68738880D01*
X208137295Y-68738880D01*
X208168682Y-69057553D01*
X208261635Y-69363980D01*
X208412583Y-69646385D01*
X208615726Y-69893914D01*
X208863255Y-70097057D01*
X209145660Y-70248005D01*
X209452087Y-70340958D01*
X209690906Y-70364480D01*
X211831814Y-70364480D01*
X212070633Y-70340958D01*
X212377060Y-70248005D01*
X212659465Y-70097057D01*
X212906994Y-69893914D01*
X213110137Y-69646385D01*
X213148892Y-69573880D01*
X213738102Y-69573880D01*
X213779120Y-69577920D01*
X213820138Y-69573880D01*
X213820139Y-69573880D01*
X213942809Y-69561798D01*
X214070601Y-69523033D01*
X214070601Y-71736930D01*
X213049745Y-72757788D01*
X212906994Y-72583846D01*
X212659465Y-72380703D01*
X212377060Y-72229755D01*
X212070633Y-72136802D01*
X211831814Y-72113280D01*
X209690906Y-72113280D01*
X209452087Y-72136802D01*
X209145660Y-72229755D01*
X208863255Y-72380703D01*
X208615726Y-72583846D01*
X208412583Y-72831375D01*
X208261635Y-73113780D01*
X208168682Y-73420207D01*
X208137295Y-73738880D01*
X208168682Y-74057553D01*
X208261635Y-74363980D01*
X208412583Y-74646385D01*
X208615726Y-74893914D01*
X208863255Y-75097057D01*
X209145660Y-75248005D01*
X209452087Y-75340958D01*
X209690906Y-75364480D01*
X211831814Y-75364480D01*
X212070633Y-75340958D01*
X212377060Y-75248005D01*
X212659465Y-75097057D01*
X212906994Y-74893914D01*
X213110137Y-74646385D01*
X213148892Y-74573880D01*
X213208502Y-74573880D01*
X213249520Y-74577920D01*
X213290538Y-74573880D01*
X213290539Y-74573880D01*
X213413209Y-74561798D01*
X213570607Y-74514052D01*
X213715666Y-74436516D01*
X213842811Y-74332171D01*
X213868966Y-74300301D01*
X215467032Y-72702237D01*
X215498891Y-72676091D01*
X215574595Y-72583846D01*
X215603236Y-72548946D01*
X215680772Y-72403887D01*
X215728518Y-72246489D01*
X215744640Y-72082800D01*
X215740600Y-72041782D01*
X215740600Y-67378553D01*
X228677670Y-67378553D01*
X228677670Y-67651487D01*
X228730917Y-67919176D01*
X228835364Y-68171333D01*
X228986998Y-68398269D01*
X229179991Y-68591262D01*
X229406927Y-68742896D01*
X229508623Y-68785020D01*
X229406927Y-68827144D01*
X229179991Y-68978778D01*
X228986998Y-69171771D01*
X228835364Y-69398707D01*
X228730917Y-69650864D01*
X228677670Y-69918553D01*
X228677670Y-70191487D01*
X228730917Y-70459176D01*
X228835364Y-70711333D01*
X228986998Y-70938269D01*
X229119749Y-71071020D01*
X228986998Y-71203771D01*
X228835364Y-71430707D01*
X228730917Y-71682864D01*
X228677670Y-71950553D01*
X228677670Y-72223487D01*
X228730917Y-72491176D01*
X228835364Y-72743333D01*
X228986998Y-72970269D01*
X229179991Y-73163262D01*
X229406927Y-73314896D01*
X229504936Y-73355493D01*
X229464208Y-73370203D01*
X229351039Y-73430694D01*
X229285444Y-73669619D01*
X230063240Y-74447415D01*
X230841036Y-73669619D01*
X230775441Y-73430694D01*
X230618177Y-73356887D01*
X230719553Y-73314896D01*
X230946489Y-73163262D01*
X231139482Y-72970269D01*
X231291116Y-72743333D01*
X231395563Y-72491176D01*
X231448810Y-72223487D01*
X231448810Y-71950553D01*
X231395563Y-71682864D01*
X231291116Y-71430707D01*
X231139482Y-71203771D01*
X231006731Y-71071020D01*
X231139482Y-70938269D01*
X231291116Y-70711333D01*
X231395563Y-70459176D01*
X231448810Y-70191487D01*
X231448810Y-69918553D01*
X231395563Y-69650864D01*
X231291116Y-69398707D01*
X231139482Y-69171771D01*
X230946489Y-68978778D01*
X230719553Y-68827144D01*
X230617857Y-68785020D01*
X230719553Y-68742896D01*
X230946489Y-68591262D01*
X231139482Y-68398269D01*
X231291116Y-68171333D01*
X231395563Y-67919176D01*
X231448810Y-67651487D01*
X231448810Y-67378553D01*
X231395563Y-67110864D01*
X231291116Y-66858707D01*
X231139482Y-66631771D01*
X230946489Y-66438778D01*
X230719553Y-66287144D01*
X230467396Y-66182697D01*
X230199707Y-66129450D01*
X229926773Y-66129450D01*
X229659084Y-66182697D01*
X229406927Y-66287144D01*
X229179991Y-66438778D01*
X228986998Y-66631771D01*
X228835364Y-66858707D01*
X228730917Y-67110864D01*
X228677670Y-67378553D01*
X215740600Y-67378553D01*
X215740600Y-66468583D01*
X215764726Y-66481479D01*
X216044649Y-66566393D01*
X216262810Y-66587880D01*
X216435910Y-66587880D01*
X216654071Y-66566393D01*
X216933994Y-66481479D01*
X217191974Y-66343586D01*
X217418094Y-66158014D01*
X217603666Y-65931894D01*
X217619360Y-65902533D01*
X217635054Y-65931894D01*
X217820626Y-66158014D01*
X218046746Y-66343586D01*
X218304726Y-66481479D01*
X218584649Y-66566393D01*
X218802810Y-66587880D01*
X218975910Y-66587880D01*
X219194071Y-66566393D01*
X219473994Y-66481479D01*
X219731974Y-66343586D01*
X219958094Y-66158014D01*
X220143666Y-65931894D01*
X220162886Y-65895937D01*
X220327763Y-66112809D01*
X220545696Y-66305661D01*
X220797065Y-66452291D01*
X221072210Y-66547064D01*
X221302360Y-66424277D01*
X221302360Y-65229880D01*
X221282360Y-65229880D01*
X221282360Y-64975880D01*
X221302360Y-64975880D01*
X221302360Y-63781483D01*
X221556360Y-63781483D01*
X221556360Y-64975880D01*
X221576360Y-64975880D01*
X221576360Y-65229880D01*
X221556360Y-65229880D01*
X221556360Y-66424277D01*
X221786510Y-66547064D01*
X222061655Y-66452291D01*
X222313024Y-66305661D01*
X222499220Y-66140893D01*
X222516258Y-66197060D01*
X222575223Y-66307374D01*
X222654575Y-66404065D01*
X222751266Y-66483417D01*
X222861580Y-66542382D01*
X222981278Y-66578692D01*
X223105760Y-66590952D01*
X224832960Y-66590952D01*
X224957442Y-66578692D01*
X225077140Y-66542382D01*
X225187454Y-66483417D01*
X225284145Y-66404065D01*
X225363497Y-66307374D01*
X225422462Y-66197060D01*
X225458772Y-66077362D01*
X225471032Y-65952880D01*
X225471032Y-64252880D01*
X225458772Y-64128398D01*
X225422462Y-64008700D01*
X225363497Y-63898386D01*
X225284145Y-63801695D01*
X225187454Y-63722343D01*
X225077140Y-63663378D01*
X224957442Y-63627068D01*
X224832960Y-63614808D01*
X223105760Y-63614808D01*
X222981278Y-63627068D01*
X222861580Y-63663378D01*
X222751266Y-63722343D01*
X222654575Y-63801695D01*
X222575223Y-63898386D01*
X222516258Y-64008700D01*
X222499220Y-64064867D01*
X222313024Y-63900099D01*
X222061655Y-63753469D01*
X221786510Y-63658696D01*
X221556360Y-63781483D01*
X221302360Y-63781483D01*
X221072210Y-63658696D01*
X220797065Y-63753469D01*
X220545696Y-63900099D01*
X220327763Y-64092951D01*
X220162886Y-64309823D01*
X220143666Y-64273866D01*
X219958094Y-64047746D01*
X219731974Y-63862174D01*
X219473994Y-63724281D01*
X219194071Y-63639367D01*
X218975910Y-63617880D01*
X218802810Y-63617880D01*
X218584649Y-63639367D01*
X218304726Y-63724281D01*
X218046746Y-63862174D01*
X217820626Y-64047746D01*
X217635054Y-64273866D01*
X217619360Y-64303227D01*
X217603666Y-64273866D01*
X217418094Y-64047746D01*
X217191974Y-63862174D01*
X216933994Y-63724281D01*
X216654071Y-63639367D01*
X216435910Y-63617880D01*
X216262810Y-63617880D01*
X216044649Y-63639367D01*
X215764726Y-63724281D01*
X215740600Y-63737177D01*
X215740600Y-63469000D01*
X217531582Y-63469000D01*
X217572600Y-63473040D01*
X217613618Y-63469000D01*
X217613619Y-63469000D01*
X217736289Y-63456918D01*
X217893687Y-63409172D01*
X218038746Y-63331636D01*
X218165891Y-63227291D01*
X218192045Y-63195422D01*
X218444267Y-62943200D01*
X229833328Y-62943200D01*
X229845588Y-63067682D01*
X229881898Y-63187380D01*
X229940863Y-63297694D01*
X230020215Y-63394385D01*
X230116906Y-63473737D01*
X230227220Y-63532702D01*
X230346918Y-63569012D01*
X230471400Y-63581272D01*
X233085650Y-63578200D01*
X233244400Y-63419450D01*
X233244400Y-60170200D01*
X229995150Y-60170200D01*
X229836400Y-60328950D01*
X229833328Y-62943200D01*
X218444267Y-62943200D01*
X218997632Y-62389837D01*
X219029491Y-62363691D01*
X219071164Y-62312913D01*
X219133836Y-62236546D01*
X219211372Y-62091487D01*
X219259118Y-61934089D01*
X219259349Y-61931746D01*
X219271200Y-61811419D01*
X219275240Y-61770400D01*
X219271200Y-61729382D01*
X219271200Y-60906076D01*
X219482611Y-60959739D01*
X219774731Y-60975011D01*
X220064219Y-60932999D01*
X220339947Y-60835319D01*
X220477357Y-60761872D01*
X220554992Y-60512797D01*
X219706200Y-59664005D01*
X219692058Y-59678148D01*
X219512453Y-59498543D01*
X219526595Y-59484400D01*
X219512453Y-59470258D01*
X219692058Y-59290653D01*
X219706200Y-59304795D01*
X220554992Y-58456003D01*
X220479471Y-58213711D01*
X220652832Y-58097875D01*
X220859675Y-57891032D01*
X220976200Y-57716640D01*
X221092725Y-57891032D01*
X221299568Y-58097875D01*
X221473960Y-58214400D01*
X221299568Y-58330925D01*
X221092725Y-58537768D01*
X220976889Y-58711129D01*
X220734597Y-58635608D01*
X219885805Y-59484400D01*
X220734597Y-60333192D01*
X220976889Y-60257671D01*
X221092725Y-60431032D01*
X221299568Y-60637875D01*
X221542789Y-60800390D01*
X221813042Y-60912332D01*
X222099940Y-60969400D01*
X222392460Y-60969400D01*
X222679358Y-60912332D01*
X222949611Y-60800390D01*
X223192832Y-60637875D01*
X223399675Y-60431032D01*
X223516200Y-60256640D01*
X223632725Y-60431032D01*
X223839568Y-60637875D01*
X224082789Y-60800390D01*
X224353042Y-60912332D01*
X224639940Y-60969400D01*
X224932460Y-60969400D01*
X225219358Y-60912332D01*
X225489611Y-60800390D01*
X225732832Y-60637875D01*
X225939675Y-60431032D01*
X226102190Y-60187811D01*
X226214132Y-59917558D01*
X226271200Y-59630660D01*
X226271200Y-59338140D01*
X226214132Y-59051242D01*
X226102190Y-58780989D01*
X225939675Y-58537768D01*
X225732832Y-58330925D01*
X225558440Y-58214400D01*
X225732832Y-58097875D01*
X225939675Y-57891032D01*
X226102190Y-57647811D01*
X226214132Y-57377558D01*
X226260749Y-57143200D01*
X229833328Y-57143200D01*
X229836400Y-59757450D01*
X229995150Y-59916200D01*
X233244400Y-59916200D01*
X233244400Y-56666950D01*
X233085650Y-56508200D01*
X230471400Y-56505128D01*
X230346918Y-56517388D01*
X230227220Y-56553698D01*
X230116906Y-56612663D01*
X230020215Y-56692015D01*
X229940863Y-56788706D01*
X229881898Y-56899020D01*
X229845588Y-57018718D01*
X229833328Y-57143200D01*
X226260749Y-57143200D01*
X226271200Y-57090660D01*
X226271200Y-56798140D01*
X226214132Y-56511242D01*
X226102190Y-56240989D01*
X225939675Y-55997768D01*
X225732832Y-55790925D01*
X225489611Y-55628410D01*
X225219358Y-55516468D01*
X224932460Y-55459400D01*
X224639940Y-55459400D01*
X224353042Y-55516468D01*
X224082789Y-55628410D01*
X223839568Y-55790925D01*
X223632725Y-55997768D01*
X223516200Y-56172160D01*
X223399675Y-55997768D01*
X223192832Y-55790925D01*
X222949611Y-55628410D01*
X222679358Y-55516468D01*
X222392460Y-55459400D01*
X222099940Y-55459400D01*
X221813042Y-55516468D01*
X221542789Y-55628410D01*
X221299568Y-55790925D01*
X221092725Y-55997768D01*
X220976200Y-56172160D01*
X220859675Y-55997768D01*
X220652832Y-55790925D01*
X220409611Y-55628410D01*
X220139358Y-55516468D01*
X219852460Y-55459400D01*
X219559940Y-55459400D01*
X219273042Y-55516468D01*
X219002789Y-55628410D01*
X218759568Y-55790925D01*
X218552725Y-55997768D01*
X218436200Y-56172160D01*
X218319675Y-55997768D01*
X218112832Y-55790925D01*
X217869611Y-55628410D01*
X217599358Y-55516468D01*
X217312460Y-55459400D01*
X217019940Y-55459400D01*
X216733042Y-55516468D01*
X216462789Y-55628410D01*
X216219568Y-55790925D01*
X216012725Y-55997768D01*
X215896200Y-56172160D01*
X215779675Y-55997768D01*
X215572832Y-55790925D01*
X215329611Y-55628410D01*
X215059358Y-55516468D01*
X214772460Y-55459400D01*
X214479940Y-55459400D01*
X214193042Y-55516468D01*
X213922789Y-55628410D01*
X213679568Y-55790925D01*
X213472725Y-55997768D01*
X213310210Y-56240989D01*
X213198268Y-56511242D01*
X213141200Y-56798140D01*
X213141200Y-57090660D01*
X213198268Y-57377558D01*
X213310210Y-57647811D01*
X213472725Y-57891032D01*
X213679568Y-58097875D01*
X213853960Y-58214400D01*
X213679568Y-58330925D01*
X213472725Y-58537768D01*
X213310210Y-58780989D01*
X213198268Y-59051242D01*
X213141200Y-59338140D01*
X213141200Y-59630660D01*
X213198268Y-59917558D01*
X213310210Y-60187811D01*
X213472725Y-60431032D01*
X213679568Y-60637875D01*
X213922789Y-60800390D01*
X214193042Y-60912332D01*
X214479940Y-60969400D01*
X214772460Y-60969400D01*
X215059358Y-60912332D01*
X215329611Y-60800390D01*
X215572832Y-60637875D01*
X215779675Y-60431032D01*
X215896200Y-60256640D01*
X216012725Y-60431032D01*
X216219568Y-60637875D01*
X216331201Y-60712465D01*
X216331201Y-61119732D01*
X216251942Y-61198991D01*
X214926685Y-61198991D01*
X214885666Y-61194951D01*
X214844648Y-61198991D01*
X214721978Y-61211073D01*
X214564580Y-61258819D01*
X214419521Y-61336355D01*
X214292376Y-61440700D01*
X214266228Y-61472562D01*
X213709178Y-62029612D01*
X213677309Y-62055767D01*
X213585322Y-62167855D01*
X213572964Y-62182913D01*
X213495428Y-62327972D01*
X213447682Y-62485370D01*
X213431560Y-62649058D01*
X213435600Y-62690077D01*
X213435601Y-67901532D01*
X213433253Y-67903880D01*
X213148892Y-67903880D01*
X213110137Y-67831375D01*
X212906994Y-67583846D01*
X212659465Y-67380703D01*
X212377060Y-67229755D01*
X212070633Y-67136802D01*
X211831814Y-67113280D01*
X209690906Y-67113280D01*
X209452087Y-67136802D01*
X209145660Y-67229755D01*
X208863255Y-67380703D01*
X208615726Y-67583846D01*
X208412583Y-67831375D01*
X208261635Y-68113780D01*
X208168682Y-68420207D01*
X208137295Y-68738880D01*
X206969584Y-68738880D01*
X206957254Y-53754260D01*
X209615381Y-53754260D01*
X209647800Y-53757453D01*
X209680219Y-53754260D01*
X209777183Y-53744710D01*
X209901593Y-53706970D01*
X210016250Y-53645685D01*
X210116748Y-53563208D01*
X210199225Y-53462710D01*
X210260510Y-53348053D01*
X210298250Y-53223643D01*
X210310014Y-53104200D01*
X210476489Y-53104200D01*
X210657129Y-53068268D01*
X210827289Y-52997786D01*
X210980428Y-52895462D01*
X211019400Y-52856490D01*
X211058372Y-52895462D01*
X211211511Y-52997786D01*
X211381671Y-53068268D01*
X211562311Y-53104200D01*
X211746489Y-53104200D01*
X211927129Y-53068268D01*
X212097289Y-52997786D01*
X212250428Y-52895462D01*
X212289400Y-52856490D01*
X212328372Y-52895462D01*
X212481511Y-52997786D01*
X212651671Y-53068268D01*
X212832311Y-53104200D01*
X213016489Y-53104200D01*
X213197129Y-53068268D01*
X213367289Y-52997786D01*
X213520428Y-52895462D01*
X213559400Y-52856490D01*
X213598372Y-52895462D01*
X213751511Y-52997786D01*
X213921671Y-53068268D01*
X214102311Y-53104200D01*
X214286489Y-53104200D01*
X214467129Y-53068268D01*
X214637289Y-52997786D01*
X214790428Y-52895462D01*
X214829400Y-52856490D01*
X214868372Y-52895462D01*
X215021511Y-52997786D01*
X215191671Y-53068268D01*
X215372311Y-53104200D01*
X215514436Y-53104200D01*
X215525150Y-53212983D01*
X215562890Y-53337393D01*
X215624175Y-53452050D01*
X215706652Y-53552548D01*
X215807150Y-53635025D01*
X215921807Y-53696310D01*
X216046217Y-53734050D01*
X216143181Y-53743600D01*
X216175600Y-53746793D01*
X216208019Y-53743600D01*
X226404781Y-53743600D01*
X226437200Y-53746793D01*
X226469619Y-53743600D01*
X226566583Y-53734050D01*
X226690993Y-53696310D01*
X226805650Y-53635025D01*
X226906148Y-53552548D01*
X226988625Y-53452050D01*
X227049910Y-53337393D01*
X227087650Y-53212983D01*
X227098364Y-53104200D01*
X227265889Y-53104200D01*
X227446529Y-53068268D01*
X227616689Y-52997786D01*
X227769828Y-52895462D01*
X227808800Y-52856490D01*
X227847772Y-52895462D01*
X228000911Y-52997786D01*
X228171071Y-53068268D01*
X228351711Y-53104200D01*
X228535889Y-53104200D01*
X228716529Y-53068268D01*
X228886689Y-52997786D01*
X229039828Y-52895462D01*
X229078800Y-52856490D01*
X229117772Y-52895462D01*
X229270911Y-52997786D01*
X229441071Y-53068268D01*
X229621711Y-53104200D01*
X229805889Y-53104200D01*
X229986529Y-53068268D01*
X230156689Y-52997786D01*
X230309828Y-52895462D01*
X230348800Y-52856490D01*
X230387772Y-52895462D01*
X230540911Y-52997786D01*
X230711071Y-53068268D01*
X230891711Y-53104200D01*
X231075889Y-53104200D01*
X231256529Y-53068268D01*
X231426689Y-52997786D01*
X231579828Y-52895462D01*
X231618800Y-52856490D01*
X231657772Y-52895462D01*
%TA.AperFunction,Conductor*%
D23*
G36*
X231657772Y-52895462D02*
G01*
X231810911Y-52997786D01*
X231981071Y-53068268D01*
X232161711Y-53104200D01*
X232303836Y-53104200D01*
X232314550Y-53212983D01*
X232352290Y-53337393D01*
X232413575Y-53452050D01*
X232496052Y-53552548D01*
X232596550Y-53635025D01*
X232711207Y-53696310D01*
X232835617Y-53734050D01*
X232932581Y-53743600D01*
X232965000Y-53746793D01*
X232997419Y-53743600D01*
X235650181Y-53743600D01*
X235650181Y-56505858D01*
X233657150Y-56508200D01*
X233498400Y-56666950D01*
X233498400Y-59916200D01*
X233518400Y-59916200D01*
X233518400Y-60170200D01*
X233498400Y-60170200D01*
X233498400Y-63419450D01*
X233657150Y-63578200D01*
X235650181Y-63580542D01*
X235650180Y-79206194D01*
X229151000Y-79192158D01*
X229151000Y-77815869D01*
X229155281Y-77772400D01*
X229151000Y-77728931D01*
X229151000Y-77728923D01*
X229138195Y-77598910D01*
X229112559Y-77514400D01*
X230165946Y-77514400D01*
X230214144Y-77546605D01*
X230402502Y-77624626D01*
X230602461Y-77664400D01*
X230806339Y-77664400D01*
X231006298Y-77624626D01*
X231194656Y-77546605D01*
X231364174Y-77433337D01*
X231508337Y-77289174D01*
X231621605Y-77119656D01*
X231699626Y-76931298D01*
X231739400Y-76731339D01*
X231739400Y-76527461D01*
X231699626Y-76327502D01*
X231621605Y-76139144D01*
X231508337Y-75969626D01*
X231364174Y-75825463D01*
X231194656Y-75712195D01*
X231006298Y-75634174D01*
X230836642Y-75600428D01*
X230841036Y-75584421D01*
X230063240Y-74806625D01*
X229285444Y-75584421D01*
X229329365Y-75744400D01*
X228106265Y-75744400D01*
X228062799Y-75740119D01*
X228019333Y-75744400D01*
X228019323Y-75744400D01*
X227889310Y-75757205D01*
X227722487Y-75807811D01*
X227611445Y-75867163D01*
X227515459Y-75788389D01*
X227361713Y-75706211D01*
X227194890Y-75655605D01*
X227064877Y-75642800D01*
X227064869Y-75642800D01*
X227021400Y-75638519D01*
X226977931Y-75642800D01*
X221977779Y-75642800D01*
X221034469Y-74699490D01*
X228672853Y-74699490D01*
X228713707Y-74969349D01*
X228806423Y-75226052D01*
X228866914Y-75339221D01*
X229105839Y-75404816D01*
X229883635Y-74627020D01*
X230242845Y-74627020D01*
X231020641Y-75404816D01*
X231259566Y-75339221D01*
X231375523Y-75092145D01*
X231441049Y-74827193D01*
X231453627Y-74554550D01*
X231412773Y-74284691D01*
X231320057Y-74027988D01*
X231259566Y-73914819D01*
X231020641Y-73849224D01*
X230242845Y-74627020D01*
X229883635Y-74627020D01*
X229105839Y-73849224D01*
X228866914Y-73914819D01*
X228750957Y-74161895D01*
X228685431Y-74426847D01*
X228672853Y-74699490D01*
X221034469Y-74699490D01*
X220611135Y-74276157D01*
X220599826Y-74219302D01*
X220521805Y-74030944D01*
X220408537Y-73861426D01*
X220264374Y-73717263D01*
X220094856Y-73603995D01*
X219906498Y-73525974D01*
X219870405Y-73518795D01*
X219863226Y-73482702D01*
X219785205Y-73294344D01*
X219671937Y-73124826D01*
X219527774Y-72980663D01*
X219358256Y-72867395D01*
X219169898Y-72789374D01*
X218969939Y-72749600D01*
X218766061Y-72749600D01*
X218566102Y-72789374D01*
X218377744Y-72867395D01*
X218208226Y-72980663D01*
X218064063Y-73124826D01*
X217950795Y-73294344D01*
X217872774Y-73482702D01*
X217833000Y-73682661D01*
X217833000Y-73886539D01*
X217872774Y-74086498D01*
X217950795Y-74274856D01*
X218064063Y-74444374D01*
X218208226Y-74588537D01*
X218377744Y-74701805D01*
X218566102Y-74779826D01*
X218602195Y-74787005D01*
X218609374Y-74823098D01*
X218687395Y-75011456D01*
X218800663Y-75180974D01*
X218944826Y-75325137D01*
X219114344Y-75438405D01*
X219302702Y-75516426D01*
X219359557Y-75527735D01*
X220954670Y-77122849D01*
X220982383Y-77156617D01*
X221016151Y-77184330D01*
X221016153Y-77184332D01*
X221065032Y-77224446D01*
X221117141Y-77267211D01*
X221270887Y-77349389D01*
X221387103Y-77384643D01*
X221437709Y-77399995D01*
X221452506Y-77401452D01*
X221567723Y-77412800D01*
X221567731Y-77412800D01*
X221611200Y-77417081D01*
X221654669Y-77412800D01*
X226654822Y-77412800D01*
X226974470Y-77732449D01*
X227002183Y-77766217D01*
X227035949Y-77793928D01*
X227035953Y-77793932D01*
X227035958Y-77793936D01*
X227381000Y-78138979D01*
X227381000Y-79188336D01*
X206978146Y-79144273D01*
X206977277Y-78087120D01*
X210021725Y-78087120D01*
X210102385Y-78338748D01*
X210370689Y-78467147D01*
X210658886Y-78540735D01*
X210955903Y-78556684D01*
X211250323Y-78514381D01*
X211530834Y-78415452D01*
X211674335Y-78338748D01*
X211754995Y-78087120D01*
X210888360Y-77220485D01*
X210021725Y-78087120D01*
X206977277Y-78087120D01*
X206976471Y-77108423D01*
X209372556Y-77108423D01*
X209414859Y-77402843D01*
X209513788Y-77683354D01*
X209590492Y-77826855D01*
X209842120Y-77907515D01*
X210708755Y-77040880D01*
X211067965Y-77040880D01*
X211934600Y-77907515D01*
X212186228Y-77826855D01*
X212314627Y-77558551D01*
X212388215Y-77270354D01*
X212404164Y-76973337D01*
X212361861Y-76678917D01*
X212262932Y-76398406D01*
X212186228Y-76254905D01*
X211934600Y-76174245D01*
X211067965Y-77040880D01*
X210708755Y-77040880D01*
X209842120Y-76174245D01*
X209590492Y-76254905D01*
X209462093Y-76523209D01*
X209388505Y-76811406D01*
X209372556Y-77108423D01*
X206976471Y-77108423D01*
X206975555Y-75994640D01*
X210021725Y-75994640D01*
X210888360Y-76861275D01*
X211754995Y-75994640D01*
X211674335Y-75743012D01*
X211406031Y-75614613D01*
X211117834Y-75541025D01*
X210820817Y-75525076D01*
X210526397Y-75567379D01*
X210245886Y-75666308D01*
X210102385Y-75743012D01*
X210021725Y-75994640D01*
X206975555Y-75994640D01*
X206969584Y-68738880D01*
X208137295Y-68738880D01*
X208168682Y-69057553D01*
X208261635Y-69363980D01*
X208412583Y-69646385D01*
X208615726Y-69893914D01*
X208863255Y-70097057D01*
X209145660Y-70248005D01*
X209452087Y-70340958D01*
X209690906Y-70364480D01*
X211831814Y-70364480D01*
X212070633Y-70340958D01*
X212377060Y-70248005D01*
X212659465Y-70097057D01*
X212906994Y-69893914D01*
X213110137Y-69646385D01*
X213148892Y-69573880D01*
X213738102Y-69573880D01*
X213779120Y-69577920D01*
X213820138Y-69573880D01*
X213820139Y-69573880D01*
X213942809Y-69561798D01*
X214070601Y-69523033D01*
X214070601Y-71736930D01*
X213049745Y-72757788D01*
X212906994Y-72583846D01*
X212659465Y-72380703D01*
X212377060Y-72229755D01*
X212070633Y-72136802D01*
X211831814Y-72113280D01*
X209690906Y-72113280D01*
X209452087Y-72136802D01*
X209145660Y-72229755D01*
X208863255Y-72380703D01*
X208615726Y-72583846D01*
X208412583Y-72831375D01*
X208261635Y-73113780D01*
X208168682Y-73420207D01*
X208137295Y-73738880D01*
X208168682Y-74057553D01*
X208261635Y-74363980D01*
X208412583Y-74646385D01*
X208615726Y-74893914D01*
X208863255Y-75097057D01*
X209145660Y-75248005D01*
X209452087Y-75340958D01*
X209690906Y-75364480D01*
X211831814Y-75364480D01*
X212070633Y-75340958D01*
X212377060Y-75248005D01*
X212659465Y-75097057D01*
X212906994Y-74893914D01*
X213110137Y-74646385D01*
X213148892Y-74573880D01*
X213208502Y-74573880D01*
X213249520Y-74577920D01*
X213290538Y-74573880D01*
X213290539Y-74573880D01*
X213413209Y-74561798D01*
X213570607Y-74514052D01*
X213715666Y-74436516D01*
X213842811Y-74332171D01*
X213868966Y-74300301D01*
X215467032Y-72702237D01*
X215498891Y-72676091D01*
X215574595Y-72583846D01*
X215603236Y-72548946D01*
X215680772Y-72403887D01*
X215728518Y-72246489D01*
X215744640Y-72082800D01*
X215740600Y-72041782D01*
X215740600Y-67378553D01*
X228677670Y-67378553D01*
X228677670Y-67651487D01*
X228730917Y-67919176D01*
X228835364Y-68171333D01*
X228986998Y-68398269D01*
X229179991Y-68591262D01*
X229406927Y-68742896D01*
X229508623Y-68785020D01*
X229406927Y-68827144D01*
X229179991Y-68978778D01*
X228986998Y-69171771D01*
X228835364Y-69398707D01*
X228730917Y-69650864D01*
X228677670Y-69918553D01*
X228677670Y-70191487D01*
X228730917Y-70459176D01*
X228835364Y-70711333D01*
X228986998Y-70938269D01*
X229119749Y-71071020D01*
X228986998Y-71203771D01*
X228835364Y-71430707D01*
X228730917Y-71682864D01*
X228677670Y-71950553D01*
X228677670Y-72223487D01*
X228730917Y-72491176D01*
X228835364Y-72743333D01*
X228986998Y-72970269D01*
X229179991Y-73163262D01*
X229406927Y-73314896D01*
X229504936Y-73355493D01*
X229464208Y-73370203D01*
X229351039Y-73430694D01*
X229285444Y-73669619D01*
X230063240Y-74447415D01*
X230841036Y-73669619D01*
X230775441Y-73430694D01*
X230618177Y-73356887D01*
X230719553Y-73314896D01*
X230946489Y-73163262D01*
X231139482Y-72970269D01*
X231291116Y-72743333D01*
X231395563Y-72491176D01*
X231448810Y-72223487D01*
X231448810Y-71950553D01*
X231395563Y-71682864D01*
X231291116Y-71430707D01*
X231139482Y-71203771D01*
X231006731Y-71071020D01*
X231139482Y-70938269D01*
X231291116Y-70711333D01*
X231395563Y-70459176D01*
X231448810Y-70191487D01*
X231448810Y-69918553D01*
X231395563Y-69650864D01*
X231291116Y-69398707D01*
X231139482Y-69171771D01*
X230946489Y-68978778D01*
X230719553Y-68827144D01*
X230617857Y-68785020D01*
X230719553Y-68742896D01*
X230946489Y-68591262D01*
X231139482Y-68398269D01*
X231291116Y-68171333D01*
X231395563Y-67919176D01*
X231448810Y-67651487D01*
X231448810Y-67378553D01*
X231395563Y-67110864D01*
X231291116Y-66858707D01*
X231139482Y-66631771D01*
X230946489Y-66438778D01*
X230719553Y-66287144D01*
X230467396Y-66182697D01*
X230199707Y-66129450D01*
X229926773Y-66129450D01*
X229659084Y-66182697D01*
X229406927Y-66287144D01*
X229179991Y-66438778D01*
X228986998Y-66631771D01*
X228835364Y-66858707D01*
X228730917Y-67110864D01*
X228677670Y-67378553D01*
X215740600Y-67378553D01*
X215740600Y-66468583D01*
X215764726Y-66481479D01*
X216044649Y-66566393D01*
X216262810Y-66587880D01*
X216435910Y-66587880D01*
X216654071Y-66566393D01*
X216933994Y-66481479D01*
X217191974Y-66343586D01*
X217418094Y-66158014D01*
X217603666Y-65931894D01*
X217619360Y-65902533D01*
X217635054Y-65931894D01*
X217820626Y-66158014D01*
X218046746Y-66343586D01*
X218304726Y-66481479D01*
X218584649Y-66566393D01*
X218802810Y-66587880D01*
X218975910Y-66587880D01*
X219194071Y-66566393D01*
X219473994Y-66481479D01*
X219731974Y-66343586D01*
X219958094Y-66158014D01*
X220143666Y-65931894D01*
X220162886Y-65895937D01*
X220327763Y-66112809D01*
X220545696Y-66305661D01*
X220797065Y-66452291D01*
X221072210Y-66547064D01*
X221302360Y-66424277D01*
X221302360Y-65229880D01*
X221282360Y-65229880D01*
X221282360Y-64975880D01*
X221302360Y-64975880D01*
X221302360Y-63781483D01*
X221556360Y-63781483D01*
X221556360Y-64975880D01*
X221576360Y-64975880D01*
X221576360Y-65229880D01*
X221556360Y-65229880D01*
X221556360Y-66424277D01*
X221786510Y-66547064D01*
X222061655Y-66452291D01*
X222313024Y-66305661D01*
X222499220Y-66140893D01*
X222516258Y-66197060D01*
X222575223Y-66307374D01*
X222654575Y-66404065D01*
X222751266Y-66483417D01*
X222861580Y-66542382D01*
X222981278Y-66578692D01*
X223105760Y-66590952D01*
X224832960Y-66590952D01*
X224957442Y-66578692D01*
X225077140Y-66542382D01*
X225187454Y-66483417D01*
X225284145Y-66404065D01*
X225363497Y-66307374D01*
X225422462Y-66197060D01*
X225458772Y-66077362D01*
X225471032Y-65952880D01*
X225471032Y-64252880D01*
X225458772Y-64128398D01*
X225422462Y-64008700D01*
X225363497Y-63898386D01*
X225284145Y-63801695D01*
X225187454Y-63722343D01*
X225077140Y-63663378D01*
X224957442Y-63627068D01*
X224832960Y-63614808D01*
X223105760Y-63614808D01*
X222981278Y-63627068D01*
X222861580Y-63663378D01*
X222751266Y-63722343D01*
X222654575Y-63801695D01*
X222575223Y-63898386D01*
X222516258Y-64008700D01*
X222499220Y-64064867D01*
X222313024Y-63900099D01*
X222061655Y-63753469D01*
X221786510Y-63658696D01*
X221556360Y-63781483D01*
X221302360Y-63781483D01*
X221072210Y-63658696D01*
X220797065Y-63753469D01*
X220545696Y-63900099D01*
X220327763Y-64092951D01*
X220162886Y-64309823D01*
X220143666Y-64273866D01*
X219958094Y-64047746D01*
X219731974Y-63862174D01*
X219473994Y-63724281D01*
X219194071Y-63639367D01*
X218975910Y-63617880D01*
X218802810Y-63617880D01*
X218584649Y-63639367D01*
X218304726Y-63724281D01*
X218046746Y-63862174D01*
X217820626Y-64047746D01*
X217635054Y-64273866D01*
X217619360Y-64303227D01*
X217603666Y-64273866D01*
X217418094Y-64047746D01*
X217191974Y-63862174D01*
X216933994Y-63724281D01*
X216654071Y-63639367D01*
X216435910Y-63617880D01*
X216262810Y-63617880D01*
X216044649Y-63639367D01*
X215764726Y-63724281D01*
X215740600Y-63737177D01*
X215740600Y-63469000D01*
X217531582Y-63469000D01*
X217572600Y-63473040D01*
X217613618Y-63469000D01*
X217613619Y-63469000D01*
X217736289Y-63456918D01*
X217893687Y-63409172D01*
X218038746Y-63331636D01*
X218165891Y-63227291D01*
X218192045Y-63195422D01*
X218444267Y-62943200D01*
X229833328Y-62943200D01*
X229845588Y-63067682D01*
X229881898Y-63187380D01*
X229940863Y-63297694D01*
X230020215Y-63394385D01*
X230116906Y-63473737D01*
X230227220Y-63532702D01*
X230346918Y-63569012D01*
X230471400Y-63581272D01*
X233085650Y-63578200D01*
X233244400Y-63419450D01*
X233244400Y-60170200D01*
X229995150Y-60170200D01*
X229836400Y-60328950D01*
X229833328Y-62943200D01*
X218444267Y-62943200D01*
X218997632Y-62389837D01*
X219029491Y-62363691D01*
X219071164Y-62312913D01*
X219133836Y-62236546D01*
X219211372Y-62091487D01*
X219259118Y-61934089D01*
X219259349Y-61931746D01*
X219271200Y-61811419D01*
X219275240Y-61770400D01*
X219271200Y-61729382D01*
X219271200Y-60906076D01*
X219482611Y-60959739D01*
X219774731Y-60975011D01*
X220064219Y-60932999D01*
X220339947Y-60835319D01*
X220477357Y-60761872D01*
X220554992Y-60512797D01*
X219706200Y-59664005D01*
X219692058Y-59678148D01*
X219512453Y-59498543D01*
X219526595Y-59484400D01*
X219512453Y-59470258D01*
X219692058Y-59290653D01*
X219706200Y-59304795D01*
X220554992Y-58456003D01*
X220479471Y-58213711D01*
X220652832Y-58097875D01*
X220859675Y-57891032D01*
X220976200Y-57716640D01*
X221092725Y-57891032D01*
X221299568Y-58097875D01*
X221473960Y-58214400D01*
X221299568Y-58330925D01*
X221092725Y-58537768D01*
X220976889Y-58711129D01*
X220734597Y-58635608D01*
X219885805Y-59484400D01*
X220734597Y-60333192D01*
X220976889Y-60257671D01*
X221092725Y-60431032D01*
X221299568Y-60637875D01*
X221542789Y-60800390D01*
X221813042Y-60912332D01*
X222099940Y-60969400D01*
X222392460Y-60969400D01*
X222679358Y-60912332D01*
X222949611Y-60800390D01*
X223192832Y-60637875D01*
X223399675Y-60431032D01*
X223516200Y-60256640D01*
X223632725Y-60431032D01*
X223839568Y-60637875D01*
X224082789Y-60800390D01*
X224353042Y-60912332D01*
X224639940Y-60969400D01*
X224932460Y-60969400D01*
X225219358Y-60912332D01*
X225489611Y-60800390D01*
X225732832Y-60637875D01*
X225939675Y-60431032D01*
X226102190Y-60187811D01*
X226214132Y-59917558D01*
X226271200Y-59630660D01*
X226271200Y-59338140D01*
X226214132Y-59051242D01*
X226102190Y-58780989D01*
X225939675Y-58537768D01*
X225732832Y-58330925D01*
X225558440Y-58214400D01*
X225732832Y-58097875D01*
X225939675Y-57891032D01*
X226102190Y-57647811D01*
X226214132Y-57377558D01*
X226260749Y-57143200D01*
X229833328Y-57143200D01*
X229836400Y-59757450D01*
X229995150Y-59916200D01*
X233244400Y-59916200D01*
X233244400Y-56666950D01*
X233085650Y-56508200D01*
X230471400Y-56505128D01*
X230346918Y-56517388D01*
X230227220Y-56553698D01*
X230116906Y-56612663D01*
X230020215Y-56692015D01*
X229940863Y-56788706D01*
X229881898Y-56899020D01*
X229845588Y-57018718D01*
X229833328Y-57143200D01*
X226260749Y-57143200D01*
X226271200Y-57090660D01*
X226271200Y-56798140D01*
X226214132Y-56511242D01*
X226102190Y-56240989D01*
X225939675Y-55997768D01*
X225732832Y-55790925D01*
X225489611Y-55628410D01*
X225219358Y-55516468D01*
X224932460Y-55459400D01*
X224639940Y-55459400D01*
X224353042Y-55516468D01*
X224082789Y-55628410D01*
X223839568Y-55790925D01*
X223632725Y-55997768D01*
X223516200Y-56172160D01*
X223399675Y-55997768D01*
X223192832Y-55790925D01*
X222949611Y-55628410D01*
X222679358Y-55516468D01*
X222392460Y-55459400D01*
X222099940Y-55459400D01*
X221813042Y-55516468D01*
X221542789Y-55628410D01*
X221299568Y-55790925D01*
X221092725Y-55997768D01*
X220976200Y-56172160D01*
X220859675Y-55997768D01*
X220652832Y-55790925D01*
X220409611Y-55628410D01*
X220139358Y-55516468D01*
X219852460Y-55459400D01*
X219559940Y-55459400D01*
X219273042Y-55516468D01*
X219002789Y-55628410D01*
X218759568Y-55790925D01*
X218552725Y-55997768D01*
X218436200Y-56172160D01*
X218319675Y-55997768D01*
X218112832Y-55790925D01*
X217869611Y-55628410D01*
X217599358Y-55516468D01*
X217312460Y-55459400D01*
X217019940Y-55459400D01*
X216733042Y-55516468D01*
X216462789Y-55628410D01*
X216219568Y-55790925D01*
X216012725Y-55997768D01*
X215896200Y-56172160D01*
X215779675Y-55997768D01*
X215572832Y-55790925D01*
X215329611Y-55628410D01*
X215059358Y-55516468D01*
X214772460Y-55459400D01*
X214479940Y-55459400D01*
X214193042Y-55516468D01*
X213922789Y-55628410D01*
X213679568Y-55790925D01*
X213472725Y-55997768D01*
X213310210Y-56240989D01*
X213198268Y-56511242D01*
X213141200Y-56798140D01*
X213141200Y-57090660D01*
X213198268Y-57377558D01*
X213310210Y-57647811D01*
X213472725Y-57891032D01*
X213679568Y-58097875D01*
X213853960Y-58214400D01*
X213679568Y-58330925D01*
X213472725Y-58537768D01*
X213310210Y-58780989D01*
X213198268Y-59051242D01*
X213141200Y-59338140D01*
X213141200Y-59630660D01*
X213198268Y-59917558D01*
X213310210Y-60187811D01*
X213472725Y-60431032D01*
X213679568Y-60637875D01*
X213922789Y-60800390D01*
X214193042Y-60912332D01*
X214479940Y-60969400D01*
X214772460Y-60969400D01*
X215059358Y-60912332D01*
X215329611Y-60800390D01*
X215572832Y-60637875D01*
X215779675Y-60431032D01*
X215896200Y-60256640D01*
X216012725Y-60431032D01*
X216219568Y-60637875D01*
X216331201Y-60712465D01*
X216331201Y-61119732D01*
X216251942Y-61198991D01*
X214926685Y-61198991D01*
X214885666Y-61194951D01*
X214844648Y-61198991D01*
X214721978Y-61211073D01*
X214564580Y-61258819D01*
X214419521Y-61336355D01*
X214292376Y-61440700D01*
X214266228Y-61472562D01*
X213709178Y-62029612D01*
X213677309Y-62055767D01*
X213585322Y-62167855D01*
X213572964Y-62182913D01*
X213495428Y-62327972D01*
X213447682Y-62485370D01*
X213431560Y-62649058D01*
X213435600Y-62690077D01*
X213435601Y-67901532D01*
X213433253Y-67903880D01*
X213148892Y-67903880D01*
X213110137Y-67831375D01*
X212906994Y-67583846D01*
X212659465Y-67380703D01*
X212377060Y-67229755D01*
X212070633Y-67136802D01*
X211831814Y-67113280D01*
X209690906Y-67113280D01*
X209452087Y-67136802D01*
X209145660Y-67229755D01*
X208863255Y-67380703D01*
X208615726Y-67583846D01*
X208412583Y-67831375D01*
X208261635Y-68113780D01*
X208168682Y-68420207D01*
X208137295Y-68738880D01*
X206969584Y-68738880D01*
X206957254Y-53754260D01*
X209615381Y-53754260D01*
X209647800Y-53757453D01*
X209680219Y-53754260D01*
X209777183Y-53744710D01*
X209901593Y-53706970D01*
X210016250Y-53645685D01*
X210116748Y-53563208D01*
X210199225Y-53462710D01*
X210260510Y-53348053D01*
X210298250Y-53223643D01*
X210310014Y-53104200D01*
X210476489Y-53104200D01*
X210657129Y-53068268D01*
X210827289Y-52997786D01*
X210980428Y-52895462D01*
X211019400Y-52856490D01*
X211058372Y-52895462D01*
X211211511Y-52997786D01*
X211381671Y-53068268D01*
X211562311Y-53104200D01*
X211746489Y-53104200D01*
X211927129Y-53068268D01*
X212097289Y-52997786D01*
X212250428Y-52895462D01*
X212289400Y-52856490D01*
X212328372Y-52895462D01*
X212481511Y-52997786D01*
X212651671Y-53068268D01*
X212832311Y-53104200D01*
X213016489Y-53104200D01*
X213197129Y-53068268D01*
X213367289Y-52997786D01*
X213520428Y-52895462D01*
X213559400Y-52856490D01*
X213598372Y-52895462D01*
X213751511Y-52997786D01*
X213921671Y-53068268D01*
X214102311Y-53104200D01*
X214286489Y-53104200D01*
X214467129Y-53068268D01*
X214637289Y-52997786D01*
X214790428Y-52895462D01*
X214829400Y-52856490D01*
X214868372Y-52895462D01*
X215021511Y-52997786D01*
X215191671Y-53068268D01*
X215372311Y-53104200D01*
X215514436Y-53104200D01*
X215525150Y-53212983D01*
X215562890Y-53337393D01*
X215624175Y-53452050D01*
X215706652Y-53552548D01*
X215807150Y-53635025D01*
X215921807Y-53696310D01*
X216046217Y-53734050D01*
X216143181Y-53743600D01*
X216175600Y-53746793D01*
X216208019Y-53743600D01*
X226404781Y-53743600D01*
X226437200Y-53746793D01*
X226469619Y-53743600D01*
X226566583Y-53734050D01*
X226690993Y-53696310D01*
X226805650Y-53635025D01*
X226906148Y-53552548D01*
X226988625Y-53452050D01*
X227049910Y-53337393D01*
X227087650Y-53212983D01*
X227098364Y-53104200D01*
X227265889Y-53104200D01*
X227446529Y-53068268D01*
X227616689Y-52997786D01*
X227769828Y-52895462D01*
X227808800Y-52856490D01*
X227847772Y-52895462D01*
X228000911Y-52997786D01*
X228171071Y-53068268D01*
X228351711Y-53104200D01*
X228535889Y-53104200D01*
X228716529Y-53068268D01*
X228886689Y-52997786D01*
X229039828Y-52895462D01*
X229078800Y-52856490D01*
X229117772Y-52895462D01*
X229270911Y-52997786D01*
X229441071Y-53068268D01*
X229621711Y-53104200D01*
X229805889Y-53104200D01*
X229986529Y-53068268D01*
X230156689Y-52997786D01*
X230309828Y-52895462D01*
X230348800Y-52856490D01*
X230387772Y-52895462D01*
X230540911Y-52997786D01*
X230711071Y-53068268D01*
X230891711Y-53104200D01*
X231075889Y-53104200D01*
X231256529Y-53068268D01*
X231426689Y-52997786D01*
X231579828Y-52895462D01*
X231618800Y-52856490D01*
X231657772Y-52895462D01*
G37*
%TD.AperFunction*%
D22*
X229836400Y-35557850D02*
X229995150Y-35716600D01*
X233244400Y-35716600D01*
X233244400Y-35696600D01*
X233498400Y-35696600D01*
X233498400Y-35716600D01*
X233518400Y-35716600D01*
X233518400Y-35970600D01*
X233498400Y-35970600D01*
X233498400Y-39219850D01*
X233657150Y-39378600D01*
X235650181Y-39380942D01*
X235650180Y-50653600D01*
X232997419Y-50653600D01*
X232965000Y-50650407D01*
X232932581Y-50653600D01*
X232835617Y-50663150D01*
X232711207Y-50700890D01*
X232596550Y-50762175D01*
X232496052Y-50844652D01*
X232413575Y-50945150D01*
X232352290Y-51059807D01*
X232314550Y-51184217D01*
X232309627Y-51234200D01*
X232161711Y-51234200D01*
X231981071Y-51270132D01*
X231810911Y-51340614D01*
X231657772Y-51442938D01*
X231618800Y-51481910D01*
X231579828Y-51442938D01*
X231426689Y-51340614D01*
X231256529Y-51270132D01*
X231075889Y-51234200D01*
X230891711Y-51234200D01*
X230711071Y-51270132D01*
X230540911Y-51340614D01*
X230387772Y-51442938D01*
X230348800Y-51481910D01*
X230309828Y-51442938D01*
X230156689Y-51340614D01*
X229986529Y-51270132D01*
X229805889Y-51234200D01*
X229621711Y-51234200D01*
X229441071Y-51270132D01*
X229270911Y-51340614D01*
X229117772Y-51442938D01*
X229078800Y-51481910D01*
X229039828Y-51442938D01*
X228886689Y-51340614D01*
X228716529Y-51270132D01*
X228535889Y-51234200D01*
X228351711Y-51234200D01*
X228171071Y-51270132D01*
X228000911Y-51340614D01*
X227847772Y-51442938D01*
X227808800Y-51481910D01*
X227769828Y-51442938D01*
X227616689Y-51340614D01*
X227446529Y-51270132D01*
X227265889Y-51234200D01*
X227092573Y-51234200D01*
X227087650Y-51184217D01*
X227049910Y-51059807D01*
X226988625Y-50945150D01*
X226906148Y-50844652D01*
X226805650Y-50762175D01*
X226690993Y-50700890D01*
X226566583Y-50663150D01*
X226469619Y-50653600D01*
X226437200Y-50650407D01*
X226404781Y-50653600D01*
X216208019Y-50653600D01*
X216175600Y-50650407D01*
X216143181Y-50653600D01*
X216046217Y-50663150D01*
X215921807Y-50700890D01*
X215807150Y-50762175D01*
X215706652Y-50844652D01*
X215624175Y-50945150D01*
X215562890Y-51059807D01*
X215525150Y-51184217D01*
X215520227Y-51234200D01*
X215372311Y-51234200D01*
X215191671Y-51270132D01*
X215021511Y-51340614D01*
X214868372Y-51442938D01*
X214829400Y-51481910D01*
X214790428Y-51442938D01*
X214637289Y-51340614D01*
X214467129Y-51270132D01*
X214286489Y-51234200D01*
X214102311Y-51234200D01*
X213921671Y-51270132D01*
X213751511Y-51340614D01*
X213598372Y-51442938D01*
X213559400Y-51481910D01*
X213520428Y-51442938D01*
X213367289Y-51340614D01*
X213197129Y-51270132D01*
X213016489Y-51234200D01*
X212832311Y-51234200D01*
X212651671Y-51270132D01*
X212481511Y-51340614D01*
X212328372Y-51442938D01*
X212289400Y-51481910D01*
X212250428Y-51442938D01*
X212097289Y-51340614D01*
X211927129Y-51270132D01*
X211746489Y-51234200D01*
X211562311Y-51234200D01*
X211381671Y-51270132D01*
X211211511Y-51340614D01*
X211058372Y-51442938D01*
X211019400Y-51481910D01*
X210980428Y-51442938D01*
X210827289Y-51340614D01*
X210657129Y-51270132D01*
X210476489Y-51234200D01*
X210303173Y-51234200D01*
X210298250Y-51184217D01*
X210260510Y-51059807D01*
X210199225Y-50945150D01*
X210116748Y-50844652D01*
X210016250Y-50762175D01*
X209901593Y-50700890D01*
X209777183Y-50663150D01*
X209680219Y-50653600D01*
X209647800Y-50650407D01*
X209615381Y-50653600D01*
X206958800Y-50653600D01*
X206958800Y-45475819D01*
X206961993Y-45443400D01*
X206950318Y-45324863D01*
X206948057Y-42576966D01*
X206949093Y-42573566D01*
X206949132Y-42573171D01*
X206949250Y-42572783D01*
X206955635Y-42507959D01*
X206958760Y-42476613D01*
X206958760Y-42476221D01*
X206961993Y-42443400D01*
X206958839Y-42411372D01*
X206962488Y-39380901D01*
X208920490Y-39378600D01*
X209079240Y-39219850D01*
X209079240Y-35970600D01*
X209333240Y-35970600D01*
X209333240Y-39219850D01*
X209491990Y-39378600D01*
X212106240Y-39381672D01*
X212230722Y-39369412D01*
X212350420Y-39333102D01*
X212460734Y-39274137D01*
X212557425Y-39194785D01*
X212636777Y-39098094D01*
X212695742Y-38987780D01*
X212732052Y-38868082D01*
X212744312Y-38743600D01*
X229833328Y-38743600D01*
X229845588Y-38868082D01*
X229881898Y-38987780D01*
X229940863Y-39098094D01*
X230020215Y-39194785D01*
X230116906Y-39274137D01*
X230227220Y-39333102D01*
X230346918Y-39369412D01*
X230471400Y-39381672D01*
X233085650Y-39378600D01*
X233244400Y-39219850D01*
X233244400Y-35970600D01*
X229995150Y-35970600D01*
X229836400Y-36129350D01*
X229833328Y-38743600D01*
X212744312Y-38743600D01*
X212741240Y-36129350D01*
X212582490Y-35970600D01*
X209333240Y-35970600D01*
X209079240Y-35970600D01*
X209059240Y-35970600D01*
X209059240Y-35716600D01*
X209079240Y-35716600D01*
X209079240Y-35696600D01*
X209333240Y-35696600D01*
X209333240Y-35716600D01*
X212582490Y-35716600D01*
X212741240Y-35557850D01*
X212743536Y-33603600D01*
X229834104Y-33603600D01*
X229836400Y-35557850D01*
%TA.AperFunction,Conductor*%
D23*
G36*
X229836400Y-35557850D02*
G01*
X229995150Y-35716600D01*
X233244400Y-35716600D01*
X233244400Y-35696600D01*
X233498400Y-35696600D01*
X233498400Y-35716600D01*
X233518400Y-35716600D01*
X233518400Y-35970600D01*
X233498400Y-35970600D01*
X233498400Y-39219850D01*
X233657150Y-39378600D01*
X235650181Y-39380942D01*
X235650180Y-50653600D01*
X232997419Y-50653600D01*
X232965000Y-50650407D01*
X232932581Y-50653600D01*
X232835617Y-50663150D01*
X232711207Y-50700890D01*
X232596550Y-50762175D01*
X232496052Y-50844652D01*
X232413575Y-50945150D01*
X232352290Y-51059807D01*
X232314550Y-51184217D01*
X232309627Y-51234200D01*
X232161711Y-51234200D01*
X231981071Y-51270132D01*
X231810911Y-51340614D01*
X231657772Y-51442938D01*
X231618800Y-51481910D01*
X231579828Y-51442938D01*
X231426689Y-51340614D01*
X231256529Y-51270132D01*
X231075889Y-51234200D01*
X230891711Y-51234200D01*
X230711071Y-51270132D01*
X230540911Y-51340614D01*
X230387772Y-51442938D01*
X230348800Y-51481910D01*
X230309828Y-51442938D01*
X230156689Y-51340614D01*
X229986529Y-51270132D01*
X229805889Y-51234200D01*
X229621711Y-51234200D01*
X229441071Y-51270132D01*
X229270911Y-51340614D01*
X229117772Y-51442938D01*
X229078800Y-51481910D01*
X229039828Y-51442938D01*
X228886689Y-51340614D01*
X228716529Y-51270132D01*
X228535889Y-51234200D01*
X228351711Y-51234200D01*
X228171071Y-51270132D01*
X228000911Y-51340614D01*
X227847772Y-51442938D01*
X227808800Y-51481910D01*
X227769828Y-51442938D01*
X227616689Y-51340614D01*
X227446529Y-51270132D01*
X227265889Y-51234200D01*
X227092573Y-51234200D01*
X227087650Y-51184217D01*
X227049910Y-51059807D01*
X226988625Y-50945150D01*
X226906148Y-50844652D01*
X226805650Y-50762175D01*
X226690993Y-50700890D01*
X226566583Y-50663150D01*
X226469619Y-50653600D01*
X226437200Y-50650407D01*
X226404781Y-50653600D01*
X216208019Y-50653600D01*
X216175600Y-50650407D01*
X216143181Y-50653600D01*
X216046217Y-50663150D01*
X215921807Y-50700890D01*
X215807150Y-50762175D01*
X215706652Y-50844652D01*
X215624175Y-50945150D01*
X215562890Y-51059807D01*
X215525150Y-51184217D01*
X215520227Y-51234200D01*
X215372311Y-51234200D01*
X215191671Y-51270132D01*
X215021511Y-51340614D01*
X214868372Y-51442938D01*
X214829400Y-51481910D01*
X214790428Y-51442938D01*
X214637289Y-51340614D01*
X214467129Y-51270132D01*
X214286489Y-51234200D01*
X214102311Y-51234200D01*
X213921671Y-51270132D01*
X213751511Y-51340614D01*
X213598372Y-51442938D01*
X213559400Y-51481910D01*
X213520428Y-51442938D01*
X213367289Y-51340614D01*
X213197129Y-51270132D01*
X213016489Y-51234200D01*
X212832311Y-51234200D01*
X212651671Y-51270132D01*
X212481511Y-51340614D01*
X212328372Y-51442938D01*
X212289400Y-51481910D01*
X212250428Y-51442938D01*
X212097289Y-51340614D01*
X211927129Y-51270132D01*
X211746489Y-51234200D01*
X211562311Y-51234200D01*
X211381671Y-51270132D01*
X211211511Y-51340614D01*
X211058372Y-51442938D01*
X211019400Y-51481910D01*
X210980428Y-51442938D01*
X210827289Y-51340614D01*
X210657129Y-51270132D01*
X210476489Y-51234200D01*
X210303173Y-51234200D01*
X210298250Y-51184217D01*
X210260510Y-51059807D01*
X210199225Y-50945150D01*
X210116748Y-50844652D01*
X210016250Y-50762175D01*
X209901593Y-50700890D01*
X209777183Y-50663150D01*
X209680219Y-50653600D01*
X209647800Y-50650407D01*
X209615381Y-50653600D01*
X206958800Y-50653600D01*
X206958800Y-45475819D01*
X206961993Y-45443400D01*
X206950318Y-45324863D01*
X206948057Y-42576966D01*
X206949093Y-42573566D01*
X206949132Y-42573171D01*
X206949250Y-42572783D01*
X206955635Y-42507959D01*
X206958760Y-42476613D01*
X206958760Y-42476221D01*
X206961993Y-42443400D01*
X206958839Y-42411372D01*
X206962488Y-39380901D01*
X208920490Y-39378600D01*
X209079240Y-39219850D01*
X209079240Y-35970600D01*
X209333240Y-35970600D01*
X209333240Y-39219850D01*
X209491990Y-39378600D01*
X212106240Y-39381672D01*
X212230722Y-39369412D01*
X212350420Y-39333102D01*
X212460734Y-39274137D01*
X212557425Y-39194785D01*
X212636777Y-39098094D01*
X212695742Y-38987780D01*
X212732052Y-38868082D01*
X212744312Y-38743600D01*
X229833328Y-38743600D01*
X229845588Y-38868082D01*
X229881898Y-38987780D01*
X229940863Y-39098094D01*
X230020215Y-39194785D01*
X230116906Y-39274137D01*
X230227220Y-39333102D01*
X230346918Y-39369412D01*
X230471400Y-39381672D01*
X233085650Y-39378600D01*
X233244400Y-39219850D01*
X233244400Y-35970600D01*
X229995150Y-35970600D01*
X229836400Y-36129350D01*
X229833328Y-38743600D01*
X212744312Y-38743600D01*
X212741240Y-36129350D01*
X212582490Y-35970600D01*
X209333240Y-35970600D01*
X209079240Y-35970600D01*
X209059240Y-35970600D01*
X209059240Y-35716600D01*
X209079240Y-35716600D01*
X209079240Y-35696600D01*
X209333240Y-35696600D01*
X209333240Y-35716600D01*
X212582490Y-35716600D01*
X212741240Y-35557850D01*
X212743536Y-33603600D01*
X229834104Y-33603600D01*
X229836400Y-35557850D01*
G37*
%TD.AperFunction*%
%TD*%
M02*
