M48
; DRILL file {KiCad (5.1.9)-1} date 06/29/21 00:03:35
; FORMAT={-:-/ absolute / metric / decimal}
; #@! TF.CreationDate,2021-06-29T00:03:35+02:00
; #@! TF.GenerationSoftware,Kicad,Pcbnew,(5.1.9)-1
; #@! TF.FileFunction,Plated,1,2,PTH
FMAT,2
METRIC
T1C0.400
T2C1.001
T3C1.016
T4C1.020
T5C1.250
T6C1.321
T7C2.600
%
G90
G05
T1
X172.441Y-77.572
X172.491Y-55.194
X172.491Y-73.609
X172.517Y-59.614
X172.542Y-57.506
X172.568Y-70.282
X172.593Y-67.564
X173.101Y-63.017
X173.99Y-40.64
X173.99Y-43.18
X173.99Y-45.72
X173.99Y-48.26
X174.93Y-66.421
X175.031Y-55.143
X175.108Y-59.792
X175.133Y-57.404
X175.387Y-64.516
X175.514Y-70.968
X175.539Y-61.874
X176.53Y-40.64
X176.53Y-43.18
X176.53Y-45.72
X176.53Y-48.26
X176.53Y-50.8
X177.724Y-55.093
X178.003Y-66.142
X178.181Y-71.018
X179.07Y-35.56
X179.07Y-38.1
X179.07Y-40.64
X179.07Y-43.18
X179.07Y-45.72
X179.07Y-48.26
X179.07Y-50.8
X180.048Y-77.712
X180.188Y-73.685
X180.391Y-55.067
X181.077Y-68.605
X181.61Y-35.56
X181.61Y-38.1
X181.61Y-40.64
X181.61Y-43.18
X181.61Y-45.72
X181.61Y-48.26
X182.423Y-67.132
X183.007Y-75.844
X183.769Y-55.169
X183.769Y-73.787
X184.15Y-35.56
X184.15Y-38.1
X184.15Y-40.64
X184.15Y-43.18
X184.15Y-45.72
X184.15Y-48.26
X184.353Y-77.318
X184.506Y-74.524
X185.344Y-68.656
X185.369Y-71.857
X186.055Y-74.041
X186.411Y-55.016
X186.69Y-35.56
X186.69Y-38.1
X186.69Y-40.64
X186.69Y-43.18
X186.69Y-45.72
X186.69Y-48.26
X187.046Y-75.082
X188.189Y-78.181
X188.443Y-67.564
X188.468Y-61.087
X189.23Y-35.56
X189.23Y-38.1
X189.23Y-40.64
X189.23Y-43.18
X189.23Y-45.72
X189.23Y-48.26
X189.382Y-55.067
X189.865Y-78.181
X190.5Y-73.99
X191.44Y-66.396
X191.719Y-61.239
X191.77Y-35.56
X191.77Y-38.1
X191.77Y-40.64
X191.77Y-43.18
X191.77Y-45.72
X191.77Y-48.26
X191.795Y-57.404
X191.821Y-55.093
X191.897Y-59.792
X192.532Y-74.193
X192.634Y-71.069
X193.116Y-68.783
X193.726Y-57.404
X193.777Y-55.093
X193.802Y-61.9
X193.827Y-59.817
X194.31Y-35.56
X194.31Y-38.1
X194.31Y-40.64
X194.31Y-43.18
X194.31Y-45.72
X194.31Y-48.26
X194.31Y-50.8
X194.513Y-65.253
X194.912Y-78.519
X195.605Y-76.632
X196.774Y-67.488
X196.774Y-70.053
X196.774Y-72.034
X196.799Y-65.253
X196.799Y-74.574
X196.85Y-40.64
X196.85Y-43.18
X196.85Y-45.72
X196.85Y-48.26
X196.85Y-50.8
X197.841Y-55.016
X197.968Y-76.606
X199.111Y-65.253
X199.111Y-74.574
X199.136Y-67.462
X199.136Y-70.053
X199.136Y-72.06
X199.39Y-40.64
X199.39Y-43.18
X199.39Y-45.72
X199.39Y-48.26
X200.152Y-55.042
X207.54Y-77.569
X207.59Y-55.192
X207.59Y-73.607
X207.616Y-59.611
X207.641Y-57.503
X207.667Y-70.279
X207.692Y-67.562
X208.2Y-63.015
X209.089Y-40.638
X209.089Y-43.178
X209.089Y-45.718
X209.089Y-48.258
X210.029Y-66.419
X210.13Y-55.141
X210.207Y-59.789
X210.232Y-57.402
X210.486Y-64.514
X210.613Y-70.965
X210.638Y-61.872
X211.629Y-40.638
X211.629Y-43.178
X211.629Y-45.718
X211.629Y-48.258
X211.629Y-50.798
X212.823Y-55.09
X213.102Y-66.139
X213.28Y-71.016
X214.169Y-35.558
X214.169Y-38.098
X214.169Y-40.638
X214.169Y-43.178
X214.169Y-45.718
X214.169Y-48.258
X214.169Y-50.798
X215.147Y-77.709
X215.287Y-73.683
X215.49Y-55.065
X216.176Y-68.603
X216.709Y-35.558
X216.709Y-38.098
X216.709Y-40.638
X216.709Y-43.178
X216.709Y-45.718
X216.709Y-48.258
X217.522Y-67.13
X218.106Y-75.842
X218.868Y-55.166
X218.868Y-73.785
X219.249Y-35.558
X219.249Y-38.098
X219.249Y-40.638
X219.249Y-43.178
X219.249Y-45.718
X219.249Y-48.258
X219.452Y-77.316
X219.605Y-74.521
X220.443Y-68.654
X220.468Y-71.854
X221.154Y-74.039
X221.51Y-55.014
X221.789Y-35.558
X221.789Y-38.098
X221.789Y-40.638
X221.789Y-43.178
X221.789Y-45.718
X221.789Y-48.258
X222.145Y-75.08
X223.288Y-78.178
X223.542Y-67.562
X223.567Y-61.085
X224.329Y-35.558
X224.329Y-38.098
X224.329Y-40.638
X224.329Y-43.178
X224.329Y-45.718
X224.329Y-48.258
X224.481Y-55.065
X224.964Y-78.178
X225.599Y-73.988
X226.539Y-66.393
X226.818Y-61.237
X226.869Y-35.558
X226.869Y-38.098
X226.869Y-40.638
X226.869Y-43.178
X226.869Y-45.718
X226.869Y-48.258
X226.894Y-57.402
X226.92Y-55.09
X226.996Y-59.789
X227.631Y-74.191
X227.733Y-71.067
X228.215Y-68.781
X228.825Y-57.402
X228.876Y-55.09
X228.901Y-61.897
X228.926Y-59.815
X229.409Y-35.558
X229.409Y-38.098
X229.409Y-40.638
X229.409Y-43.178
X229.409Y-45.718
X229.409Y-48.258
X229.409Y-50.798
X229.612Y-65.25
X230.011Y-78.517
X230.704Y-76.629
X231.873Y-67.485
X231.873Y-70.051
X231.873Y-72.032
X231.898Y-65.25
X231.898Y-74.572
X231.949Y-40.638
X231.949Y-43.178
X231.949Y-45.718
X231.949Y-48.258
X231.949Y-50.798
X232.94Y-55.014
X233.067Y-76.604
X234.21Y-65.25
X234.21Y-74.572
X234.235Y-67.46
X234.235Y-70.051
X234.235Y-72.057
X234.489Y-40.638
X234.489Y-43.178
X234.489Y-45.718
X234.489Y-48.258
X235.251Y-55.039
T2
X194.964Y-67.517
X194.964Y-70.057
X194.964Y-72.089
X194.964Y-74.629
X230.063Y-67.515
X230.063Y-70.055
X230.063Y-72.087
X230.063Y-74.627
T3
X181.25Y-65.105
X183.79Y-65.105
X186.33Y-65.105
X188.87Y-65.105
X216.349Y-65.103
X218.889Y-65.103
X221.429Y-65.103
X223.969Y-65.103
T4
X179.527Y-56.947
X179.527Y-59.487
X182.067Y-56.947
X182.067Y-59.487
X184.607Y-56.947
X184.607Y-59.487
X187.147Y-56.947
X187.147Y-59.487
X189.687Y-56.947
X189.687Y-59.487
X214.626Y-56.944
X214.626Y-59.484
X217.166Y-56.944
X217.166Y-59.484
X219.706Y-56.944
X219.706Y-59.484
X222.246Y-56.944
X222.246Y-59.484
X224.786Y-56.944
X224.786Y-59.484
T5
X175.789Y-77.043
X210.888Y-77.041
T6
X175.662Y-68.741
X175.662Y-73.741
X210.761Y-68.739
X210.761Y-73.739
T7
X174.107Y-35.846
X198.272Y-35.846
X198.272Y-60.046
X209.206Y-35.844
X233.371Y-35.844
X233.371Y-60.043
T0
M30
