%TF.GenerationSoftware,KiCad,Pcbnew,(5.1.9)-1*%
%TF.CreationDate,2021-06-29T00:03:32+02:00*%
%TF.ProjectId,mPCIE_to_CAN,6d504349-455f-4746-9f5f-43414e2e6b69,rev?*%
%TF.SameCoordinates,Original*%
%TF.FileFunction,Soldermask,Bot*%
%TF.FilePolarity,Negative*%
%FSLAX46Y46*%
G04 Gerber Fmt 4.6, Leading zero omitted, Abs format (unit mm)*
G04 Created by KiCad (PCBNEW (5.1.9)-1) date 2021-06-29 00:03:32*
%MOMM*%
%LPD*%
G01*
G04 APERTURE LIST*
%ADD10C,0.600000*%
%ADD11R,1.550000X0.600000*%
%ADD12R,1.800000X1.200000*%
%ADD13C,1.700000*%
%ADD14R,5.800000X5.800000*%
%ADD15C,1.750000*%
%ADD16O,3.962400X1.981200*%
%ADD17O,1.727200X1.700000*%
%ADD18R,1.727200X1.700000*%
%ADD19C,1.501140*%
G04 APERTURE END LIST*
D10*
%TO.C,REF\u002A\u002A*%
X227173800Y-52169200D03*
X228443800Y-52169200D03*
X230983800Y-52169200D03*
X232253800Y-52169200D03*
X229713800Y-52169200D03*
%TD*%
%TO.C,R3*%
G36*
G01*
X218122500Y-69539800D02*
X218597500Y-69539800D01*
G75*
G02*
X218835000Y-69777300I0J-237500D01*
G01*
X218835000Y-70277300D01*
G75*
G02*
X218597500Y-70514800I-237500J0D01*
G01*
X218122500Y-70514800D01*
G75*
G02*
X217885000Y-70277300I0J237500D01*
G01*
X217885000Y-69777300D01*
G75*
G02*
X218122500Y-69539800I237500J0D01*
G01*
G37*
G36*
G01*
X218122500Y-71364800D02*
X218597500Y-71364800D01*
G75*
G02*
X218835000Y-71602300I0J-237500D01*
G01*
X218835000Y-72102300D01*
G75*
G02*
X218597500Y-72339800I-237500J0D01*
G01*
X218122500Y-72339800D01*
G75*
G02*
X217885000Y-72102300I0J237500D01*
G01*
X217885000Y-71602300D01*
G75*
G02*
X218122500Y-71364800I237500J0D01*
G01*
G37*
%TD*%
D11*
%TO.C,J2*%
X212137000Y-63751600D03*
X212137000Y-62751600D03*
D12*
X208262000Y-61451600D03*
X208262000Y-65051600D03*
%TD*%
D13*
%TO.C,J3*%
X214626200Y-59484400D03*
X217166200Y-59484400D03*
X219706200Y-59484400D03*
X222246200Y-59484400D03*
X224786200Y-59484400D03*
X217166200Y-56944400D03*
X224786200Y-56944400D03*
X219706200Y-56944400D03*
X222246200Y-56944400D03*
X214626200Y-56944400D03*
%TD*%
D14*
%TO.C,REF\u002A\u002A*%
X209206240Y-35843600D03*
%TD*%
%TO.C,R2*%
G36*
G01*
X225729000Y-71896100D02*
X225729000Y-72371100D01*
G75*
G02*
X225491500Y-72608600I-237500J0D01*
G01*
X224991500Y-72608600D01*
G75*
G02*
X224754000Y-72371100I0J237500D01*
G01*
X224754000Y-71896100D01*
G75*
G02*
X224991500Y-71658600I237500J0D01*
G01*
X225491500Y-71658600D01*
G75*
G02*
X225729000Y-71896100I0J-237500D01*
G01*
G37*
G36*
G01*
X223904000Y-71896100D02*
X223904000Y-72371100D01*
G75*
G02*
X223666500Y-72608600I-237500J0D01*
G01*
X223166500Y-72608600D01*
G75*
G02*
X222929000Y-72371100I0J237500D01*
G01*
X222929000Y-71896100D01*
G75*
G02*
X223166500Y-71658600I237500J0D01*
G01*
X223666500Y-71658600D01*
G75*
G02*
X223904000Y-71896100I0J-237500D01*
G01*
G37*
%TD*%
%TO.C,R4*%
G36*
G01*
X219683800Y-62218700D02*
X219683800Y-62693700D01*
G75*
G02*
X219446300Y-62931200I-237500J0D01*
G01*
X218946300Y-62931200D01*
G75*
G02*
X218708800Y-62693700I0J237500D01*
G01*
X218708800Y-62218700D01*
G75*
G02*
X218946300Y-61981200I237500J0D01*
G01*
X219446300Y-61981200D01*
G75*
G02*
X219683800Y-62218700I0J-237500D01*
G01*
G37*
G36*
G01*
X217858800Y-62218700D02*
X217858800Y-62693700D01*
G75*
G02*
X217621300Y-62931200I-237500J0D01*
G01*
X217121300Y-62931200D01*
G75*
G02*
X216883800Y-62693700I0J237500D01*
G01*
X216883800Y-62218700D01*
G75*
G02*
X217121300Y-61981200I237500J0D01*
G01*
X217621300Y-61981200D01*
G75*
G02*
X217858800Y-62218700I0J-237500D01*
G01*
G37*
%TD*%
D15*
%TO.C,U1*%
X210888360Y-77040880D03*
D16*
X210761360Y-68738880D03*
X210761360Y-73738880D03*
D17*
X216349360Y-65102880D03*
X218889360Y-65102880D03*
X221429360Y-65102880D03*
D18*
X223969360Y-65102880D03*
D19*
X230063240Y-72087020D03*
X230063240Y-74627020D03*
X230063240Y-70055020D03*
X230063240Y-67515020D03*
%TD*%
%TO.C,R1*%
G36*
G01*
X225856000Y-69864100D02*
X225856000Y-70339100D01*
G75*
G02*
X225618500Y-70576600I-237500J0D01*
G01*
X225118500Y-70576600D01*
G75*
G02*
X224881000Y-70339100I0J237500D01*
G01*
X224881000Y-69864100D01*
G75*
G02*
X225118500Y-69626600I237500J0D01*
G01*
X225618500Y-69626600D01*
G75*
G02*
X225856000Y-69864100I0J-237500D01*
G01*
G37*
G36*
G01*
X224031000Y-69864100D02*
X224031000Y-70339100D01*
G75*
G02*
X223793500Y-70576600I-237500J0D01*
G01*
X223293500Y-70576600D01*
G75*
G02*
X223056000Y-70339100I0J237500D01*
G01*
X223056000Y-69864100D01*
G75*
G02*
X223293500Y-69626600I237500J0D01*
G01*
X223793500Y-69626600D01*
G75*
G02*
X224031000Y-69864100I0J-237500D01*
G01*
G37*
%TD*%
D10*
%TO.C,REF\u002A\u002A*%
X212924400Y-52169200D03*
X215464400Y-52169200D03*
X214194400Y-52169200D03*
X211654400Y-52169200D03*
X210384400Y-52169200D03*
%TD*%
D14*
%TO.C,REF\u002A\u002A*%
X233371400Y-35843600D03*
%TD*%
%TO.C,J1*%
G36*
G01*
X215209000Y-81243800D02*
X215809000Y-81243800D01*
G75*
G02*
X215909000Y-81343800I0J-100000D01*
G01*
X215909000Y-83643800D01*
G75*
G02*
X215809000Y-83743800I-100000J0D01*
G01*
X215209000Y-83743800D01*
G75*
G02*
X215109000Y-83643800I0J100000D01*
G01*
X215109000Y-81343800D01*
G75*
G02*
X215209000Y-81243800I100000J0D01*
G01*
G37*
G36*
G01*
X219209000Y-81243800D02*
X219809000Y-81243800D01*
G75*
G02*
X219909000Y-81343800I0J-100000D01*
G01*
X219909000Y-83643800D01*
G75*
G02*
X219809000Y-83743800I-100000J0D01*
G01*
X219209000Y-83743800D01*
G75*
G02*
X219109000Y-83643800I0J100000D01*
G01*
X219109000Y-81343800D01*
G75*
G02*
X219209000Y-81243800I100000J0D01*
G01*
G37*
G36*
G01*
X214409000Y-81243800D02*
X215009000Y-81243800D01*
G75*
G02*
X215109000Y-81343800I0J-100000D01*
G01*
X215109000Y-83643800D01*
G75*
G02*
X215009000Y-83743800I-100000J0D01*
G01*
X214409000Y-83743800D01*
G75*
G02*
X214309000Y-83643800I0J100000D01*
G01*
X214309000Y-81343800D01*
G75*
G02*
X214409000Y-81243800I100000J0D01*
G01*
G37*
G36*
G01*
X213609000Y-81243800D02*
X214209000Y-81243800D01*
G75*
G02*
X214309000Y-81343800I0J-100000D01*
G01*
X214309000Y-83643800D01*
G75*
G02*
X214209000Y-83743800I-100000J0D01*
G01*
X213609000Y-83743800D01*
G75*
G02*
X213509000Y-83643800I0J100000D01*
G01*
X213509000Y-81343800D01*
G75*
G02*
X213609000Y-81243800I100000J0D01*
G01*
G37*
G36*
G01*
X212809000Y-81243800D02*
X213409000Y-81243800D01*
G75*
G02*
X213509000Y-81343800I0J-100000D01*
G01*
X213509000Y-83643800D01*
G75*
G02*
X213409000Y-83743800I-100000J0D01*
G01*
X212809000Y-83743800D01*
G75*
G02*
X212709000Y-83643800I0J100000D01*
G01*
X212709000Y-81343800D01*
G75*
G02*
X212809000Y-81243800I100000J0D01*
G01*
G37*
G36*
G01*
X212009000Y-81243800D02*
X212609000Y-81243800D01*
G75*
G02*
X212709000Y-81343800I0J-100000D01*
G01*
X212709000Y-83643800D01*
G75*
G02*
X212609000Y-83743800I-100000J0D01*
G01*
X212009000Y-83743800D01*
G75*
G02*
X211909000Y-83643800I0J100000D01*
G01*
X211909000Y-81343800D01*
G75*
G02*
X212009000Y-81243800I100000J0D01*
G01*
G37*
G36*
G01*
X211209000Y-81243800D02*
X211809000Y-81243800D01*
G75*
G02*
X211909000Y-81343800I0J-100000D01*
G01*
X211909000Y-83643800D01*
G75*
G02*
X211809000Y-83743800I-100000J0D01*
G01*
X211209000Y-83743800D01*
G75*
G02*
X211109000Y-83643800I0J100000D01*
G01*
X211109000Y-81343800D01*
G75*
G02*
X211209000Y-81243800I100000J0D01*
G01*
G37*
G36*
G01*
X210409000Y-81243800D02*
X211009000Y-81243800D01*
G75*
G02*
X211109000Y-81343800I0J-100000D01*
G01*
X211109000Y-83643800D01*
G75*
G02*
X211009000Y-83743800I-100000J0D01*
G01*
X210409000Y-83743800D01*
G75*
G02*
X210309000Y-83643800I0J100000D01*
G01*
X210309000Y-81343800D01*
G75*
G02*
X210409000Y-81243800I100000J0D01*
G01*
G37*
G36*
G01*
X209609000Y-81243800D02*
X210209000Y-81243800D01*
G75*
G02*
X210309000Y-81343800I0J-100000D01*
G01*
X210309000Y-83643800D01*
G75*
G02*
X210209000Y-83743800I-100000J0D01*
G01*
X209609000Y-83743800D01*
G75*
G02*
X209509000Y-83643800I0J100000D01*
G01*
X209509000Y-81343800D01*
G75*
G02*
X209609000Y-81243800I100000J0D01*
G01*
G37*
G36*
G01*
X220009000Y-81243800D02*
X220609000Y-81243800D01*
G75*
G02*
X220709000Y-81343800I0J-100000D01*
G01*
X220709000Y-83643800D01*
G75*
G02*
X220609000Y-83743800I-100000J0D01*
G01*
X220009000Y-83743800D01*
G75*
G02*
X219909000Y-83643800I0J100000D01*
G01*
X219909000Y-81343800D01*
G75*
G02*
X220009000Y-81243800I100000J0D01*
G01*
G37*
G36*
G01*
X220809000Y-81243800D02*
X221409000Y-81243800D01*
G75*
G02*
X221509000Y-81343800I0J-100000D01*
G01*
X221509000Y-83643800D01*
G75*
G02*
X221409000Y-83743800I-100000J0D01*
G01*
X220809000Y-83743800D01*
G75*
G02*
X220709000Y-83643800I0J100000D01*
G01*
X220709000Y-81343800D01*
G75*
G02*
X220809000Y-81243800I100000J0D01*
G01*
G37*
G36*
G01*
X221609000Y-81243800D02*
X222209000Y-81243800D01*
G75*
G02*
X222309000Y-81343800I0J-100000D01*
G01*
X222309000Y-83643800D01*
G75*
G02*
X222209000Y-83743800I-100000J0D01*
G01*
X221609000Y-83743800D01*
G75*
G02*
X221509000Y-83643800I0J100000D01*
G01*
X221509000Y-81343800D01*
G75*
G02*
X221609000Y-81243800I100000J0D01*
G01*
G37*
G36*
G01*
X222409000Y-81243800D02*
X223009000Y-81243800D01*
G75*
G02*
X223109000Y-81343800I0J-100000D01*
G01*
X223109000Y-83643800D01*
G75*
G02*
X223009000Y-83743800I-100000J0D01*
G01*
X222409000Y-83743800D01*
G75*
G02*
X222309000Y-83643800I0J100000D01*
G01*
X222309000Y-81343800D01*
G75*
G02*
X222409000Y-81243800I100000J0D01*
G01*
G37*
G36*
G01*
X223209000Y-81243800D02*
X223809000Y-81243800D01*
G75*
G02*
X223909000Y-81343800I0J-100000D01*
G01*
X223909000Y-83643800D01*
G75*
G02*
X223809000Y-83743800I-100000J0D01*
G01*
X223209000Y-83743800D01*
G75*
G02*
X223109000Y-83643800I0J100000D01*
G01*
X223109000Y-81343800D01*
G75*
G02*
X223209000Y-81243800I100000J0D01*
G01*
G37*
G36*
G01*
X224009000Y-81243800D02*
X224609000Y-81243800D01*
G75*
G02*
X224709000Y-81343800I0J-100000D01*
G01*
X224709000Y-83643800D01*
G75*
G02*
X224609000Y-83743800I-100000J0D01*
G01*
X224009000Y-83743800D01*
G75*
G02*
X223909000Y-83643800I0J100000D01*
G01*
X223909000Y-81343800D01*
G75*
G02*
X224009000Y-81243800I100000J0D01*
G01*
G37*
G36*
G01*
X224809000Y-81243800D02*
X225409000Y-81243800D01*
G75*
G02*
X225509000Y-81343800I0J-100000D01*
G01*
X225509000Y-83643800D01*
G75*
G02*
X225409000Y-83743800I-100000J0D01*
G01*
X224809000Y-83743800D01*
G75*
G02*
X224709000Y-83643800I0J100000D01*
G01*
X224709000Y-81343800D01*
G75*
G02*
X224809000Y-81243800I100000J0D01*
G01*
G37*
G36*
G01*
X225609000Y-81243800D02*
X226209000Y-81243800D01*
G75*
G02*
X226309000Y-81343800I0J-100000D01*
G01*
X226309000Y-83643800D01*
G75*
G02*
X226209000Y-83743800I-100000J0D01*
G01*
X225609000Y-83743800D01*
G75*
G02*
X225509000Y-83643800I0J100000D01*
G01*
X225509000Y-81343800D01*
G75*
G02*
X225609000Y-81243800I100000J0D01*
G01*
G37*
G36*
G01*
X226409000Y-81243800D02*
X227009000Y-81243800D01*
G75*
G02*
X227109000Y-81343800I0J-100000D01*
G01*
X227109000Y-83643800D01*
G75*
G02*
X227009000Y-83743800I-100000J0D01*
G01*
X226409000Y-83743800D01*
G75*
G02*
X226309000Y-83643800I0J100000D01*
G01*
X226309000Y-81343800D01*
G75*
G02*
X226409000Y-81243800I100000J0D01*
G01*
G37*
G36*
G01*
X227209000Y-81243800D02*
X227809000Y-81243800D01*
G75*
G02*
X227909000Y-81343800I0J-100000D01*
G01*
X227909000Y-83643800D01*
G75*
G02*
X227809000Y-83743800I-100000J0D01*
G01*
X227209000Y-83743800D01*
G75*
G02*
X227109000Y-83643800I0J100000D01*
G01*
X227109000Y-81343800D01*
G75*
G02*
X227209000Y-81243800I100000J0D01*
G01*
G37*
G36*
G01*
X228009000Y-81243800D02*
X228609000Y-81243800D01*
G75*
G02*
X228709000Y-81343800I0J-100000D01*
G01*
X228709000Y-83643800D01*
G75*
G02*
X228609000Y-83743800I-100000J0D01*
G01*
X228009000Y-83743800D01*
G75*
G02*
X227909000Y-83643800I0J100000D01*
G01*
X227909000Y-81343800D01*
G75*
G02*
X228009000Y-81243800I100000J0D01*
G01*
G37*
G36*
G01*
X228809000Y-81243800D02*
X229409000Y-81243800D01*
G75*
G02*
X229509000Y-81343800I0J-100000D01*
G01*
X229509000Y-83643800D01*
G75*
G02*
X229409000Y-83743800I-100000J0D01*
G01*
X228809000Y-83743800D01*
G75*
G02*
X228709000Y-83643800I0J100000D01*
G01*
X228709000Y-81343800D01*
G75*
G02*
X228809000Y-81243800I100000J0D01*
G01*
G37*
G36*
G01*
X229609000Y-81243800D02*
X230209000Y-81243800D01*
G75*
G02*
X230309000Y-81343800I0J-100000D01*
G01*
X230309000Y-83643800D01*
G75*
G02*
X230209000Y-83743800I-100000J0D01*
G01*
X229609000Y-83743800D01*
G75*
G02*
X229509000Y-83643800I0J100000D01*
G01*
X229509000Y-81343800D01*
G75*
G02*
X229609000Y-81243800I100000J0D01*
G01*
G37*
G36*
G01*
X230409000Y-81243800D02*
X231009000Y-81243800D01*
G75*
G02*
X231109000Y-81343800I0J-100000D01*
G01*
X231109000Y-83643800D01*
G75*
G02*
X231009000Y-83743800I-100000J0D01*
G01*
X230409000Y-83743800D01*
G75*
G02*
X230309000Y-83643800I0J100000D01*
G01*
X230309000Y-81343800D01*
G75*
G02*
X230409000Y-81243800I100000J0D01*
G01*
G37*
G36*
G01*
X231209000Y-81243800D02*
X231809000Y-81243800D01*
G75*
G02*
X231909000Y-81343800I0J-100000D01*
G01*
X231909000Y-83643800D01*
G75*
G02*
X231809000Y-83743800I-100000J0D01*
G01*
X231209000Y-83743800D01*
G75*
G02*
X231109000Y-83643800I0J100000D01*
G01*
X231109000Y-81343800D01*
G75*
G02*
X231209000Y-81243800I100000J0D01*
G01*
G37*
G36*
G01*
X232009000Y-81243800D02*
X232609000Y-81243800D01*
G75*
G02*
X232709000Y-81343800I0J-100000D01*
G01*
X232709000Y-83643800D01*
G75*
G02*
X232609000Y-83743800I-100000J0D01*
G01*
X232009000Y-83743800D01*
G75*
G02*
X231909000Y-83643800I0J100000D01*
G01*
X231909000Y-81343800D01*
G75*
G02*
X232009000Y-81243800I100000J0D01*
G01*
G37*
G36*
G01*
X232809000Y-81243800D02*
X233409000Y-81243800D01*
G75*
G02*
X233509000Y-81343800I0J-100000D01*
G01*
X233509000Y-83643800D01*
G75*
G02*
X233409000Y-83743800I-100000J0D01*
G01*
X232809000Y-83743800D01*
G75*
G02*
X232709000Y-83643800I0J100000D01*
G01*
X232709000Y-81343800D01*
G75*
G02*
X232809000Y-81243800I100000J0D01*
G01*
G37*
X233371400Y-60043200D03*
%TD*%
D10*
%TO.C,REF\u002A\u002A*%
X175285400Y-52171600D03*
X176555400Y-52171600D03*
X179095400Y-52171600D03*
X180365400Y-52171600D03*
X177825400Y-52171600D03*
%TD*%
%TO.C,REF\u002A\u002A*%
X194614800Y-52171600D03*
X197154800Y-52171600D03*
X195884800Y-52171600D03*
X193344800Y-52171600D03*
X192074800Y-52171600D03*
%TD*%
D14*
%TO.C,REF\u002A\u002A*%
X174107240Y-35846000D03*
%TD*%
%TO.C,REF\u002A\u002A*%
X198272400Y-35846000D03*
%TD*%
D13*
%TO.C,J3*%
X179527200Y-56946800D03*
X187147200Y-56946800D03*
X184607200Y-56946800D03*
X189687200Y-56946800D03*
X182067200Y-56946800D03*
X189687200Y-59486800D03*
X187147200Y-59486800D03*
X184607200Y-59486800D03*
X182067200Y-59486800D03*
X179527200Y-59486800D03*
%TD*%
%TO.C,R4*%
G36*
G01*
X182759800Y-62221100D02*
X182759800Y-62696100D01*
G75*
G02*
X182522300Y-62933600I-237500J0D01*
G01*
X182022300Y-62933600D01*
G75*
G02*
X181784800Y-62696100I0J237500D01*
G01*
X181784800Y-62221100D01*
G75*
G02*
X182022300Y-61983600I237500J0D01*
G01*
X182522300Y-61983600D01*
G75*
G02*
X182759800Y-62221100I0J-237500D01*
G01*
G37*
G36*
G01*
X184584800Y-62221100D02*
X184584800Y-62696100D01*
G75*
G02*
X184347300Y-62933600I-237500J0D01*
G01*
X183847300Y-62933600D01*
G75*
G02*
X183609800Y-62696100I0J237500D01*
G01*
X183609800Y-62221100D01*
G75*
G02*
X183847300Y-61983600I237500J0D01*
G01*
X184347300Y-61983600D01*
G75*
G02*
X184584800Y-62221100I0J-237500D01*
G01*
G37*
%TD*%
%TO.C,R3*%
G36*
G01*
X183023500Y-71367200D02*
X183498500Y-71367200D01*
G75*
G02*
X183736000Y-71604700I0J-237500D01*
G01*
X183736000Y-72104700D01*
G75*
G02*
X183498500Y-72342200I-237500J0D01*
G01*
X183023500Y-72342200D01*
G75*
G02*
X182786000Y-72104700I0J237500D01*
G01*
X182786000Y-71604700D01*
G75*
G02*
X183023500Y-71367200I237500J0D01*
G01*
G37*
G36*
G01*
X183023500Y-69542200D02*
X183498500Y-69542200D01*
G75*
G02*
X183736000Y-69779700I0J-237500D01*
G01*
X183736000Y-70279700D01*
G75*
G02*
X183498500Y-70517200I-237500J0D01*
G01*
X183023500Y-70517200D01*
G75*
G02*
X182786000Y-70279700I0J237500D01*
G01*
X182786000Y-69779700D01*
G75*
G02*
X183023500Y-69542200I237500J0D01*
G01*
G37*
%TD*%
D12*
%TO.C,J2*%
X173163000Y-65054000D03*
X173163000Y-61454000D03*
D11*
X177038000Y-62754000D03*
X177038000Y-63754000D03*
%TD*%
D19*
%TO.C,U1*%
X194964240Y-67517420D03*
X194964240Y-70057420D03*
X194964240Y-74629420D03*
X194964240Y-72089420D03*
D18*
X188870360Y-65105280D03*
D17*
X186330360Y-65105280D03*
X183790360Y-65105280D03*
X181250360Y-65105280D03*
D16*
X175662360Y-73741280D03*
X175662360Y-68741280D03*
D15*
X175789360Y-77043280D03*
%TD*%
%TO.C,R2*%
G36*
G01*
X188805000Y-71898500D02*
X188805000Y-72373500D01*
G75*
G02*
X188567500Y-72611000I-237500J0D01*
G01*
X188067500Y-72611000D01*
G75*
G02*
X187830000Y-72373500I0J237500D01*
G01*
X187830000Y-71898500D01*
G75*
G02*
X188067500Y-71661000I237500J0D01*
G01*
X188567500Y-71661000D01*
G75*
G02*
X188805000Y-71898500I0J-237500D01*
G01*
G37*
G36*
G01*
X190630000Y-71898500D02*
X190630000Y-72373500D01*
G75*
G02*
X190392500Y-72611000I-237500J0D01*
G01*
X189892500Y-72611000D01*
G75*
G02*
X189655000Y-72373500I0J237500D01*
G01*
X189655000Y-71898500D01*
G75*
G02*
X189892500Y-71661000I237500J0D01*
G01*
X190392500Y-71661000D01*
G75*
G02*
X190630000Y-71898500I0J-237500D01*
G01*
G37*
%TD*%
%TO.C,R1*%
G36*
G01*
X188932000Y-69866500D02*
X188932000Y-70341500D01*
G75*
G02*
X188694500Y-70579000I-237500J0D01*
G01*
X188194500Y-70579000D01*
G75*
G02*
X187957000Y-70341500I0J237500D01*
G01*
X187957000Y-69866500D01*
G75*
G02*
X188194500Y-69629000I237500J0D01*
G01*
X188694500Y-69629000D01*
G75*
G02*
X188932000Y-69866500I0J-237500D01*
G01*
G37*
G36*
G01*
X190757000Y-69866500D02*
X190757000Y-70341500D01*
G75*
G02*
X190519500Y-70579000I-237500J0D01*
G01*
X190019500Y-70579000D01*
G75*
G02*
X189782000Y-70341500I0J237500D01*
G01*
X189782000Y-69866500D01*
G75*
G02*
X190019500Y-69629000I237500J0D01*
G01*
X190519500Y-69629000D01*
G75*
G02*
X190757000Y-69866500I0J-237500D01*
G01*
G37*
%TD*%
D14*
%TO.C,J1*%
X198272400Y-60045600D03*
G36*
G01*
X197710000Y-81246200D02*
X198310000Y-81246200D01*
G75*
G02*
X198410000Y-81346200I0J-100000D01*
G01*
X198410000Y-83646200D01*
G75*
G02*
X198310000Y-83746200I-100000J0D01*
G01*
X197710000Y-83746200D01*
G75*
G02*
X197610000Y-83646200I0J100000D01*
G01*
X197610000Y-81346200D01*
G75*
G02*
X197710000Y-81246200I100000J0D01*
G01*
G37*
G36*
G01*
X196910000Y-81246200D02*
X197510000Y-81246200D01*
G75*
G02*
X197610000Y-81346200I0J-100000D01*
G01*
X197610000Y-83646200D01*
G75*
G02*
X197510000Y-83746200I-100000J0D01*
G01*
X196910000Y-83746200D01*
G75*
G02*
X196810000Y-83646200I0J100000D01*
G01*
X196810000Y-81346200D01*
G75*
G02*
X196910000Y-81246200I100000J0D01*
G01*
G37*
G36*
G01*
X196110000Y-81246200D02*
X196710000Y-81246200D01*
G75*
G02*
X196810000Y-81346200I0J-100000D01*
G01*
X196810000Y-83646200D01*
G75*
G02*
X196710000Y-83746200I-100000J0D01*
G01*
X196110000Y-83746200D01*
G75*
G02*
X196010000Y-83646200I0J100000D01*
G01*
X196010000Y-81346200D01*
G75*
G02*
X196110000Y-81246200I100000J0D01*
G01*
G37*
G36*
G01*
X195310000Y-81246200D02*
X195910000Y-81246200D01*
G75*
G02*
X196010000Y-81346200I0J-100000D01*
G01*
X196010000Y-83646200D01*
G75*
G02*
X195910000Y-83746200I-100000J0D01*
G01*
X195310000Y-83746200D01*
G75*
G02*
X195210000Y-83646200I0J100000D01*
G01*
X195210000Y-81346200D01*
G75*
G02*
X195310000Y-81246200I100000J0D01*
G01*
G37*
G36*
G01*
X194510000Y-81246200D02*
X195110000Y-81246200D01*
G75*
G02*
X195210000Y-81346200I0J-100000D01*
G01*
X195210000Y-83646200D01*
G75*
G02*
X195110000Y-83746200I-100000J0D01*
G01*
X194510000Y-83746200D01*
G75*
G02*
X194410000Y-83646200I0J100000D01*
G01*
X194410000Y-81346200D01*
G75*
G02*
X194510000Y-81246200I100000J0D01*
G01*
G37*
G36*
G01*
X193710000Y-81246200D02*
X194310000Y-81246200D01*
G75*
G02*
X194410000Y-81346200I0J-100000D01*
G01*
X194410000Y-83646200D01*
G75*
G02*
X194310000Y-83746200I-100000J0D01*
G01*
X193710000Y-83746200D01*
G75*
G02*
X193610000Y-83646200I0J100000D01*
G01*
X193610000Y-81346200D01*
G75*
G02*
X193710000Y-81246200I100000J0D01*
G01*
G37*
G36*
G01*
X192910000Y-81246200D02*
X193510000Y-81246200D01*
G75*
G02*
X193610000Y-81346200I0J-100000D01*
G01*
X193610000Y-83646200D01*
G75*
G02*
X193510000Y-83746200I-100000J0D01*
G01*
X192910000Y-83746200D01*
G75*
G02*
X192810000Y-83646200I0J100000D01*
G01*
X192810000Y-81346200D01*
G75*
G02*
X192910000Y-81246200I100000J0D01*
G01*
G37*
G36*
G01*
X192110000Y-81246200D02*
X192710000Y-81246200D01*
G75*
G02*
X192810000Y-81346200I0J-100000D01*
G01*
X192810000Y-83646200D01*
G75*
G02*
X192710000Y-83746200I-100000J0D01*
G01*
X192110000Y-83746200D01*
G75*
G02*
X192010000Y-83646200I0J100000D01*
G01*
X192010000Y-81346200D01*
G75*
G02*
X192110000Y-81246200I100000J0D01*
G01*
G37*
G36*
G01*
X191310000Y-81246200D02*
X191910000Y-81246200D01*
G75*
G02*
X192010000Y-81346200I0J-100000D01*
G01*
X192010000Y-83646200D01*
G75*
G02*
X191910000Y-83746200I-100000J0D01*
G01*
X191310000Y-83746200D01*
G75*
G02*
X191210000Y-83646200I0J100000D01*
G01*
X191210000Y-81346200D01*
G75*
G02*
X191310000Y-81246200I100000J0D01*
G01*
G37*
G36*
G01*
X190510000Y-81246200D02*
X191110000Y-81246200D01*
G75*
G02*
X191210000Y-81346200I0J-100000D01*
G01*
X191210000Y-83646200D01*
G75*
G02*
X191110000Y-83746200I-100000J0D01*
G01*
X190510000Y-83746200D01*
G75*
G02*
X190410000Y-83646200I0J100000D01*
G01*
X190410000Y-81346200D01*
G75*
G02*
X190510000Y-81246200I100000J0D01*
G01*
G37*
G36*
G01*
X189710000Y-81246200D02*
X190310000Y-81246200D01*
G75*
G02*
X190410000Y-81346200I0J-100000D01*
G01*
X190410000Y-83646200D01*
G75*
G02*
X190310000Y-83746200I-100000J0D01*
G01*
X189710000Y-83746200D01*
G75*
G02*
X189610000Y-83646200I0J100000D01*
G01*
X189610000Y-81346200D01*
G75*
G02*
X189710000Y-81246200I100000J0D01*
G01*
G37*
G36*
G01*
X188910000Y-81246200D02*
X189510000Y-81246200D01*
G75*
G02*
X189610000Y-81346200I0J-100000D01*
G01*
X189610000Y-83646200D01*
G75*
G02*
X189510000Y-83746200I-100000J0D01*
G01*
X188910000Y-83746200D01*
G75*
G02*
X188810000Y-83646200I0J100000D01*
G01*
X188810000Y-81346200D01*
G75*
G02*
X188910000Y-81246200I100000J0D01*
G01*
G37*
G36*
G01*
X188110000Y-81246200D02*
X188710000Y-81246200D01*
G75*
G02*
X188810000Y-81346200I0J-100000D01*
G01*
X188810000Y-83646200D01*
G75*
G02*
X188710000Y-83746200I-100000J0D01*
G01*
X188110000Y-83746200D01*
G75*
G02*
X188010000Y-83646200I0J100000D01*
G01*
X188010000Y-81346200D01*
G75*
G02*
X188110000Y-81246200I100000J0D01*
G01*
G37*
G36*
G01*
X187310000Y-81246200D02*
X187910000Y-81246200D01*
G75*
G02*
X188010000Y-81346200I0J-100000D01*
G01*
X188010000Y-83646200D01*
G75*
G02*
X187910000Y-83746200I-100000J0D01*
G01*
X187310000Y-83746200D01*
G75*
G02*
X187210000Y-83646200I0J100000D01*
G01*
X187210000Y-81346200D01*
G75*
G02*
X187310000Y-81246200I100000J0D01*
G01*
G37*
G36*
G01*
X186510000Y-81246200D02*
X187110000Y-81246200D01*
G75*
G02*
X187210000Y-81346200I0J-100000D01*
G01*
X187210000Y-83646200D01*
G75*
G02*
X187110000Y-83746200I-100000J0D01*
G01*
X186510000Y-83746200D01*
G75*
G02*
X186410000Y-83646200I0J100000D01*
G01*
X186410000Y-81346200D01*
G75*
G02*
X186510000Y-81246200I100000J0D01*
G01*
G37*
G36*
G01*
X185710000Y-81246200D02*
X186310000Y-81246200D01*
G75*
G02*
X186410000Y-81346200I0J-100000D01*
G01*
X186410000Y-83646200D01*
G75*
G02*
X186310000Y-83746200I-100000J0D01*
G01*
X185710000Y-83746200D01*
G75*
G02*
X185610000Y-83646200I0J100000D01*
G01*
X185610000Y-81346200D01*
G75*
G02*
X185710000Y-81246200I100000J0D01*
G01*
G37*
G36*
G01*
X184910000Y-81246200D02*
X185510000Y-81246200D01*
G75*
G02*
X185610000Y-81346200I0J-100000D01*
G01*
X185610000Y-83646200D01*
G75*
G02*
X185510000Y-83746200I-100000J0D01*
G01*
X184910000Y-83746200D01*
G75*
G02*
X184810000Y-83646200I0J100000D01*
G01*
X184810000Y-81346200D01*
G75*
G02*
X184910000Y-81246200I100000J0D01*
G01*
G37*
G36*
G01*
X174510000Y-81246200D02*
X175110000Y-81246200D01*
G75*
G02*
X175210000Y-81346200I0J-100000D01*
G01*
X175210000Y-83646200D01*
G75*
G02*
X175110000Y-83746200I-100000J0D01*
G01*
X174510000Y-83746200D01*
G75*
G02*
X174410000Y-83646200I0J100000D01*
G01*
X174410000Y-81346200D01*
G75*
G02*
X174510000Y-81246200I100000J0D01*
G01*
G37*
G36*
G01*
X175310000Y-81246200D02*
X175910000Y-81246200D01*
G75*
G02*
X176010000Y-81346200I0J-100000D01*
G01*
X176010000Y-83646200D01*
G75*
G02*
X175910000Y-83746200I-100000J0D01*
G01*
X175310000Y-83746200D01*
G75*
G02*
X175210000Y-83646200I0J100000D01*
G01*
X175210000Y-81346200D01*
G75*
G02*
X175310000Y-81246200I100000J0D01*
G01*
G37*
G36*
G01*
X176110000Y-81246200D02*
X176710000Y-81246200D01*
G75*
G02*
X176810000Y-81346200I0J-100000D01*
G01*
X176810000Y-83646200D01*
G75*
G02*
X176710000Y-83746200I-100000J0D01*
G01*
X176110000Y-83746200D01*
G75*
G02*
X176010000Y-83646200I0J100000D01*
G01*
X176010000Y-81346200D01*
G75*
G02*
X176110000Y-81246200I100000J0D01*
G01*
G37*
G36*
G01*
X176910000Y-81246200D02*
X177510000Y-81246200D01*
G75*
G02*
X177610000Y-81346200I0J-100000D01*
G01*
X177610000Y-83646200D01*
G75*
G02*
X177510000Y-83746200I-100000J0D01*
G01*
X176910000Y-83746200D01*
G75*
G02*
X176810000Y-83646200I0J100000D01*
G01*
X176810000Y-81346200D01*
G75*
G02*
X176910000Y-81246200I100000J0D01*
G01*
G37*
G36*
G01*
X177710000Y-81246200D02*
X178310000Y-81246200D01*
G75*
G02*
X178410000Y-81346200I0J-100000D01*
G01*
X178410000Y-83646200D01*
G75*
G02*
X178310000Y-83746200I-100000J0D01*
G01*
X177710000Y-83746200D01*
G75*
G02*
X177610000Y-83646200I0J100000D01*
G01*
X177610000Y-81346200D01*
G75*
G02*
X177710000Y-81246200I100000J0D01*
G01*
G37*
G36*
G01*
X178510000Y-81246200D02*
X179110000Y-81246200D01*
G75*
G02*
X179210000Y-81346200I0J-100000D01*
G01*
X179210000Y-83646200D01*
G75*
G02*
X179110000Y-83746200I-100000J0D01*
G01*
X178510000Y-83746200D01*
G75*
G02*
X178410000Y-83646200I0J100000D01*
G01*
X178410000Y-81346200D01*
G75*
G02*
X178510000Y-81246200I100000J0D01*
G01*
G37*
G36*
G01*
X179310000Y-81246200D02*
X179910000Y-81246200D01*
G75*
G02*
X180010000Y-81346200I0J-100000D01*
G01*
X180010000Y-83646200D01*
G75*
G02*
X179910000Y-83746200I-100000J0D01*
G01*
X179310000Y-83746200D01*
G75*
G02*
X179210000Y-83646200I0J100000D01*
G01*
X179210000Y-81346200D01*
G75*
G02*
X179310000Y-81246200I100000J0D01*
G01*
G37*
G36*
G01*
X184110000Y-81246200D02*
X184710000Y-81246200D01*
G75*
G02*
X184810000Y-81346200I0J-100000D01*
G01*
X184810000Y-83646200D01*
G75*
G02*
X184710000Y-83746200I-100000J0D01*
G01*
X184110000Y-83746200D01*
G75*
G02*
X184010000Y-83646200I0J100000D01*
G01*
X184010000Y-81346200D01*
G75*
G02*
X184110000Y-81246200I100000J0D01*
G01*
G37*
G36*
G01*
X180110000Y-81246200D02*
X180710000Y-81246200D01*
G75*
G02*
X180810000Y-81346200I0J-100000D01*
G01*
X180810000Y-83646200D01*
G75*
G02*
X180710000Y-83746200I-100000J0D01*
G01*
X180110000Y-83746200D01*
G75*
G02*
X180010000Y-83646200I0J100000D01*
G01*
X180010000Y-81346200D01*
G75*
G02*
X180110000Y-81246200I100000J0D01*
G01*
G37*
%TD*%
M02*
