M48
; DRILL file {KiCad (5.1.9)-1} date 06/29/21 00:03:35
; FORMAT={-:-/ absolute / metric / decimal}
; #@! TF.CreationDate,2021-06-29T00:03:35+02:00
; #@! TF.GenerationSoftware,Kicad,Pcbnew,(5.1.9)-1
; #@! TF.FileFunction,NonPlated,1,2,NPTH
FMAT,2
METRIC
T1C0.600
%
G90
G05
T1
X175.285Y-52.172
X176.555Y-52.172
X177.825Y-52.172
X179.095Y-52.172
X180.365Y-52.172
X192.075Y-52.172
X193.345Y-52.172
X194.615Y-52.172
X195.885Y-52.172
X197.155Y-52.172
X210.384Y-52.169
X211.654Y-52.169
X212.924Y-52.169
X214.194Y-52.169
X215.464Y-52.169
X227.174Y-52.169
X228.444Y-52.169
X229.714Y-52.169
X230.984Y-52.169
X232.254Y-52.169
T0
M30
