%TF.GenerationSoftware,KiCad,Pcbnew,(5.1.9)-1*%
%TF.CreationDate,2021-06-29T00:03:31+02:00*%
%TF.ProjectId,mPCIE_to_CAN,6d504349-455f-4746-9f5f-43414e2e6b69,rev?*%
%TF.SameCoordinates,Original*%
%TF.FileFunction,Copper,L2,Bot*%
%TF.FilePolarity,Positive*%
%FSLAX46Y46*%
G04 Gerber Fmt 4.6, Leading zero omitted, Abs format (unit mm)*
G04 Created by KiCad (PCBNEW (5.1.9)-1) date 2021-06-29 00:03:31*
%MOMM*%
%LPD*%
G01*
G04 APERTURE LIST*
%TA.AperFunction,SMDPad,CuDef*%
%ADD10R,1.550000X0.600000*%
%TD*%
%TA.AperFunction,SMDPad,CuDef*%
%ADD11R,1.800000X1.200000*%
%TD*%
%TA.AperFunction,ComponentPad*%
%ADD12C,1.700000*%
%TD*%
%TA.AperFunction,ComponentPad*%
%ADD13R,5.800000X5.800000*%
%TD*%
%TA.AperFunction,ComponentPad*%
%ADD14C,1.750000*%
%TD*%
%TA.AperFunction,ComponentPad*%
%ADD15O,3.962400X1.981200*%
%TD*%
%TA.AperFunction,ComponentPad*%
%ADD16O,1.727200X1.700000*%
%TD*%
%TA.AperFunction,ComponentPad*%
%ADD17R,1.727200X1.700000*%
%TD*%
%TA.AperFunction,ComponentPad*%
%ADD18C,1.501140*%
%TD*%
%TA.AperFunction,SMDPad,CuDef*%
%ADD19R,0.600000X2.300000*%
%TD*%
%TA.AperFunction,ViaPad*%
%ADD20C,0.800000*%
%TD*%
%TA.AperFunction,Conductor*%
%ADD21C,0.500000*%
%TD*%
%TA.AperFunction,Conductor*%
%ADD22C,0.400000*%
%TD*%
%TA.AperFunction,Conductor*%
%ADD23C,0.250000*%
%TD*%
%TA.AperFunction,Conductor*%
%ADD24C,0.254000*%
%TD*%
%TA.AperFunction,Conductor*%
%ADD25C,0.100000*%
%TD*%
G04 APERTURE END LIST*
%TO.P,R3,1*%
%TO.N,Net-(R3-Pad1)*%
%TA.AperFunction,SMDPad,CuDef*%
G36*
G01*
X218122500Y-69539800D02*
X218597500Y-69539800D01*
G75*
G02*
X218835000Y-69777300I0J-237500D01*
G01*
X218835000Y-70277300D01*
G75*
G02*
X218597500Y-70514800I-237500J0D01*
G01*
X218122500Y-70514800D01*
G75*
G02*
X217885000Y-70277300I0J237500D01*
G01*
X217885000Y-69777300D01*
G75*
G02*
X218122500Y-69539800I237500J0D01*
G01*
G37*
%TD.AperFunction*%
%TO.P,R3,2*%
%TO.N,+3V3*%
%TA.AperFunction,SMDPad,CuDef*%
G36*
G01*
X218122500Y-71364800D02*
X218597500Y-71364800D01*
G75*
G02*
X218835000Y-71602300I0J-237500D01*
G01*
X218835000Y-72102300D01*
G75*
G02*
X218597500Y-72339800I-237500J0D01*
G01*
X218122500Y-72339800D01*
G75*
G02*
X217885000Y-72102300I0J237500D01*
G01*
X217885000Y-71602300D01*
G75*
G02*
X218122500Y-71364800I237500J0D01*
G01*
G37*
%TD.AperFunction*%
%TD*%
D10*
%TO.P,J2,1*%
%TO.N,GND*%
X212137000Y-63751600D03*
%TO.P,J2,2*%
%TO.N,Net-(J2-Pad2)*%
X212137000Y-62751600D03*
D11*
%TO.P,J2,1*%
%TO.N,GND*%
X208262000Y-61451600D03*
X208262000Y-65051600D03*
%TD*%
D12*
%TO.P,J3,1*%
%TO.N,N/C*%
X214626200Y-59484400D03*
%TO.P,J3,3*%
%TO.N,Net-(J3-Pad3)*%
X217166200Y-59484400D03*
%TO.P,J3,5*%
%TO.N,GND*%
X219706200Y-59484400D03*
%TO.P,J3,7*%
%TO.N,N/C*%
X222246200Y-59484400D03*
%TO.P,J3,9*%
X224786200Y-59484400D03*
%TO.P,J3,4*%
%TO.N,Net-(J3-Pad4)*%
X217166200Y-56944400D03*
%TO.P,J3,10*%
%TO.N,N/C*%
X224786200Y-56944400D03*
%TO.P,J3,6*%
X219706200Y-56944400D03*
%TO.P,J3,8*%
X222246200Y-56944400D03*
%TO.P,J3,2*%
X214626200Y-56944400D03*
%TD*%
D13*
%TO.P,REF\u002A\u002A,*%
%TO.N,GND*%
X209206240Y-35843600D03*
%TD*%
%TO.P,R2,1*%
%TO.N,Net-(R2-Pad1)*%
%TA.AperFunction,SMDPad,CuDef*%
G36*
G01*
X225729000Y-71896100D02*
X225729000Y-72371100D01*
G75*
G02*
X225491500Y-72608600I-237500J0D01*
G01*
X224991500Y-72608600D01*
G75*
G02*
X224754000Y-72371100I0J237500D01*
G01*
X224754000Y-71896100D01*
G75*
G02*
X224991500Y-71658600I237500J0D01*
G01*
X225491500Y-71658600D01*
G75*
G02*
X225729000Y-71896100I0J-237500D01*
G01*
G37*
%TD.AperFunction*%
%TO.P,R2,2*%
%TO.N,USB_DP*%
%TA.AperFunction,SMDPad,CuDef*%
G36*
G01*
X223904000Y-71896100D02*
X223904000Y-72371100D01*
G75*
G02*
X223666500Y-72608600I-237500J0D01*
G01*
X223166500Y-72608600D01*
G75*
G02*
X222929000Y-72371100I0J237500D01*
G01*
X222929000Y-71896100D01*
G75*
G02*
X223166500Y-71658600I237500J0D01*
G01*
X223666500Y-71658600D01*
G75*
G02*
X223904000Y-71896100I0J-237500D01*
G01*
G37*
%TD.AperFunction*%
%TD*%
%TO.P,R4,1*%
%TO.N,Net-(R3-Pad1)*%
%TA.AperFunction,SMDPad,CuDef*%
G36*
G01*
X219683800Y-62218700D02*
X219683800Y-62693700D01*
G75*
G02*
X219446300Y-62931200I-237500J0D01*
G01*
X218946300Y-62931200D01*
G75*
G02*
X218708800Y-62693700I0J237500D01*
G01*
X218708800Y-62218700D01*
G75*
G02*
X218946300Y-61981200I237500J0D01*
G01*
X219446300Y-61981200D01*
G75*
G02*
X219683800Y-62218700I0J-237500D01*
G01*
G37*
%TD.AperFunction*%
%TO.P,R4,2*%
%TO.N,Net-(J2-Pad2)*%
%TA.AperFunction,SMDPad,CuDef*%
G36*
G01*
X217858800Y-62218700D02*
X217858800Y-62693700D01*
G75*
G02*
X217621300Y-62931200I-237500J0D01*
G01*
X217121300Y-62931200D01*
G75*
G02*
X216883800Y-62693700I0J237500D01*
G01*
X216883800Y-62218700D01*
G75*
G02*
X217121300Y-61981200I237500J0D01*
G01*
X217621300Y-61981200D01*
G75*
G02*
X217858800Y-62218700I0J-237500D01*
G01*
G37*
%TD.AperFunction*%
%TD*%
D14*
%TO.P,U1,5*%
%TO.N,GND*%
X210888360Y-77040880D03*
D15*
%TO.P,U1,1*%
%TO.N,Net-(J3-Pad3)*%
X210761360Y-68738880D03*
%TO.P,U1,2*%
%TO.N,Net-(J3-Pad4)*%
X210761360Y-73738880D03*
D16*
%TO.P,U1,4*%
%TO.N,N/C*%
X216349360Y-65102880D03*
%TO.P,U1,3*%
X218889360Y-65102880D03*
%TO.P,U1,5*%
%TO.N,GND*%
X221429360Y-65102880D03*
D17*
%TO.P,U1,8*%
%TO.N,Net-(R3-Pad1)*%
X223969360Y-65102880D03*
D18*
%TO.P,U1,6*%
%TO.N,Net-(R2-Pad1)*%
X230063240Y-72087020D03*
%TO.P,U1,5*%
%TO.N,GND*%
X230063240Y-74627020D03*
%TO.P,U1,7*%
%TO.N,Net-(R1-Pad1)*%
X230063240Y-70055020D03*
%TO.P,U1,8*%
%TO.N,Net-(R3-Pad1)*%
X230063240Y-67515020D03*
%TD*%
%TO.P,R1,1*%
%TO.N,Net-(R1-Pad1)*%
%TA.AperFunction,SMDPad,CuDef*%
G36*
G01*
X225856000Y-69864100D02*
X225856000Y-70339100D01*
G75*
G02*
X225618500Y-70576600I-237500J0D01*
G01*
X225118500Y-70576600D01*
G75*
G02*
X224881000Y-70339100I0J237500D01*
G01*
X224881000Y-69864100D01*
G75*
G02*
X225118500Y-69626600I237500J0D01*
G01*
X225618500Y-69626600D01*
G75*
G02*
X225856000Y-69864100I0J-237500D01*
G01*
G37*
%TD.AperFunction*%
%TO.P,R1,2*%
%TO.N,USB_DM*%
%TA.AperFunction,SMDPad,CuDef*%
G36*
G01*
X224031000Y-69864100D02*
X224031000Y-70339100D01*
G75*
G02*
X223793500Y-70576600I-237500J0D01*
G01*
X223293500Y-70576600D01*
G75*
G02*
X223056000Y-70339100I0J237500D01*
G01*
X223056000Y-69864100D01*
G75*
G02*
X223293500Y-69626600I237500J0D01*
G01*
X223793500Y-69626600D01*
G75*
G02*
X224031000Y-69864100I0J-237500D01*
G01*
G37*
%TD.AperFunction*%
%TD*%
D13*
%TO.P,REF\u002A\u002A,*%
%TO.N,GND*%
X233371400Y-35843600D03*
%TD*%
D19*
%TO.P,J1,16*%
%TO.N,N/C*%
X215509000Y-82493800D03*
%TO.P,J1,18*%
%TO.N,GND*%
X219509000Y-82493800D03*
%TO.P,J1,14*%
%TO.N,N/C*%
X214709000Y-82493800D03*
%TO.P,J1,12*%
X213909000Y-82493800D03*
%TO.P,J1,10*%
X213109000Y-82493800D03*
%TO.P,J1,8*%
X212309000Y-82493800D03*
%TO.P,J1,6*%
X211509000Y-82493800D03*
%TO.P,J1,4*%
%TO.N,GND*%
X210709000Y-82493800D03*
%TO.P,J1,2*%
%TO.N,+3V3*%
X209909000Y-82493800D03*
%TO.P,J1,20*%
%TO.N,N/C*%
X220309000Y-82493800D03*
%TO.P,J1,22*%
X221109000Y-82493800D03*
%TO.P,J1,24*%
%TO.N,+3V3*%
X221909000Y-82493800D03*
%TO.P,J1,26*%
%TO.N,GND*%
X222709000Y-82493800D03*
%TO.P,J1,28*%
%TO.N,N/C*%
X223509000Y-82493800D03*
%TO.P,J1,30*%
X224309000Y-82493800D03*
%TO.P,J1,32*%
X225109000Y-82493800D03*
%TO.P,J1,34*%
%TO.N,GND*%
X225909000Y-82493800D03*
%TO.P,J1,36*%
%TO.N,USB_DM*%
X226709000Y-82493800D03*
%TO.P,J1,38*%
%TO.N,USB_DP*%
X227509000Y-82493800D03*
%TO.P,J1,40*%
%TO.N,GND*%
X228309000Y-82493800D03*
%TO.P,J1,42*%
%TO.N,N/C*%
X229109000Y-82493800D03*
%TO.P,J1,44*%
X229909000Y-82493800D03*
%TO.P,J1,46*%
X230709000Y-82493800D03*
%TO.P,J1,48*%
X231509000Y-82493800D03*
%TO.P,J1,50*%
%TO.N,GND*%
X232309000Y-82493800D03*
%TO.P,J1,52*%
%TO.N,+3V3*%
X233109000Y-82493800D03*
D13*
%TO.P,J1,53*%
%TO.N,GND*%
X233371400Y-60043200D03*
%TD*%
%TO.P,REF\u002A\u002A,*%
%TO.N,GND*%
X174107240Y-35846000D03*
%TD*%
%TO.P,REF\u002A\u002A,*%
%TO.N,GND*%
X198272400Y-35846000D03*
%TD*%
D12*
%TO.P,J3,2*%
%TO.N,N/C*%
X179527200Y-56946800D03*
%TO.P,J3,8*%
X187147200Y-56946800D03*
%TO.P,J3,6*%
X184607200Y-56946800D03*
%TO.P,J3,10*%
X189687200Y-56946800D03*
%TO.P,J3,4*%
%TO.N,Net-(J3-Pad4)*%
X182067200Y-56946800D03*
%TO.P,J3,9*%
%TO.N,N/C*%
X189687200Y-59486800D03*
%TO.P,J3,7*%
X187147200Y-59486800D03*
%TO.P,J3,5*%
%TO.N,GND*%
X184607200Y-59486800D03*
%TO.P,J3,3*%
%TO.N,Net-(J3-Pad3)*%
X182067200Y-59486800D03*
%TO.P,J3,1*%
%TO.N,N/C*%
X179527200Y-59486800D03*
%TD*%
%TO.P,R4,2*%
%TO.N,Net-(J2-Pad2)*%
%TA.AperFunction,SMDPad,CuDef*%
G36*
G01*
X182759800Y-62221100D02*
X182759800Y-62696100D01*
G75*
G02*
X182522300Y-62933600I-237500J0D01*
G01*
X182022300Y-62933600D01*
G75*
G02*
X181784800Y-62696100I0J237500D01*
G01*
X181784800Y-62221100D01*
G75*
G02*
X182022300Y-61983600I237500J0D01*
G01*
X182522300Y-61983600D01*
G75*
G02*
X182759800Y-62221100I0J-237500D01*
G01*
G37*
%TD.AperFunction*%
%TO.P,R4,1*%
%TO.N,Net-(R3-Pad1)*%
%TA.AperFunction,SMDPad,CuDef*%
G36*
G01*
X184584800Y-62221100D02*
X184584800Y-62696100D01*
G75*
G02*
X184347300Y-62933600I-237500J0D01*
G01*
X183847300Y-62933600D01*
G75*
G02*
X183609800Y-62696100I0J237500D01*
G01*
X183609800Y-62221100D01*
G75*
G02*
X183847300Y-61983600I237500J0D01*
G01*
X184347300Y-61983600D01*
G75*
G02*
X184584800Y-62221100I0J-237500D01*
G01*
G37*
%TD.AperFunction*%
%TD*%
%TO.P,R3,2*%
%TO.N,+3V3*%
%TA.AperFunction,SMDPad,CuDef*%
G36*
G01*
X183023500Y-71367200D02*
X183498500Y-71367200D01*
G75*
G02*
X183736000Y-71604700I0J-237500D01*
G01*
X183736000Y-72104700D01*
G75*
G02*
X183498500Y-72342200I-237500J0D01*
G01*
X183023500Y-72342200D01*
G75*
G02*
X182786000Y-72104700I0J237500D01*
G01*
X182786000Y-71604700D01*
G75*
G02*
X183023500Y-71367200I237500J0D01*
G01*
G37*
%TD.AperFunction*%
%TO.P,R3,1*%
%TO.N,Net-(R3-Pad1)*%
%TA.AperFunction,SMDPad,CuDef*%
G36*
G01*
X183023500Y-69542200D02*
X183498500Y-69542200D01*
G75*
G02*
X183736000Y-69779700I0J-237500D01*
G01*
X183736000Y-70279700D01*
G75*
G02*
X183498500Y-70517200I-237500J0D01*
G01*
X183023500Y-70517200D01*
G75*
G02*
X182786000Y-70279700I0J237500D01*
G01*
X182786000Y-69779700D01*
G75*
G02*
X183023500Y-69542200I237500J0D01*
G01*
G37*
%TD.AperFunction*%
%TD*%
D11*
%TO.P,J2,1*%
%TO.N,GND*%
X173163000Y-65054000D03*
X173163000Y-61454000D03*
D10*
%TO.P,J2,2*%
%TO.N,Net-(J2-Pad2)*%
X177038000Y-62754000D03*
%TO.P,J2,1*%
%TO.N,GND*%
X177038000Y-63754000D03*
%TD*%
D18*
%TO.P,U1,8*%
%TO.N,Net-(R3-Pad1)*%
X194964240Y-67517420D03*
%TO.P,U1,7*%
%TO.N,Net-(R1-Pad1)*%
X194964240Y-70057420D03*
%TO.P,U1,5*%
%TO.N,GND*%
X194964240Y-74629420D03*
%TO.P,U1,6*%
%TO.N,Net-(R2-Pad1)*%
X194964240Y-72089420D03*
D17*
%TO.P,U1,8*%
%TO.N,Net-(R3-Pad1)*%
X188870360Y-65105280D03*
D16*
%TO.P,U1,5*%
%TO.N,GND*%
X186330360Y-65105280D03*
%TO.P,U1,3*%
%TO.N,N/C*%
X183790360Y-65105280D03*
%TO.P,U1,4*%
X181250360Y-65105280D03*
D15*
%TO.P,U1,2*%
%TO.N,Net-(J3-Pad4)*%
X175662360Y-73741280D03*
%TO.P,U1,1*%
%TO.N,Net-(J3-Pad3)*%
X175662360Y-68741280D03*
D14*
%TO.P,U1,5*%
%TO.N,GND*%
X175789360Y-77043280D03*
%TD*%
%TO.P,R2,2*%
%TO.N,USB_DP*%
%TA.AperFunction,SMDPad,CuDef*%
G36*
G01*
X188805000Y-71898500D02*
X188805000Y-72373500D01*
G75*
G02*
X188567500Y-72611000I-237500J0D01*
G01*
X188067500Y-72611000D01*
G75*
G02*
X187830000Y-72373500I0J237500D01*
G01*
X187830000Y-71898500D01*
G75*
G02*
X188067500Y-71661000I237500J0D01*
G01*
X188567500Y-71661000D01*
G75*
G02*
X188805000Y-71898500I0J-237500D01*
G01*
G37*
%TD.AperFunction*%
%TO.P,R2,1*%
%TO.N,Net-(R2-Pad1)*%
%TA.AperFunction,SMDPad,CuDef*%
G36*
G01*
X190630000Y-71898500D02*
X190630000Y-72373500D01*
G75*
G02*
X190392500Y-72611000I-237500J0D01*
G01*
X189892500Y-72611000D01*
G75*
G02*
X189655000Y-72373500I0J237500D01*
G01*
X189655000Y-71898500D01*
G75*
G02*
X189892500Y-71661000I237500J0D01*
G01*
X190392500Y-71661000D01*
G75*
G02*
X190630000Y-71898500I0J-237500D01*
G01*
G37*
%TD.AperFunction*%
%TD*%
%TO.P,R1,2*%
%TO.N,USB_DM*%
%TA.AperFunction,SMDPad,CuDef*%
G36*
G01*
X188932000Y-69866500D02*
X188932000Y-70341500D01*
G75*
G02*
X188694500Y-70579000I-237500J0D01*
G01*
X188194500Y-70579000D01*
G75*
G02*
X187957000Y-70341500I0J237500D01*
G01*
X187957000Y-69866500D01*
G75*
G02*
X188194500Y-69629000I237500J0D01*
G01*
X188694500Y-69629000D01*
G75*
G02*
X188932000Y-69866500I0J-237500D01*
G01*
G37*
%TD.AperFunction*%
%TO.P,R1,1*%
%TO.N,Net-(R1-Pad1)*%
%TA.AperFunction,SMDPad,CuDef*%
G36*
G01*
X190757000Y-69866500D02*
X190757000Y-70341500D01*
G75*
G02*
X190519500Y-70579000I-237500J0D01*
G01*
X190019500Y-70579000D01*
G75*
G02*
X189782000Y-70341500I0J237500D01*
G01*
X189782000Y-69866500D01*
G75*
G02*
X190019500Y-69629000I237500J0D01*
G01*
X190519500Y-69629000D01*
G75*
G02*
X190757000Y-69866500I0J-237500D01*
G01*
G37*
%TD.AperFunction*%
%TD*%
D13*
%TO.P,J1,53*%
%TO.N,GND*%
X198272400Y-60045600D03*
D19*
%TO.P,J1,52*%
%TO.N,+3V3*%
X198010000Y-82496200D03*
%TO.P,J1,50*%
%TO.N,GND*%
X197210000Y-82496200D03*
%TO.P,J1,48*%
%TO.N,N/C*%
X196410000Y-82496200D03*
%TO.P,J1,46*%
X195610000Y-82496200D03*
%TO.P,J1,44*%
X194810000Y-82496200D03*
%TO.P,J1,42*%
X194010000Y-82496200D03*
%TO.P,J1,40*%
%TO.N,GND*%
X193210000Y-82496200D03*
%TO.P,J1,38*%
%TO.N,USB_DP*%
X192410000Y-82496200D03*
%TO.P,J1,36*%
%TO.N,USB_DM*%
X191610000Y-82496200D03*
%TO.P,J1,34*%
%TO.N,GND*%
X190810000Y-82496200D03*
%TO.P,J1,32*%
%TO.N,N/C*%
X190010000Y-82496200D03*
%TO.P,J1,30*%
X189210000Y-82496200D03*
%TO.P,J1,28*%
X188410000Y-82496200D03*
%TO.P,J1,26*%
%TO.N,GND*%
X187610000Y-82496200D03*
%TO.P,J1,24*%
%TO.N,+3V3*%
X186810000Y-82496200D03*
%TO.P,J1,22*%
%TO.N,N/C*%
X186010000Y-82496200D03*
%TO.P,J1,20*%
X185210000Y-82496200D03*
%TO.P,J1,2*%
%TO.N,+3V3*%
X174810000Y-82496200D03*
%TO.P,J1,4*%
%TO.N,GND*%
X175610000Y-82496200D03*
%TO.P,J1,6*%
%TO.N,N/C*%
X176410000Y-82496200D03*
%TO.P,J1,8*%
X177210000Y-82496200D03*
%TO.P,J1,10*%
X178010000Y-82496200D03*
%TO.P,J1,12*%
X178810000Y-82496200D03*
%TO.P,J1,14*%
X179610000Y-82496200D03*
%TO.P,J1,18*%
%TO.N,GND*%
X184410000Y-82496200D03*
%TO.P,J1,16*%
%TO.N,N/C*%
X180410000Y-82496200D03*
%TD*%
D20*
%TO.N,GND*%
X180047700Y-77711500D03*
X184352700Y-77318100D03*
X188189100Y-78180700D03*
X189865500Y-78180700D03*
X194911518Y-78519482D03*
X172491400Y-55194200D03*
X172542200Y-57505600D03*
X172516800Y-59613800D03*
X175107600Y-59791600D03*
X175133000Y-57404000D03*
X175031400Y-55143400D03*
X177723800Y-55092600D03*
X180390800Y-55067200D03*
X183769000Y-55168800D03*
X186410600Y-55016400D03*
X189382400Y-55067200D03*
X191820800Y-55092600D03*
X191897000Y-59791600D03*
X191719200Y-61239400D03*
X188468000Y-61087000D03*
X193776600Y-55092600D03*
X197840600Y-55016400D03*
X200152000Y-55041800D03*
X194513200Y-65252600D03*
X196799200Y-65252600D03*
X199110600Y-65252600D03*
X196773800Y-67487800D03*
X199136000Y-67462400D03*
X196773800Y-70053200D03*
X199136000Y-70053200D03*
X196773800Y-72034400D03*
X199136000Y-72059800D03*
X196799200Y-74574400D03*
X199110600Y-74574400D03*
X197967600Y-76606400D03*
X191439800Y-66395600D03*
X193116200Y-68783200D03*
X192633600Y-71069200D03*
X192532000Y-74193400D03*
X190500000Y-73990200D03*
X188442600Y-67564000D03*
X185343800Y-68656200D03*
X185369200Y-71856600D03*
X186055000Y-74041000D03*
X187045600Y-75082400D03*
X183007000Y-75844400D03*
X180187600Y-73685400D03*
X182422800Y-67132200D03*
X181076600Y-68605400D03*
X178181000Y-71018400D03*
X175514000Y-70967600D03*
X178003200Y-66141600D03*
X174929800Y-66421000D03*
X175539400Y-61874400D03*
X175387000Y-64516000D03*
X173101000Y-63017400D03*
X172593000Y-67564000D03*
X172567600Y-70281800D03*
X172491400Y-73609200D03*
X172440600Y-77571600D03*
X193725800Y-57404000D03*
X193827400Y-59817000D03*
X193802000Y-61899800D03*
X191795400Y-57404000D03*
X179070000Y-35560000D03*
X181610000Y-35560000D03*
X184150000Y-35560000D03*
X186690000Y-35560000D03*
X189230000Y-35560000D03*
X191770000Y-35560000D03*
X191770000Y-38100000D03*
X191770000Y-40640000D03*
X191770000Y-43180000D03*
X191770000Y-45720000D03*
X191770000Y-48260000D03*
X189230000Y-48260000D03*
X189230000Y-45720000D03*
X189230000Y-43180000D03*
X189230000Y-40640000D03*
X189230000Y-38100000D03*
X186690000Y-38100000D03*
X186690000Y-40640000D03*
X186690000Y-43180000D03*
X186690000Y-45720000D03*
X186690000Y-48260000D03*
X184150000Y-48260000D03*
X184150000Y-45720000D03*
X184150000Y-43180000D03*
X184150000Y-40640000D03*
X184150000Y-38100000D03*
X181610000Y-38100000D03*
X181610000Y-40640000D03*
X181610000Y-43180000D03*
X181610000Y-45720000D03*
X181610000Y-48260000D03*
X179070000Y-50800000D03*
X179070000Y-48260000D03*
X179070000Y-45720000D03*
X179070000Y-43180000D03*
X179070000Y-40640000D03*
X179070000Y-38100000D03*
X194310000Y-38100000D03*
X194310000Y-35560000D03*
X194310000Y-40640000D03*
X194310000Y-43180000D03*
X194310000Y-45720000D03*
X194310000Y-48260000D03*
X194310000Y-50800000D03*
X196850000Y-50800000D03*
X196850000Y-48260000D03*
X196850000Y-45720000D03*
X196850000Y-43180000D03*
X196850000Y-40640000D03*
X199390000Y-40640000D03*
X199390000Y-43180000D03*
X199390000Y-45720000D03*
X199390000Y-48260000D03*
X176530000Y-50800000D03*
X176530000Y-48260000D03*
X176530000Y-45720000D03*
X176530000Y-43180000D03*
X176530000Y-40640000D03*
X173990000Y-40640000D03*
X173990000Y-43180000D03*
X173990000Y-45720000D03*
X173990000Y-48260000D03*
X210232000Y-57401600D03*
X233066600Y-76604000D03*
X227732600Y-71066800D03*
X226996000Y-59789200D03*
X230010518Y-78517082D03*
X221509600Y-55014000D03*
X235251000Y-55039400D03*
X231872800Y-70050800D03*
X234235000Y-70050800D03*
X231898200Y-74572000D03*
X207641200Y-57503200D03*
X227631000Y-74191000D03*
X217521800Y-67129800D03*
X207615800Y-59611400D03*
X212822800Y-55090200D03*
X232939600Y-55014000D03*
X234235000Y-72057400D03*
X228215200Y-68780800D03*
X215489800Y-55064800D03*
X234235000Y-67460000D03*
X223567000Y-61084600D03*
X225599000Y-73987800D03*
X223541600Y-67561600D03*
X220468200Y-71854200D03*
X222144600Y-75080000D03*
X210206600Y-59789200D03*
X234209600Y-74572000D03*
X215286600Y-73683000D03*
X210613000Y-70965200D03*
X224481400Y-55064800D03*
X224964500Y-78178300D03*
X226818200Y-61237000D03*
X207590400Y-55191800D03*
X231898200Y-65250200D03*
X213102200Y-66139200D03*
X229612200Y-65250200D03*
X216175600Y-68603000D03*
X219451700Y-77315700D03*
X228875600Y-55090200D03*
X223288100Y-78178300D03*
X234209600Y-65250200D03*
X218868000Y-55166400D03*
X231872800Y-67485400D03*
X218106000Y-75842000D03*
X215146700Y-77709100D03*
X226919800Y-55090200D03*
X213280000Y-71016000D03*
X221154000Y-74038600D03*
X210028800Y-66418600D03*
X231872800Y-72032000D03*
X220442800Y-68653800D03*
X210130400Y-55141000D03*
X226538800Y-66393200D03*
X210638400Y-61872000D03*
X228824800Y-57401600D03*
X228926400Y-59814600D03*
X228901000Y-61897400D03*
X207666600Y-70279400D03*
X207692000Y-67561600D03*
X207590400Y-73606800D03*
X207539600Y-77569200D03*
X226894400Y-57401600D03*
X208200000Y-63015000D03*
X210486000Y-64513600D03*
X224329000Y-45717600D03*
X226869000Y-43177600D03*
X219249000Y-35557600D03*
X221789000Y-38097600D03*
X224329000Y-35557600D03*
X226869000Y-38097600D03*
X226869000Y-48257600D03*
X224329000Y-40637600D03*
X224329000Y-43177600D03*
X221789000Y-35557600D03*
X224329000Y-48257600D03*
X224329000Y-38097600D03*
X216709000Y-35557600D03*
X214169000Y-35557600D03*
X226869000Y-35557600D03*
X226869000Y-45717600D03*
X226869000Y-40637600D03*
X221789000Y-40637600D03*
X214169000Y-38097600D03*
X229409000Y-38097600D03*
X231949000Y-48257600D03*
X216709000Y-45717600D03*
X231949000Y-40637600D03*
X229409000Y-40637600D03*
X219249000Y-40637600D03*
X214169000Y-50797600D03*
X214169000Y-45717600D03*
X221789000Y-48257600D03*
X216709000Y-40637600D03*
X214169000Y-40637600D03*
X229409000Y-35557600D03*
X219249000Y-48257600D03*
X219249000Y-43177600D03*
X219249000Y-38097600D03*
X216709000Y-38097600D03*
X216709000Y-48257600D03*
X221789000Y-43177600D03*
X216709000Y-43177600D03*
X214169000Y-48257600D03*
X221789000Y-45717600D03*
X229409000Y-45717600D03*
X229409000Y-48257600D03*
X219249000Y-45717600D03*
X214169000Y-43177600D03*
X231949000Y-50797600D03*
X231949000Y-43177600D03*
X231949000Y-45717600D03*
X234489000Y-40637600D03*
X234489000Y-43177600D03*
X229409000Y-50797600D03*
X229409000Y-43177600D03*
X234489000Y-45717600D03*
X234489000Y-48257600D03*
X211629000Y-43177600D03*
X209089000Y-43177600D03*
X211629000Y-45717600D03*
X211629000Y-50797600D03*
X211629000Y-40637600D03*
X211629000Y-48257600D03*
X209089000Y-45717600D03*
X209089000Y-40637600D03*
X209089000Y-48257600D03*
%TO.N,+3V3*%
X183769000Y-73787000D03*
X184505600Y-74523600D03*
X195605400Y-76631800D03*
X230704400Y-76629400D03*
X218868000Y-73784600D03*
X219604600Y-74521200D03*
%TD*%
D21*
%TO.N,GND*%
X194964240Y-74629420D02*
X194271900Y-75321760D01*
X193164000Y-82496200D02*
X193160001Y-82492201D01*
X193160001Y-82492201D02*
X193160001Y-80499599D01*
X193210000Y-82496200D02*
X193164000Y-82496200D01*
X193160001Y-80499599D02*
X194005200Y-79654400D01*
X194005200Y-75588460D02*
X194964240Y-74629420D01*
X175610000Y-82496200D02*
X175610000Y-80846200D01*
X184410000Y-82496200D02*
X184410000Y-77210000D01*
X178744700Y-77711500D02*
X177758100Y-78698100D01*
X180010000Y-77711500D02*
X178744700Y-77711500D01*
X175610000Y-80846200D02*
X177758100Y-78698100D01*
X194005200Y-78282800D02*
X194005200Y-75588460D01*
X194005200Y-79654400D02*
X194005200Y-78282800D01*
X197210000Y-80817964D02*
X194911518Y-78519482D01*
X197210000Y-82496200D02*
X197210000Y-80817964D01*
X194674836Y-78282800D02*
X194005200Y-78282800D01*
X194911518Y-78519482D02*
X194674836Y-78282800D01*
D22*
X190804800Y-82491000D02*
X190810000Y-82496200D01*
X190804800Y-80594200D02*
X190804800Y-82491000D01*
X189865500Y-79654900D02*
X190804800Y-80594200D01*
X189865500Y-78180700D02*
X189865500Y-79654900D01*
X187610000Y-80309200D02*
X187610000Y-82496200D01*
X188189100Y-79730100D02*
X187610000Y-80309200D01*
X188189100Y-78180700D02*
X188189100Y-79730100D01*
D23*
X196850000Y-50800000D02*
X196850000Y-50850800D01*
X196529799Y-51171001D02*
X196529799Y-53349999D01*
X196850000Y-50850800D02*
X196529799Y-51171001D01*
X194310000Y-50800000D02*
X194894200Y-50800000D01*
X195239801Y-51145601D02*
X195239801Y-53324599D01*
X194894200Y-50800000D02*
X195239801Y-51145601D01*
X194310000Y-50800000D02*
X194310000Y-51130200D01*
X193989799Y-51450401D02*
X193989799Y-53095999D01*
X194310000Y-51130200D02*
X193989799Y-51450401D01*
X194310000Y-50800000D02*
X193141600Y-50800000D01*
X192699801Y-51241799D02*
X192699801Y-53426199D01*
X193141600Y-50800000D02*
X192699801Y-51241799D01*
X179070000Y-50800000D02*
X179578000Y-50800000D01*
X179720401Y-50942401D02*
X179720401Y-53228401D01*
X179578000Y-50800000D02*
X179720401Y-50942401D01*
X179070000Y-50800000D02*
X178816000Y-50800000D01*
X178450401Y-51165599D02*
X178450401Y-53172199D01*
X178816000Y-50800000D02*
X178450401Y-51165599D01*
X177180401Y-51450401D02*
X177180401Y-53457001D01*
X176530000Y-50800000D02*
X177180401Y-51450401D01*
X175930399Y-51399601D02*
X175930399Y-53253801D01*
X176530000Y-50800000D02*
X175930399Y-51399601D01*
D21*
X228263000Y-82493800D02*
X228259001Y-82489801D01*
X228309000Y-82493800D02*
X228263000Y-82493800D01*
X213843700Y-77709100D02*
X212857100Y-78695700D01*
X210709000Y-80843800D02*
X212857100Y-78695700D01*
D22*
X224964500Y-79652500D02*
X225903800Y-80591800D01*
D21*
X229104200Y-78280400D02*
X229104200Y-75586060D01*
D22*
X224964500Y-78178300D02*
X224964500Y-79652500D01*
X223288100Y-78178300D02*
X223288100Y-79727700D01*
D21*
X230063240Y-74627020D02*
X229370900Y-75319360D01*
X228259001Y-82489801D02*
X228259001Y-80497199D01*
X228259001Y-80497199D02*
X229104200Y-79652000D01*
D22*
X225903800Y-80591800D02*
X225903800Y-82488600D01*
D21*
X232309000Y-82493800D02*
X232309000Y-80815564D01*
X229104200Y-75586060D02*
X230063240Y-74627020D01*
X229104200Y-79652000D02*
X229104200Y-78280400D01*
X229773836Y-78280400D02*
X229104200Y-78280400D01*
D22*
X225903800Y-82488600D02*
X225909000Y-82493800D01*
D21*
X230010518Y-78517082D02*
X229773836Y-78280400D01*
D22*
X222709000Y-80306800D02*
X222709000Y-82493800D01*
X223288100Y-79727700D02*
X222709000Y-80306800D01*
D21*
X232309000Y-80815564D02*
X230010518Y-78517082D01*
X219509000Y-82493800D02*
X219509000Y-77207600D01*
X210709000Y-82493800D02*
X210709000Y-80843800D01*
X215109000Y-77709100D02*
X213843700Y-77709100D01*
D23*
X228240600Y-50797600D02*
X227798801Y-51239399D01*
X229409000Y-50797600D02*
X229993200Y-50797600D01*
X229409000Y-50797600D02*
X228240600Y-50797600D01*
X231949000Y-50797600D02*
X231949000Y-50848400D01*
X231628799Y-51168601D02*
X231628799Y-53347599D01*
X231949000Y-50848400D02*
X231628799Y-51168601D01*
X229993200Y-50797600D02*
X230338801Y-51143201D01*
X214169000Y-50797600D02*
X214677000Y-50797600D01*
X227798801Y-51239399D02*
X227798801Y-53423799D01*
X229088799Y-51448001D02*
X229088799Y-53093599D01*
X230338801Y-51143201D02*
X230338801Y-53322199D01*
X229409000Y-51127800D02*
X229088799Y-51448001D01*
X229409000Y-50797600D02*
X229409000Y-51127800D01*
X213549401Y-51163199D02*
X213549401Y-53169799D01*
X214169000Y-50797600D02*
X213915000Y-50797600D01*
X213915000Y-50797600D02*
X213549401Y-51163199D01*
X214819401Y-50940001D02*
X214819401Y-53226001D01*
X214677000Y-50797600D02*
X214819401Y-50940001D01*
X211629000Y-50797600D02*
X211029399Y-51397201D01*
X211029399Y-51397201D02*
X211029399Y-53251401D01*
X211629000Y-50797600D02*
X212279401Y-51448001D01*
X212279401Y-51448001D02*
X212279401Y-53454601D01*
D21*
%TO.N,+3V3*%
X181356000Y-75184000D02*
X183222900Y-73317100D01*
X180086000Y-75184000D02*
X181356000Y-75184000D01*
X174810000Y-80460000D02*
X180086000Y-75184000D01*
X174810000Y-82496200D02*
X174810000Y-80460000D01*
X183261000Y-71854700D02*
X183261000Y-73279000D01*
X183222900Y-73317100D02*
X183261000Y-73279000D01*
X183769000Y-73787000D02*
X183261000Y-73279000D01*
X198010000Y-80408000D02*
X198010000Y-82496200D01*
X195605400Y-78003400D02*
X198010000Y-80408000D01*
X195605400Y-76631800D02*
X195605400Y-78003400D01*
X186810000Y-76828000D02*
X185331999Y-75349999D01*
X185331999Y-75349999D02*
X184505600Y-74523600D01*
X186810000Y-82496200D02*
X186810000Y-76828000D01*
X216455000Y-75181600D02*
X218321900Y-73314700D01*
X215185000Y-75181600D02*
X216455000Y-75181600D01*
X209909000Y-80457600D02*
X215185000Y-75181600D01*
X221909000Y-76825600D02*
X220430999Y-75347599D01*
X220430999Y-75347599D02*
X219604600Y-74521200D01*
X233109000Y-80405600D02*
X233109000Y-82493800D01*
X221909000Y-82493800D02*
X221909000Y-76825600D01*
X230704400Y-78001000D02*
X233109000Y-80405600D01*
X218868000Y-73784600D02*
X218360000Y-73276600D01*
X218321900Y-73314700D02*
X218360000Y-73276600D01*
X230704400Y-76629400D02*
X230704400Y-78001000D01*
X209909000Y-82493800D02*
X209909000Y-80457600D01*
X218360000Y-71852300D02*
X218360000Y-73276600D01*
D22*
%TO.N,USB_DP*%
X192410000Y-77881400D02*
X192410000Y-82496200D01*
X188317500Y-73788900D02*
X192410000Y-77881400D01*
X188317500Y-72136000D02*
X188317500Y-73788900D01*
X223416500Y-72133600D02*
X223416500Y-73786500D01*
X227509000Y-77879000D02*
X227509000Y-82493800D01*
X223416500Y-73786500D02*
X227509000Y-77879000D01*
%TO.N,USB_DM*%
X191610000Y-77929942D02*
X191610000Y-82496200D01*
X187172600Y-73492542D02*
X191610000Y-77929942D01*
X187172600Y-70535800D02*
X187172600Y-73492542D01*
X187604400Y-70104000D02*
X187172600Y-70535800D01*
X188444500Y-70104000D02*
X187604400Y-70104000D01*
X222703400Y-70101600D02*
X222271600Y-70533400D01*
X226709000Y-77927542D02*
X226709000Y-82493800D01*
X223543500Y-70101600D02*
X222703400Y-70101600D01*
X222271600Y-73490142D02*
X226709000Y-77927542D01*
X222271600Y-70533400D02*
X222271600Y-73490142D01*
D23*
%TO.N,Net-(R1-Pad1)*%
X190316080Y-70057420D02*
X190269500Y-70104000D01*
D22*
X194917660Y-70104000D02*
X194964240Y-70057420D01*
X190269500Y-70104000D02*
X194917660Y-70104000D01*
X225368500Y-70101600D02*
X230016660Y-70101600D01*
D23*
X225415080Y-70055020D02*
X225368500Y-70101600D01*
D22*
X230016660Y-70101600D02*
X230063240Y-70055020D01*
D23*
%TO.N,Net-(R2-Pad1)*%
X190189080Y-72089420D02*
X190142500Y-72136000D01*
D22*
X194917660Y-72136000D02*
X194964240Y-72089420D01*
X190142500Y-72136000D02*
X194917660Y-72136000D01*
X225241500Y-72133600D02*
X230016660Y-72133600D01*
X230016660Y-72133600D02*
X230063240Y-72087020D01*
D23*
X225288080Y-72087020D02*
X225241500Y-72133600D01*
D21*
%TO.N,Net-(J2-Pad2)*%
X177038000Y-62754000D02*
X179485800Y-62754000D01*
X179781200Y-62458600D02*
X182272300Y-62458600D01*
X179485800Y-62754000D02*
X179781200Y-62458600D01*
X214880200Y-62456200D02*
X217371300Y-62456200D01*
X212137000Y-62751600D02*
X214584800Y-62751600D01*
X214584800Y-62751600D02*
X214880200Y-62456200D01*
%TO.N,Net-(J3-Pad4)*%
X174833280Y-73741280D02*
X175662360Y-73741280D01*
X209932280Y-73738880D02*
X210761360Y-73738880D01*
%TO.N,Net-(R3-Pad1)*%
X194964240Y-67517420D02*
X195406420Y-67517420D01*
X193695210Y-66248390D02*
X194964240Y-67517420D01*
X192552100Y-65105280D02*
X193695210Y-66248390D01*
X191947800Y-67995800D02*
X193695210Y-66248390D01*
X186969400Y-69037200D02*
X190906400Y-69037200D01*
X185976900Y-70029700D02*
X186969400Y-69037200D01*
X190906400Y-69037200D02*
X191947800Y-67995800D01*
X183261000Y-70029700D02*
X185976900Y-70029700D01*
X184097300Y-62458600D02*
X191262000Y-62458600D01*
X192552100Y-63748700D02*
X192552100Y-65105280D01*
X191262000Y-62458600D02*
X192552100Y-63748700D01*
X228794210Y-66245990D02*
X230063240Y-67515020D01*
X227046800Y-67993400D02*
X228794210Y-66245990D01*
X227651100Y-63746300D02*
X227651100Y-65102880D01*
X227651100Y-65102880D02*
X228794210Y-66245990D01*
X222068400Y-69034800D02*
X226005400Y-69034800D01*
X218360000Y-70027300D02*
X221075900Y-70027300D01*
X221075900Y-70027300D02*
X222068400Y-69034800D01*
X226005400Y-69034800D02*
X227046800Y-67993400D01*
X219196300Y-62456200D02*
X226361000Y-62456200D01*
X226361000Y-62456200D02*
X227651100Y-63746300D01*
X230063240Y-67515020D02*
X230505420Y-67515020D01*
%TD*%
D24*
%TO.N,GND*%
X196558772Y-52897862D02*
X196711911Y-53000186D01*
X196882071Y-53070668D01*
X197062711Y-53106600D01*
X197204836Y-53106600D01*
X197215550Y-53215383D01*
X197253290Y-53339793D01*
X197314575Y-53454450D01*
X197397052Y-53554948D01*
X197497550Y-53637425D01*
X197612207Y-53698710D01*
X197736617Y-53736450D01*
X197833581Y-53746000D01*
X197866000Y-53749193D01*
X197898419Y-53746000D01*
X200551514Y-53746000D01*
X200552909Y-56508256D01*
X198558150Y-56510600D01*
X198399400Y-56669350D01*
X198399400Y-59918600D01*
X198419400Y-59918600D01*
X198419400Y-60172600D01*
X198399400Y-60172600D01*
X198399400Y-63421850D01*
X198558150Y-63580600D01*
X200552288Y-63582943D01*
X200539454Y-79209625D01*
X198057845Y-79204266D01*
X196490400Y-77636822D01*
X196490400Y-77170254D01*
X196522605Y-77122056D01*
X196600626Y-76933698D01*
X196640400Y-76733739D01*
X196640400Y-76529861D01*
X196600626Y-76329902D01*
X196522605Y-76141544D01*
X196409337Y-75972026D01*
X196265174Y-75827863D01*
X196095656Y-75714595D01*
X195907298Y-75636574D01*
X195737642Y-75602828D01*
X195742036Y-75586821D01*
X194964240Y-74809025D01*
X194186444Y-75586821D01*
X194252039Y-75825746D01*
X194499115Y-75941703D01*
X194764067Y-76007229D01*
X194777526Y-76007850D01*
X194688195Y-76141544D01*
X194610174Y-76329902D01*
X194570400Y-76529861D01*
X194570400Y-76733739D01*
X194610174Y-76933698D01*
X194688195Y-77122056D01*
X194720400Y-77170255D01*
X194720401Y-77959921D01*
X194716119Y-78003400D01*
X194733205Y-78176890D01*
X194783812Y-78343713D01*
X194865990Y-78497459D01*
X194948868Y-78598446D01*
X194948871Y-78598449D01*
X194976584Y-78632217D01*
X195010351Y-78659929D01*
X195549271Y-79198849D01*
X193245000Y-79193874D01*
X193245000Y-77922418D01*
X193249040Y-77881399D01*
X193232918Y-77717711D01*
X193185172Y-77560313D01*
X193107636Y-77415254D01*
X193043128Y-77336651D01*
X193003291Y-77288109D01*
X192971428Y-77261960D01*
X190411358Y-74701890D01*
X193573853Y-74701890D01*
X193614707Y-74971749D01*
X193707423Y-75228452D01*
X193767914Y-75341621D01*
X194006839Y-75407216D01*
X194784635Y-74629420D01*
X195143845Y-74629420D01*
X195921641Y-75407216D01*
X196160566Y-75341621D01*
X196276523Y-75094545D01*
X196342049Y-74829593D01*
X196354627Y-74556950D01*
X196313773Y-74287091D01*
X196221057Y-74030388D01*
X196160566Y-73917219D01*
X195921641Y-73851624D01*
X195143845Y-74629420D01*
X194784635Y-74629420D01*
X194006839Y-73851624D01*
X193767914Y-73917219D01*
X193651957Y-74164295D01*
X193586431Y-74429247D01*
X193573853Y-74701890D01*
X190411358Y-74701890D01*
X189152500Y-73443033D01*
X189152500Y-73020627D01*
X189186623Y-72992623D01*
X189230000Y-72939768D01*
X189273377Y-72992623D01*
X189406058Y-73101512D01*
X189557433Y-73182423D01*
X189721684Y-73232248D01*
X189892500Y-73249072D01*
X190392500Y-73249072D01*
X190563316Y-73232248D01*
X190727567Y-73182423D01*
X190878942Y-73101512D01*
X191011623Y-72992623D01*
X191029369Y-72971000D01*
X193886883Y-72971000D01*
X193887998Y-72972669D01*
X194080991Y-73165662D01*
X194307927Y-73317296D01*
X194405936Y-73357893D01*
X194365208Y-73372603D01*
X194252039Y-73433094D01*
X194186444Y-73672019D01*
X194964240Y-74449815D01*
X195742036Y-73672019D01*
X195676441Y-73433094D01*
X195519177Y-73359287D01*
X195620553Y-73317296D01*
X195847489Y-73165662D01*
X196040482Y-72972669D01*
X196192116Y-72745733D01*
X196296563Y-72493576D01*
X196349810Y-72225887D01*
X196349810Y-71952953D01*
X196296563Y-71685264D01*
X196192116Y-71433107D01*
X196040482Y-71206171D01*
X195907731Y-71073420D01*
X196040482Y-70940669D01*
X196192116Y-70713733D01*
X196296563Y-70461576D01*
X196349810Y-70193887D01*
X196349810Y-69920953D01*
X196296563Y-69653264D01*
X196192116Y-69401107D01*
X196040482Y-69174171D01*
X195847489Y-68981178D01*
X195620553Y-68829544D01*
X195518857Y-68787420D01*
X195620553Y-68745296D01*
X195847489Y-68593662D01*
X196040482Y-68400669D01*
X196192116Y-68173733D01*
X196296563Y-67921576D01*
X196349810Y-67653887D01*
X196349810Y-67380953D01*
X196296563Y-67113264D01*
X196192116Y-66861107D01*
X196040482Y-66634171D01*
X195847489Y-66441178D01*
X195620553Y-66289544D01*
X195368396Y-66185097D01*
X195100707Y-66131850D01*
X194830248Y-66131850D01*
X194351746Y-65653348D01*
X194351742Y-65653343D01*
X194351740Y-65653341D01*
X194324027Y-65619573D01*
X194290259Y-65591860D01*
X193437100Y-64738702D01*
X193437100Y-63792169D01*
X193441381Y-63748700D01*
X193437100Y-63705231D01*
X193437100Y-63705223D01*
X193424295Y-63575210D01*
X193373689Y-63408387D01*
X193291511Y-63254641D01*
X193245036Y-63198011D01*
X193208632Y-63153653D01*
X193208630Y-63153651D01*
X193180917Y-63119883D01*
X193147150Y-63092171D01*
X193000579Y-62945600D01*
X194734328Y-62945600D01*
X194746588Y-63070082D01*
X194782898Y-63189780D01*
X194841863Y-63300094D01*
X194921215Y-63396785D01*
X195017906Y-63476137D01*
X195128220Y-63535102D01*
X195247918Y-63571412D01*
X195372400Y-63583672D01*
X197986650Y-63580600D01*
X198145400Y-63421850D01*
X198145400Y-60172600D01*
X194896150Y-60172600D01*
X194737400Y-60331350D01*
X194734328Y-62945600D01*
X193000579Y-62945600D01*
X191918534Y-61863556D01*
X191890817Y-61829783D01*
X191756059Y-61719189D01*
X191602313Y-61637011D01*
X191435490Y-61586405D01*
X191305477Y-61573600D01*
X191305469Y-61573600D01*
X191262000Y-61569319D01*
X191218531Y-61573600D01*
X184931846Y-61573600D01*
X184833742Y-61493088D01*
X184682367Y-61412177D01*
X184518116Y-61362352D01*
X184347300Y-61345528D01*
X183847300Y-61345528D01*
X183676484Y-61362352D01*
X183512233Y-61412177D01*
X183360858Y-61493088D01*
X183228177Y-61601977D01*
X183184800Y-61654832D01*
X183141423Y-61601977D01*
X183008742Y-61493088D01*
X182857367Y-61412177D01*
X182693116Y-61362352D01*
X182522300Y-61345528D01*
X182022300Y-61345528D01*
X181851484Y-61362352D01*
X181687233Y-61412177D01*
X181535858Y-61493088D01*
X181437754Y-61573600D01*
X179824669Y-61573600D01*
X179781200Y-61569319D01*
X179737731Y-61573600D01*
X179737723Y-61573600D01*
X179607710Y-61586405D01*
X179440887Y-61637011D01*
X179287141Y-61719189D01*
X179152383Y-61829783D01*
X179124666Y-61863556D01*
X179119222Y-61869000D01*
X178065603Y-61869000D01*
X178057180Y-61864498D01*
X177937482Y-61828188D01*
X177813000Y-61815928D01*
X176263000Y-61815928D01*
X176138518Y-61828188D01*
X176018820Y-61864498D01*
X175908506Y-61923463D01*
X175811815Y-62002815D01*
X175732463Y-62099506D01*
X175673498Y-62209820D01*
X175637188Y-62329518D01*
X175624928Y-62454000D01*
X175624928Y-63054000D01*
X175637188Y-63178482D01*
X175660096Y-63254000D01*
X175637188Y-63329518D01*
X175624928Y-63454000D01*
X175628000Y-63468250D01*
X175786750Y-63627000D01*
X175987947Y-63627000D01*
X176018820Y-63643502D01*
X176138518Y-63679812D01*
X176263000Y-63692072D01*
X177813000Y-63692072D01*
X177937482Y-63679812D01*
X178057180Y-63643502D01*
X178065603Y-63639000D01*
X179442331Y-63639000D01*
X179485800Y-63643281D01*
X179529269Y-63639000D01*
X179529277Y-63639000D01*
X179659290Y-63626195D01*
X179826113Y-63575589D01*
X179979859Y-63493411D01*
X180114617Y-63382817D01*
X180142334Y-63349044D01*
X180147778Y-63343600D01*
X181437754Y-63343600D01*
X181535858Y-63424112D01*
X181687233Y-63505023D01*
X181851484Y-63554848D01*
X182022300Y-63571672D01*
X182522300Y-63571672D01*
X182693116Y-63554848D01*
X182857367Y-63505023D01*
X183008742Y-63424112D01*
X183141423Y-63315223D01*
X183184800Y-63262368D01*
X183228177Y-63315223D01*
X183360858Y-63424112D01*
X183512233Y-63505023D01*
X183676484Y-63554848D01*
X183847300Y-63571672D01*
X184347300Y-63571672D01*
X184518116Y-63554848D01*
X184682367Y-63505023D01*
X184833742Y-63424112D01*
X184931846Y-63343600D01*
X190895422Y-63343600D01*
X191667100Y-64115279D01*
X191667101Y-65061801D01*
X191662819Y-65105280D01*
X191679905Y-65278770D01*
X191730512Y-65445593D01*
X191812690Y-65599339D01*
X191895568Y-65700326D01*
X191895571Y-65700329D01*
X191923284Y-65734097D01*
X191957051Y-65761809D01*
X192443631Y-66248390D01*
X191352758Y-67339264D01*
X191352753Y-67339268D01*
X190539822Y-68152200D01*
X187012869Y-68152200D01*
X186969400Y-68147919D01*
X186925931Y-68152200D01*
X186925923Y-68152200D01*
X186810706Y-68163548D01*
X186795909Y-68165005D01*
X186767138Y-68173733D01*
X186629087Y-68215611D01*
X186475341Y-68297789D01*
X186475339Y-68297790D01*
X186475340Y-68297790D01*
X186374353Y-68380668D01*
X186374351Y-68380670D01*
X186340583Y-68408383D01*
X186312870Y-68442151D01*
X185610322Y-69144700D01*
X184098277Y-69144700D01*
X183984942Y-69051688D01*
X183833567Y-68970777D01*
X183669316Y-68920952D01*
X183498500Y-68904128D01*
X183023500Y-68904128D01*
X182852684Y-68920952D01*
X182688433Y-68970777D01*
X182537058Y-69051688D01*
X182404377Y-69160577D01*
X182295488Y-69293258D01*
X182214577Y-69444633D01*
X182164752Y-69608884D01*
X182147928Y-69779700D01*
X182147928Y-70279700D01*
X182164752Y-70450516D01*
X182214577Y-70614767D01*
X182295488Y-70766142D01*
X182404377Y-70898823D01*
X182457232Y-70942200D01*
X182404377Y-70985577D01*
X182295488Y-71118258D01*
X182214577Y-71269633D01*
X182164752Y-71433884D01*
X182147928Y-71604700D01*
X182147928Y-72104700D01*
X182164752Y-72275516D01*
X182214577Y-72439767D01*
X182295488Y-72591142D01*
X182376001Y-72689246D01*
X182376001Y-72912420D01*
X180989422Y-74299000D01*
X180129469Y-74299000D01*
X180086000Y-74294719D01*
X180042531Y-74299000D01*
X180042523Y-74299000D01*
X179912510Y-74311805D01*
X179745687Y-74362411D01*
X179708681Y-74382191D01*
X179591941Y-74444589D01*
X179490953Y-74527468D01*
X179490951Y-74527470D01*
X179457183Y-74555183D01*
X179429470Y-74588951D01*
X177272188Y-76746233D01*
X177262861Y-76681317D01*
X177163932Y-76400806D01*
X177087228Y-76257305D01*
X176835600Y-76176645D01*
X175968965Y-77043280D01*
X175983108Y-77057423D01*
X175803503Y-77237028D01*
X175789360Y-77222885D01*
X174922725Y-78089520D01*
X175003385Y-78341148D01*
X175271689Y-78469547D01*
X175492494Y-78525927D01*
X174864239Y-79154183D01*
X171871240Y-79147720D01*
X171871240Y-77110823D01*
X174273556Y-77110823D01*
X174315859Y-77405243D01*
X174414788Y-77685754D01*
X174491492Y-77829255D01*
X174743120Y-77909915D01*
X175609755Y-77043280D01*
X174743120Y-76176645D01*
X174491492Y-76257305D01*
X174363093Y-76525609D01*
X174289505Y-76813806D01*
X174273556Y-77110823D01*
X171871240Y-77110823D01*
X171871240Y-75997040D01*
X174922725Y-75997040D01*
X175789360Y-76863675D01*
X176655995Y-75997040D01*
X176575335Y-75745412D01*
X176307031Y-75617013D01*
X176018834Y-75543425D01*
X175721817Y-75527476D01*
X175427397Y-75569779D01*
X175146886Y-75668708D01*
X175003385Y-75745412D01*
X174922725Y-75997040D01*
X171871240Y-75997040D01*
X171871240Y-73741280D01*
X173038295Y-73741280D01*
X173069682Y-74059953D01*
X173162635Y-74366380D01*
X173313583Y-74648785D01*
X173516726Y-74896314D01*
X173764255Y-75099457D01*
X174046660Y-75250405D01*
X174353087Y-75343358D01*
X174591906Y-75366880D01*
X176732814Y-75366880D01*
X176971633Y-75343358D01*
X177278060Y-75250405D01*
X177560465Y-75099457D01*
X177807994Y-74896314D01*
X178011137Y-74648785D01*
X178162085Y-74366380D01*
X178255038Y-74059953D01*
X178286425Y-73741280D01*
X178255038Y-73422607D01*
X178162085Y-73116180D01*
X178011137Y-72833775D01*
X177807994Y-72586246D01*
X177560465Y-72383103D01*
X177278060Y-72232155D01*
X176971633Y-72139202D01*
X176732814Y-72115680D01*
X174591906Y-72115680D01*
X174353087Y-72139202D01*
X174046660Y-72232155D01*
X173764255Y-72383103D01*
X173516726Y-72586246D01*
X173313583Y-72833775D01*
X173162635Y-73116180D01*
X173069682Y-73422607D01*
X173038295Y-73741280D01*
X171871240Y-73741280D01*
X171871240Y-68741280D01*
X173038295Y-68741280D01*
X173069682Y-69059953D01*
X173162635Y-69366380D01*
X173313583Y-69648785D01*
X173516726Y-69896314D01*
X173764255Y-70099457D01*
X174046660Y-70250405D01*
X174353087Y-70343358D01*
X174591906Y-70366880D01*
X176732814Y-70366880D01*
X176971633Y-70343358D01*
X177278060Y-70250405D01*
X177560465Y-70099457D01*
X177807994Y-69896314D01*
X178011137Y-69648785D01*
X178162085Y-69366380D01*
X178255038Y-69059953D01*
X178286425Y-68741280D01*
X178255038Y-68422607D01*
X178162085Y-68116180D01*
X178011137Y-67833775D01*
X177807994Y-67586246D01*
X177560465Y-67383103D01*
X177278060Y-67232155D01*
X176971633Y-67139202D01*
X176732814Y-67115680D01*
X174591906Y-67115680D01*
X174353087Y-67139202D01*
X174046660Y-67232155D01*
X173764255Y-67383103D01*
X173516726Y-67586246D01*
X173313583Y-67833775D01*
X173162635Y-68116180D01*
X173069682Y-68422607D01*
X173038295Y-68741280D01*
X171871240Y-68741280D01*
X171871240Y-66153954D01*
X171908506Y-66184537D01*
X172018820Y-66243502D01*
X172138518Y-66279812D01*
X172263000Y-66292072D01*
X172877250Y-66289000D01*
X173036000Y-66130250D01*
X173036000Y-65181000D01*
X173290000Y-65181000D01*
X173290000Y-66130250D01*
X173448750Y-66289000D01*
X174063000Y-66292072D01*
X174187482Y-66279812D01*
X174307180Y-66243502D01*
X174417494Y-66184537D01*
X174514185Y-66105185D01*
X174593537Y-66008494D01*
X174652502Y-65898180D01*
X174688812Y-65778482D01*
X174701072Y-65654000D01*
X174698000Y-65339750D01*
X174539250Y-65181000D01*
X173290000Y-65181000D01*
X173036000Y-65181000D01*
X173016000Y-65181000D01*
X173016000Y-65105280D01*
X179744575Y-65105280D01*
X179773247Y-65396391D01*
X179858161Y-65676314D01*
X179996054Y-65934294D01*
X180181626Y-66160414D01*
X180407746Y-66345986D01*
X180665726Y-66483879D01*
X180945649Y-66568793D01*
X181163810Y-66590280D01*
X181336910Y-66590280D01*
X181555071Y-66568793D01*
X181834994Y-66483879D01*
X182092974Y-66345986D01*
X182319094Y-66160414D01*
X182504666Y-65934294D01*
X182520360Y-65904933D01*
X182536054Y-65934294D01*
X182721626Y-66160414D01*
X182947746Y-66345986D01*
X183205726Y-66483879D01*
X183485649Y-66568793D01*
X183703810Y-66590280D01*
X183876910Y-66590280D01*
X184095071Y-66568793D01*
X184374994Y-66483879D01*
X184632974Y-66345986D01*
X184859094Y-66160414D01*
X185044666Y-65934294D01*
X185063886Y-65898337D01*
X185228763Y-66115209D01*
X185446696Y-66308061D01*
X185698065Y-66454691D01*
X185973210Y-66549464D01*
X186203360Y-66426677D01*
X186203360Y-65232280D01*
X186183360Y-65232280D01*
X186183360Y-64978280D01*
X186203360Y-64978280D01*
X186203360Y-63783883D01*
X186457360Y-63783883D01*
X186457360Y-64978280D01*
X186477360Y-64978280D01*
X186477360Y-65232280D01*
X186457360Y-65232280D01*
X186457360Y-66426677D01*
X186687510Y-66549464D01*
X186962655Y-66454691D01*
X187214024Y-66308061D01*
X187400220Y-66143293D01*
X187417258Y-66199460D01*
X187476223Y-66309774D01*
X187555575Y-66406465D01*
X187652266Y-66485817D01*
X187762580Y-66544782D01*
X187882278Y-66581092D01*
X188006760Y-66593352D01*
X189733960Y-66593352D01*
X189858442Y-66581092D01*
X189978140Y-66544782D01*
X190088454Y-66485817D01*
X190185145Y-66406465D01*
X190264497Y-66309774D01*
X190323462Y-66199460D01*
X190359772Y-66079762D01*
X190372032Y-65955280D01*
X190372032Y-64255280D01*
X190359772Y-64130798D01*
X190323462Y-64011100D01*
X190264497Y-63900786D01*
X190185145Y-63804095D01*
X190088454Y-63724743D01*
X189978140Y-63665778D01*
X189858442Y-63629468D01*
X189733960Y-63617208D01*
X188006760Y-63617208D01*
X187882278Y-63629468D01*
X187762580Y-63665778D01*
X187652266Y-63724743D01*
X187555575Y-63804095D01*
X187476223Y-63900786D01*
X187417258Y-64011100D01*
X187400220Y-64067267D01*
X187214024Y-63902499D01*
X186962655Y-63755869D01*
X186687510Y-63661096D01*
X186457360Y-63783883D01*
X186203360Y-63783883D01*
X185973210Y-63661096D01*
X185698065Y-63755869D01*
X185446696Y-63902499D01*
X185228763Y-64095351D01*
X185063886Y-64312223D01*
X185044666Y-64276266D01*
X184859094Y-64050146D01*
X184632974Y-63864574D01*
X184374994Y-63726681D01*
X184095071Y-63641767D01*
X183876910Y-63620280D01*
X183703810Y-63620280D01*
X183485649Y-63641767D01*
X183205726Y-63726681D01*
X182947746Y-63864574D01*
X182721626Y-64050146D01*
X182536054Y-64276266D01*
X182520360Y-64305627D01*
X182504666Y-64276266D01*
X182319094Y-64050146D01*
X182092974Y-63864574D01*
X181834994Y-63726681D01*
X181555071Y-63641767D01*
X181336910Y-63620280D01*
X181163810Y-63620280D01*
X180945649Y-63641767D01*
X180665726Y-63726681D01*
X180407746Y-63864574D01*
X180181626Y-64050146D01*
X179996054Y-64276266D01*
X179858161Y-64534246D01*
X179773247Y-64814169D01*
X179744575Y-65105280D01*
X173016000Y-65105280D01*
X173016000Y-64927000D01*
X173036000Y-64927000D01*
X173036000Y-63977750D01*
X173290000Y-63977750D01*
X173290000Y-64927000D01*
X174539250Y-64927000D01*
X174698000Y-64768250D01*
X174701072Y-64454000D01*
X174688812Y-64329518D01*
X174652502Y-64209820D01*
X174593537Y-64099506D01*
X174556192Y-64054000D01*
X175624928Y-64054000D01*
X175637188Y-64178482D01*
X175673498Y-64298180D01*
X175732463Y-64408494D01*
X175811815Y-64505185D01*
X175908506Y-64584537D01*
X176018820Y-64643502D01*
X176138518Y-64679812D01*
X176263000Y-64692072D01*
X176752250Y-64689000D01*
X176911000Y-64530250D01*
X176911000Y-63881000D01*
X177165000Y-63881000D01*
X177165000Y-64530250D01*
X177323750Y-64689000D01*
X177813000Y-64692072D01*
X177937482Y-64679812D01*
X178057180Y-64643502D01*
X178167494Y-64584537D01*
X178264185Y-64505185D01*
X178343537Y-64408494D01*
X178402502Y-64298180D01*
X178438812Y-64178482D01*
X178451072Y-64054000D01*
X178448000Y-64039750D01*
X178289250Y-63881000D01*
X177165000Y-63881000D01*
X176911000Y-63881000D01*
X175786750Y-63881000D01*
X175628000Y-64039750D01*
X175624928Y-64054000D01*
X174556192Y-64054000D01*
X174514185Y-64002815D01*
X174417494Y-63923463D01*
X174307180Y-63864498D01*
X174187482Y-63828188D01*
X174063000Y-63815928D01*
X173448750Y-63819000D01*
X173290000Y-63977750D01*
X173036000Y-63977750D01*
X172877250Y-63819000D01*
X172263000Y-63815928D01*
X172138518Y-63828188D01*
X172018820Y-63864498D01*
X171908506Y-63923463D01*
X171871240Y-63954046D01*
X171871240Y-62553954D01*
X171908506Y-62584537D01*
X172018820Y-62643502D01*
X172138518Y-62679812D01*
X172263000Y-62692072D01*
X172877250Y-62689000D01*
X173036000Y-62530250D01*
X173036000Y-61581000D01*
X173290000Y-61581000D01*
X173290000Y-62530250D01*
X173448750Y-62689000D01*
X174063000Y-62692072D01*
X174187482Y-62679812D01*
X174307180Y-62643502D01*
X174417494Y-62584537D01*
X174514185Y-62505185D01*
X174593537Y-62408494D01*
X174652502Y-62298180D01*
X174688812Y-62178482D01*
X174701072Y-62054000D01*
X174698000Y-61739750D01*
X174539250Y-61581000D01*
X173290000Y-61581000D01*
X173036000Y-61581000D01*
X173016000Y-61581000D01*
X173016000Y-61327000D01*
X173036000Y-61327000D01*
X173036000Y-60377750D01*
X173290000Y-60377750D01*
X173290000Y-61327000D01*
X174539250Y-61327000D01*
X174698000Y-61168250D01*
X174701072Y-60854000D01*
X174688812Y-60729518D01*
X174652502Y-60609820D01*
X174593537Y-60499506D01*
X174514185Y-60402815D01*
X174417494Y-60323463D01*
X174307180Y-60264498D01*
X174187482Y-60228188D01*
X174063000Y-60215928D01*
X173448750Y-60219000D01*
X173290000Y-60377750D01*
X173036000Y-60377750D01*
X172877250Y-60219000D01*
X172263000Y-60215928D01*
X172138518Y-60228188D01*
X172018820Y-60264498D01*
X171908506Y-60323463D01*
X171871240Y-60354046D01*
X171871240Y-56800540D01*
X178042200Y-56800540D01*
X178042200Y-57093060D01*
X178099268Y-57379958D01*
X178211210Y-57650211D01*
X178373725Y-57893432D01*
X178580568Y-58100275D01*
X178754960Y-58216800D01*
X178580568Y-58333325D01*
X178373725Y-58540168D01*
X178211210Y-58783389D01*
X178099268Y-59053642D01*
X178042200Y-59340540D01*
X178042200Y-59633060D01*
X178099268Y-59919958D01*
X178211210Y-60190211D01*
X178373725Y-60433432D01*
X178580568Y-60640275D01*
X178823789Y-60802790D01*
X179094042Y-60914732D01*
X179380940Y-60971800D01*
X179673460Y-60971800D01*
X179960358Y-60914732D01*
X180230611Y-60802790D01*
X180473832Y-60640275D01*
X180680675Y-60433432D01*
X180797200Y-60259040D01*
X180913725Y-60433432D01*
X181120568Y-60640275D01*
X181363789Y-60802790D01*
X181634042Y-60914732D01*
X181920940Y-60971800D01*
X182213460Y-60971800D01*
X182500358Y-60914732D01*
X182770611Y-60802790D01*
X183013832Y-60640275D01*
X183138910Y-60515197D01*
X183758408Y-60515197D01*
X183836043Y-60764272D01*
X184100083Y-60890171D01*
X184383611Y-60962139D01*
X184675731Y-60977411D01*
X184965219Y-60935399D01*
X185240947Y-60837719D01*
X185378357Y-60764272D01*
X185455992Y-60515197D01*
X184607200Y-59666405D01*
X183758408Y-60515197D01*
X183138910Y-60515197D01*
X183220675Y-60433432D01*
X183336511Y-60260071D01*
X183578803Y-60335592D01*
X184427595Y-59486800D01*
X183578803Y-58638008D01*
X183336511Y-58713529D01*
X183220675Y-58540168D01*
X183013832Y-58333325D01*
X182839440Y-58216800D01*
X183013832Y-58100275D01*
X183220675Y-57893432D01*
X183337200Y-57719040D01*
X183453725Y-57893432D01*
X183660568Y-58100275D01*
X183833929Y-58216111D01*
X183758408Y-58458403D01*
X184607200Y-59307195D01*
X185455992Y-58458403D01*
X185380471Y-58216111D01*
X185553832Y-58100275D01*
X185760675Y-57893432D01*
X185877200Y-57719040D01*
X185993725Y-57893432D01*
X186200568Y-58100275D01*
X186374960Y-58216800D01*
X186200568Y-58333325D01*
X185993725Y-58540168D01*
X185877889Y-58713529D01*
X185635597Y-58638008D01*
X184786805Y-59486800D01*
X185635597Y-60335592D01*
X185877889Y-60260071D01*
X185993725Y-60433432D01*
X186200568Y-60640275D01*
X186443789Y-60802790D01*
X186714042Y-60914732D01*
X187000940Y-60971800D01*
X187293460Y-60971800D01*
X187580358Y-60914732D01*
X187850611Y-60802790D01*
X188093832Y-60640275D01*
X188300675Y-60433432D01*
X188417200Y-60259040D01*
X188533725Y-60433432D01*
X188740568Y-60640275D01*
X188983789Y-60802790D01*
X189254042Y-60914732D01*
X189540940Y-60971800D01*
X189833460Y-60971800D01*
X190120358Y-60914732D01*
X190390611Y-60802790D01*
X190633832Y-60640275D01*
X190840675Y-60433432D01*
X191003190Y-60190211D01*
X191115132Y-59919958D01*
X191172200Y-59633060D01*
X191172200Y-59340540D01*
X191115132Y-59053642D01*
X191003190Y-58783389D01*
X190840675Y-58540168D01*
X190633832Y-58333325D01*
X190459440Y-58216800D01*
X190633832Y-58100275D01*
X190840675Y-57893432D01*
X191003190Y-57650211D01*
X191115132Y-57379958D01*
X191161749Y-57145600D01*
X194734328Y-57145600D01*
X194737400Y-59759850D01*
X194896150Y-59918600D01*
X198145400Y-59918600D01*
X198145400Y-56669350D01*
X197986650Y-56510600D01*
X195372400Y-56507528D01*
X195247918Y-56519788D01*
X195128220Y-56556098D01*
X195017906Y-56615063D01*
X194921215Y-56694415D01*
X194841863Y-56791106D01*
X194782898Y-56901420D01*
X194746588Y-57021118D01*
X194734328Y-57145600D01*
X191161749Y-57145600D01*
X191172200Y-57093060D01*
X191172200Y-56800540D01*
X191115132Y-56513642D01*
X191003190Y-56243389D01*
X190840675Y-56000168D01*
X190633832Y-55793325D01*
X190390611Y-55630810D01*
X190120358Y-55518868D01*
X189833460Y-55461800D01*
X189540940Y-55461800D01*
X189254042Y-55518868D01*
X188983789Y-55630810D01*
X188740568Y-55793325D01*
X188533725Y-56000168D01*
X188417200Y-56174560D01*
X188300675Y-56000168D01*
X188093832Y-55793325D01*
X187850611Y-55630810D01*
X187580358Y-55518868D01*
X187293460Y-55461800D01*
X187000940Y-55461800D01*
X186714042Y-55518868D01*
X186443789Y-55630810D01*
X186200568Y-55793325D01*
X185993725Y-56000168D01*
X185877200Y-56174560D01*
X185760675Y-56000168D01*
X185553832Y-55793325D01*
X185310611Y-55630810D01*
X185040358Y-55518868D01*
X184753460Y-55461800D01*
X184460940Y-55461800D01*
X184174042Y-55518868D01*
X183903789Y-55630810D01*
X183660568Y-55793325D01*
X183453725Y-56000168D01*
X183337200Y-56174560D01*
X183220675Y-56000168D01*
X183013832Y-55793325D01*
X182770611Y-55630810D01*
X182500358Y-55518868D01*
X182213460Y-55461800D01*
X181920940Y-55461800D01*
X181634042Y-55518868D01*
X181363789Y-55630810D01*
X181120568Y-55793325D01*
X180913725Y-56000168D01*
X180797200Y-56174560D01*
X180680675Y-56000168D01*
X180473832Y-55793325D01*
X180230611Y-55630810D01*
X179960358Y-55518868D01*
X179673460Y-55461800D01*
X179380940Y-55461800D01*
X179094042Y-55518868D01*
X178823789Y-55630810D01*
X178580568Y-55793325D01*
X178373725Y-56000168D01*
X178211210Y-56243389D01*
X178099268Y-56513642D01*
X178042200Y-56800540D01*
X171871240Y-56800540D01*
X171871240Y-53756660D01*
X174516381Y-53756660D01*
X174548800Y-53759853D01*
X174581219Y-53756660D01*
X174678183Y-53747110D01*
X174802593Y-53709370D01*
X174917250Y-53648085D01*
X175017748Y-53565608D01*
X175100225Y-53465110D01*
X175161510Y-53350453D01*
X175199250Y-53226043D01*
X175211014Y-53106600D01*
X175377489Y-53106600D01*
X175558129Y-53070668D01*
X175728289Y-53000186D01*
X175881428Y-52897862D01*
X175920400Y-52858890D01*
X175959372Y-52897862D01*
X176112511Y-53000186D01*
X176282671Y-53070668D01*
X176463311Y-53106600D01*
X176647489Y-53106600D01*
X176828129Y-53070668D01*
X176998289Y-53000186D01*
X177151428Y-52897862D01*
X177190400Y-52858890D01*
X177229372Y-52897862D01*
X177382511Y-53000186D01*
X177552671Y-53070668D01*
X177733311Y-53106600D01*
X177917489Y-53106600D01*
X178098129Y-53070668D01*
X178268289Y-53000186D01*
X178421428Y-52897862D01*
X178460400Y-52858890D01*
X178499372Y-52897862D01*
X178652511Y-53000186D01*
X178822671Y-53070668D01*
X179003311Y-53106600D01*
X179187489Y-53106600D01*
X179368129Y-53070668D01*
X179538289Y-53000186D01*
X179691428Y-52897862D01*
X179730400Y-52858890D01*
X179769372Y-52897862D01*
X179922511Y-53000186D01*
X180092671Y-53070668D01*
X180273311Y-53106600D01*
X180415436Y-53106600D01*
X180426150Y-53215383D01*
X180463890Y-53339793D01*
X180525175Y-53454450D01*
X180607652Y-53554948D01*
X180708150Y-53637425D01*
X180822807Y-53698710D01*
X180947217Y-53736450D01*
X181044181Y-53746000D01*
X181076600Y-53749193D01*
X181109019Y-53746000D01*
X191305781Y-53746000D01*
X191338200Y-53749193D01*
X191370619Y-53746000D01*
X191467583Y-53736450D01*
X191591993Y-53698710D01*
X191706650Y-53637425D01*
X191807148Y-53554948D01*
X191889625Y-53454450D01*
X191950910Y-53339793D01*
X191988650Y-53215383D01*
X191999364Y-53106600D01*
X192166889Y-53106600D01*
X192347529Y-53070668D01*
X192517689Y-53000186D01*
X192670828Y-52897862D01*
X192709800Y-52858890D01*
X192748772Y-52897862D01*
X192901911Y-53000186D01*
X193072071Y-53070668D01*
X193252711Y-53106600D01*
X193436889Y-53106600D01*
X193617529Y-53070668D01*
X193787689Y-53000186D01*
X193940828Y-52897862D01*
X193979800Y-52858890D01*
X194018772Y-52897862D01*
X194171911Y-53000186D01*
X194342071Y-53070668D01*
X194522711Y-53106600D01*
X194706889Y-53106600D01*
X194887529Y-53070668D01*
X195057689Y-53000186D01*
X195210828Y-52897862D01*
X195249800Y-52858890D01*
X195288772Y-52897862D01*
X195441911Y-53000186D01*
X195612071Y-53070668D01*
X195792711Y-53106600D01*
X195976889Y-53106600D01*
X196157529Y-53070668D01*
X196327689Y-53000186D01*
X196480828Y-52897862D01*
X196519800Y-52858890D01*
X196558772Y-52897862D01*
%TA.AperFunction,Conductor*%
D25*
G36*
X196558772Y-52897862D02*
G01*
X196711911Y-53000186D01*
X196882071Y-53070668D01*
X197062711Y-53106600D01*
X197204836Y-53106600D01*
X197215550Y-53215383D01*
X197253290Y-53339793D01*
X197314575Y-53454450D01*
X197397052Y-53554948D01*
X197497550Y-53637425D01*
X197612207Y-53698710D01*
X197736617Y-53736450D01*
X197833581Y-53746000D01*
X197866000Y-53749193D01*
X197898419Y-53746000D01*
X200551514Y-53746000D01*
X200552909Y-56508256D01*
X198558150Y-56510600D01*
X198399400Y-56669350D01*
X198399400Y-59918600D01*
X198419400Y-59918600D01*
X198419400Y-60172600D01*
X198399400Y-60172600D01*
X198399400Y-63421850D01*
X198558150Y-63580600D01*
X200552288Y-63582943D01*
X200539454Y-79209625D01*
X198057845Y-79204266D01*
X196490400Y-77636822D01*
X196490400Y-77170254D01*
X196522605Y-77122056D01*
X196600626Y-76933698D01*
X196640400Y-76733739D01*
X196640400Y-76529861D01*
X196600626Y-76329902D01*
X196522605Y-76141544D01*
X196409337Y-75972026D01*
X196265174Y-75827863D01*
X196095656Y-75714595D01*
X195907298Y-75636574D01*
X195737642Y-75602828D01*
X195742036Y-75586821D01*
X194964240Y-74809025D01*
X194186444Y-75586821D01*
X194252039Y-75825746D01*
X194499115Y-75941703D01*
X194764067Y-76007229D01*
X194777526Y-76007850D01*
X194688195Y-76141544D01*
X194610174Y-76329902D01*
X194570400Y-76529861D01*
X194570400Y-76733739D01*
X194610174Y-76933698D01*
X194688195Y-77122056D01*
X194720400Y-77170255D01*
X194720401Y-77959921D01*
X194716119Y-78003400D01*
X194733205Y-78176890D01*
X194783812Y-78343713D01*
X194865990Y-78497459D01*
X194948868Y-78598446D01*
X194948871Y-78598449D01*
X194976584Y-78632217D01*
X195010351Y-78659929D01*
X195549271Y-79198849D01*
X193245000Y-79193874D01*
X193245000Y-77922418D01*
X193249040Y-77881399D01*
X193232918Y-77717711D01*
X193185172Y-77560313D01*
X193107636Y-77415254D01*
X193043128Y-77336651D01*
X193003291Y-77288109D01*
X192971428Y-77261960D01*
X190411358Y-74701890D01*
X193573853Y-74701890D01*
X193614707Y-74971749D01*
X193707423Y-75228452D01*
X193767914Y-75341621D01*
X194006839Y-75407216D01*
X194784635Y-74629420D01*
X195143845Y-74629420D01*
X195921641Y-75407216D01*
X196160566Y-75341621D01*
X196276523Y-75094545D01*
X196342049Y-74829593D01*
X196354627Y-74556950D01*
X196313773Y-74287091D01*
X196221057Y-74030388D01*
X196160566Y-73917219D01*
X195921641Y-73851624D01*
X195143845Y-74629420D01*
X194784635Y-74629420D01*
X194006839Y-73851624D01*
X193767914Y-73917219D01*
X193651957Y-74164295D01*
X193586431Y-74429247D01*
X193573853Y-74701890D01*
X190411358Y-74701890D01*
X189152500Y-73443033D01*
X189152500Y-73020627D01*
X189186623Y-72992623D01*
X189230000Y-72939768D01*
X189273377Y-72992623D01*
X189406058Y-73101512D01*
X189557433Y-73182423D01*
X189721684Y-73232248D01*
X189892500Y-73249072D01*
X190392500Y-73249072D01*
X190563316Y-73232248D01*
X190727567Y-73182423D01*
X190878942Y-73101512D01*
X191011623Y-72992623D01*
X191029369Y-72971000D01*
X193886883Y-72971000D01*
X193887998Y-72972669D01*
X194080991Y-73165662D01*
X194307927Y-73317296D01*
X194405936Y-73357893D01*
X194365208Y-73372603D01*
X194252039Y-73433094D01*
X194186444Y-73672019D01*
X194964240Y-74449815D01*
X195742036Y-73672019D01*
X195676441Y-73433094D01*
X195519177Y-73359287D01*
X195620553Y-73317296D01*
X195847489Y-73165662D01*
X196040482Y-72972669D01*
X196192116Y-72745733D01*
X196296563Y-72493576D01*
X196349810Y-72225887D01*
X196349810Y-71952953D01*
X196296563Y-71685264D01*
X196192116Y-71433107D01*
X196040482Y-71206171D01*
X195907731Y-71073420D01*
X196040482Y-70940669D01*
X196192116Y-70713733D01*
X196296563Y-70461576D01*
X196349810Y-70193887D01*
X196349810Y-69920953D01*
X196296563Y-69653264D01*
X196192116Y-69401107D01*
X196040482Y-69174171D01*
X195847489Y-68981178D01*
X195620553Y-68829544D01*
X195518857Y-68787420D01*
X195620553Y-68745296D01*
X195847489Y-68593662D01*
X196040482Y-68400669D01*
X196192116Y-68173733D01*
X196296563Y-67921576D01*
X196349810Y-67653887D01*
X196349810Y-67380953D01*
X196296563Y-67113264D01*
X196192116Y-66861107D01*
X196040482Y-66634171D01*
X195847489Y-66441178D01*
X195620553Y-66289544D01*
X195368396Y-66185097D01*
X195100707Y-66131850D01*
X194830248Y-66131850D01*
X194351746Y-65653348D01*
X194351742Y-65653343D01*
X194351740Y-65653341D01*
X194324027Y-65619573D01*
X194290259Y-65591860D01*
X193437100Y-64738702D01*
X193437100Y-63792169D01*
X193441381Y-63748700D01*
X193437100Y-63705231D01*
X193437100Y-63705223D01*
X193424295Y-63575210D01*
X193373689Y-63408387D01*
X193291511Y-63254641D01*
X193245036Y-63198011D01*
X193208632Y-63153653D01*
X193208630Y-63153651D01*
X193180917Y-63119883D01*
X193147150Y-63092171D01*
X193000579Y-62945600D01*
X194734328Y-62945600D01*
X194746588Y-63070082D01*
X194782898Y-63189780D01*
X194841863Y-63300094D01*
X194921215Y-63396785D01*
X195017906Y-63476137D01*
X195128220Y-63535102D01*
X195247918Y-63571412D01*
X195372400Y-63583672D01*
X197986650Y-63580600D01*
X198145400Y-63421850D01*
X198145400Y-60172600D01*
X194896150Y-60172600D01*
X194737400Y-60331350D01*
X194734328Y-62945600D01*
X193000579Y-62945600D01*
X191918534Y-61863556D01*
X191890817Y-61829783D01*
X191756059Y-61719189D01*
X191602313Y-61637011D01*
X191435490Y-61586405D01*
X191305477Y-61573600D01*
X191305469Y-61573600D01*
X191262000Y-61569319D01*
X191218531Y-61573600D01*
X184931846Y-61573600D01*
X184833742Y-61493088D01*
X184682367Y-61412177D01*
X184518116Y-61362352D01*
X184347300Y-61345528D01*
X183847300Y-61345528D01*
X183676484Y-61362352D01*
X183512233Y-61412177D01*
X183360858Y-61493088D01*
X183228177Y-61601977D01*
X183184800Y-61654832D01*
X183141423Y-61601977D01*
X183008742Y-61493088D01*
X182857367Y-61412177D01*
X182693116Y-61362352D01*
X182522300Y-61345528D01*
X182022300Y-61345528D01*
X181851484Y-61362352D01*
X181687233Y-61412177D01*
X181535858Y-61493088D01*
X181437754Y-61573600D01*
X179824669Y-61573600D01*
X179781200Y-61569319D01*
X179737731Y-61573600D01*
X179737723Y-61573600D01*
X179607710Y-61586405D01*
X179440887Y-61637011D01*
X179287141Y-61719189D01*
X179152383Y-61829783D01*
X179124666Y-61863556D01*
X179119222Y-61869000D01*
X178065603Y-61869000D01*
X178057180Y-61864498D01*
X177937482Y-61828188D01*
X177813000Y-61815928D01*
X176263000Y-61815928D01*
X176138518Y-61828188D01*
X176018820Y-61864498D01*
X175908506Y-61923463D01*
X175811815Y-62002815D01*
X175732463Y-62099506D01*
X175673498Y-62209820D01*
X175637188Y-62329518D01*
X175624928Y-62454000D01*
X175624928Y-63054000D01*
X175637188Y-63178482D01*
X175660096Y-63254000D01*
X175637188Y-63329518D01*
X175624928Y-63454000D01*
X175628000Y-63468250D01*
X175786750Y-63627000D01*
X175987947Y-63627000D01*
X176018820Y-63643502D01*
X176138518Y-63679812D01*
X176263000Y-63692072D01*
X177813000Y-63692072D01*
X177937482Y-63679812D01*
X178057180Y-63643502D01*
X178065603Y-63639000D01*
X179442331Y-63639000D01*
X179485800Y-63643281D01*
X179529269Y-63639000D01*
X179529277Y-63639000D01*
X179659290Y-63626195D01*
X179826113Y-63575589D01*
X179979859Y-63493411D01*
X180114617Y-63382817D01*
X180142334Y-63349044D01*
X180147778Y-63343600D01*
X181437754Y-63343600D01*
X181535858Y-63424112D01*
X181687233Y-63505023D01*
X181851484Y-63554848D01*
X182022300Y-63571672D01*
X182522300Y-63571672D01*
X182693116Y-63554848D01*
X182857367Y-63505023D01*
X183008742Y-63424112D01*
X183141423Y-63315223D01*
X183184800Y-63262368D01*
X183228177Y-63315223D01*
X183360858Y-63424112D01*
X183512233Y-63505023D01*
X183676484Y-63554848D01*
X183847300Y-63571672D01*
X184347300Y-63571672D01*
X184518116Y-63554848D01*
X184682367Y-63505023D01*
X184833742Y-63424112D01*
X184931846Y-63343600D01*
X190895422Y-63343600D01*
X191667100Y-64115279D01*
X191667101Y-65061801D01*
X191662819Y-65105280D01*
X191679905Y-65278770D01*
X191730512Y-65445593D01*
X191812690Y-65599339D01*
X191895568Y-65700326D01*
X191895571Y-65700329D01*
X191923284Y-65734097D01*
X191957051Y-65761809D01*
X192443631Y-66248390D01*
X191352758Y-67339264D01*
X191352753Y-67339268D01*
X190539822Y-68152200D01*
X187012869Y-68152200D01*
X186969400Y-68147919D01*
X186925931Y-68152200D01*
X186925923Y-68152200D01*
X186810706Y-68163548D01*
X186795909Y-68165005D01*
X186767138Y-68173733D01*
X186629087Y-68215611D01*
X186475341Y-68297789D01*
X186475339Y-68297790D01*
X186475340Y-68297790D01*
X186374353Y-68380668D01*
X186374351Y-68380670D01*
X186340583Y-68408383D01*
X186312870Y-68442151D01*
X185610322Y-69144700D01*
X184098277Y-69144700D01*
X183984942Y-69051688D01*
X183833567Y-68970777D01*
X183669316Y-68920952D01*
X183498500Y-68904128D01*
X183023500Y-68904128D01*
X182852684Y-68920952D01*
X182688433Y-68970777D01*
X182537058Y-69051688D01*
X182404377Y-69160577D01*
X182295488Y-69293258D01*
X182214577Y-69444633D01*
X182164752Y-69608884D01*
X182147928Y-69779700D01*
X182147928Y-70279700D01*
X182164752Y-70450516D01*
X182214577Y-70614767D01*
X182295488Y-70766142D01*
X182404377Y-70898823D01*
X182457232Y-70942200D01*
X182404377Y-70985577D01*
X182295488Y-71118258D01*
X182214577Y-71269633D01*
X182164752Y-71433884D01*
X182147928Y-71604700D01*
X182147928Y-72104700D01*
X182164752Y-72275516D01*
X182214577Y-72439767D01*
X182295488Y-72591142D01*
X182376001Y-72689246D01*
X182376001Y-72912420D01*
X180989422Y-74299000D01*
X180129469Y-74299000D01*
X180086000Y-74294719D01*
X180042531Y-74299000D01*
X180042523Y-74299000D01*
X179912510Y-74311805D01*
X179745687Y-74362411D01*
X179708681Y-74382191D01*
X179591941Y-74444589D01*
X179490953Y-74527468D01*
X179490951Y-74527470D01*
X179457183Y-74555183D01*
X179429470Y-74588951D01*
X177272188Y-76746233D01*
X177262861Y-76681317D01*
X177163932Y-76400806D01*
X177087228Y-76257305D01*
X176835600Y-76176645D01*
X175968965Y-77043280D01*
X175983108Y-77057423D01*
X175803503Y-77237028D01*
X175789360Y-77222885D01*
X174922725Y-78089520D01*
X175003385Y-78341148D01*
X175271689Y-78469547D01*
X175492494Y-78525927D01*
X174864239Y-79154183D01*
X171871240Y-79147720D01*
X171871240Y-77110823D01*
X174273556Y-77110823D01*
X174315859Y-77405243D01*
X174414788Y-77685754D01*
X174491492Y-77829255D01*
X174743120Y-77909915D01*
X175609755Y-77043280D01*
X174743120Y-76176645D01*
X174491492Y-76257305D01*
X174363093Y-76525609D01*
X174289505Y-76813806D01*
X174273556Y-77110823D01*
X171871240Y-77110823D01*
X171871240Y-75997040D01*
X174922725Y-75997040D01*
X175789360Y-76863675D01*
X176655995Y-75997040D01*
X176575335Y-75745412D01*
X176307031Y-75617013D01*
X176018834Y-75543425D01*
X175721817Y-75527476D01*
X175427397Y-75569779D01*
X175146886Y-75668708D01*
X175003385Y-75745412D01*
X174922725Y-75997040D01*
X171871240Y-75997040D01*
X171871240Y-73741280D01*
X173038295Y-73741280D01*
X173069682Y-74059953D01*
X173162635Y-74366380D01*
X173313583Y-74648785D01*
X173516726Y-74896314D01*
X173764255Y-75099457D01*
X174046660Y-75250405D01*
X174353087Y-75343358D01*
X174591906Y-75366880D01*
X176732814Y-75366880D01*
X176971633Y-75343358D01*
X177278060Y-75250405D01*
X177560465Y-75099457D01*
X177807994Y-74896314D01*
X178011137Y-74648785D01*
X178162085Y-74366380D01*
X178255038Y-74059953D01*
X178286425Y-73741280D01*
X178255038Y-73422607D01*
X178162085Y-73116180D01*
X178011137Y-72833775D01*
X177807994Y-72586246D01*
X177560465Y-72383103D01*
X177278060Y-72232155D01*
X176971633Y-72139202D01*
X176732814Y-72115680D01*
X174591906Y-72115680D01*
X174353087Y-72139202D01*
X174046660Y-72232155D01*
X173764255Y-72383103D01*
X173516726Y-72586246D01*
X173313583Y-72833775D01*
X173162635Y-73116180D01*
X173069682Y-73422607D01*
X173038295Y-73741280D01*
X171871240Y-73741280D01*
X171871240Y-68741280D01*
X173038295Y-68741280D01*
X173069682Y-69059953D01*
X173162635Y-69366380D01*
X173313583Y-69648785D01*
X173516726Y-69896314D01*
X173764255Y-70099457D01*
X174046660Y-70250405D01*
X174353087Y-70343358D01*
X174591906Y-70366880D01*
X176732814Y-70366880D01*
X176971633Y-70343358D01*
X177278060Y-70250405D01*
X177560465Y-70099457D01*
X177807994Y-69896314D01*
X178011137Y-69648785D01*
X178162085Y-69366380D01*
X178255038Y-69059953D01*
X178286425Y-68741280D01*
X178255038Y-68422607D01*
X178162085Y-68116180D01*
X178011137Y-67833775D01*
X177807994Y-67586246D01*
X177560465Y-67383103D01*
X177278060Y-67232155D01*
X176971633Y-67139202D01*
X176732814Y-67115680D01*
X174591906Y-67115680D01*
X174353087Y-67139202D01*
X174046660Y-67232155D01*
X173764255Y-67383103D01*
X173516726Y-67586246D01*
X173313583Y-67833775D01*
X173162635Y-68116180D01*
X173069682Y-68422607D01*
X173038295Y-68741280D01*
X171871240Y-68741280D01*
X171871240Y-66153954D01*
X171908506Y-66184537D01*
X172018820Y-66243502D01*
X172138518Y-66279812D01*
X172263000Y-66292072D01*
X172877250Y-66289000D01*
X173036000Y-66130250D01*
X173036000Y-65181000D01*
X173290000Y-65181000D01*
X173290000Y-66130250D01*
X173448750Y-66289000D01*
X174063000Y-66292072D01*
X174187482Y-66279812D01*
X174307180Y-66243502D01*
X174417494Y-66184537D01*
X174514185Y-66105185D01*
X174593537Y-66008494D01*
X174652502Y-65898180D01*
X174688812Y-65778482D01*
X174701072Y-65654000D01*
X174698000Y-65339750D01*
X174539250Y-65181000D01*
X173290000Y-65181000D01*
X173036000Y-65181000D01*
X173016000Y-65181000D01*
X173016000Y-65105280D01*
X179744575Y-65105280D01*
X179773247Y-65396391D01*
X179858161Y-65676314D01*
X179996054Y-65934294D01*
X180181626Y-66160414D01*
X180407746Y-66345986D01*
X180665726Y-66483879D01*
X180945649Y-66568793D01*
X181163810Y-66590280D01*
X181336910Y-66590280D01*
X181555071Y-66568793D01*
X181834994Y-66483879D01*
X182092974Y-66345986D01*
X182319094Y-66160414D01*
X182504666Y-65934294D01*
X182520360Y-65904933D01*
X182536054Y-65934294D01*
X182721626Y-66160414D01*
X182947746Y-66345986D01*
X183205726Y-66483879D01*
X183485649Y-66568793D01*
X183703810Y-66590280D01*
X183876910Y-66590280D01*
X184095071Y-66568793D01*
X184374994Y-66483879D01*
X184632974Y-66345986D01*
X184859094Y-66160414D01*
X185044666Y-65934294D01*
X185063886Y-65898337D01*
X185228763Y-66115209D01*
X185446696Y-66308061D01*
X185698065Y-66454691D01*
X185973210Y-66549464D01*
X186203360Y-66426677D01*
X186203360Y-65232280D01*
X186183360Y-65232280D01*
X186183360Y-64978280D01*
X186203360Y-64978280D01*
X186203360Y-63783883D01*
X186457360Y-63783883D01*
X186457360Y-64978280D01*
X186477360Y-64978280D01*
X186477360Y-65232280D01*
X186457360Y-65232280D01*
X186457360Y-66426677D01*
X186687510Y-66549464D01*
X186962655Y-66454691D01*
X187214024Y-66308061D01*
X187400220Y-66143293D01*
X187417258Y-66199460D01*
X187476223Y-66309774D01*
X187555575Y-66406465D01*
X187652266Y-66485817D01*
X187762580Y-66544782D01*
X187882278Y-66581092D01*
X188006760Y-66593352D01*
X189733960Y-66593352D01*
X189858442Y-66581092D01*
X189978140Y-66544782D01*
X190088454Y-66485817D01*
X190185145Y-66406465D01*
X190264497Y-66309774D01*
X190323462Y-66199460D01*
X190359772Y-66079762D01*
X190372032Y-65955280D01*
X190372032Y-64255280D01*
X190359772Y-64130798D01*
X190323462Y-64011100D01*
X190264497Y-63900786D01*
X190185145Y-63804095D01*
X190088454Y-63724743D01*
X189978140Y-63665778D01*
X189858442Y-63629468D01*
X189733960Y-63617208D01*
X188006760Y-63617208D01*
X187882278Y-63629468D01*
X187762580Y-63665778D01*
X187652266Y-63724743D01*
X187555575Y-63804095D01*
X187476223Y-63900786D01*
X187417258Y-64011100D01*
X187400220Y-64067267D01*
X187214024Y-63902499D01*
X186962655Y-63755869D01*
X186687510Y-63661096D01*
X186457360Y-63783883D01*
X186203360Y-63783883D01*
X185973210Y-63661096D01*
X185698065Y-63755869D01*
X185446696Y-63902499D01*
X185228763Y-64095351D01*
X185063886Y-64312223D01*
X185044666Y-64276266D01*
X184859094Y-64050146D01*
X184632974Y-63864574D01*
X184374994Y-63726681D01*
X184095071Y-63641767D01*
X183876910Y-63620280D01*
X183703810Y-63620280D01*
X183485649Y-63641767D01*
X183205726Y-63726681D01*
X182947746Y-63864574D01*
X182721626Y-64050146D01*
X182536054Y-64276266D01*
X182520360Y-64305627D01*
X182504666Y-64276266D01*
X182319094Y-64050146D01*
X182092974Y-63864574D01*
X181834994Y-63726681D01*
X181555071Y-63641767D01*
X181336910Y-63620280D01*
X181163810Y-63620280D01*
X180945649Y-63641767D01*
X180665726Y-63726681D01*
X180407746Y-63864574D01*
X180181626Y-64050146D01*
X179996054Y-64276266D01*
X179858161Y-64534246D01*
X179773247Y-64814169D01*
X179744575Y-65105280D01*
X173016000Y-65105280D01*
X173016000Y-64927000D01*
X173036000Y-64927000D01*
X173036000Y-63977750D01*
X173290000Y-63977750D01*
X173290000Y-64927000D01*
X174539250Y-64927000D01*
X174698000Y-64768250D01*
X174701072Y-64454000D01*
X174688812Y-64329518D01*
X174652502Y-64209820D01*
X174593537Y-64099506D01*
X174556192Y-64054000D01*
X175624928Y-64054000D01*
X175637188Y-64178482D01*
X175673498Y-64298180D01*
X175732463Y-64408494D01*
X175811815Y-64505185D01*
X175908506Y-64584537D01*
X176018820Y-64643502D01*
X176138518Y-64679812D01*
X176263000Y-64692072D01*
X176752250Y-64689000D01*
X176911000Y-64530250D01*
X176911000Y-63881000D01*
X177165000Y-63881000D01*
X177165000Y-64530250D01*
X177323750Y-64689000D01*
X177813000Y-64692072D01*
X177937482Y-64679812D01*
X178057180Y-64643502D01*
X178167494Y-64584537D01*
X178264185Y-64505185D01*
X178343537Y-64408494D01*
X178402502Y-64298180D01*
X178438812Y-64178482D01*
X178451072Y-64054000D01*
X178448000Y-64039750D01*
X178289250Y-63881000D01*
X177165000Y-63881000D01*
X176911000Y-63881000D01*
X175786750Y-63881000D01*
X175628000Y-64039750D01*
X175624928Y-64054000D01*
X174556192Y-64054000D01*
X174514185Y-64002815D01*
X174417494Y-63923463D01*
X174307180Y-63864498D01*
X174187482Y-63828188D01*
X174063000Y-63815928D01*
X173448750Y-63819000D01*
X173290000Y-63977750D01*
X173036000Y-63977750D01*
X172877250Y-63819000D01*
X172263000Y-63815928D01*
X172138518Y-63828188D01*
X172018820Y-63864498D01*
X171908506Y-63923463D01*
X171871240Y-63954046D01*
X171871240Y-62553954D01*
X171908506Y-62584537D01*
X172018820Y-62643502D01*
X172138518Y-62679812D01*
X172263000Y-62692072D01*
X172877250Y-62689000D01*
X173036000Y-62530250D01*
X173036000Y-61581000D01*
X173290000Y-61581000D01*
X173290000Y-62530250D01*
X173448750Y-62689000D01*
X174063000Y-62692072D01*
X174187482Y-62679812D01*
X174307180Y-62643502D01*
X174417494Y-62584537D01*
X174514185Y-62505185D01*
X174593537Y-62408494D01*
X174652502Y-62298180D01*
X174688812Y-62178482D01*
X174701072Y-62054000D01*
X174698000Y-61739750D01*
X174539250Y-61581000D01*
X173290000Y-61581000D01*
X173036000Y-61581000D01*
X173016000Y-61581000D01*
X173016000Y-61327000D01*
X173036000Y-61327000D01*
X173036000Y-60377750D01*
X173290000Y-60377750D01*
X173290000Y-61327000D01*
X174539250Y-61327000D01*
X174698000Y-61168250D01*
X174701072Y-60854000D01*
X174688812Y-60729518D01*
X174652502Y-60609820D01*
X174593537Y-60499506D01*
X174514185Y-60402815D01*
X174417494Y-60323463D01*
X174307180Y-60264498D01*
X174187482Y-60228188D01*
X174063000Y-60215928D01*
X173448750Y-60219000D01*
X173290000Y-60377750D01*
X173036000Y-60377750D01*
X172877250Y-60219000D01*
X172263000Y-60215928D01*
X172138518Y-60228188D01*
X172018820Y-60264498D01*
X171908506Y-60323463D01*
X171871240Y-60354046D01*
X171871240Y-56800540D01*
X178042200Y-56800540D01*
X178042200Y-57093060D01*
X178099268Y-57379958D01*
X178211210Y-57650211D01*
X178373725Y-57893432D01*
X178580568Y-58100275D01*
X178754960Y-58216800D01*
X178580568Y-58333325D01*
X178373725Y-58540168D01*
X178211210Y-58783389D01*
X178099268Y-59053642D01*
X178042200Y-59340540D01*
X178042200Y-59633060D01*
X178099268Y-59919958D01*
X178211210Y-60190211D01*
X178373725Y-60433432D01*
X178580568Y-60640275D01*
X178823789Y-60802790D01*
X179094042Y-60914732D01*
X179380940Y-60971800D01*
X179673460Y-60971800D01*
X179960358Y-60914732D01*
X180230611Y-60802790D01*
X180473832Y-60640275D01*
X180680675Y-60433432D01*
X180797200Y-60259040D01*
X180913725Y-60433432D01*
X181120568Y-60640275D01*
X181363789Y-60802790D01*
X181634042Y-60914732D01*
X181920940Y-60971800D01*
X182213460Y-60971800D01*
X182500358Y-60914732D01*
X182770611Y-60802790D01*
X183013832Y-60640275D01*
X183138910Y-60515197D01*
X183758408Y-60515197D01*
X183836043Y-60764272D01*
X184100083Y-60890171D01*
X184383611Y-60962139D01*
X184675731Y-60977411D01*
X184965219Y-60935399D01*
X185240947Y-60837719D01*
X185378357Y-60764272D01*
X185455992Y-60515197D01*
X184607200Y-59666405D01*
X183758408Y-60515197D01*
X183138910Y-60515197D01*
X183220675Y-60433432D01*
X183336511Y-60260071D01*
X183578803Y-60335592D01*
X184427595Y-59486800D01*
X183578803Y-58638008D01*
X183336511Y-58713529D01*
X183220675Y-58540168D01*
X183013832Y-58333325D01*
X182839440Y-58216800D01*
X183013832Y-58100275D01*
X183220675Y-57893432D01*
X183337200Y-57719040D01*
X183453725Y-57893432D01*
X183660568Y-58100275D01*
X183833929Y-58216111D01*
X183758408Y-58458403D01*
X184607200Y-59307195D01*
X185455992Y-58458403D01*
X185380471Y-58216111D01*
X185553832Y-58100275D01*
X185760675Y-57893432D01*
X185877200Y-57719040D01*
X185993725Y-57893432D01*
X186200568Y-58100275D01*
X186374960Y-58216800D01*
X186200568Y-58333325D01*
X185993725Y-58540168D01*
X185877889Y-58713529D01*
X185635597Y-58638008D01*
X184786805Y-59486800D01*
X185635597Y-60335592D01*
X185877889Y-60260071D01*
X185993725Y-60433432D01*
X186200568Y-60640275D01*
X186443789Y-60802790D01*
X186714042Y-60914732D01*
X187000940Y-60971800D01*
X187293460Y-60971800D01*
X187580358Y-60914732D01*
X187850611Y-60802790D01*
X188093832Y-60640275D01*
X188300675Y-60433432D01*
X188417200Y-60259040D01*
X188533725Y-60433432D01*
X188740568Y-60640275D01*
X188983789Y-60802790D01*
X189254042Y-60914732D01*
X189540940Y-60971800D01*
X189833460Y-60971800D01*
X190120358Y-60914732D01*
X190390611Y-60802790D01*
X190633832Y-60640275D01*
X190840675Y-60433432D01*
X191003190Y-60190211D01*
X191115132Y-59919958D01*
X191172200Y-59633060D01*
X191172200Y-59340540D01*
X191115132Y-59053642D01*
X191003190Y-58783389D01*
X190840675Y-58540168D01*
X190633832Y-58333325D01*
X190459440Y-58216800D01*
X190633832Y-58100275D01*
X190840675Y-57893432D01*
X191003190Y-57650211D01*
X191115132Y-57379958D01*
X191161749Y-57145600D01*
X194734328Y-57145600D01*
X194737400Y-59759850D01*
X194896150Y-59918600D01*
X198145400Y-59918600D01*
X198145400Y-56669350D01*
X197986650Y-56510600D01*
X195372400Y-56507528D01*
X195247918Y-56519788D01*
X195128220Y-56556098D01*
X195017906Y-56615063D01*
X194921215Y-56694415D01*
X194841863Y-56791106D01*
X194782898Y-56901420D01*
X194746588Y-57021118D01*
X194734328Y-57145600D01*
X191161749Y-57145600D01*
X191172200Y-57093060D01*
X191172200Y-56800540D01*
X191115132Y-56513642D01*
X191003190Y-56243389D01*
X190840675Y-56000168D01*
X190633832Y-55793325D01*
X190390611Y-55630810D01*
X190120358Y-55518868D01*
X189833460Y-55461800D01*
X189540940Y-55461800D01*
X189254042Y-55518868D01*
X188983789Y-55630810D01*
X188740568Y-55793325D01*
X188533725Y-56000168D01*
X188417200Y-56174560D01*
X188300675Y-56000168D01*
X188093832Y-55793325D01*
X187850611Y-55630810D01*
X187580358Y-55518868D01*
X187293460Y-55461800D01*
X187000940Y-55461800D01*
X186714042Y-55518868D01*
X186443789Y-55630810D01*
X186200568Y-55793325D01*
X185993725Y-56000168D01*
X185877200Y-56174560D01*
X185760675Y-56000168D01*
X185553832Y-55793325D01*
X185310611Y-55630810D01*
X185040358Y-55518868D01*
X184753460Y-55461800D01*
X184460940Y-55461800D01*
X184174042Y-55518868D01*
X183903789Y-55630810D01*
X183660568Y-55793325D01*
X183453725Y-56000168D01*
X183337200Y-56174560D01*
X183220675Y-56000168D01*
X183013832Y-55793325D01*
X182770611Y-55630810D01*
X182500358Y-55518868D01*
X182213460Y-55461800D01*
X181920940Y-55461800D01*
X181634042Y-55518868D01*
X181363789Y-55630810D01*
X181120568Y-55793325D01*
X180913725Y-56000168D01*
X180797200Y-56174560D01*
X180680675Y-56000168D01*
X180473832Y-55793325D01*
X180230611Y-55630810D01*
X179960358Y-55518868D01*
X179673460Y-55461800D01*
X179380940Y-55461800D01*
X179094042Y-55518868D01*
X178823789Y-55630810D01*
X178580568Y-55793325D01*
X178373725Y-56000168D01*
X178211210Y-56243389D01*
X178099268Y-56513642D01*
X178042200Y-56800540D01*
X171871240Y-56800540D01*
X171871240Y-53756660D01*
X174516381Y-53756660D01*
X174548800Y-53759853D01*
X174581219Y-53756660D01*
X174678183Y-53747110D01*
X174802593Y-53709370D01*
X174917250Y-53648085D01*
X175017748Y-53565608D01*
X175100225Y-53465110D01*
X175161510Y-53350453D01*
X175199250Y-53226043D01*
X175211014Y-53106600D01*
X175377489Y-53106600D01*
X175558129Y-53070668D01*
X175728289Y-53000186D01*
X175881428Y-52897862D01*
X175920400Y-52858890D01*
X175959372Y-52897862D01*
X176112511Y-53000186D01*
X176282671Y-53070668D01*
X176463311Y-53106600D01*
X176647489Y-53106600D01*
X176828129Y-53070668D01*
X176998289Y-53000186D01*
X177151428Y-52897862D01*
X177190400Y-52858890D01*
X177229372Y-52897862D01*
X177382511Y-53000186D01*
X177552671Y-53070668D01*
X177733311Y-53106600D01*
X177917489Y-53106600D01*
X178098129Y-53070668D01*
X178268289Y-53000186D01*
X178421428Y-52897862D01*
X178460400Y-52858890D01*
X178499372Y-52897862D01*
X178652511Y-53000186D01*
X178822671Y-53070668D01*
X179003311Y-53106600D01*
X179187489Y-53106600D01*
X179368129Y-53070668D01*
X179538289Y-53000186D01*
X179691428Y-52897862D01*
X179730400Y-52858890D01*
X179769372Y-52897862D01*
X179922511Y-53000186D01*
X180092671Y-53070668D01*
X180273311Y-53106600D01*
X180415436Y-53106600D01*
X180426150Y-53215383D01*
X180463890Y-53339793D01*
X180525175Y-53454450D01*
X180607652Y-53554948D01*
X180708150Y-53637425D01*
X180822807Y-53698710D01*
X180947217Y-53736450D01*
X181044181Y-53746000D01*
X181076600Y-53749193D01*
X181109019Y-53746000D01*
X191305781Y-53746000D01*
X191338200Y-53749193D01*
X191370619Y-53746000D01*
X191467583Y-53736450D01*
X191591993Y-53698710D01*
X191706650Y-53637425D01*
X191807148Y-53554948D01*
X191889625Y-53454450D01*
X191950910Y-53339793D01*
X191988650Y-53215383D01*
X191999364Y-53106600D01*
X192166889Y-53106600D01*
X192347529Y-53070668D01*
X192517689Y-53000186D01*
X192670828Y-52897862D01*
X192709800Y-52858890D01*
X192748772Y-52897862D01*
X192901911Y-53000186D01*
X193072071Y-53070668D01*
X193252711Y-53106600D01*
X193436889Y-53106600D01*
X193617529Y-53070668D01*
X193787689Y-53000186D01*
X193940828Y-52897862D01*
X193979800Y-52858890D01*
X194018772Y-52897862D01*
X194171911Y-53000186D01*
X194342071Y-53070668D01*
X194522711Y-53106600D01*
X194706889Y-53106600D01*
X194887529Y-53070668D01*
X195057689Y-53000186D01*
X195210828Y-52897862D01*
X195249800Y-52858890D01*
X195288772Y-52897862D01*
X195441911Y-53000186D01*
X195612071Y-53070668D01*
X195792711Y-53106600D01*
X195976889Y-53106600D01*
X196157529Y-53070668D01*
X196327689Y-53000186D01*
X196480828Y-52897862D01*
X196519800Y-52858890D01*
X196558772Y-52897862D01*
G37*
%TD.AperFunction*%
D24*
X186337601Y-73451514D02*
X186333560Y-73492542D01*
X186349682Y-73656230D01*
X186397428Y-73813628D01*
X186471704Y-73952588D01*
X186474965Y-73958688D01*
X186579310Y-74085833D01*
X186611174Y-74111983D01*
X190775000Y-78275810D01*
X190775000Y-79188540D01*
X187695000Y-79181889D01*
X187695000Y-76871466D01*
X187699281Y-76827999D01*
X187695000Y-76784533D01*
X187695000Y-76784523D01*
X187682195Y-76654510D01*
X187631589Y-76487687D01*
X187549411Y-76333941D01*
X187438817Y-76199183D01*
X187405049Y-76171470D01*
X185988535Y-74754957D01*
X185988531Y-74754952D01*
X185512135Y-74278557D01*
X185500826Y-74221702D01*
X185422805Y-74033344D01*
X185309537Y-73863826D01*
X185165374Y-73719663D01*
X184995856Y-73606395D01*
X184807498Y-73528374D01*
X184771405Y-73521195D01*
X184764226Y-73485102D01*
X184686205Y-73296744D01*
X184572937Y-73127226D01*
X184428774Y-72983063D01*
X184259256Y-72869795D01*
X184146000Y-72822882D01*
X184146000Y-72689246D01*
X184226512Y-72591142D01*
X184307423Y-72439767D01*
X184357248Y-72275516D01*
X184374072Y-72104700D01*
X184374072Y-71604700D01*
X184357248Y-71433884D01*
X184307423Y-71269633D01*
X184226512Y-71118258D01*
X184117623Y-70985577D01*
X184064768Y-70942200D01*
X184098277Y-70914700D01*
X185933431Y-70914700D01*
X185976900Y-70918981D01*
X186020369Y-70914700D01*
X186020377Y-70914700D01*
X186150390Y-70901895D01*
X186317213Y-70851289D01*
X186337600Y-70840392D01*
X186337601Y-73451514D01*
%TA.AperFunction,Conductor*%
D25*
G36*
X186337601Y-73451514D02*
G01*
X186333560Y-73492542D01*
X186349682Y-73656230D01*
X186397428Y-73813628D01*
X186471704Y-73952588D01*
X186474965Y-73958688D01*
X186579310Y-74085833D01*
X186611174Y-74111983D01*
X190775000Y-78275810D01*
X190775000Y-79188540D01*
X187695000Y-79181889D01*
X187695000Y-76871466D01*
X187699281Y-76827999D01*
X187695000Y-76784533D01*
X187695000Y-76784523D01*
X187682195Y-76654510D01*
X187631589Y-76487687D01*
X187549411Y-76333941D01*
X187438817Y-76199183D01*
X187405049Y-76171470D01*
X185988535Y-74754957D01*
X185988531Y-74754952D01*
X185512135Y-74278557D01*
X185500826Y-74221702D01*
X185422805Y-74033344D01*
X185309537Y-73863826D01*
X185165374Y-73719663D01*
X184995856Y-73606395D01*
X184807498Y-73528374D01*
X184771405Y-73521195D01*
X184764226Y-73485102D01*
X184686205Y-73296744D01*
X184572937Y-73127226D01*
X184428774Y-72983063D01*
X184259256Y-72869795D01*
X184146000Y-72822882D01*
X184146000Y-72689246D01*
X184226512Y-72591142D01*
X184307423Y-72439767D01*
X184357248Y-72275516D01*
X184374072Y-72104700D01*
X184374072Y-71604700D01*
X184357248Y-71433884D01*
X184307423Y-71269633D01*
X184226512Y-71118258D01*
X184117623Y-70985577D01*
X184064768Y-70942200D01*
X184098277Y-70914700D01*
X185933431Y-70914700D01*
X185976900Y-70918981D01*
X186020369Y-70914700D01*
X186020377Y-70914700D01*
X186150390Y-70901895D01*
X186317213Y-70851289D01*
X186337600Y-70840392D01*
X186337601Y-73451514D01*
G37*
%TD.AperFunction*%
D24*
X183278744Y-74704205D02*
X183467102Y-74782226D01*
X183503195Y-74789405D01*
X183510374Y-74825498D01*
X183588395Y-75013856D01*
X183701663Y-75183374D01*
X183845826Y-75327537D01*
X184015344Y-75440805D01*
X184203702Y-75518826D01*
X184260557Y-75530135D01*
X184736952Y-76006531D01*
X184736957Y-76006535D01*
X185925001Y-77194580D01*
X185925001Y-79178067D01*
X177362002Y-79159576D01*
X180452579Y-76069000D01*
X181312531Y-76069000D01*
X181356000Y-76073281D01*
X181399469Y-76069000D01*
X181399477Y-76069000D01*
X181529490Y-76056195D01*
X181696313Y-76005589D01*
X181850059Y-75923411D01*
X181984817Y-75812817D01*
X182012534Y-75779044D01*
X183164026Y-74627553D01*
X183278744Y-74704205D01*
%TA.AperFunction,Conductor*%
D25*
G36*
X183278744Y-74704205D02*
G01*
X183467102Y-74782226D01*
X183503195Y-74789405D01*
X183510374Y-74825498D01*
X183588395Y-75013856D01*
X183701663Y-75183374D01*
X183845826Y-75327537D01*
X184015344Y-75440805D01*
X184203702Y-75518826D01*
X184260557Y-75530135D01*
X184736952Y-76006531D01*
X184736957Y-76006535D01*
X185925001Y-77194580D01*
X185925001Y-79178067D01*
X177362002Y-79159576D01*
X180452579Y-76069000D01*
X181312531Y-76069000D01*
X181356000Y-76073281D01*
X181399469Y-76069000D01*
X181399477Y-76069000D01*
X181529490Y-76056195D01*
X181696313Y-76005589D01*
X181850059Y-75923411D01*
X181984817Y-75812817D01*
X182012534Y-75779044D01*
X183164026Y-74627553D01*
X183278744Y-74704205D01*
G37*
%TD.AperFunction*%
D24*
X193887998Y-70940669D02*
X194020749Y-71073420D01*
X193887998Y-71206171D01*
X193824635Y-71301000D01*
X191029369Y-71301000D01*
X191011623Y-71279377D01*
X190878942Y-71170488D01*
X190846169Y-71152971D01*
X190854567Y-71150423D01*
X191005942Y-71069512D01*
X191138623Y-70960623D01*
X191156369Y-70939000D01*
X193886883Y-70939000D01*
X193887998Y-70940669D01*
%TA.AperFunction,Conductor*%
D25*
G36*
X193887998Y-70940669D02*
G01*
X194020749Y-71073420D01*
X193887998Y-71206171D01*
X193824635Y-71301000D01*
X191029369Y-71301000D01*
X191011623Y-71279377D01*
X190878942Y-71170488D01*
X190846169Y-71152971D01*
X190854567Y-71150423D01*
X191005942Y-71069512D01*
X191138623Y-70960623D01*
X191156369Y-70939000D01*
X193886883Y-70939000D01*
X193887998Y-70940669D01*
G37*
%TD.AperFunction*%
D24*
X193578670Y-67653887D02*
X193631917Y-67921576D01*
X193736364Y-68173733D01*
X193887998Y-68400669D01*
X194080991Y-68593662D01*
X194307927Y-68745296D01*
X194409623Y-68787420D01*
X194307927Y-68829544D01*
X194080991Y-68981178D01*
X193887998Y-69174171D01*
X193824635Y-69269000D01*
X191926178Y-69269000D01*
X192604332Y-68590847D01*
X192604336Y-68590842D01*
X193578670Y-67616509D01*
X193578670Y-67653887D01*
%TA.AperFunction,Conductor*%
D25*
G36*
X193578670Y-67653887D02*
G01*
X193631917Y-67921576D01*
X193736364Y-68173733D01*
X193887998Y-68400669D01*
X194080991Y-68593662D01*
X194307927Y-68745296D01*
X194409623Y-68787420D01*
X194307927Y-68829544D01*
X194080991Y-68981178D01*
X193887998Y-69174171D01*
X193824635Y-69269000D01*
X191926178Y-69269000D01*
X192604332Y-68590847D01*
X192604336Y-68590842D01*
X193578670Y-67616509D01*
X193578670Y-67653887D01*
G37*
%TD.AperFunction*%
D24*
X194737400Y-35560250D02*
X194896150Y-35719000D01*
X198145400Y-35719000D01*
X198145400Y-35699000D01*
X198399400Y-35699000D01*
X198399400Y-35719000D01*
X198419400Y-35719000D01*
X198419400Y-35973000D01*
X198399400Y-35973000D01*
X198399400Y-39222250D01*
X198558150Y-39381000D01*
X200556345Y-39383348D01*
X200558775Y-42411237D01*
X200555607Y-42443400D01*
X200558827Y-42476091D01*
X200558827Y-42476348D01*
X200561891Y-42507208D01*
X200568350Y-42572783D01*
X200568429Y-42573044D01*
X200568455Y-42573304D01*
X200569539Y-42576867D01*
X200567282Y-45324858D01*
X200561981Y-45378679D01*
X200558843Y-45410125D01*
X200558842Y-45410550D01*
X200555607Y-45443400D01*
X200558758Y-45475396D01*
X200552036Y-50656000D01*
X197898419Y-50656000D01*
X197866000Y-50652807D01*
X197833581Y-50656000D01*
X197736617Y-50665550D01*
X197612207Y-50703290D01*
X197497550Y-50764575D01*
X197397052Y-50847052D01*
X197314575Y-50947550D01*
X197253290Y-51062207D01*
X197215550Y-51186617D01*
X197210627Y-51236600D01*
X197062711Y-51236600D01*
X196882071Y-51272532D01*
X196711911Y-51343014D01*
X196558772Y-51445338D01*
X196519800Y-51484310D01*
X196480828Y-51445338D01*
X196327689Y-51343014D01*
X196157529Y-51272532D01*
X195976889Y-51236600D01*
X195792711Y-51236600D01*
X195612071Y-51272532D01*
X195441911Y-51343014D01*
X195288772Y-51445338D01*
X195249800Y-51484310D01*
X195210828Y-51445338D01*
X195057689Y-51343014D01*
X194887529Y-51272532D01*
X194706889Y-51236600D01*
X194522711Y-51236600D01*
X194342071Y-51272532D01*
X194171911Y-51343014D01*
X194018772Y-51445338D01*
X193979800Y-51484310D01*
X193940828Y-51445338D01*
X193787689Y-51343014D01*
X193617529Y-51272532D01*
X193436889Y-51236600D01*
X193252711Y-51236600D01*
X193072071Y-51272532D01*
X192901911Y-51343014D01*
X192748772Y-51445338D01*
X192709800Y-51484310D01*
X192670828Y-51445338D01*
X192517689Y-51343014D01*
X192347529Y-51272532D01*
X192166889Y-51236600D01*
X191993573Y-51236600D01*
X191988650Y-51186617D01*
X191950910Y-51062207D01*
X191889625Y-50947550D01*
X191807148Y-50847052D01*
X191706650Y-50764575D01*
X191591993Y-50703290D01*
X191467583Y-50665550D01*
X191370619Y-50656000D01*
X191338200Y-50652807D01*
X191305781Y-50656000D01*
X181109019Y-50656000D01*
X181076600Y-50652807D01*
X181044181Y-50656000D01*
X180947217Y-50665550D01*
X180822807Y-50703290D01*
X180708150Y-50764575D01*
X180607652Y-50847052D01*
X180525175Y-50947550D01*
X180463890Y-51062207D01*
X180426150Y-51186617D01*
X180421227Y-51236600D01*
X180273311Y-51236600D01*
X180092671Y-51272532D01*
X179922511Y-51343014D01*
X179769372Y-51445338D01*
X179730400Y-51484310D01*
X179691428Y-51445338D01*
X179538289Y-51343014D01*
X179368129Y-51272532D01*
X179187489Y-51236600D01*
X179003311Y-51236600D01*
X178822671Y-51272532D01*
X178652511Y-51343014D01*
X178499372Y-51445338D01*
X178460400Y-51484310D01*
X178421428Y-51445338D01*
X178268289Y-51343014D01*
X178098129Y-51272532D01*
X177917489Y-51236600D01*
X177733311Y-51236600D01*
X177552671Y-51272532D01*
X177382511Y-51343014D01*
X177229372Y-51445338D01*
X177190400Y-51484310D01*
X177151428Y-51445338D01*
X176998289Y-51343014D01*
X176828129Y-51272532D01*
X176647489Y-51236600D01*
X176463311Y-51236600D01*
X176282671Y-51272532D01*
X176112511Y-51343014D01*
X175959372Y-51445338D01*
X175920400Y-51484310D01*
X175881428Y-51445338D01*
X175728289Y-51343014D01*
X175558129Y-51272532D01*
X175377489Y-51236600D01*
X175204173Y-51236600D01*
X175199250Y-51186617D01*
X175161510Y-51062207D01*
X175100225Y-50947550D01*
X175017748Y-50847052D01*
X174917250Y-50764575D01*
X174802593Y-50703290D01*
X174678183Y-50665550D01*
X174581219Y-50656000D01*
X174548800Y-50652807D01*
X174516381Y-50656000D01*
X171881034Y-50656000D01*
X171874799Y-39383288D01*
X173821490Y-39381000D01*
X173980240Y-39222250D01*
X173980240Y-35973000D01*
X174234240Y-35973000D01*
X174234240Y-39222250D01*
X174392990Y-39381000D01*
X177007240Y-39384072D01*
X177131722Y-39371812D01*
X177251420Y-39335502D01*
X177361734Y-39276537D01*
X177458425Y-39197185D01*
X177537777Y-39100494D01*
X177596742Y-38990180D01*
X177633052Y-38870482D01*
X177645312Y-38746000D01*
X194734328Y-38746000D01*
X194746588Y-38870482D01*
X194782898Y-38990180D01*
X194841863Y-39100494D01*
X194921215Y-39197185D01*
X195017906Y-39276537D01*
X195128220Y-39335502D01*
X195247918Y-39371812D01*
X195372400Y-39384072D01*
X197986650Y-39381000D01*
X198145400Y-39222250D01*
X198145400Y-35973000D01*
X194896150Y-35973000D01*
X194737400Y-36131750D01*
X194734328Y-38746000D01*
X177645312Y-38746000D01*
X177642240Y-36131750D01*
X177483490Y-35973000D01*
X174234240Y-35973000D01*
X173980240Y-35973000D01*
X173960240Y-35973000D01*
X173960240Y-35719000D01*
X173980240Y-35719000D01*
X173980240Y-35699000D01*
X174234240Y-35699000D01*
X174234240Y-35719000D01*
X177483490Y-35719000D01*
X177642240Y-35560250D01*
X177644536Y-33606000D01*
X194735104Y-33606000D01*
X194737400Y-35560250D01*
%TA.AperFunction,Conductor*%
D25*
G36*
X194737400Y-35560250D02*
G01*
X194896150Y-35719000D01*
X198145400Y-35719000D01*
X198145400Y-35699000D01*
X198399400Y-35699000D01*
X198399400Y-35719000D01*
X198419400Y-35719000D01*
X198419400Y-35973000D01*
X198399400Y-35973000D01*
X198399400Y-39222250D01*
X198558150Y-39381000D01*
X200556345Y-39383348D01*
X200558775Y-42411237D01*
X200555607Y-42443400D01*
X200558827Y-42476091D01*
X200558827Y-42476348D01*
X200561891Y-42507208D01*
X200568350Y-42572783D01*
X200568429Y-42573044D01*
X200568455Y-42573304D01*
X200569539Y-42576867D01*
X200567282Y-45324858D01*
X200561981Y-45378679D01*
X200558843Y-45410125D01*
X200558842Y-45410550D01*
X200555607Y-45443400D01*
X200558758Y-45475396D01*
X200552036Y-50656000D01*
X197898419Y-50656000D01*
X197866000Y-50652807D01*
X197833581Y-50656000D01*
X197736617Y-50665550D01*
X197612207Y-50703290D01*
X197497550Y-50764575D01*
X197397052Y-50847052D01*
X197314575Y-50947550D01*
X197253290Y-51062207D01*
X197215550Y-51186617D01*
X197210627Y-51236600D01*
X197062711Y-51236600D01*
X196882071Y-51272532D01*
X196711911Y-51343014D01*
X196558772Y-51445338D01*
X196519800Y-51484310D01*
X196480828Y-51445338D01*
X196327689Y-51343014D01*
X196157529Y-51272532D01*
X195976889Y-51236600D01*
X195792711Y-51236600D01*
X195612071Y-51272532D01*
X195441911Y-51343014D01*
X195288772Y-51445338D01*
X195249800Y-51484310D01*
X195210828Y-51445338D01*
X195057689Y-51343014D01*
X194887529Y-51272532D01*
X194706889Y-51236600D01*
X194522711Y-51236600D01*
X194342071Y-51272532D01*
X194171911Y-51343014D01*
X194018772Y-51445338D01*
X193979800Y-51484310D01*
X193940828Y-51445338D01*
X193787689Y-51343014D01*
X193617529Y-51272532D01*
X193436889Y-51236600D01*
X193252711Y-51236600D01*
X193072071Y-51272532D01*
X192901911Y-51343014D01*
X192748772Y-51445338D01*
X192709800Y-51484310D01*
X192670828Y-51445338D01*
X192517689Y-51343014D01*
X192347529Y-51272532D01*
X192166889Y-51236600D01*
X191993573Y-51236600D01*
X191988650Y-51186617D01*
X191950910Y-51062207D01*
X191889625Y-50947550D01*
X191807148Y-50847052D01*
X191706650Y-50764575D01*
X191591993Y-50703290D01*
X191467583Y-50665550D01*
X191370619Y-50656000D01*
X191338200Y-50652807D01*
X191305781Y-50656000D01*
X181109019Y-50656000D01*
X181076600Y-50652807D01*
X181044181Y-50656000D01*
X180947217Y-50665550D01*
X180822807Y-50703290D01*
X180708150Y-50764575D01*
X180607652Y-50847052D01*
X180525175Y-50947550D01*
X180463890Y-51062207D01*
X180426150Y-51186617D01*
X180421227Y-51236600D01*
X180273311Y-51236600D01*
X180092671Y-51272532D01*
X179922511Y-51343014D01*
X179769372Y-51445338D01*
X179730400Y-51484310D01*
X179691428Y-51445338D01*
X179538289Y-51343014D01*
X179368129Y-51272532D01*
X179187489Y-51236600D01*
X179003311Y-51236600D01*
X178822671Y-51272532D01*
X178652511Y-51343014D01*
X178499372Y-51445338D01*
X178460400Y-51484310D01*
X178421428Y-51445338D01*
X178268289Y-51343014D01*
X178098129Y-51272532D01*
X177917489Y-51236600D01*
X177733311Y-51236600D01*
X177552671Y-51272532D01*
X177382511Y-51343014D01*
X177229372Y-51445338D01*
X177190400Y-51484310D01*
X177151428Y-51445338D01*
X176998289Y-51343014D01*
X176828129Y-51272532D01*
X176647489Y-51236600D01*
X176463311Y-51236600D01*
X176282671Y-51272532D01*
X176112511Y-51343014D01*
X175959372Y-51445338D01*
X175920400Y-51484310D01*
X175881428Y-51445338D01*
X175728289Y-51343014D01*
X175558129Y-51272532D01*
X175377489Y-51236600D01*
X175204173Y-51236600D01*
X175199250Y-51186617D01*
X175161510Y-51062207D01*
X175100225Y-50947550D01*
X175017748Y-50847052D01*
X174917250Y-50764575D01*
X174802593Y-50703290D01*
X174678183Y-50665550D01*
X174581219Y-50656000D01*
X174548800Y-50652807D01*
X174516381Y-50656000D01*
X171881034Y-50656000D01*
X171874799Y-39383288D01*
X173821490Y-39381000D01*
X173980240Y-39222250D01*
X173980240Y-35973000D01*
X174234240Y-35973000D01*
X174234240Y-39222250D01*
X174392990Y-39381000D01*
X177007240Y-39384072D01*
X177131722Y-39371812D01*
X177251420Y-39335502D01*
X177361734Y-39276537D01*
X177458425Y-39197185D01*
X177537777Y-39100494D01*
X177596742Y-38990180D01*
X177633052Y-38870482D01*
X177645312Y-38746000D01*
X194734328Y-38746000D01*
X194746588Y-38870482D01*
X194782898Y-38990180D01*
X194841863Y-39100494D01*
X194921215Y-39197185D01*
X195017906Y-39276537D01*
X195128220Y-39335502D01*
X195247918Y-39371812D01*
X195372400Y-39384072D01*
X197986650Y-39381000D01*
X198145400Y-39222250D01*
X198145400Y-35973000D01*
X194896150Y-35973000D01*
X194737400Y-36131750D01*
X194734328Y-38746000D01*
X177645312Y-38746000D01*
X177642240Y-36131750D01*
X177483490Y-35973000D01*
X174234240Y-35973000D01*
X173980240Y-35973000D01*
X173960240Y-35973000D01*
X173960240Y-35719000D01*
X173980240Y-35719000D01*
X173980240Y-35699000D01*
X174234240Y-35699000D01*
X174234240Y-35719000D01*
X177483490Y-35719000D01*
X177642240Y-35560250D01*
X177644536Y-33606000D01*
X194735104Y-33606000D01*
X194737400Y-35560250D01*
G37*
%TD.AperFunction*%
%TD*%
D24*
%TO.N,GND*%
X231657772Y-52895462D02*
X231810911Y-52997786D01*
X231981071Y-53068268D01*
X232161711Y-53104200D01*
X232303836Y-53104200D01*
X232314550Y-53212983D01*
X232352290Y-53337393D01*
X232413575Y-53452050D01*
X232496052Y-53552548D01*
X232596550Y-53635025D01*
X232711207Y-53696310D01*
X232835617Y-53734050D01*
X232932581Y-53743600D01*
X232965000Y-53746793D01*
X232997419Y-53743600D01*
X235650181Y-53743600D01*
X235650181Y-56505858D01*
X233657150Y-56508200D01*
X233498400Y-56666950D01*
X233498400Y-59916200D01*
X233518400Y-59916200D01*
X233518400Y-60170200D01*
X233498400Y-60170200D01*
X233498400Y-63419450D01*
X233657150Y-63578200D01*
X235650181Y-63580542D01*
X235650180Y-79206244D01*
X233156040Y-79201061D01*
X231589400Y-77634422D01*
X231589400Y-77167854D01*
X231621605Y-77119656D01*
X231699626Y-76931298D01*
X231739400Y-76731339D01*
X231739400Y-76527461D01*
X231699626Y-76327502D01*
X231621605Y-76139144D01*
X231508337Y-75969626D01*
X231364174Y-75825463D01*
X231194656Y-75712195D01*
X231006298Y-75634174D01*
X230836642Y-75600428D01*
X230841036Y-75584421D01*
X230063240Y-74806625D01*
X229285444Y-75584421D01*
X229351039Y-75823346D01*
X229598115Y-75939303D01*
X229863067Y-76004829D01*
X229876526Y-76005450D01*
X229787195Y-76139144D01*
X229709174Y-76327502D01*
X229669400Y-76527461D01*
X229669400Y-76731339D01*
X229709174Y-76931298D01*
X229787195Y-77119656D01*
X229819400Y-77167855D01*
X229819401Y-77957521D01*
X229815119Y-78001000D01*
X229832205Y-78174490D01*
X229882812Y-78341313D01*
X229964990Y-78495059D01*
X230047868Y-78596046D01*
X230047871Y-78596049D01*
X230075584Y-78629817D01*
X230109351Y-78657529D01*
X230647671Y-79195849D01*
X228344000Y-79191062D01*
X228344000Y-77920018D01*
X228348040Y-77878999D01*
X228331918Y-77715311D01*
X228284172Y-77557913D01*
X228206636Y-77412854D01*
X228142128Y-77334251D01*
X228102291Y-77285709D01*
X228070428Y-77259560D01*
X225510358Y-74699490D01*
X228672853Y-74699490D01*
X228713707Y-74969349D01*
X228806423Y-75226052D01*
X228866914Y-75339221D01*
X229105839Y-75404816D01*
X229883635Y-74627020D01*
X230242845Y-74627020D01*
X231020641Y-75404816D01*
X231259566Y-75339221D01*
X231375523Y-75092145D01*
X231441049Y-74827193D01*
X231453627Y-74554550D01*
X231412773Y-74284691D01*
X231320057Y-74027988D01*
X231259566Y-73914819D01*
X231020641Y-73849224D01*
X230242845Y-74627020D01*
X229883635Y-74627020D01*
X229105839Y-73849224D01*
X228866914Y-73914819D01*
X228750957Y-74161895D01*
X228685431Y-74426847D01*
X228672853Y-74699490D01*
X225510358Y-74699490D01*
X224251500Y-73440633D01*
X224251500Y-73018227D01*
X224285623Y-72990223D01*
X224329000Y-72937368D01*
X224372377Y-72990223D01*
X224505058Y-73099112D01*
X224656433Y-73180023D01*
X224820684Y-73229848D01*
X224991500Y-73246672D01*
X225491500Y-73246672D01*
X225662316Y-73229848D01*
X225826567Y-73180023D01*
X225977942Y-73099112D01*
X226110623Y-72990223D01*
X226128369Y-72968600D01*
X228985883Y-72968600D01*
X228986998Y-72970269D01*
X229179991Y-73163262D01*
X229406927Y-73314896D01*
X229504936Y-73355493D01*
X229464208Y-73370203D01*
X229351039Y-73430694D01*
X229285444Y-73669619D01*
X230063240Y-74447415D01*
X230841036Y-73669619D01*
X230775441Y-73430694D01*
X230618177Y-73356887D01*
X230719553Y-73314896D01*
X230946489Y-73163262D01*
X231139482Y-72970269D01*
X231291116Y-72743333D01*
X231395563Y-72491176D01*
X231448810Y-72223487D01*
X231448810Y-71950553D01*
X231395563Y-71682864D01*
X231291116Y-71430707D01*
X231139482Y-71203771D01*
X231006731Y-71071020D01*
X231139482Y-70938269D01*
X231291116Y-70711333D01*
X231395563Y-70459176D01*
X231448810Y-70191487D01*
X231448810Y-69918553D01*
X231395563Y-69650864D01*
X231291116Y-69398707D01*
X231139482Y-69171771D01*
X230946489Y-68978778D01*
X230719553Y-68827144D01*
X230617857Y-68785020D01*
X230719553Y-68742896D01*
X230946489Y-68591262D01*
X231139482Y-68398269D01*
X231291116Y-68171333D01*
X231395563Y-67919176D01*
X231448810Y-67651487D01*
X231448810Y-67378553D01*
X231395563Y-67110864D01*
X231291116Y-66858707D01*
X231139482Y-66631771D01*
X230946489Y-66438778D01*
X230719553Y-66287144D01*
X230467396Y-66182697D01*
X230199707Y-66129450D01*
X229929248Y-66129450D01*
X229450746Y-65650948D01*
X229450742Y-65650943D01*
X229450740Y-65650941D01*
X229423027Y-65617173D01*
X229389259Y-65589460D01*
X228536100Y-64736302D01*
X228536100Y-63789769D01*
X228540381Y-63746300D01*
X228536100Y-63702831D01*
X228536100Y-63702823D01*
X228523295Y-63572810D01*
X228472689Y-63405987D01*
X228390511Y-63252241D01*
X228344036Y-63195611D01*
X228307632Y-63151253D01*
X228307630Y-63151251D01*
X228279917Y-63117483D01*
X228246150Y-63089771D01*
X228099579Y-62943200D01*
X229833328Y-62943200D01*
X229845588Y-63067682D01*
X229881898Y-63187380D01*
X229940863Y-63297694D01*
X230020215Y-63394385D01*
X230116906Y-63473737D01*
X230227220Y-63532702D01*
X230346918Y-63569012D01*
X230471400Y-63581272D01*
X233085650Y-63578200D01*
X233244400Y-63419450D01*
X233244400Y-60170200D01*
X229995150Y-60170200D01*
X229836400Y-60328950D01*
X229833328Y-62943200D01*
X228099579Y-62943200D01*
X227017534Y-61861156D01*
X226989817Y-61827383D01*
X226855059Y-61716789D01*
X226701313Y-61634611D01*
X226534490Y-61584005D01*
X226404477Y-61571200D01*
X226404469Y-61571200D01*
X226361000Y-61566919D01*
X226317531Y-61571200D01*
X220030846Y-61571200D01*
X219932742Y-61490688D01*
X219781367Y-61409777D01*
X219617116Y-61359952D01*
X219446300Y-61343128D01*
X218946300Y-61343128D01*
X218775484Y-61359952D01*
X218611233Y-61409777D01*
X218459858Y-61490688D01*
X218327177Y-61599577D01*
X218283800Y-61652432D01*
X218240423Y-61599577D01*
X218107742Y-61490688D01*
X217956367Y-61409777D01*
X217792116Y-61359952D01*
X217621300Y-61343128D01*
X217121300Y-61343128D01*
X216950484Y-61359952D01*
X216786233Y-61409777D01*
X216634858Y-61490688D01*
X216536754Y-61571200D01*
X214923669Y-61571200D01*
X214880200Y-61566919D01*
X214836731Y-61571200D01*
X214836723Y-61571200D01*
X214706710Y-61584005D01*
X214539887Y-61634611D01*
X214386141Y-61716789D01*
X214251383Y-61827383D01*
X214223666Y-61861156D01*
X214218222Y-61866600D01*
X213164603Y-61866600D01*
X213156180Y-61862098D01*
X213036482Y-61825788D01*
X212912000Y-61813528D01*
X211362000Y-61813528D01*
X211237518Y-61825788D01*
X211117820Y-61862098D01*
X211007506Y-61921063D01*
X210910815Y-62000415D01*
X210831463Y-62097106D01*
X210772498Y-62207420D01*
X210736188Y-62327118D01*
X210723928Y-62451600D01*
X210723928Y-63051600D01*
X210736188Y-63176082D01*
X210759096Y-63251600D01*
X210736188Y-63327118D01*
X210723928Y-63451600D01*
X210727000Y-63465850D01*
X210885750Y-63624600D01*
X211086947Y-63624600D01*
X211117820Y-63641102D01*
X211237518Y-63677412D01*
X211362000Y-63689672D01*
X212912000Y-63689672D01*
X213036482Y-63677412D01*
X213156180Y-63641102D01*
X213164603Y-63636600D01*
X214541331Y-63636600D01*
X214584800Y-63640881D01*
X214628269Y-63636600D01*
X214628277Y-63636600D01*
X214758290Y-63623795D01*
X214925113Y-63573189D01*
X215078859Y-63491011D01*
X215213617Y-63380417D01*
X215241334Y-63346644D01*
X215246778Y-63341200D01*
X216536754Y-63341200D01*
X216634858Y-63421712D01*
X216786233Y-63502623D01*
X216950484Y-63552448D01*
X217121300Y-63569272D01*
X217621300Y-63569272D01*
X217792116Y-63552448D01*
X217956367Y-63502623D01*
X218107742Y-63421712D01*
X218240423Y-63312823D01*
X218283800Y-63259968D01*
X218327177Y-63312823D01*
X218459858Y-63421712D01*
X218611233Y-63502623D01*
X218775484Y-63552448D01*
X218946300Y-63569272D01*
X219446300Y-63569272D01*
X219617116Y-63552448D01*
X219781367Y-63502623D01*
X219932742Y-63421712D01*
X220030846Y-63341200D01*
X225994422Y-63341200D01*
X226766100Y-64112879D01*
X226766101Y-65059401D01*
X226761819Y-65102880D01*
X226778905Y-65276370D01*
X226829512Y-65443193D01*
X226911690Y-65596939D01*
X226994568Y-65697926D01*
X226994571Y-65697929D01*
X227022284Y-65731697D01*
X227056051Y-65759409D01*
X227542631Y-66245990D01*
X226451758Y-67336864D01*
X226451753Y-67336868D01*
X225638822Y-68149800D01*
X222111869Y-68149800D01*
X222068400Y-68145519D01*
X222024931Y-68149800D01*
X222024923Y-68149800D01*
X221909706Y-68161148D01*
X221894909Y-68162605D01*
X221867895Y-68170800D01*
X221728087Y-68213211D01*
X221574341Y-68295389D01*
X221574339Y-68295390D01*
X221574340Y-68295390D01*
X221473353Y-68378268D01*
X221473351Y-68378270D01*
X221439583Y-68405983D01*
X221411870Y-68439751D01*
X220709322Y-69142300D01*
X219197277Y-69142300D01*
X219083942Y-69049288D01*
X218932567Y-68968377D01*
X218768316Y-68918552D01*
X218597500Y-68901728D01*
X218122500Y-68901728D01*
X217951684Y-68918552D01*
X217787433Y-68968377D01*
X217636058Y-69049288D01*
X217503377Y-69158177D01*
X217394488Y-69290858D01*
X217313577Y-69442233D01*
X217263752Y-69606484D01*
X217246928Y-69777300D01*
X217246928Y-70277300D01*
X217263752Y-70448116D01*
X217313577Y-70612367D01*
X217394488Y-70763742D01*
X217503377Y-70896423D01*
X217556232Y-70939800D01*
X217503377Y-70983177D01*
X217394488Y-71115858D01*
X217313577Y-71267233D01*
X217263752Y-71431484D01*
X217246928Y-71602300D01*
X217246928Y-72102300D01*
X217263752Y-72273116D01*
X217313577Y-72437367D01*
X217394488Y-72588742D01*
X217475001Y-72686846D01*
X217475001Y-72910020D01*
X216088422Y-74296600D01*
X215228469Y-74296600D01*
X215185000Y-74292319D01*
X215141531Y-74296600D01*
X215141523Y-74296600D01*
X215011510Y-74309405D01*
X214844687Y-74360011D01*
X214807681Y-74379791D01*
X214690941Y-74442189D01*
X214589953Y-74525068D01*
X214589951Y-74525070D01*
X214556183Y-74552783D01*
X214528470Y-74586551D01*
X212371188Y-76743833D01*
X212361861Y-76678917D01*
X212262932Y-76398406D01*
X212186228Y-76254905D01*
X211934600Y-76174245D01*
X211067965Y-77040880D01*
X211082108Y-77055023D01*
X210902503Y-77234628D01*
X210888360Y-77220485D01*
X210021725Y-78087120D01*
X210102385Y-78338748D01*
X210370689Y-78467147D01*
X210591494Y-78523527D01*
X209962158Y-79152864D01*
X206978146Y-79146663D01*
X206976470Y-77108423D01*
X209372556Y-77108423D01*
X209414859Y-77402843D01*
X209513788Y-77683354D01*
X209590492Y-77826855D01*
X209842120Y-77907515D01*
X210708755Y-77040880D01*
X209842120Y-76174245D01*
X209590492Y-76254905D01*
X209462093Y-76523209D01*
X209388505Y-76811406D01*
X209372556Y-77108423D01*
X206976470Y-77108423D01*
X206975555Y-75994640D01*
X210021725Y-75994640D01*
X210888360Y-76861275D01*
X211754995Y-75994640D01*
X211674335Y-75743012D01*
X211406031Y-75614613D01*
X211117834Y-75541025D01*
X210820817Y-75525076D01*
X210526397Y-75567379D01*
X210245886Y-75666308D01*
X210102385Y-75743012D01*
X210021725Y-75994640D01*
X206975555Y-75994640D01*
X206973699Y-73738880D01*
X208137295Y-73738880D01*
X208168682Y-74057553D01*
X208261635Y-74363980D01*
X208412583Y-74646385D01*
X208615726Y-74893914D01*
X208863255Y-75097057D01*
X209145660Y-75248005D01*
X209452087Y-75340958D01*
X209690906Y-75364480D01*
X211831814Y-75364480D01*
X212070633Y-75340958D01*
X212377060Y-75248005D01*
X212659465Y-75097057D01*
X212906994Y-74893914D01*
X213110137Y-74646385D01*
X213261085Y-74363980D01*
X213354038Y-74057553D01*
X213385425Y-73738880D01*
X213354038Y-73420207D01*
X213261085Y-73113780D01*
X213110137Y-72831375D01*
X212906994Y-72583846D01*
X212659465Y-72380703D01*
X212377060Y-72229755D01*
X212070633Y-72136802D01*
X211831814Y-72113280D01*
X209690906Y-72113280D01*
X209452087Y-72136802D01*
X209145660Y-72229755D01*
X208863255Y-72380703D01*
X208615726Y-72583846D01*
X208412583Y-72831375D01*
X208261635Y-73113780D01*
X208168682Y-73420207D01*
X208137295Y-73738880D01*
X206973699Y-73738880D01*
X206969587Y-68738880D01*
X208137295Y-68738880D01*
X208168682Y-69057553D01*
X208261635Y-69363980D01*
X208412583Y-69646385D01*
X208615726Y-69893914D01*
X208863255Y-70097057D01*
X209145660Y-70248005D01*
X209452087Y-70340958D01*
X209690906Y-70364480D01*
X211831814Y-70364480D01*
X212070633Y-70340958D01*
X212377060Y-70248005D01*
X212659465Y-70097057D01*
X212906994Y-69893914D01*
X213110137Y-69646385D01*
X213261085Y-69363980D01*
X213354038Y-69057553D01*
X213385425Y-68738880D01*
X213354038Y-68420207D01*
X213261085Y-68113780D01*
X213110137Y-67831375D01*
X212906994Y-67583846D01*
X212659465Y-67380703D01*
X212377060Y-67229755D01*
X212070633Y-67136802D01*
X211831814Y-67113280D01*
X209690906Y-67113280D01*
X209452087Y-67136802D01*
X209145660Y-67229755D01*
X208863255Y-67380703D01*
X208615726Y-67583846D01*
X208412583Y-67831375D01*
X208261635Y-68113780D01*
X208168682Y-68420207D01*
X208137295Y-68738880D01*
X206969587Y-68738880D01*
X206967457Y-66149270D01*
X207007506Y-66182137D01*
X207117820Y-66241102D01*
X207237518Y-66277412D01*
X207362000Y-66289672D01*
X207976250Y-66286600D01*
X208135000Y-66127850D01*
X208135000Y-65178600D01*
X208389000Y-65178600D01*
X208389000Y-66127850D01*
X208547750Y-66286600D01*
X209162000Y-66289672D01*
X209286482Y-66277412D01*
X209406180Y-66241102D01*
X209516494Y-66182137D01*
X209613185Y-66102785D01*
X209692537Y-66006094D01*
X209751502Y-65895780D01*
X209787812Y-65776082D01*
X209800072Y-65651600D01*
X209797000Y-65337350D01*
X209638250Y-65178600D01*
X208389000Y-65178600D01*
X208135000Y-65178600D01*
X208115000Y-65178600D01*
X208115000Y-65102880D01*
X214843575Y-65102880D01*
X214872247Y-65393991D01*
X214957161Y-65673914D01*
X215095054Y-65931894D01*
X215280626Y-66158014D01*
X215506746Y-66343586D01*
X215764726Y-66481479D01*
X216044649Y-66566393D01*
X216262810Y-66587880D01*
X216435910Y-66587880D01*
X216654071Y-66566393D01*
X216933994Y-66481479D01*
X217191974Y-66343586D01*
X217418094Y-66158014D01*
X217603666Y-65931894D01*
X217619360Y-65902533D01*
X217635054Y-65931894D01*
X217820626Y-66158014D01*
X218046746Y-66343586D01*
X218304726Y-66481479D01*
X218584649Y-66566393D01*
X218802810Y-66587880D01*
X218975910Y-66587880D01*
X219194071Y-66566393D01*
X219473994Y-66481479D01*
X219731974Y-66343586D01*
X219958094Y-66158014D01*
X220143666Y-65931894D01*
X220162886Y-65895937D01*
X220327763Y-66112809D01*
X220545696Y-66305661D01*
X220797065Y-66452291D01*
X221072210Y-66547064D01*
X221302360Y-66424277D01*
X221302360Y-65229880D01*
X221282360Y-65229880D01*
X221282360Y-64975880D01*
X221302360Y-64975880D01*
X221302360Y-63781483D01*
X221556360Y-63781483D01*
X221556360Y-64975880D01*
X221576360Y-64975880D01*
X221576360Y-65229880D01*
X221556360Y-65229880D01*
X221556360Y-66424277D01*
X221786510Y-66547064D01*
X222061655Y-66452291D01*
X222313024Y-66305661D01*
X222499220Y-66140893D01*
X222516258Y-66197060D01*
X222575223Y-66307374D01*
X222654575Y-66404065D01*
X222751266Y-66483417D01*
X222861580Y-66542382D01*
X222981278Y-66578692D01*
X223105760Y-66590952D01*
X224832960Y-66590952D01*
X224957442Y-66578692D01*
X225077140Y-66542382D01*
X225187454Y-66483417D01*
X225284145Y-66404065D01*
X225363497Y-66307374D01*
X225422462Y-66197060D01*
X225458772Y-66077362D01*
X225471032Y-65952880D01*
X225471032Y-64252880D01*
X225458772Y-64128398D01*
X225422462Y-64008700D01*
X225363497Y-63898386D01*
X225284145Y-63801695D01*
X225187454Y-63722343D01*
X225077140Y-63663378D01*
X224957442Y-63627068D01*
X224832960Y-63614808D01*
X223105760Y-63614808D01*
X222981278Y-63627068D01*
X222861580Y-63663378D01*
X222751266Y-63722343D01*
X222654575Y-63801695D01*
X222575223Y-63898386D01*
X222516258Y-64008700D01*
X222499220Y-64064867D01*
X222313024Y-63900099D01*
X222061655Y-63753469D01*
X221786510Y-63658696D01*
X221556360Y-63781483D01*
X221302360Y-63781483D01*
X221072210Y-63658696D01*
X220797065Y-63753469D01*
X220545696Y-63900099D01*
X220327763Y-64092951D01*
X220162886Y-64309823D01*
X220143666Y-64273866D01*
X219958094Y-64047746D01*
X219731974Y-63862174D01*
X219473994Y-63724281D01*
X219194071Y-63639367D01*
X218975910Y-63617880D01*
X218802810Y-63617880D01*
X218584649Y-63639367D01*
X218304726Y-63724281D01*
X218046746Y-63862174D01*
X217820626Y-64047746D01*
X217635054Y-64273866D01*
X217619360Y-64303227D01*
X217603666Y-64273866D01*
X217418094Y-64047746D01*
X217191974Y-63862174D01*
X216933994Y-63724281D01*
X216654071Y-63639367D01*
X216435910Y-63617880D01*
X216262810Y-63617880D01*
X216044649Y-63639367D01*
X215764726Y-63724281D01*
X215506746Y-63862174D01*
X215280626Y-64047746D01*
X215095054Y-64273866D01*
X214957161Y-64531846D01*
X214872247Y-64811769D01*
X214843575Y-65102880D01*
X208115000Y-65102880D01*
X208115000Y-64924600D01*
X208135000Y-64924600D01*
X208135000Y-63975350D01*
X208389000Y-63975350D01*
X208389000Y-64924600D01*
X209638250Y-64924600D01*
X209797000Y-64765850D01*
X209800072Y-64451600D01*
X209787812Y-64327118D01*
X209751502Y-64207420D01*
X209692537Y-64097106D01*
X209655192Y-64051600D01*
X210723928Y-64051600D01*
X210736188Y-64176082D01*
X210772498Y-64295780D01*
X210831463Y-64406094D01*
X210910815Y-64502785D01*
X211007506Y-64582137D01*
X211117820Y-64641102D01*
X211237518Y-64677412D01*
X211362000Y-64689672D01*
X211851250Y-64686600D01*
X212010000Y-64527850D01*
X212010000Y-63878600D01*
X212264000Y-63878600D01*
X212264000Y-64527850D01*
X212422750Y-64686600D01*
X212912000Y-64689672D01*
X213036482Y-64677412D01*
X213156180Y-64641102D01*
X213266494Y-64582137D01*
X213363185Y-64502785D01*
X213442537Y-64406094D01*
X213501502Y-64295780D01*
X213537812Y-64176082D01*
X213550072Y-64051600D01*
X213547000Y-64037350D01*
X213388250Y-63878600D01*
X212264000Y-63878600D01*
X212010000Y-63878600D01*
X210885750Y-63878600D01*
X210727000Y-64037350D01*
X210723928Y-64051600D01*
X209655192Y-64051600D01*
X209613185Y-64000415D01*
X209516494Y-63921063D01*
X209406180Y-63862098D01*
X209286482Y-63825788D01*
X209162000Y-63813528D01*
X208547750Y-63816600D01*
X208389000Y-63975350D01*
X208135000Y-63975350D01*
X207976250Y-63816600D01*
X207362000Y-63813528D01*
X207237518Y-63825788D01*
X207117820Y-63862098D01*
X207007506Y-63921063D01*
X206965653Y-63955410D01*
X206964495Y-62546839D01*
X207007506Y-62582137D01*
X207117820Y-62641102D01*
X207237518Y-62677412D01*
X207362000Y-62689672D01*
X207976250Y-62686600D01*
X208135000Y-62527850D01*
X208135000Y-61578600D01*
X208389000Y-61578600D01*
X208389000Y-62527850D01*
X208547750Y-62686600D01*
X209162000Y-62689672D01*
X209286482Y-62677412D01*
X209406180Y-62641102D01*
X209516494Y-62582137D01*
X209613185Y-62502785D01*
X209692537Y-62406094D01*
X209751502Y-62295780D01*
X209787812Y-62176082D01*
X209800072Y-62051600D01*
X209797000Y-61737350D01*
X209638250Y-61578600D01*
X208389000Y-61578600D01*
X208135000Y-61578600D01*
X208115000Y-61578600D01*
X208115000Y-61324600D01*
X208135000Y-61324600D01*
X208135000Y-60375350D01*
X208389000Y-60375350D01*
X208389000Y-61324600D01*
X209638250Y-61324600D01*
X209797000Y-61165850D01*
X209800072Y-60851600D01*
X209787812Y-60727118D01*
X209751502Y-60607420D01*
X209692537Y-60497106D01*
X209613185Y-60400415D01*
X209516494Y-60321063D01*
X209406180Y-60262098D01*
X209286482Y-60225788D01*
X209162000Y-60213528D01*
X208547750Y-60216600D01*
X208389000Y-60375350D01*
X208135000Y-60375350D01*
X207976250Y-60216600D01*
X207362000Y-60213528D01*
X207237518Y-60225788D01*
X207117820Y-60262098D01*
X207007506Y-60321063D01*
X206962695Y-60357838D01*
X206959768Y-56798140D01*
X213141200Y-56798140D01*
X213141200Y-57090660D01*
X213198268Y-57377558D01*
X213310210Y-57647811D01*
X213472725Y-57891032D01*
X213679568Y-58097875D01*
X213853960Y-58214400D01*
X213679568Y-58330925D01*
X213472725Y-58537768D01*
X213310210Y-58780989D01*
X213198268Y-59051242D01*
X213141200Y-59338140D01*
X213141200Y-59630660D01*
X213198268Y-59917558D01*
X213310210Y-60187811D01*
X213472725Y-60431032D01*
X213679568Y-60637875D01*
X213922789Y-60800390D01*
X214193042Y-60912332D01*
X214479940Y-60969400D01*
X214772460Y-60969400D01*
X215059358Y-60912332D01*
X215329611Y-60800390D01*
X215572832Y-60637875D01*
X215779675Y-60431032D01*
X215896200Y-60256640D01*
X216012725Y-60431032D01*
X216219568Y-60637875D01*
X216462789Y-60800390D01*
X216733042Y-60912332D01*
X217019940Y-60969400D01*
X217312460Y-60969400D01*
X217599358Y-60912332D01*
X217869611Y-60800390D01*
X218112832Y-60637875D01*
X218237910Y-60512797D01*
X218857408Y-60512797D01*
X218935043Y-60761872D01*
X219199083Y-60887771D01*
X219482611Y-60959739D01*
X219774731Y-60975011D01*
X220064219Y-60932999D01*
X220339947Y-60835319D01*
X220477357Y-60761872D01*
X220554992Y-60512797D01*
X219706200Y-59664005D01*
X218857408Y-60512797D01*
X218237910Y-60512797D01*
X218319675Y-60431032D01*
X218435511Y-60257671D01*
X218677803Y-60333192D01*
X219526595Y-59484400D01*
X218677803Y-58635608D01*
X218435511Y-58711129D01*
X218319675Y-58537768D01*
X218112832Y-58330925D01*
X217938440Y-58214400D01*
X218112832Y-58097875D01*
X218319675Y-57891032D01*
X218436200Y-57716640D01*
X218552725Y-57891032D01*
X218759568Y-58097875D01*
X218932929Y-58213711D01*
X218857408Y-58456003D01*
X219706200Y-59304795D01*
X220554992Y-58456003D01*
X220479471Y-58213711D01*
X220652832Y-58097875D01*
X220859675Y-57891032D01*
X220976200Y-57716640D01*
X221092725Y-57891032D01*
X221299568Y-58097875D01*
X221473960Y-58214400D01*
X221299568Y-58330925D01*
X221092725Y-58537768D01*
X220976889Y-58711129D01*
X220734597Y-58635608D01*
X219885805Y-59484400D01*
X220734597Y-60333192D01*
X220976889Y-60257671D01*
X221092725Y-60431032D01*
X221299568Y-60637875D01*
X221542789Y-60800390D01*
X221813042Y-60912332D01*
X222099940Y-60969400D01*
X222392460Y-60969400D01*
X222679358Y-60912332D01*
X222949611Y-60800390D01*
X223192832Y-60637875D01*
X223399675Y-60431032D01*
X223516200Y-60256640D01*
X223632725Y-60431032D01*
X223839568Y-60637875D01*
X224082789Y-60800390D01*
X224353042Y-60912332D01*
X224639940Y-60969400D01*
X224932460Y-60969400D01*
X225219358Y-60912332D01*
X225489611Y-60800390D01*
X225732832Y-60637875D01*
X225939675Y-60431032D01*
X226102190Y-60187811D01*
X226214132Y-59917558D01*
X226271200Y-59630660D01*
X226271200Y-59338140D01*
X226214132Y-59051242D01*
X226102190Y-58780989D01*
X225939675Y-58537768D01*
X225732832Y-58330925D01*
X225558440Y-58214400D01*
X225732832Y-58097875D01*
X225939675Y-57891032D01*
X226102190Y-57647811D01*
X226214132Y-57377558D01*
X226260749Y-57143200D01*
X229833328Y-57143200D01*
X229836400Y-59757450D01*
X229995150Y-59916200D01*
X233244400Y-59916200D01*
X233244400Y-56666950D01*
X233085650Y-56508200D01*
X230471400Y-56505128D01*
X230346918Y-56517388D01*
X230227220Y-56553698D01*
X230116906Y-56612663D01*
X230020215Y-56692015D01*
X229940863Y-56788706D01*
X229881898Y-56899020D01*
X229845588Y-57018718D01*
X229833328Y-57143200D01*
X226260749Y-57143200D01*
X226271200Y-57090660D01*
X226271200Y-56798140D01*
X226214132Y-56511242D01*
X226102190Y-56240989D01*
X225939675Y-55997768D01*
X225732832Y-55790925D01*
X225489611Y-55628410D01*
X225219358Y-55516468D01*
X224932460Y-55459400D01*
X224639940Y-55459400D01*
X224353042Y-55516468D01*
X224082789Y-55628410D01*
X223839568Y-55790925D01*
X223632725Y-55997768D01*
X223516200Y-56172160D01*
X223399675Y-55997768D01*
X223192832Y-55790925D01*
X222949611Y-55628410D01*
X222679358Y-55516468D01*
X222392460Y-55459400D01*
X222099940Y-55459400D01*
X221813042Y-55516468D01*
X221542789Y-55628410D01*
X221299568Y-55790925D01*
X221092725Y-55997768D01*
X220976200Y-56172160D01*
X220859675Y-55997768D01*
X220652832Y-55790925D01*
X220409611Y-55628410D01*
X220139358Y-55516468D01*
X219852460Y-55459400D01*
X219559940Y-55459400D01*
X219273042Y-55516468D01*
X219002789Y-55628410D01*
X218759568Y-55790925D01*
X218552725Y-55997768D01*
X218436200Y-56172160D01*
X218319675Y-55997768D01*
X218112832Y-55790925D01*
X217869611Y-55628410D01*
X217599358Y-55516468D01*
X217312460Y-55459400D01*
X217019940Y-55459400D01*
X216733042Y-55516468D01*
X216462789Y-55628410D01*
X216219568Y-55790925D01*
X216012725Y-55997768D01*
X215896200Y-56172160D01*
X215779675Y-55997768D01*
X215572832Y-55790925D01*
X215329611Y-55628410D01*
X215059358Y-55516468D01*
X214772460Y-55459400D01*
X214479940Y-55459400D01*
X214193042Y-55516468D01*
X213922789Y-55628410D01*
X213679568Y-55790925D01*
X213472725Y-55997768D01*
X213310210Y-56240989D01*
X213198268Y-56511242D01*
X213141200Y-56798140D01*
X206959768Y-56798140D01*
X206957264Y-53754260D01*
X209615381Y-53754260D01*
X209647800Y-53757453D01*
X209680219Y-53754260D01*
X209777183Y-53744710D01*
X209901593Y-53706970D01*
X210016250Y-53645685D01*
X210116748Y-53563208D01*
X210199225Y-53462710D01*
X210260510Y-53348053D01*
X210298250Y-53223643D01*
X210310014Y-53104200D01*
X210476489Y-53104200D01*
X210657129Y-53068268D01*
X210827289Y-52997786D01*
X210980428Y-52895462D01*
X211019400Y-52856490D01*
X211058372Y-52895462D01*
X211211511Y-52997786D01*
X211381671Y-53068268D01*
X211562311Y-53104200D01*
X211746489Y-53104200D01*
X211927129Y-53068268D01*
X212097289Y-52997786D01*
X212250428Y-52895462D01*
X212289400Y-52856490D01*
X212328372Y-52895462D01*
X212481511Y-52997786D01*
X212651671Y-53068268D01*
X212832311Y-53104200D01*
X213016489Y-53104200D01*
X213197129Y-53068268D01*
X213367289Y-52997786D01*
X213520428Y-52895462D01*
X213559400Y-52856490D01*
X213598372Y-52895462D01*
X213751511Y-52997786D01*
X213921671Y-53068268D01*
X214102311Y-53104200D01*
X214286489Y-53104200D01*
X214467129Y-53068268D01*
X214637289Y-52997786D01*
X214790428Y-52895462D01*
X214829400Y-52856490D01*
X214868372Y-52895462D01*
X215021511Y-52997786D01*
X215191671Y-53068268D01*
X215372311Y-53104200D01*
X215514436Y-53104200D01*
X215525150Y-53212983D01*
X215562890Y-53337393D01*
X215624175Y-53452050D01*
X215706652Y-53552548D01*
X215807150Y-53635025D01*
X215921807Y-53696310D01*
X216046217Y-53734050D01*
X216143181Y-53743600D01*
X216175600Y-53746793D01*
X216208019Y-53743600D01*
X226404781Y-53743600D01*
X226437200Y-53746793D01*
X226469619Y-53743600D01*
X226566583Y-53734050D01*
X226690993Y-53696310D01*
X226805650Y-53635025D01*
X226906148Y-53552548D01*
X226988625Y-53452050D01*
X227049910Y-53337393D01*
X227087650Y-53212983D01*
X227098364Y-53104200D01*
X227265889Y-53104200D01*
X227446529Y-53068268D01*
X227616689Y-52997786D01*
X227769828Y-52895462D01*
X227808800Y-52856490D01*
X227847772Y-52895462D01*
X228000911Y-52997786D01*
X228171071Y-53068268D01*
X228351711Y-53104200D01*
X228535889Y-53104200D01*
X228716529Y-53068268D01*
X228886689Y-52997786D01*
X229039828Y-52895462D01*
X229078800Y-52856490D01*
X229117772Y-52895462D01*
X229270911Y-52997786D01*
X229441071Y-53068268D01*
X229621711Y-53104200D01*
X229805889Y-53104200D01*
X229986529Y-53068268D01*
X230156689Y-52997786D01*
X230309828Y-52895462D01*
X230348800Y-52856490D01*
X230387772Y-52895462D01*
X230540911Y-52997786D01*
X230711071Y-53068268D01*
X230891711Y-53104200D01*
X231075889Y-53104200D01*
X231256529Y-53068268D01*
X231426689Y-52997786D01*
X231579828Y-52895462D01*
X231618800Y-52856490D01*
X231657772Y-52895462D01*
%TA.AperFunction,Conductor*%
D25*
G36*
X231657772Y-52895462D02*
G01*
X231810911Y-52997786D01*
X231981071Y-53068268D01*
X232161711Y-53104200D01*
X232303836Y-53104200D01*
X232314550Y-53212983D01*
X232352290Y-53337393D01*
X232413575Y-53452050D01*
X232496052Y-53552548D01*
X232596550Y-53635025D01*
X232711207Y-53696310D01*
X232835617Y-53734050D01*
X232932581Y-53743600D01*
X232965000Y-53746793D01*
X232997419Y-53743600D01*
X235650181Y-53743600D01*
X235650181Y-56505858D01*
X233657150Y-56508200D01*
X233498400Y-56666950D01*
X233498400Y-59916200D01*
X233518400Y-59916200D01*
X233518400Y-60170200D01*
X233498400Y-60170200D01*
X233498400Y-63419450D01*
X233657150Y-63578200D01*
X235650181Y-63580542D01*
X235650180Y-79206244D01*
X233156040Y-79201061D01*
X231589400Y-77634422D01*
X231589400Y-77167854D01*
X231621605Y-77119656D01*
X231699626Y-76931298D01*
X231739400Y-76731339D01*
X231739400Y-76527461D01*
X231699626Y-76327502D01*
X231621605Y-76139144D01*
X231508337Y-75969626D01*
X231364174Y-75825463D01*
X231194656Y-75712195D01*
X231006298Y-75634174D01*
X230836642Y-75600428D01*
X230841036Y-75584421D01*
X230063240Y-74806625D01*
X229285444Y-75584421D01*
X229351039Y-75823346D01*
X229598115Y-75939303D01*
X229863067Y-76004829D01*
X229876526Y-76005450D01*
X229787195Y-76139144D01*
X229709174Y-76327502D01*
X229669400Y-76527461D01*
X229669400Y-76731339D01*
X229709174Y-76931298D01*
X229787195Y-77119656D01*
X229819400Y-77167855D01*
X229819401Y-77957521D01*
X229815119Y-78001000D01*
X229832205Y-78174490D01*
X229882812Y-78341313D01*
X229964990Y-78495059D01*
X230047868Y-78596046D01*
X230047871Y-78596049D01*
X230075584Y-78629817D01*
X230109351Y-78657529D01*
X230647671Y-79195849D01*
X228344000Y-79191062D01*
X228344000Y-77920018D01*
X228348040Y-77878999D01*
X228331918Y-77715311D01*
X228284172Y-77557913D01*
X228206636Y-77412854D01*
X228142128Y-77334251D01*
X228102291Y-77285709D01*
X228070428Y-77259560D01*
X225510358Y-74699490D01*
X228672853Y-74699490D01*
X228713707Y-74969349D01*
X228806423Y-75226052D01*
X228866914Y-75339221D01*
X229105839Y-75404816D01*
X229883635Y-74627020D01*
X230242845Y-74627020D01*
X231020641Y-75404816D01*
X231259566Y-75339221D01*
X231375523Y-75092145D01*
X231441049Y-74827193D01*
X231453627Y-74554550D01*
X231412773Y-74284691D01*
X231320057Y-74027988D01*
X231259566Y-73914819D01*
X231020641Y-73849224D01*
X230242845Y-74627020D01*
X229883635Y-74627020D01*
X229105839Y-73849224D01*
X228866914Y-73914819D01*
X228750957Y-74161895D01*
X228685431Y-74426847D01*
X228672853Y-74699490D01*
X225510358Y-74699490D01*
X224251500Y-73440633D01*
X224251500Y-73018227D01*
X224285623Y-72990223D01*
X224329000Y-72937368D01*
X224372377Y-72990223D01*
X224505058Y-73099112D01*
X224656433Y-73180023D01*
X224820684Y-73229848D01*
X224991500Y-73246672D01*
X225491500Y-73246672D01*
X225662316Y-73229848D01*
X225826567Y-73180023D01*
X225977942Y-73099112D01*
X226110623Y-72990223D01*
X226128369Y-72968600D01*
X228985883Y-72968600D01*
X228986998Y-72970269D01*
X229179991Y-73163262D01*
X229406927Y-73314896D01*
X229504936Y-73355493D01*
X229464208Y-73370203D01*
X229351039Y-73430694D01*
X229285444Y-73669619D01*
X230063240Y-74447415D01*
X230841036Y-73669619D01*
X230775441Y-73430694D01*
X230618177Y-73356887D01*
X230719553Y-73314896D01*
X230946489Y-73163262D01*
X231139482Y-72970269D01*
X231291116Y-72743333D01*
X231395563Y-72491176D01*
X231448810Y-72223487D01*
X231448810Y-71950553D01*
X231395563Y-71682864D01*
X231291116Y-71430707D01*
X231139482Y-71203771D01*
X231006731Y-71071020D01*
X231139482Y-70938269D01*
X231291116Y-70711333D01*
X231395563Y-70459176D01*
X231448810Y-70191487D01*
X231448810Y-69918553D01*
X231395563Y-69650864D01*
X231291116Y-69398707D01*
X231139482Y-69171771D01*
X230946489Y-68978778D01*
X230719553Y-68827144D01*
X230617857Y-68785020D01*
X230719553Y-68742896D01*
X230946489Y-68591262D01*
X231139482Y-68398269D01*
X231291116Y-68171333D01*
X231395563Y-67919176D01*
X231448810Y-67651487D01*
X231448810Y-67378553D01*
X231395563Y-67110864D01*
X231291116Y-66858707D01*
X231139482Y-66631771D01*
X230946489Y-66438778D01*
X230719553Y-66287144D01*
X230467396Y-66182697D01*
X230199707Y-66129450D01*
X229929248Y-66129450D01*
X229450746Y-65650948D01*
X229450742Y-65650943D01*
X229450740Y-65650941D01*
X229423027Y-65617173D01*
X229389259Y-65589460D01*
X228536100Y-64736302D01*
X228536100Y-63789769D01*
X228540381Y-63746300D01*
X228536100Y-63702831D01*
X228536100Y-63702823D01*
X228523295Y-63572810D01*
X228472689Y-63405987D01*
X228390511Y-63252241D01*
X228344036Y-63195611D01*
X228307632Y-63151253D01*
X228307630Y-63151251D01*
X228279917Y-63117483D01*
X228246150Y-63089771D01*
X228099579Y-62943200D01*
X229833328Y-62943200D01*
X229845588Y-63067682D01*
X229881898Y-63187380D01*
X229940863Y-63297694D01*
X230020215Y-63394385D01*
X230116906Y-63473737D01*
X230227220Y-63532702D01*
X230346918Y-63569012D01*
X230471400Y-63581272D01*
X233085650Y-63578200D01*
X233244400Y-63419450D01*
X233244400Y-60170200D01*
X229995150Y-60170200D01*
X229836400Y-60328950D01*
X229833328Y-62943200D01*
X228099579Y-62943200D01*
X227017534Y-61861156D01*
X226989817Y-61827383D01*
X226855059Y-61716789D01*
X226701313Y-61634611D01*
X226534490Y-61584005D01*
X226404477Y-61571200D01*
X226404469Y-61571200D01*
X226361000Y-61566919D01*
X226317531Y-61571200D01*
X220030846Y-61571200D01*
X219932742Y-61490688D01*
X219781367Y-61409777D01*
X219617116Y-61359952D01*
X219446300Y-61343128D01*
X218946300Y-61343128D01*
X218775484Y-61359952D01*
X218611233Y-61409777D01*
X218459858Y-61490688D01*
X218327177Y-61599577D01*
X218283800Y-61652432D01*
X218240423Y-61599577D01*
X218107742Y-61490688D01*
X217956367Y-61409777D01*
X217792116Y-61359952D01*
X217621300Y-61343128D01*
X217121300Y-61343128D01*
X216950484Y-61359952D01*
X216786233Y-61409777D01*
X216634858Y-61490688D01*
X216536754Y-61571200D01*
X214923669Y-61571200D01*
X214880200Y-61566919D01*
X214836731Y-61571200D01*
X214836723Y-61571200D01*
X214706710Y-61584005D01*
X214539887Y-61634611D01*
X214386141Y-61716789D01*
X214251383Y-61827383D01*
X214223666Y-61861156D01*
X214218222Y-61866600D01*
X213164603Y-61866600D01*
X213156180Y-61862098D01*
X213036482Y-61825788D01*
X212912000Y-61813528D01*
X211362000Y-61813528D01*
X211237518Y-61825788D01*
X211117820Y-61862098D01*
X211007506Y-61921063D01*
X210910815Y-62000415D01*
X210831463Y-62097106D01*
X210772498Y-62207420D01*
X210736188Y-62327118D01*
X210723928Y-62451600D01*
X210723928Y-63051600D01*
X210736188Y-63176082D01*
X210759096Y-63251600D01*
X210736188Y-63327118D01*
X210723928Y-63451600D01*
X210727000Y-63465850D01*
X210885750Y-63624600D01*
X211086947Y-63624600D01*
X211117820Y-63641102D01*
X211237518Y-63677412D01*
X211362000Y-63689672D01*
X212912000Y-63689672D01*
X213036482Y-63677412D01*
X213156180Y-63641102D01*
X213164603Y-63636600D01*
X214541331Y-63636600D01*
X214584800Y-63640881D01*
X214628269Y-63636600D01*
X214628277Y-63636600D01*
X214758290Y-63623795D01*
X214925113Y-63573189D01*
X215078859Y-63491011D01*
X215213617Y-63380417D01*
X215241334Y-63346644D01*
X215246778Y-63341200D01*
X216536754Y-63341200D01*
X216634858Y-63421712D01*
X216786233Y-63502623D01*
X216950484Y-63552448D01*
X217121300Y-63569272D01*
X217621300Y-63569272D01*
X217792116Y-63552448D01*
X217956367Y-63502623D01*
X218107742Y-63421712D01*
X218240423Y-63312823D01*
X218283800Y-63259968D01*
X218327177Y-63312823D01*
X218459858Y-63421712D01*
X218611233Y-63502623D01*
X218775484Y-63552448D01*
X218946300Y-63569272D01*
X219446300Y-63569272D01*
X219617116Y-63552448D01*
X219781367Y-63502623D01*
X219932742Y-63421712D01*
X220030846Y-63341200D01*
X225994422Y-63341200D01*
X226766100Y-64112879D01*
X226766101Y-65059401D01*
X226761819Y-65102880D01*
X226778905Y-65276370D01*
X226829512Y-65443193D01*
X226911690Y-65596939D01*
X226994568Y-65697926D01*
X226994571Y-65697929D01*
X227022284Y-65731697D01*
X227056051Y-65759409D01*
X227542631Y-66245990D01*
X226451758Y-67336864D01*
X226451753Y-67336868D01*
X225638822Y-68149800D01*
X222111869Y-68149800D01*
X222068400Y-68145519D01*
X222024931Y-68149800D01*
X222024923Y-68149800D01*
X221909706Y-68161148D01*
X221894909Y-68162605D01*
X221867895Y-68170800D01*
X221728087Y-68213211D01*
X221574341Y-68295389D01*
X221574339Y-68295390D01*
X221574340Y-68295390D01*
X221473353Y-68378268D01*
X221473351Y-68378270D01*
X221439583Y-68405983D01*
X221411870Y-68439751D01*
X220709322Y-69142300D01*
X219197277Y-69142300D01*
X219083942Y-69049288D01*
X218932567Y-68968377D01*
X218768316Y-68918552D01*
X218597500Y-68901728D01*
X218122500Y-68901728D01*
X217951684Y-68918552D01*
X217787433Y-68968377D01*
X217636058Y-69049288D01*
X217503377Y-69158177D01*
X217394488Y-69290858D01*
X217313577Y-69442233D01*
X217263752Y-69606484D01*
X217246928Y-69777300D01*
X217246928Y-70277300D01*
X217263752Y-70448116D01*
X217313577Y-70612367D01*
X217394488Y-70763742D01*
X217503377Y-70896423D01*
X217556232Y-70939800D01*
X217503377Y-70983177D01*
X217394488Y-71115858D01*
X217313577Y-71267233D01*
X217263752Y-71431484D01*
X217246928Y-71602300D01*
X217246928Y-72102300D01*
X217263752Y-72273116D01*
X217313577Y-72437367D01*
X217394488Y-72588742D01*
X217475001Y-72686846D01*
X217475001Y-72910020D01*
X216088422Y-74296600D01*
X215228469Y-74296600D01*
X215185000Y-74292319D01*
X215141531Y-74296600D01*
X215141523Y-74296600D01*
X215011510Y-74309405D01*
X214844687Y-74360011D01*
X214807681Y-74379791D01*
X214690941Y-74442189D01*
X214589953Y-74525068D01*
X214589951Y-74525070D01*
X214556183Y-74552783D01*
X214528470Y-74586551D01*
X212371188Y-76743833D01*
X212361861Y-76678917D01*
X212262932Y-76398406D01*
X212186228Y-76254905D01*
X211934600Y-76174245D01*
X211067965Y-77040880D01*
X211082108Y-77055023D01*
X210902503Y-77234628D01*
X210888360Y-77220485D01*
X210021725Y-78087120D01*
X210102385Y-78338748D01*
X210370689Y-78467147D01*
X210591494Y-78523527D01*
X209962158Y-79152864D01*
X206978146Y-79146663D01*
X206976470Y-77108423D01*
X209372556Y-77108423D01*
X209414859Y-77402843D01*
X209513788Y-77683354D01*
X209590492Y-77826855D01*
X209842120Y-77907515D01*
X210708755Y-77040880D01*
X209842120Y-76174245D01*
X209590492Y-76254905D01*
X209462093Y-76523209D01*
X209388505Y-76811406D01*
X209372556Y-77108423D01*
X206976470Y-77108423D01*
X206975555Y-75994640D01*
X210021725Y-75994640D01*
X210888360Y-76861275D01*
X211754995Y-75994640D01*
X211674335Y-75743012D01*
X211406031Y-75614613D01*
X211117834Y-75541025D01*
X210820817Y-75525076D01*
X210526397Y-75567379D01*
X210245886Y-75666308D01*
X210102385Y-75743012D01*
X210021725Y-75994640D01*
X206975555Y-75994640D01*
X206973699Y-73738880D01*
X208137295Y-73738880D01*
X208168682Y-74057553D01*
X208261635Y-74363980D01*
X208412583Y-74646385D01*
X208615726Y-74893914D01*
X208863255Y-75097057D01*
X209145660Y-75248005D01*
X209452087Y-75340958D01*
X209690906Y-75364480D01*
X211831814Y-75364480D01*
X212070633Y-75340958D01*
X212377060Y-75248005D01*
X212659465Y-75097057D01*
X212906994Y-74893914D01*
X213110137Y-74646385D01*
X213261085Y-74363980D01*
X213354038Y-74057553D01*
X213385425Y-73738880D01*
X213354038Y-73420207D01*
X213261085Y-73113780D01*
X213110137Y-72831375D01*
X212906994Y-72583846D01*
X212659465Y-72380703D01*
X212377060Y-72229755D01*
X212070633Y-72136802D01*
X211831814Y-72113280D01*
X209690906Y-72113280D01*
X209452087Y-72136802D01*
X209145660Y-72229755D01*
X208863255Y-72380703D01*
X208615726Y-72583846D01*
X208412583Y-72831375D01*
X208261635Y-73113780D01*
X208168682Y-73420207D01*
X208137295Y-73738880D01*
X206973699Y-73738880D01*
X206969587Y-68738880D01*
X208137295Y-68738880D01*
X208168682Y-69057553D01*
X208261635Y-69363980D01*
X208412583Y-69646385D01*
X208615726Y-69893914D01*
X208863255Y-70097057D01*
X209145660Y-70248005D01*
X209452087Y-70340958D01*
X209690906Y-70364480D01*
X211831814Y-70364480D01*
X212070633Y-70340958D01*
X212377060Y-70248005D01*
X212659465Y-70097057D01*
X212906994Y-69893914D01*
X213110137Y-69646385D01*
X213261085Y-69363980D01*
X213354038Y-69057553D01*
X213385425Y-68738880D01*
X213354038Y-68420207D01*
X213261085Y-68113780D01*
X213110137Y-67831375D01*
X212906994Y-67583846D01*
X212659465Y-67380703D01*
X212377060Y-67229755D01*
X212070633Y-67136802D01*
X211831814Y-67113280D01*
X209690906Y-67113280D01*
X209452087Y-67136802D01*
X209145660Y-67229755D01*
X208863255Y-67380703D01*
X208615726Y-67583846D01*
X208412583Y-67831375D01*
X208261635Y-68113780D01*
X208168682Y-68420207D01*
X208137295Y-68738880D01*
X206969587Y-68738880D01*
X206967457Y-66149270D01*
X207007506Y-66182137D01*
X207117820Y-66241102D01*
X207237518Y-66277412D01*
X207362000Y-66289672D01*
X207976250Y-66286600D01*
X208135000Y-66127850D01*
X208135000Y-65178600D01*
X208389000Y-65178600D01*
X208389000Y-66127850D01*
X208547750Y-66286600D01*
X209162000Y-66289672D01*
X209286482Y-66277412D01*
X209406180Y-66241102D01*
X209516494Y-66182137D01*
X209613185Y-66102785D01*
X209692537Y-66006094D01*
X209751502Y-65895780D01*
X209787812Y-65776082D01*
X209800072Y-65651600D01*
X209797000Y-65337350D01*
X209638250Y-65178600D01*
X208389000Y-65178600D01*
X208135000Y-65178600D01*
X208115000Y-65178600D01*
X208115000Y-65102880D01*
X214843575Y-65102880D01*
X214872247Y-65393991D01*
X214957161Y-65673914D01*
X215095054Y-65931894D01*
X215280626Y-66158014D01*
X215506746Y-66343586D01*
X215764726Y-66481479D01*
X216044649Y-66566393D01*
X216262810Y-66587880D01*
X216435910Y-66587880D01*
X216654071Y-66566393D01*
X216933994Y-66481479D01*
X217191974Y-66343586D01*
X217418094Y-66158014D01*
X217603666Y-65931894D01*
X217619360Y-65902533D01*
X217635054Y-65931894D01*
X217820626Y-66158014D01*
X218046746Y-66343586D01*
X218304726Y-66481479D01*
X218584649Y-66566393D01*
X218802810Y-66587880D01*
X218975910Y-66587880D01*
X219194071Y-66566393D01*
X219473994Y-66481479D01*
X219731974Y-66343586D01*
X219958094Y-66158014D01*
X220143666Y-65931894D01*
X220162886Y-65895937D01*
X220327763Y-66112809D01*
X220545696Y-66305661D01*
X220797065Y-66452291D01*
X221072210Y-66547064D01*
X221302360Y-66424277D01*
X221302360Y-65229880D01*
X221282360Y-65229880D01*
X221282360Y-64975880D01*
X221302360Y-64975880D01*
X221302360Y-63781483D01*
X221556360Y-63781483D01*
X221556360Y-64975880D01*
X221576360Y-64975880D01*
X221576360Y-65229880D01*
X221556360Y-65229880D01*
X221556360Y-66424277D01*
X221786510Y-66547064D01*
X222061655Y-66452291D01*
X222313024Y-66305661D01*
X222499220Y-66140893D01*
X222516258Y-66197060D01*
X222575223Y-66307374D01*
X222654575Y-66404065D01*
X222751266Y-66483417D01*
X222861580Y-66542382D01*
X222981278Y-66578692D01*
X223105760Y-66590952D01*
X224832960Y-66590952D01*
X224957442Y-66578692D01*
X225077140Y-66542382D01*
X225187454Y-66483417D01*
X225284145Y-66404065D01*
X225363497Y-66307374D01*
X225422462Y-66197060D01*
X225458772Y-66077362D01*
X225471032Y-65952880D01*
X225471032Y-64252880D01*
X225458772Y-64128398D01*
X225422462Y-64008700D01*
X225363497Y-63898386D01*
X225284145Y-63801695D01*
X225187454Y-63722343D01*
X225077140Y-63663378D01*
X224957442Y-63627068D01*
X224832960Y-63614808D01*
X223105760Y-63614808D01*
X222981278Y-63627068D01*
X222861580Y-63663378D01*
X222751266Y-63722343D01*
X222654575Y-63801695D01*
X222575223Y-63898386D01*
X222516258Y-64008700D01*
X222499220Y-64064867D01*
X222313024Y-63900099D01*
X222061655Y-63753469D01*
X221786510Y-63658696D01*
X221556360Y-63781483D01*
X221302360Y-63781483D01*
X221072210Y-63658696D01*
X220797065Y-63753469D01*
X220545696Y-63900099D01*
X220327763Y-64092951D01*
X220162886Y-64309823D01*
X220143666Y-64273866D01*
X219958094Y-64047746D01*
X219731974Y-63862174D01*
X219473994Y-63724281D01*
X219194071Y-63639367D01*
X218975910Y-63617880D01*
X218802810Y-63617880D01*
X218584649Y-63639367D01*
X218304726Y-63724281D01*
X218046746Y-63862174D01*
X217820626Y-64047746D01*
X217635054Y-64273866D01*
X217619360Y-64303227D01*
X217603666Y-64273866D01*
X217418094Y-64047746D01*
X217191974Y-63862174D01*
X216933994Y-63724281D01*
X216654071Y-63639367D01*
X216435910Y-63617880D01*
X216262810Y-63617880D01*
X216044649Y-63639367D01*
X215764726Y-63724281D01*
X215506746Y-63862174D01*
X215280626Y-64047746D01*
X215095054Y-64273866D01*
X214957161Y-64531846D01*
X214872247Y-64811769D01*
X214843575Y-65102880D01*
X208115000Y-65102880D01*
X208115000Y-64924600D01*
X208135000Y-64924600D01*
X208135000Y-63975350D01*
X208389000Y-63975350D01*
X208389000Y-64924600D01*
X209638250Y-64924600D01*
X209797000Y-64765850D01*
X209800072Y-64451600D01*
X209787812Y-64327118D01*
X209751502Y-64207420D01*
X209692537Y-64097106D01*
X209655192Y-64051600D01*
X210723928Y-64051600D01*
X210736188Y-64176082D01*
X210772498Y-64295780D01*
X210831463Y-64406094D01*
X210910815Y-64502785D01*
X211007506Y-64582137D01*
X211117820Y-64641102D01*
X211237518Y-64677412D01*
X211362000Y-64689672D01*
X211851250Y-64686600D01*
X212010000Y-64527850D01*
X212010000Y-63878600D01*
X212264000Y-63878600D01*
X212264000Y-64527850D01*
X212422750Y-64686600D01*
X212912000Y-64689672D01*
X213036482Y-64677412D01*
X213156180Y-64641102D01*
X213266494Y-64582137D01*
X213363185Y-64502785D01*
X213442537Y-64406094D01*
X213501502Y-64295780D01*
X213537812Y-64176082D01*
X213550072Y-64051600D01*
X213547000Y-64037350D01*
X213388250Y-63878600D01*
X212264000Y-63878600D01*
X212010000Y-63878600D01*
X210885750Y-63878600D01*
X210727000Y-64037350D01*
X210723928Y-64051600D01*
X209655192Y-64051600D01*
X209613185Y-64000415D01*
X209516494Y-63921063D01*
X209406180Y-63862098D01*
X209286482Y-63825788D01*
X209162000Y-63813528D01*
X208547750Y-63816600D01*
X208389000Y-63975350D01*
X208135000Y-63975350D01*
X207976250Y-63816600D01*
X207362000Y-63813528D01*
X207237518Y-63825788D01*
X207117820Y-63862098D01*
X207007506Y-63921063D01*
X206965653Y-63955410D01*
X206964495Y-62546839D01*
X207007506Y-62582137D01*
X207117820Y-62641102D01*
X207237518Y-62677412D01*
X207362000Y-62689672D01*
X207976250Y-62686600D01*
X208135000Y-62527850D01*
X208135000Y-61578600D01*
X208389000Y-61578600D01*
X208389000Y-62527850D01*
X208547750Y-62686600D01*
X209162000Y-62689672D01*
X209286482Y-62677412D01*
X209406180Y-62641102D01*
X209516494Y-62582137D01*
X209613185Y-62502785D01*
X209692537Y-62406094D01*
X209751502Y-62295780D01*
X209787812Y-62176082D01*
X209800072Y-62051600D01*
X209797000Y-61737350D01*
X209638250Y-61578600D01*
X208389000Y-61578600D01*
X208135000Y-61578600D01*
X208115000Y-61578600D01*
X208115000Y-61324600D01*
X208135000Y-61324600D01*
X208135000Y-60375350D01*
X208389000Y-60375350D01*
X208389000Y-61324600D01*
X209638250Y-61324600D01*
X209797000Y-61165850D01*
X209800072Y-60851600D01*
X209787812Y-60727118D01*
X209751502Y-60607420D01*
X209692537Y-60497106D01*
X209613185Y-60400415D01*
X209516494Y-60321063D01*
X209406180Y-60262098D01*
X209286482Y-60225788D01*
X209162000Y-60213528D01*
X208547750Y-60216600D01*
X208389000Y-60375350D01*
X208135000Y-60375350D01*
X207976250Y-60216600D01*
X207362000Y-60213528D01*
X207237518Y-60225788D01*
X207117820Y-60262098D01*
X207007506Y-60321063D01*
X206962695Y-60357838D01*
X206959768Y-56798140D01*
X213141200Y-56798140D01*
X213141200Y-57090660D01*
X213198268Y-57377558D01*
X213310210Y-57647811D01*
X213472725Y-57891032D01*
X213679568Y-58097875D01*
X213853960Y-58214400D01*
X213679568Y-58330925D01*
X213472725Y-58537768D01*
X213310210Y-58780989D01*
X213198268Y-59051242D01*
X213141200Y-59338140D01*
X213141200Y-59630660D01*
X213198268Y-59917558D01*
X213310210Y-60187811D01*
X213472725Y-60431032D01*
X213679568Y-60637875D01*
X213922789Y-60800390D01*
X214193042Y-60912332D01*
X214479940Y-60969400D01*
X214772460Y-60969400D01*
X215059358Y-60912332D01*
X215329611Y-60800390D01*
X215572832Y-60637875D01*
X215779675Y-60431032D01*
X215896200Y-60256640D01*
X216012725Y-60431032D01*
X216219568Y-60637875D01*
X216462789Y-60800390D01*
X216733042Y-60912332D01*
X217019940Y-60969400D01*
X217312460Y-60969400D01*
X217599358Y-60912332D01*
X217869611Y-60800390D01*
X218112832Y-60637875D01*
X218237910Y-60512797D01*
X218857408Y-60512797D01*
X218935043Y-60761872D01*
X219199083Y-60887771D01*
X219482611Y-60959739D01*
X219774731Y-60975011D01*
X220064219Y-60932999D01*
X220339947Y-60835319D01*
X220477357Y-60761872D01*
X220554992Y-60512797D01*
X219706200Y-59664005D01*
X218857408Y-60512797D01*
X218237910Y-60512797D01*
X218319675Y-60431032D01*
X218435511Y-60257671D01*
X218677803Y-60333192D01*
X219526595Y-59484400D01*
X218677803Y-58635608D01*
X218435511Y-58711129D01*
X218319675Y-58537768D01*
X218112832Y-58330925D01*
X217938440Y-58214400D01*
X218112832Y-58097875D01*
X218319675Y-57891032D01*
X218436200Y-57716640D01*
X218552725Y-57891032D01*
X218759568Y-58097875D01*
X218932929Y-58213711D01*
X218857408Y-58456003D01*
X219706200Y-59304795D01*
X220554992Y-58456003D01*
X220479471Y-58213711D01*
X220652832Y-58097875D01*
X220859675Y-57891032D01*
X220976200Y-57716640D01*
X221092725Y-57891032D01*
X221299568Y-58097875D01*
X221473960Y-58214400D01*
X221299568Y-58330925D01*
X221092725Y-58537768D01*
X220976889Y-58711129D01*
X220734597Y-58635608D01*
X219885805Y-59484400D01*
X220734597Y-60333192D01*
X220976889Y-60257671D01*
X221092725Y-60431032D01*
X221299568Y-60637875D01*
X221542789Y-60800390D01*
X221813042Y-60912332D01*
X222099940Y-60969400D01*
X222392460Y-60969400D01*
X222679358Y-60912332D01*
X222949611Y-60800390D01*
X223192832Y-60637875D01*
X223399675Y-60431032D01*
X223516200Y-60256640D01*
X223632725Y-60431032D01*
X223839568Y-60637875D01*
X224082789Y-60800390D01*
X224353042Y-60912332D01*
X224639940Y-60969400D01*
X224932460Y-60969400D01*
X225219358Y-60912332D01*
X225489611Y-60800390D01*
X225732832Y-60637875D01*
X225939675Y-60431032D01*
X226102190Y-60187811D01*
X226214132Y-59917558D01*
X226271200Y-59630660D01*
X226271200Y-59338140D01*
X226214132Y-59051242D01*
X226102190Y-58780989D01*
X225939675Y-58537768D01*
X225732832Y-58330925D01*
X225558440Y-58214400D01*
X225732832Y-58097875D01*
X225939675Y-57891032D01*
X226102190Y-57647811D01*
X226214132Y-57377558D01*
X226260749Y-57143200D01*
X229833328Y-57143200D01*
X229836400Y-59757450D01*
X229995150Y-59916200D01*
X233244400Y-59916200D01*
X233244400Y-56666950D01*
X233085650Y-56508200D01*
X230471400Y-56505128D01*
X230346918Y-56517388D01*
X230227220Y-56553698D01*
X230116906Y-56612663D01*
X230020215Y-56692015D01*
X229940863Y-56788706D01*
X229881898Y-56899020D01*
X229845588Y-57018718D01*
X229833328Y-57143200D01*
X226260749Y-57143200D01*
X226271200Y-57090660D01*
X226271200Y-56798140D01*
X226214132Y-56511242D01*
X226102190Y-56240989D01*
X225939675Y-55997768D01*
X225732832Y-55790925D01*
X225489611Y-55628410D01*
X225219358Y-55516468D01*
X224932460Y-55459400D01*
X224639940Y-55459400D01*
X224353042Y-55516468D01*
X224082789Y-55628410D01*
X223839568Y-55790925D01*
X223632725Y-55997768D01*
X223516200Y-56172160D01*
X223399675Y-55997768D01*
X223192832Y-55790925D01*
X222949611Y-55628410D01*
X222679358Y-55516468D01*
X222392460Y-55459400D01*
X222099940Y-55459400D01*
X221813042Y-55516468D01*
X221542789Y-55628410D01*
X221299568Y-55790925D01*
X221092725Y-55997768D01*
X220976200Y-56172160D01*
X220859675Y-55997768D01*
X220652832Y-55790925D01*
X220409611Y-55628410D01*
X220139358Y-55516468D01*
X219852460Y-55459400D01*
X219559940Y-55459400D01*
X219273042Y-55516468D01*
X219002789Y-55628410D01*
X218759568Y-55790925D01*
X218552725Y-55997768D01*
X218436200Y-56172160D01*
X218319675Y-55997768D01*
X218112832Y-55790925D01*
X217869611Y-55628410D01*
X217599358Y-55516468D01*
X217312460Y-55459400D01*
X217019940Y-55459400D01*
X216733042Y-55516468D01*
X216462789Y-55628410D01*
X216219568Y-55790925D01*
X216012725Y-55997768D01*
X215896200Y-56172160D01*
X215779675Y-55997768D01*
X215572832Y-55790925D01*
X215329611Y-55628410D01*
X215059358Y-55516468D01*
X214772460Y-55459400D01*
X214479940Y-55459400D01*
X214193042Y-55516468D01*
X213922789Y-55628410D01*
X213679568Y-55790925D01*
X213472725Y-55997768D01*
X213310210Y-56240989D01*
X213198268Y-56511242D01*
X213141200Y-56798140D01*
X206959768Y-56798140D01*
X206957264Y-53754260D01*
X209615381Y-53754260D01*
X209647800Y-53757453D01*
X209680219Y-53754260D01*
X209777183Y-53744710D01*
X209901593Y-53706970D01*
X210016250Y-53645685D01*
X210116748Y-53563208D01*
X210199225Y-53462710D01*
X210260510Y-53348053D01*
X210298250Y-53223643D01*
X210310014Y-53104200D01*
X210476489Y-53104200D01*
X210657129Y-53068268D01*
X210827289Y-52997786D01*
X210980428Y-52895462D01*
X211019400Y-52856490D01*
X211058372Y-52895462D01*
X211211511Y-52997786D01*
X211381671Y-53068268D01*
X211562311Y-53104200D01*
X211746489Y-53104200D01*
X211927129Y-53068268D01*
X212097289Y-52997786D01*
X212250428Y-52895462D01*
X212289400Y-52856490D01*
X212328372Y-52895462D01*
X212481511Y-52997786D01*
X212651671Y-53068268D01*
X212832311Y-53104200D01*
X213016489Y-53104200D01*
X213197129Y-53068268D01*
X213367289Y-52997786D01*
X213520428Y-52895462D01*
X213559400Y-52856490D01*
X213598372Y-52895462D01*
X213751511Y-52997786D01*
X213921671Y-53068268D01*
X214102311Y-53104200D01*
X214286489Y-53104200D01*
X214467129Y-53068268D01*
X214637289Y-52997786D01*
X214790428Y-52895462D01*
X214829400Y-52856490D01*
X214868372Y-52895462D01*
X215021511Y-52997786D01*
X215191671Y-53068268D01*
X215372311Y-53104200D01*
X215514436Y-53104200D01*
X215525150Y-53212983D01*
X215562890Y-53337393D01*
X215624175Y-53452050D01*
X215706652Y-53552548D01*
X215807150Y-53635025D01*
X215921807Y-53696310D01*
X216046217Y-53734050D01*
X216143181Y-53743600D01*
X216175600Y-53746793D01*
X216208019Y-53743600D01*
X226404781Y-53743600D01*
X226437200Y-53746793D01*
X226469619Y-53743600D01*
X226566583Y-53734050D01*
X226690993Y-53696310D01*
X226805650Y-53635025D01*
X226906148Y-53552548D01*
X226988625Y-53452050D01*
X227049910Y-53337393D01*
X227087650Y-53212983D01*
X227098364Y-53104200D01*
X227265889Y-53104200D01*
X227446529Y-53068268D01*
X227616689Y-52997786D01*
X227769828Y-52895462D01*
X227808800Y-52856490D01*
X227847772Y-52895462D01*
X228000911Y-52997786D01*
X228171071Y-53068268D01*
X228351711Y-53104200D01*
X228535889Y-53104200D01*
X228716529Y-53068268D01*
X228886689Y-52997786D01*
X229039828Y-52895462D01*
X229078800Y-52856490D01*
X229117772Y-52895462D01*
X229270911Y-52997786D01*
X229441071Y-53068268D01*
X229621711Y-53104200D01*
X229805889Y-53104200D01*
X229986529Y-53068268D01*
X230156689Y-52997786D01*
X230309828Y-52895462D01*
X230348800Y-52856490D01*
X230387772Y-52895462D01*
X230540911Y-52997786D01*
X230711071Y-53068268D01*
X230891711Y-53104200D01*
X231075889Y-53104200D01*
X231256529Y-53068268D01*
X231426689Y-52997786D01*
X231579828Y-52895462D01*
X231618800Y-52856490D01*
X231657772Y-52895462D01*
G37*
%TD.AperFunction*%
D24*
X221436601Y-73449114D02*
X221432560Y-73490142D01*
X221448682Y-73653830D01*
X221496428Y-73811228D01*
X221570704Y-73950188D01*
X221573965Y-73956288D01*
X221678310Y-74083433D01*
X221710174Y-74109583D01*
X225874000Y-78273410D01*
X225874000Y-79185929D01*
X222794000Y-79179529D01*
X222794000Y-76869066D01*
X222798281Y-76825599D01*
X222794000Y-76782133D01*
X222794000Y-76782123D01*
X222781195Y-76652110D01*
X222730589Y-76485287D01*
X222648411Y-76331541D01*
X222537817Y-76196783D01*
X222504049Y-76169070D01*
X221087535Y-74752557D01*
X221087531Y-74752552D01*
X220611135Y-74276157D01*
X220599826Y-74219302D01*
X220521805Y-74030944D01*
X220408537Y-73861426D01*
X220264374Y-73717263D01*
X220094856Y-73603995D01*
X219906498Y-73525974D01*
X219870405Y-73518795D01*
X219863226Y-73482702D01*
X219785205Y-73294344D01*
X219671937Y-73124826D01*
X219527774Y-72980663D01*
X219358256Y-72867395D01*
X219245000Y-72820482D01*
X219245000Y-72686846D01*
X219325512Y-72588742D01*
X219406423Y-72437367D01*
X219456248Y-72273116D01*
X219473072Y-72102300D01*
X219473072Y-71602300D01*
X219456248Y-71431484D01*
X219406423Y-71267233D01*
X219325512Y-71115858D01*
X219216623Y-70983177D01*
X219163768Y-70939800D01*
X219197277Y-70912300D01*
X221032431Y-70912300D01*
X221075900Y-70916581D01*
X221119369Y-70912300D01*
X221119377Y-70912300D01*
X221249390Y-70899495D01*
X221416213Y-70848889D01*
X221436600Y-70837992D01*
X221436601Y-73449114D01*
%TA.AperFunction,Conductor*%
D25*
G36*
X221436601Y-73449114D02*
G01*
X221432560Y-73490142D01*
X221448682Y-73653830D01*
X221496428Y-73811228D01*
X221570704Y-73950188D01*
X221573965Y-73956288D01*
X221678310Y-74083433D01*
X221710174Y-74109583D01*
X225874000Y-78273410D01*
X225874000Y-79185929D01*
X222794000Y-79179529D01*
X222794000Y-76869066D01*
X222798281Y-76825599D01*
X222794000Y-76782133D01*
X222794000Y-76782123D01*
X222781195Y-76652110D01*
X222730589Y-76485287D01*
X222648411Y-76331541D01*
X222537817Y-76196783D01*
X222504049Y-76169070D01*
X221087535Y-74752557D01*
X221087531Y-74752552D01*
X220611135Y-74276157D01*
X220599826Y-74219302D01*
X220521805Y-74030944D01*
X220408537Y-73861426D01*
X220264374Y-73717263D01*
X220094856Y-73603995D01*
X219906498Y-73525974D01*
X219870405Y-73518795D01*
X219863226Y-73482702D01*
X219785205Y-73294344D01*
X219671937Y-73124826D01*
X219527774Y-72980663D01*
X219358256Y-72867395D01*
X219245000Y-72820482D01*
X219245000Y-72686846D01*
X219325512Y-72588742D01*
X219406423Y-72437367D01*
X219456248Y-72273116D01*
X219473072Y-72102300D01*
X219473072Y-71602300D01*
X219456248Y-71431484D01*
X219406423Y-71267233D01*
X219325512Y-71115858D01*
X219216623Y-70983177D01*
X219163768Y-70939800D01*
X219197277Y-70912300D01*
X221032431Y-70912300D01*
X221075900Y-70916581D01*
X221119369Y-70912300D01*
X221119377Y-70912300D01*
X221249390Y-70899495D01*
X221416213Y-70848889D01*
X221436600Y-70837992D01*
X221436601Y-73449114D01*
G37*
%TD.AperFunction*%
D24*
X218377744Y-74701805D02*
X218566102Y-74779826D01*
X218602195Y-74787005D01*
X218609374Y-74823098D01*
X218687395Y-75011456D01*
X218800663Y-75180974D01*
X218944826Y-75325137D01*
X219114344Y-75438405D01*
X219302702Y-75516426D01*
X219359557Y-75527735D01*
X219835952Y-76004131D01*
X219835957Y-76004135D01*
X221024001Y-77192180D01*
X221024001Y-79175851D01*
X212460124Y-79158055D01*
X215551579Y-76066600D01*
X216411531Y-76066600D01*
X216455000Y-76070881D01*
X216498469Y-76066600D01*
X216498477Y-76066600D01*
X216628490Y-76053795D01*
X216795313Y-76003189D01*
X216949059Y-75921011D01*
X217083817Y-75810417D01*
X217111534Y-75776644D01*
X218263026Y-74625153D01*
X218377744Y-74701805D01*
%TA.AperFunction,Conductor*%
D25*
G36*
X218377744Y-74701805D02*
G01*
X218566102Y-74779826D01*
X218602195Y-74787005D01*
X218609374Y-74823098D01*
X218687395Y-75011456D01*
X218800663Y-75180974D01*
X218944826Y-75325137D01*
X219114344Y-75438405D01*
X219302702Y-75516426D01*
X219359557Y-75527735D01*
X219835952Y-76004131D01*
X219835957Y-76004135D01*
X221024001Y-77192180D01*
X221024001Y-79175851D01*
X212460124Y-79158055D01*
X215551579Y-76066600D01*
X216411531Y-76066600D01*
X216455000Y-76070881D01*
X216498469Y-76066600D01*
X216498477Y-76066600D01*
X216628490Y-76053795D01*
X216795313Y-76003189D01*
X216949059Y-75921011D01*
X217083817Y-75810417D01*
X217111534Y-75776644D01*
X218263026Y-74625153D01*
X218377744Y-74701805D01*
G37*
%TD.AperFunction*%
D24*
X228986998Y-70938269D02*
X229119749Y-71071020D01*
X228986998Y-71203771D01*
X228923635Y-71298600D01*
X226128369Y-71298600D01*
X226110623Y-71276977D01*
X225977942Y-71168088D01*
X225945169Y-71150571D01*
X225953567Y-71148023D01*
X226104942Y-71067112D01*
X226237623Y-70958223D01*
X226255369Y-70936600D01*
X228985883Y-70936600D01*
X228986998Y-70938269D01*
%TA.AperFunction,Conductor*%
D25*
G36*
X228986998Y-70938269D02*
G01*
X229119749Y-71071020D01*
X228986998Y-71203771D01*
X228923635Y-71298600D01*
X226128369Y-71298600D01*
X226110623Y-71276977D01*
X225977942Y-71168088D01*
X225945169Y-71150571D01*
X225953567Y-71148023D01*
X226104942Y-71067112D01*
X226237623Y-70958223D01*
X226255369Y-70936600D01*
X228985883Y-70936600D01*
X228986998Y-70938269D01*
G37*
%TD.AperFunction*%
D24*
X228677670Y-67651487D02*
X228730917Y-67919176D01*
X228835364Y-68171333D01*
X228986998Y-68398269D01*
X229179991Y-68591262D01*
X229406927Y-68742896D01*
X229508623Y-68785020D01*
X229406927Y-68827144D01*
X229179991Y-68978778D01*
X228986998Y-69171771D01*
X228923635Y-69266600D01*
X227025178Y-69266600D01*
X227703332Y-68588447D01*
X227703336Y-68588442D01*
X228677670Y-67614109D01*
X228677670Y-67651487D01*
%TA.AperFunction,Conductor*%
D25*
G36*
X228677670Y-67651487D02*
G01*
X228730917Y-67919176D01*
X228835364Y-68171333D01*
X228986998Y-68398269D01*
X229179991Y-68591262D01*
X229406927Y-68742896D01*
X229508623Y-68785020D01*
X229406927Y-68827144D01*
X229179991Y-68978778D01*
X228986998Y-69171771D01*
X228923635Y-69266600D01*
X227025178Y-69266600D01*
X227703332Y-68588447D01*
X227703336Y-68588442D01*
X228677670Y-67614109D01*
X228677670Y-67651487D01*
G37*
%TD.AperFunction*%
D24*
X229836400Y-35557850D02*
X229995150Y-35716600D01*
X233244400Y-35716600D01*
X233244400Y-35696600D01*
X233498400Y-35696600D01*
X233498400Y-35716600D01*
X233518400Y-35716600D01*
X233518400Y-35970600D01*
X233498400Y-35970600D01*
X233498400Y-39219850D01*
X233657150Y-39378600D01*
X235650181Y-39380942D01*
X235650180Y-50653600D01*
X232997419Y-50653600D01*
X232965000Y-50650407D01*
X232932581Y-50653600D01*
X232835617Y-50663150D01*
X232711207Y-50700890D01*
X232596550Y-50762175D01*
X232496052Y-50844652D01*
X232413575Y-50945150D01*
X232352290Y-51059807D01*
X232314550Y-51184217D01*
X232309627Y-51234200D01*
X232161711Y-51234200D01*
X231981071Y-51270132D01*
X231810911Y-51340614D01*
X231657772Y-51442938D01*
X231618800Y-51481910D01*
X231579828Y-51442938D01*
X231426689Y-51340614D01*
X231256529Y-51270132D01*
X231075889Y-51234200D01*
X230891711Y-51234200D01*
X230711071Y-51270132D01*
X230540911Y-51340614D01*
X230387772Y-51442938D01*
X230348800Y-51481910D01*
X230309828Y-51442938D01*
X230156689Y-51340614D01*
X229986529Y-51270132D01*
X229805889Y-51234200D01*
X229621711Y-51234200D01*
X229441071Y-51270132D01*
X229270911Y-51340614D01*
X229117772Y-51442938D01*
X229078800Y-51481910D01*
X229039828Y-51442938D01*
X228886689Y-51340614D01*
X228716529Y-51270132D01*
X228535889Y-51234200D01*
X228351711Y-51234200D01*
X228171071Y-51270132D01*
X228000911Y-51340614D01*
X227847772Y-51442938D01*
X227808800Y-51481910D01*
X227769828Y-51442938D01*
X227616689Y-51340614D01*
X227446529Y-51270132D01*
X227265889Y-51234200D01*
X227092573Y-51234200D01*
X227087650Y-51184217D01*
X227049910Y-51059807D01*
X226988625Y-50945150D01*
X226906148Y-50844652D01*
X226805650Y-50762175D01*
X226690993Y-50700890D01*
X226566583Y-50663150D01*
X226469619Y-50653600D01*
X226437200Y-50650407D01*
X226404781Y-50653600D01*
X216208019Y-50653600D01*
X216175600Y-50650407D01*
X216143181Y-50653600D01*
X216046217Y-50663150D01*
X215921807Y-50700890D01*
X215807150Y-50762175D01*
X215706652Y-50844652D01*
X215624175Y-50945150D01*
X215562890Y-51059807D01*
X215525150Y-51184217D01*
X215520227Y-51234200D01*
X215372311Y-51234200D01*
X215191671Y-51270132D01*
X215021511Y-51340614D01*
X214868372Y-51442938D01*
X214829400Y-51481910D01*
X214790428Y-51442938D01*
X214637289Y-51340614D01*
X214467129Y-51270132D01*
X214286489Y-51234200D01*
X214102311Y-51234200D01*
X213921671Y-51270132D01*
X213751511Y-51340614D01*
X213598372Y-51442938D01*
X213559400Y-51481910D01*
X213520428Y-51442938D01*
X213367289Y-51340614D01*
X213197129Y-51270132D01*
X213016489Y-51234200D01*
X212832311Y-51234200D01*
X212651671Y-51270132D01*
X212481511Y-51340614D01*
X212328372Y-51442938D01*
X212289400Y-51481910D01*
X212250428Y-51442938D01*
X212097289Y-51340614D01*
X211927129Y-51270132D01*
X211746489Y-51234200D01*
X211562311Y-51234200D01*
X211381671Y-51270132D01*
X211211511Y-51340614D01*
X211058372Y-51442938D01*
X211019400Y-51481910D01*
X210980428Y-51442938D01*
X210827289Y-51340614D01*
X210657129Y-51270132D01*
X210476489Y-51234200D01*
X210303173Y-51234200D01*
X210298250Y-51184217D01*
X210260510Y-51059807D01*
X210199225Y-50945150D01*
X210116748Y-50844652D01*
X210016250Y-50762175D01*
X209901593Y-50700890D01*
X209777183Y-50663150D01*
X209680219Y-50653600D01*
X209647800Y-50650407D01*
X209615381Y-50653600D01*
X206958800Y-50653600D01*
X206958800Y-45475819D01*
X206961993Y-45443400D01*
X206950332Y-45325007D01*
X206948072Y-42576916D01*
X206949093Y-42573566D01*
X206949132Y-42573171D01*
X206949250Y-42572783D01*
X206955635Y-42507959D01*
X206958760Y-42476613D01*
X206958760Y-42476221D01*
X206961993Y-42443400D01*
X206958839Y-42411372D01*
X206962488Y-39380901D01*
X208920490Y-39378600D01*
X209079240Y-39219850D01*
X209079240Y-35970600D01*
X209333240Y-35970600D01*
X209333240Y-39219850D01*
X209491990Y-39378600D01*
X212106240Y-39381672D01*
X212230722Y-39369412D01*
X212350420Y-39333102D01*
X212460734Y-39274137D01*
X212557425Y-39194785D01*
X212636777Y-39098094D01*
X212695742Y-38987780D01*
X212732052Y-38868082D01*
X212744312Y-38743600D01*
X229833328Y-38743600D01*
X229845588Y-38868082D01*
X229881898Y-38987780D01*
X229940863Y-39098094D01*
X230020215Y-39194785D01*
X230116906Y-39274137D01*
X230227220Y-39333102D01*
X230346918Y-39369412D01*
X230471400Y-39381672D01*
X233085650Y-39378600D01*
X233244400Y-39219850D01*
X233244400Y-35970600D01*
X229995150Y-35970600D01*
X229836400Y-36129350D01*
X229833328Y-38743600D01*
X212744312Y-38743600D01*
X212741240Y-36129350D01*
X212582490Y-35970600D01*
X209333240Y-35970600D01*
X209079240Y-35970600D01*
X209059240Y-35970600D01*
X209059240Y-35716600D01*
X209079240Y-35716600D01*
X209079240Y-35696600D01*
X209333240Y-35696600D01*
X209333240Y-35716600D01*
X212582490Y-35716600D01*
X212741240Y-35557850D01*
X212743536Y-33603600D01*
X229834104Y-33603600D01*
X229836400Y-35557850D01*
%TA.AperFunction,Conductor*%
D25*
G36*
X229836400Y-35557850D02*
G01*
X229995150Y-35716600D01*
X233244400Y-35716600D01*
X233244400Y-35696600D01*
X233498400Y-35696600D01*
X233498400Y-35716600D01*
X233518400Y-35716600D01*
X233518400Y-35970600D01*
X233498400Y-35970600D01*
X233498400Y-39219850D01*
X233657150Y-39378600D01*
X235650181Y-39380942D01*
X235650180Y-50653600D01*
X232997419Y-50653600D01*
X232965000Y-50650407D01*
X232932581Y-50653600D01*
X232835617Y-50663150D01*
X232711207Y-50700890D01*
X232596550Y-50762175D01*
X232496052Y-50844652D01*
X232413575Y-50945150D01*
X232352290Y-51059807D01*
X232314550Y-51184217D01*
X232309627Y-51234200D01*
X232161711Y-51234200D01*
X231981071Y-51270132D01*
X231810911Y-51340614D01*
X231657772Y-51442938D01*
X231618800Y-51481910D01*
X231579828Y-51442938D01*
X231426689Y-51340614D01*
X231256529Y-51270132D01*
X231075889Y-51234200D01*
X230891711Y-51234200D01*
X230711071Y-51270132D01*
X230540911Y-51340614D01*
X230387772Y-51442938D01*
X230348800Y-51481910D01*
X230309828Y-51442938D01*
X230156689Y-51340614D01*
X229986529Y-51270132D01*
X229805889Y-51234200D01*
X229621711Y-51234200D01*
X229441071Y-51270132D01*
X229270911Y-51340614D01*
X229117772Y-51442938D01*
X229078800Y-51481910D01*
X229039828Y-51442938D01*
X228886689Y-51340614D01*
X228716529Y-51270132D01*
X228535889Y-51234200D01*
X228351711Y-51234200D01*
X228171071Y-51270132D01*
X228000911Y-51340614D01*
X227847772Y-51442938D01*
X227808800Y-51481910D01*
X227769828Y-51442938D01*
X227616689Y-51340614D01*
X227446529Y-51270132D01*
X227265889Y-51234200D01*
X227092573Y-51234200D01*
X227087650Y-51184217D01*
X227049910Y-51059807D01*
X226988625Y-50945150D01*
X226906148Y-50844652D01*
X226805650Y-50762175D01*
X226690993Y-50700890D01*
X226566583Y-50663150D01*
X226469619Y-50653600D01*
X226437200Y-50650407D01*
X226404781Y-50653600D01*
X216208019Y-50653600D01*
X216175600Y-50650407D01*
X216143181Y-50653600D01*
X216046217Y-50663150D01*
X215921807Y-50700890D01*
X215807150Y-50762175D01*
X215706652Y-50844652D01*
X215624175Y-50945150D01*
X215562890Y-51059807D01*
X215525150Y-51184217D01*
X215520227Y-51234200D01*
X215372311Y-51234200D01*
X215191671Y-51270132D01*
X215021511Y-51340614D01*
X214868372Y-51442938D01*
X214829400Y-51481910D01*
X214790428Y-51442938D01*
X214637289Y-51340614D01*
X214467129Y-51270132D01*
X214286489Y-51234200D01*
X214102311Y-51234200D01*
X213921671Y-51270132D01*
X213751511Y-51340614D01*
X213598372Y-51442938D01*
X213559400Y-51481910D01*
X213520428Y-51442938D01*
X213367289Y-51340614D01*
X213197129Y-51270132D01*
X213016489Y-51234200D01*
X212832311Y-51234200D01*
X212651671Y-51270132D01*
X212481511Y-51340614D01*
X212328372Y-51442938D01*
X212289400Y-51481910D01*
X212250428Y-51442938D01*
X212097289Y-51340614D01*
X211927129Y-51270132D01*
X211746489Y-51234200D01*
X211562311Y-51234200D01*
X211381671Y-51270132D01*
X211211511Y-51340614D01*
X211058372Y-51442938D01*
X211019400Y-51481910D01*
X210980428Y-51442938D01*
X210827289Y-51340614D01*
X210657129Y-51270132D01*
X210476489Y-51234200D01*
X210303173Y-51234200D01*
X210298250Y-51184217D01*
X210260510Y-51059807D01*
X210199225Y-50945150D01*
X210116748Y-50844652D01*
X210016250Y-50762175D01*
X209901593Y-50700890D01*
X209777183Y-50663150D01*
X209680219Y-50653600D01*
X209647800Y-50650407D01*
X209615381Y-50653600D01*
X206958800Y-50653600D01*
X206958800Y-45475819D01*
X206961993Y-45443400D01*
X206950332Y-45325007D01*
X206948072Y-42576916D01*
X206949093Y-42573566D01*
X206949132Y-42573171D01*
X206949250Y-42572783D01*
X206955635Y-42507959D01*
X206958760Y-42476613D01*
X206958760Y-42476221D01*
X206961993Y-42443400D01*
X206958839Y-42411372D01*
X206962488Y-39380901D01*
X208920490Y-39378600D01*
X209079240Y-39219850D01*
X209079240Y-35970600D01*
X209333240Y-35970600D01*
X209333240Y-39219850D01*
X209491990Y-39378600D01*
X212106240Y-39381672D01*
X212230722Y-39369412D01*
X212350420Y-39333102D01*
X212460734Y-39274137D01*
X212557425Y-39194785D01*
X212636777Y-39098094D01*
X212695742Y-38987780D01*
X212732052Y-38868082D01*
X212744312Y-38743600D01*
X229833328Y-38743600D01*
X229845588Y-38868082D01*
X229881898Y-38987780D01*
X229940863Y-39098094D01*
X230020215Y-39194785D01*
X230116906Y-39274137D01*
X230227220Y-39333102D01*
X230346918Y-39369412D01*
X230471400Y-39381672D01*
X233085650Y-39378600D01*
X233244400Y-39219850D01*
X233244400Y-35970600D01*
X229995150Y-35970600D01*
X229836400Y-36129350D01*
X229833328Y-38743600D01*
X212744312Y-38743600D01*
X212741240Y-36129350D01*
X212582490Y-35970600D01*
X209333240Y-35970600D01*
X209079240Y-35970600D01*
X209059240Y-35970600D01*
X209059240Y-35716600D01*
X209079240Y-35716600D01*
X209079240Y-35696600D01*
X209333240Y-35696600D01*
X209333240Y-35716600D01*
X212582490Y-35716600D01*
X212741240Y-35557850D01*
X212743536Y-33603600D01*
X229834104Y-33603600D01*
X229836400Y-35557850D01*
G37*
%TD.AperFunction*%
%TD*%
M02*
