%TF.GenerationSoftware,KiCad,Pcbnew,(5.1.9)-1*%
%TF.CreationDate,2021-06-29T00:03:32+02:00*%
%TF.ProjectId,mPCIE_to_CAN,6d504349-455f-4746-9f5f-43414e2e6b69,rev?*%
%TF.SameCoordinates,Original*%
%TF.FileFunction,Paste,Bot*%
%TF.FilePolarity,Positive*%
%FSLAX46Y46*%
G04 Gerber Fmt 4.6, Leading zero omitted, Abs format (unit mm)*
G04 Created by KiCad (PCBNEW (5.1.9)-1) date 2021-06-29 00:03:32*
%MOMM*%
%LPD*%
G01*
G04 APERTURE LIST*
%ADD10R,1.550000X0.600000*%
%ADD11R,1.800000X1.200000*%
%ADD12R,0.600000X2.300000*%
G04 APERTURE END LIST*
%TO.C,R3*%
G36*
G01*
X218122500Y-69539800D02*
X218597500Y-69539800D01*
G75*
G02*
X218835000Y-69777300I0J-237500D01*
G01*
X218835000Y-70277300D01*
G75*
G02*
X218597500Y-70514800I-237500J0D01*
G01*
X218122500Y-70514800D01*
G75*
G02*
X217885000Y-70277300I0J237500D01*
G01*
X217885000Y-69777300D01*
G75*
G02*
X218122500Y-69539800I237500J0D01*
G01*
G37*
G36*
G01*
X218122500Y-71364800D02*
X218597500Y-71364800D01*
G75*
G02*
X218835000Y-71602300I0J-237500D01*
G01*
X218835000Y-72102300D01*
G75*
G02*
X218597500Y-72339800I-237500J0D01*
G01*
X218122500Y-72339800D01*
G75*
G02*
X217885000Y-72102300I0J237500D01*
G01*
X217885000Y-71602300D01*
G75*
G02*
X218122500Y-71364800I237500J0D01*
G01*
G37*
%TD*%
D10*
%TO.C,J2*%
X212137000Y-63751600D03*
X212137000Y-62751600D03*
D11*
X208262000Y-61451600D03*
X208262000Y-65051600D03*
%TD*%
%TO.C,R2*%
G36*
G01*
X225729000Y-71896100D02*
X225729000Y-72371100D01*
G75*
G02*
X225491500Y-72608600I-237500J0D01*
G01*
X224991500Y-72608600D01*
G75*
G02*
X224754000Y-72371100I0J237500D01*
G01*
X224754000Y-71896100D01*
G75*
G02*
X224991500Y-71658600I237500J0D01*
G01*
X225491500Y-71658600D01*
G75*
G02*
X225729000Y-71896100I0J-237500D01*
G01*
G37*
G36*
G01*
X223904000Y-71896100D02*
X223904000Y-72371100D01*
G75*
G02*
X223666500Y-72608600I-237500J0D01*
G01*
X223166500Y-72608600D01*
G75*
G02*
X222929000Y-72371100I0J237500D01*
G01*
X222929000Y-71896100D01*
G75*
G02*
X223166500Y-71658600I237500J0D01*
G01*
X223666500Y-71658600D01*
G75*
G02*
X223904000Y-71896100I0J-237500D01*
G01*
G37*
%TD*%
%TO.C,R4*%
G36*
G01*
X219683800Y-62218700D02*
X219683800Y-62693700D01*
G75*
G02*
X219446300Y-62931200I-237500J0D01*
G01*
X218946300Y-62931200D01*
G75*
G02*
X218708800Y-62693700I0J237500D01*
G01*
X218708800Y-62218700D01*
G75*
G02*
X218946300Y-61981200I237500J0D01*
G01*
X219446300Y-61981200D01*
G75*
G02*
X219683800Y-62218700I0J-237500D01*
G01*
G37*
G36*
G01*
X217858800Y-62218700D02*
X217858800Y-62693700D01*
G75*
G02*
X217621300Y-62931200I-237500J0D01*
G01*
X217121300Y-62931200D01*
G75*
G02*
X216883800Y-62693700I0J237500D01*
G01*
X216883800Y-62218700D01*
G75*
G02*
X217121300Y-61981200I237500J0D01*
G01*
X217621300Y-61981200D01*
G75*
G02*
X217858800Y-62218700I0J-237500D01*
G01*
G37*
%TD*%
%TO.C,R1*%
G36*
G01*
X225856000Y-69864100D02*
X225856000Y-70339100D01*
G75*
G02*
X225618500Y-70576600I-237500J0D01*
G01*
X225118500Y-70576600D01*
G75*
G02*
X224881000Y-70339100I0J237500D01*
G01*
X224881000Y-69864100D01*
G75*
G02*
X225118500Y-69626600I237500J0D01*
G01*
X225618500Y-69626600D01*
G75*
G02*
X225856000Y-69864100I0J-237500D01*
G01*
G37*
G36*
G01*
X224031000Y-69864100D02*
X224031000Y-70339100D01*
G75*
G02*
X223793500Y-70576600I-237500J0D01*
G01*
X223293500Y-70576600D01*
G75*
G02*
X223056000Y-70339100I0J237500D01*
G01*
X223056000Y-69864100D01*
G75*
G02*
X223293500Y-69626600I237500J0D01*
G01*
X223793500Y-69626600D01*
G75*
G02*
X224031000Y-69864100I0J-237500D01*
G01*
G37*
%TD*%
D12*
%TO.C,J1*%
X215509000Y-82493800D03*
X219509000Y-82493800D03*
X214709000Y-82493800D03*
X213909000Y-82493800D03*
X213109000Y-82493800D03*
X212309000Y-82493800D03*
X211509000Y-82493800D03*
X210709000Y-82493800D03*
X209909000Y-82493800D03*
X220309000Y-82493800D03*
X221109000Y-82493800D03*
X221909000Y-82493800D03*
X222709000Y-82493800D03*
X223509000Y-82493800D03*
X224309000Y-82493800D03*
X225109000Y-82493800D03*
X225909000Y-82493800D03*
X226709000Y-82493800D03*
X227509000Y-82493800D03*
X228309000Y-82493800D03*
X229109000Y-82493800D03*
X229909000Y-82493800D03*
X230709000Y-82493800D03*
X231509000Y-82493800D03*
X232309000Y-82493800D03*
X233109000Y-82493800D03*
%TD*%
%TO.C,R4*%
G36*
G01*
X182759800Y-62221100D02*
X182759800Y-62696100D01*
G75*
G02*
X182522300Y-62933600I-237500J0D01*
G01*
X182022300Y-62933600D01*
G75*
G02*
X181784800Y-62696100I0J237500D01*
G01*
X181784800Y-62221100D01*
G75*
G02*
X182022300Y-61983600I237500J0D01*
G01*
X182522300Y-61983600D01*
G75*
G02*
X182759800Y-62221100I0J-237500D01*
G01*
G37*
G36*
G01*
X184584800Y-62221100D02*
X184584800Y-62696100D01*
G75*
G02*
X184347300Y-62933600I-237500J0D01*
G01*
X183847300Y-62933600D01*
G75*
G02*
X183609800Y-62696100I0J237500D01*
G01*
X183609800Y-62221100D01*
G75*
G02*
X183847300Y-61983600I237500J0D01*
G01*
X184347300Y-61983600D01*
G75*
G02*
X184584800Y-62221100I0J-237500D01*
G01*
G37*
%TD*%
%TO.C,R3*%
G36*
G01*
X183023500Y-71367200D02*
X183498500Y-71367200D01*
G75*
G02*
X183736000Y-71604700I0J-237500D01*
G01*
X183736000Y-72104700D01*
G75*
G02*
X183498500Y-72342200I-237500J0D01*
G01*
X183023500Y-72342200D01*
G75*
G02*
X182786000Y-72104700I0J237500D01*
G01*
X182786000Y-71604700D01*
G75*
G02*
X183023500Y-71367200I237500J0D01*
G01*
G37*
G36*
G01*
X183023500Y-69542200D02*
X183498500Y-69542200D01*
G75*
G02*
X183736000Y-69779700I0J-237500D01*
G01*
X183736000Y-70279700D01*
G75*
G02*
X183498500Y-70517200I-237500J0D01*
G01*
X183023500Y-70517200D01*
G75*
G02*
X182786000Y-70279700I0J237500D01*
G01*
X182786000Y-69779700D01*
G75*
G02*
X183023500Y-69542200I237500J0D01*
G01*
G37*
%TD*%
D11*
%TO.C,J2*%
X173163000Y-65054000D03*
X173163000Y-61454000D03*
D10*
X177038000Y-62754000D03*
X177038000Y-63754000D03*
%TD*%
%TO.C,R2*%
G36*
G01*
X188805000Y-71898500D02*
X188805000Y-72373500D01*
G75*
G02*
X188567500Y-72611000I-237500J0D01*
G01*
X188067500Y-72611000D01*
G75*
G02*
X187830000Y-72373500I0J237500D01*
G01*
X187830000Y-71898500D01*
G75*
G02*
X188067500Y-71661000I237500J0D01*
G01*
X188567500Y-71661000D01*
G75*
G02*
X188805000Y-71898500I0J-237500D01*
G01*
G37*
G36*
G01*
X190630000Y-71898500D02*
X190630000Y-72373500D01*
G75*
G02*
X190392500Y-72611000I-237500J0D01*
G01*
X189892500Y-72611000D01*
G75*
G02*
X189655000Y-72373500I0J237500D01*
G01*
X189655000Y-71898500D01*
G75*
G02*
X189892500Y-71661000I237500J0D01*
G01*
X190392500Y-71661000D01*
G75*
G02*
X190630000Y-71898500I0J-237500D01*
G01*
G37*
%TD*%
%TO.C,R1*%
G36*
G01*
X188932000Y-69866500D02*
X188932000Y-70341500D01*
G75*
G02*
X188694500Y-70579000I-237500J0D01*
G01*
X188194500Y-70579000D01*
G75*
G02*
X187957000Y-70341500I0J237500D01*
G01*
X187957000Y-69866500D01*
G75*
G02*
X188194500Y-69629000I237500J0D01*
G01*
X188694500Y-69629000D01*
G75*
G02*
X188932000Y-69866500I0J-237500D01*
G01*
G37*
G36*
G01*
X190757000Y-69866500D02*
X190757000Y-70341500D01*
G75*
G02*
X190519500Y-70579000I-237500J0D01*
G01*
X190019500Y-70579000D01*
G75*
G02*
X189782000Y-70341500I0J237500D01*
G01*
X189782000Y-69866500D01*
G75*
G02*
X190019500Y-69629000I237500J0D01*
G01*
X190519500Y-69629000D01*
G75*
G02*
X190757000Y-69866500I0J-237500D01*
G01*
G37*
%TD*%
D12*
%TO.C,J1*%
X198010000Y-82496200D03*
X197210000Y-82496200D03*
X196410000Y-82496200D03*
X195610000Y-82496200D03*
X194810000Y-82496200D03*
X194010000Y-82496200D03*
X193210000Y-82496200D03*
X192410000Y-82496200D03*
X191610000Y-82496200D03*
X190810000Y-82496200D03*
X190010000Y-82496200D03*
X189210000Y-82496200D03*
X188410000Y-82496200D03*
X187610000Y-82496200D03*
X186810000Y-82496200D03*
X186010000Y-82496200D03*
X185210000Y-82496200D03*
X174810000Y-82496200D03*
X175610000Y-82496200D03*
X176410000Y-82496200D03*
X177210000Y-82496200D03*
X178010000Y-82496200D03*
X178810000Y-82496200D03*
X179610000Y-82496200D03*
X184410000Y-82496200D03*
X180410000Y-82496200D03*
%TD*%
M02*
