%TF.GenerationSoftware,KiCad,Pcbnew,(5.1.9)-1*%
%TF.CreationDate,2021-06-29T00:03:32+02:00*%
%TF.ProjectId,mPCIE_to_CAN,6d504349-455f-4746-9f5f-43414e2e6b69,rev?*%
%TF.SameCoordinates,Original*%
%TF.FileFunction,Legend,Top*%
%TF.FilePolarity,Positive*%
%FSLAX46Y46*%
G04 Gerber Fmt 4.6, Leading zero omitted, Abs format (unit mm)*
G04 Created by KiCad (PCBNEW (5.1.9)-1) date 2021-06-29 00:03:32*
%MOMM*%
%LPD*%
G01*
G04 APERTURE LIST*
%ADD10C,0.120000*%
%ADD11C,0.150000*%
G04 APERTURE END LIST*
D10*
%TO.C,J3*%
X209556200Y-62764400D02*
X209556200Y-53664400D01*
X209556200Y-62764400D02*
X229856200Y-62764400D01*
X209556200Y-53664400D02*
X229856200Y-53664400D01*
X229856200Y-62764400D02*
X229856200Y-53664400D01*
X218436200Y-62024400D02*
X220976200Y-62024400D01*
X220976200Y-62024400D02*
X220976200Y-62764400D01*
X218436200Y-62024400D02*
X218436200Y-62764400D01*
%TO.C,U1*%
X208413360Y-78183880D02*
X208413360Y-63583880D01*
X208413360Y-78183880D02*
X235013360Y-78183880D01*
X235013360Y-78183880D02*
X235013360Y-63583880D01*
X208413360Y-63583880D02*
X235013360Y-63583880D01*
%TO.C,J3*%
X183337200Y-62026800D02*
X183337200Y-62766800D01*
X185877200Y-62026800D02*
X185877200Y-62766800D01*
X183337200Y-62026800D02*
X185877200Y-62026800D01*
X194757200Y-62766800D02*
X194757200Y-53666800D01*
X174457200Y-53666800D02*
X194757200Y-53666800D01*
X174457200Y-62766800D02*
X194757200Y-62766800D01*
X174457200Y-62766800D02*
X174457200Y-53666800D01*
%TO.C,U1*%
X173314360Y-63586280D02*
X199914360Y-63586280D01*
X199914360Y-78186280D02*
X199914360Y-63586280D01*
X173314360Y-78186280D02*
X199914360Y-78186280D01*
X173314360Y-78186280D02*
X173314360Y-63586280D01*
%TO.C,J3*%
D11*
X208095266Y-60790980D02*
X208095266Y-61505266D01*
X208047647Y-61648123D01*
X207952409Y-61743361D01*
X207809552Y-61790980D01*
X207714314Y-61790980D01*
X208476219Y-60790980D02*
X209095266Y-60790980D01*
X208761933Y-61171933D01*
X208904790Y-61171933D01*
X209000028Y-61219552D01*
X209047647Y-61267171D01*
X209095266Y-61362409D01*
X209095266Y-61600504D01*
X209047647Y-61695742D01*
X209000028Y-61743361D01*
X208904790Y-61790980D01*
X208619076Y-61790980D01*
X208523838Y-61743361D01*
X208476219Y-61695742D01*
%TO.C,U1*%
X206625295Y-75243580D02*
X206625295Y-76053104D01*
X206672914Y-76148342D01*
X206720533Y-76195961D01*
X206815771Y-76243580D01*
X207006247Y-76243580D01*
X207101485Y-76195961D01*
X207149104Y-76148342D01*
X207196723Y-76053104D01*
X207196723Y-75243580D01*
X208196723Y-76243580D02*
X207625295Y-76243580D01*
X207911009Y-76243580D02*
X207911009Y-75243580D01*
X207815771Y-75386438D01*
X207720533Y-75481676D01*
X207625295Y-75529295D01*
%TO.C,J1*%
X213200666Y-76411980D02*
X213200666Y-77126266D01*
X213153047Y-77269123D01*
X213057809Y-77364361D01*
X212914952Y-77411980D01*
X212819714Y-77411980D01*
X214200666Y-77411980D02*
X213629238Y-77411980D01*
X213914952Y-77411980D02*
X213914952Y-76411980D01*
X213819714Y-76554838D01*
X213724476Y-76650076D01*
X213629238Y-76697695D01*
%TO.C,J3*%
X172996266Y-60793380D02*
X172996266Y-61507666D01*
X172948647Y-61650523D01*
X172853409Y-61745761D01*
X172710552Y-61793380D01*
X172615314Y-61793380D01*
X173377219Y-60793380D02*
X173996266Y-60793380D01*
X173662933Y-61174333D01*
X173805790Y-61174333D01*
X173901028Y-61221952D01*
X173948647Y-61269571D01*
X173996266Y-61364809D01*
X173996266Y-61602904D01*
X173948647Y-61698142D01*
X173901028Y-61745761D01*
X173805790Y-61793380D01*
X173520076Y-61793380D01*
X173424838Y-61745761D01*
X173377219Y-61698142D01*
%TO.C,U1*%
X171526295Y-75245980D02*
X171526295Y-76055504D01*
X171573914Y-76150742D01*
X171621533Y-76198361D01*
X171716771Y-76245980D01*
X171907247Y-76245980D01*
X172002485Y-76198361D01*
X172050104Y-76150742D01*
X172097723Y-76055504D01*
X172097723Y-75245980D01*
X173097723Y-76245980D02*
X172526295Y-76245980D01*
X172812009Y-76245980D02*
X172812009Y-75245980D01*
X172716771Y-75388838D01*
X172621533Y-75484076D01*
X172526295Y-75531695D01*
%TO.C,J1*%
X178101666Y-76414380D02*
X178101666Y-77128666D01*
X178054047Y-77271523D01*
X177958809Y-77366761D01*
X177815952Y-77414380D01*
X177720714Y-77414380D01*
X179101666Y-77414380D02*
X178530238Y-77414380D01*
X178815952Y-77414380D02*
X178815952Y-76414380D01*
X178720714Y-76557238D01*
X178625476Y-76652476D01*
X178530238Y-76700095D01*
%TD*%
M02*
