%TF.GenerationSoftware,KiCad,Pcbnew,(5.1.9)-1*%
%TF.CreationDate,2021-06-29T00:03:32+02:00*%
%TF.ProjectId,mPCIE_to_CAN,6d504349-455f-4746-9f5f-43414e2e6b69,rev?*%
%TF.SameCoordinates,Original*%
%TF.FileFunction,Legend,Bot*%
%TF.FilePolarity,Positive*%
%FSLAX46Y46*%
G04 Gerber Fmt 4.6, Leading zero omitted, Abs format (unit mm)*
G04 Created by KiCad (PCBNEW (5.1.9)-1) date 2021-06-29 00:03:32*
%MOMM*%
%LPD*%
G01*
G04 APERTURE LIST*
%ADD10C,0.120000*%
%ADD11C,0.150000*%
G04 APERTURE END LIST*
D10*
%TO.C,R3*%
X217837500Y-70685076D02*
X217837500Y-71194524D01*
X218882500Y-70685076D02*
X218882500Y-71194524D01*
%TO.C,J2*%
X212162400Y-61186200D02*
X212162400Y-62202200D01*
X209368400Y-61186200D02*
X212162400Y-61186200D01*
X207590400Y-64234200D02*
X207590400Y-62202200D01*
X212162400Y-65250200D02*
X209368400Y-65250200D01*
X212162400Y-64234200D02*
X212162400Y-65250200D01*
%TO.C,R2*%
X224583724Y-72656100D02*
X224074276Y-72656100D01*
X224583724Y-71611100D02*
X224074276Y-71611100D01*
%TO.C,R4*%
X218538524Y-61933700D02*
X218029076Y-61933700D01*
X218538524Y-62978700D02*
X218029076Y-62978700D01*
%TO.C,R1*%
X224710724Y-70624100D02*
X224201276Y-70624100D01*
X224710724Y-69579100D02*
X224201276Y-69579100D01*
%TO.C,R4*%
X183439524Y-62981100D02*
X182930076Y-62981100D01*
X183439524Y-61936100D02*
X182930076Y-61936100D01*
%TO.C,R3*%
X183783500Y-70687476D02*
X183783500Y-71196924D01*
X182738500Y-70687476D02*
X182738500Y-71196924D01*
%TO.C,J2*%
X177063400Y-64236600D02*
X177063400Y-65252600D01*
X177063400Y-65252600D02*
X174269400Y-65252600D01*
X172491400Y-64236600D02*
X172491400Y-62204600D01*
X174269400Y-61188600D02*
X177063400Y-61188600D01*
X177063400Y-61188600D02*
X177063400Y-62204600D01*
%TO.C,R2*%
X189484724Y-71613500D02*
X188975276Y-71613500D01*
X189484724Y-72658500D02*
X188975276Y-72658500D01*
%TO.C,R1*%
X189611724Y-69581500D02*
X189102276Y-69581500D01*
X189611724Y-70626500D02*
X189102276Y-70626500D01*
%TO.C,R3*%
D11*
X217382380Y-70773133D02*
X216906190Y-70439800D01*
X217382380Y-70201704D02*
X216382380Y-70201704D01*
X216382380Y-70582657D01*
X216430000Y-70677895D01*
X216477619Y-70725514D01*
X216572857Y-70773133D01*
X216715714Y-70773133D01*
X216810952Y-70725514D01*
X216858571Y-70677895D01*
X216906190Y-70582657D01*
X216906190Y-70201704D01*
X216382380Y-71106466D02*
X216382380Y-71725514D01*
X216763333Y-71392180D01*
X216763333Y-71535038D01*
X216810952Y-71630276D01*
X216858571Y-71677895D01*
X216953809Y-71725514D01*
X217191904Y-71725514D01*
X217287142Y-71677895D01*
X217334761Y-71630276D01*
X217382380Y-71535038D01*
X217382380Y-71249323D01*
X217334761Y-71154085D01*
X217287142Y-71106466D01*
%TO.C,J2*%
X211987733Y-65718580D02*
X211987733Y-66432866D01*
X212035352Y-66575723D01*
X212130590Y-66670961D01*
X212273447Y-66718580D01*
X212368685Y-66718580D01*
X211559161Y-65813819D02*
X211511542Y-65766200D01*
X211416304Y-65718580D01*
X211178209Y-65718580D01*
X211082971Y-65766200D01*
X211035352Y-65813819D01*
X210987733Y-65909057D01*
X210987733Y-66004295D01*
X211035352Y-66147152D01*
X211606780Y-66718580D01*
X210987733Y-66718580D01*
%TO.C,R2*%
X221701666Y-72712980D02*
X222035000Y-72236790D01*
X222273095Y-72712980D02*
X222273095Y-71712980D01*
X221892142Y-71712980D01*
X221796904Y-71760600D01*
X221749285Y-71808219D01*
X221701666Y-71903457D01*
X221701666Y-72046314D01*
X221749285Y-72141552D01*
X221796904Y-72189171D01*
X221892142Y-72236790D01*
X222273095Y-72236790D01*
X221320714Y-71808219D02*
X221273095Y-71760600D01*
X221177857Y-71712980D01*
X220939761Y-71712980D01*
X220844523Y-71760600D01*
X220796904Y-71808219D01*
X220749285Y-71903457D01*
X220749285Y-71998695D01*
X220796904Y-72141552D01*
X221368333Y-72712980D01*
X220749285Y-72712980D01*
%TO.C,R4*%
X218450466Y-61478580D02*
X218783800Y-61002390D01*
X219021895Y-61478580D02*
X219021895Y-60478580D01*
X218640942Y-60478580D01*
X218545704Y-60526200D01*
X218498085Y-60573819D01*
X218450466Y-60669057D01*
X218450466Y-60811914D01*
X218498085Y-60907152D01*
X218545704Y-60954771D01*
X218640942Y-61002390D01*
X219021895Y-61002390D01*
X217593323Y-60811914D02*
X217593323Y-61478580D01*
X217831419Y-60430961D02*
X218069514Y-61145247D01*
X217450466Y-61145247D01*
%TO.C,R1*%
X221701666Y-70553980D02*
X222035000Y-70077790D01*
X222273095Y-70553980D02*
X222273095Y-69553980D01*
X221892142Y-69553980D01*
X221796904Y-69601600D01*
X221749285Y-69649219D01*
X221701666Y-69744457D01*
X221701666Y-69887314D01*
X221749285Y-69982552D01*
X221796904Y-70030171D01*
X221892142Y-70077790D01*
X222273095Y-70077790D01*
X220749285Y-70553980D02*
X221320714Y-70553980D01*
X221035000Y-70553980D02*
X221035000Y-69553980D01*
X221130238Y-69696838D01*
X221225476Y-69792076D01*
X221320714Y-69839695D01*
%TO.C,R4*%
X183351466Y-61480980D02*
X183684800Y-61004790D01*
X183922895Y-61480980D02*
X183922895Y-60480980D01*
X183541942Y-60480980D01*
X183446704Y-60528600D01*
X183399085Y-60576219D01*
X183351466Y-60671457D01*
X183351466Y-60814314D01*
X183399085Y-60909552D01*
X183446704Y-60957171D01*
X183541942Y-61004790D01*
X183922895Y-61004790D01*
X182494323Y-60814314D02*
X182494323Y-61480980D01*
X182732419Y-60433361D02*
X182970514Y-61147647D01*
X182351466Y-61147647D01*
%TO.C,R3*%
X182283380Y-70775533D02*
X181807190Y-70442200D01*
X182283380Y-70204104D02*
X181283380Y-70204104D01*
X181283380Y-70585057D01*
X181331000Y-70680295D01*
X181378619Y-70727914D01*
X181473857Y-70775533D01*
X181616714Y-70775533D01*
X181711952Y-70727914D01*
X181759571Y-70680295D01*
X181807190Y-70585057D01*
X181807190Y-70204104D01*
X181283380Y-71108866D02*
X181283380Y-71727914D01*
X181664333Y-71394580D01*
X181664333Y-71537438D01*
X181711952Y-71632676D01*
X181759571Y-71680295D01*
X181854809Y-71727914D01*
X182092904Y-71727914D01*
X182188142Y-71680295D01*
X182235761Y-71632676D01*
X182283380Y-71537438D01*
X182283380Y-71251723D01*
X182235761Y-71156485D01*
X182188142Y-71108866D01*
%TO.C,J2*%
X176888733Y-65720980D02*
X176888733Y-66435266D01*
X176936352Y-66578123D01*
X177031590Y-66673361D01*
X177174447Y-66720980D01*
X177269685Y-66720980D01*
X176460161Y-65816219D02*
X176412542Y-65768600D01*
X176317304Y-65720980D01*
X176079209Y-65720980D01*
X175983971Y-65768600D01*
X175936352Y-65816219D01*
X175888733Y-65911457D01*
X175888733Y-66006695D01*
X175936352Y-66149552D01*
X176507780Y-66720980D01*
X175888733Y-66720980D01*
%TO.C,R2*%
X186602666Y-72715380D02*
X186936000Y-72239190D01*
X187174095Y-72715380D02*
X187174095Y-71715380D01*
X186793142Y-71715380D01*
X186697904Y-71763000D01*
X186650285Y-71810619D01*
X186602666Y-71905857D01*
X186602666Y-72048714D01*
X186650285Y-72143952D01*
X186697904Y-72191571D01*
X186793142Y-72239190D01*
X187174095Y-72239190D01*
X186221714Y-71810619D02*
X186174095Y-71763000D01*
X186078857Y-71715380D01*
X185840761Y-71715380D01*
X185745523Y-71763000D01*
X185697904Y-71810619D01*
X185650285Y-71905857D01*
X185650285Y-72001095D01*
X185697904Y-72143952D01*
X186269333Y-72715380D01*
X185650285Y-72715380D01*
%TO.C,R1*%
X186602666Y-70556380D02*
X186936000Y-70080190D01*
X187174095Y-70556380D02*
X187174095Y-69556380D01*
X186793142Y-69556380D01*
X186697904Y-69604000D01*
X186650285Y-69651619D01*
X186602666Y-69746857D01*
X186602666Y-69889714D01*
X186650285Y-69984952D01*
X186697904Y-70032571D01*
X186793142Y-70080190D01*
X187174095Y-70080190D01*
X185650285Y-70556380D02*
X186221714Y-70556380D01*
X185936000Y-70556380D02*
X185936000Y-69556380D01*
X186031238Y-69699238D01*
X186126476Y-69794476D01*
X186221714Y-69842095D01*
%TD*%
M02*
